%TF.GenerationSoftware,KiCad,Pcbnew,9.0.2*%
%TF.CreationDate,2026-02-18T14:35:08-06:00*%
%TF.ProjectId,EE326 Webcam,45453332-3620-4576-9562-63616d2e6b69,rev?*%
%TF.SameCoordinates,Original*%
%TF.FileFunction,Legend,Bot*%
%TF.FilePolarity,Positive*%
%FSLAX46Y46*%
G04 Gerber Fmt 4.6, Leading zero omitted, Abs format (unit mm)*
G04 Created by KiCad (PCBNEW 9.0.2) date 2026-02-18 14:35:08*
%MOMM*%
%LPD*%
G01*
G04 APERTURE LIST*
%ADD10C,0.150000*%
%ADD11C,0.152400*%
%ADD12C,0.120000*%
G04 APERTURE END LIST*
D10*
X95964840Y-69964204D02*
X95155317Y-69964204D01*
X95155317Y-69964204D02*
X95060079Y-69916585D01*
X95060079Y-69916585D02*
X95012460Y-69868966D01*
X95012460Y-69868966D02*
X94964840Y-69773728D01*
X94964840Y-69773728D02*
X94964840Y-69583252D01*
X94964840Y-69583252D02*
X95012460Y-69488014D01*
X95012460Y-69488014D02*
X95060079Y-69440395D01*
X95060079Y-69440395D02*
X95155317Y-69392776D01*
X95155317Y-69392776D02*
X95964840Y-69392776D01*
X95869602Y-68964204D02*
X95917221Y-68916585D01*
X95917221Y-68916585D02*
X95964840Y-68821347D01*
X95964840Y-68821347D02*
X95964840Y-68583252D01*
X95964840Y-68583252D02*
X95917221Y-68488014D01*
X95917221Y-68488014D02*
X95869602Y-68440395D01*
X95869602Y-68440395D02*
X95774364Y-68392776D01*
X95774364Y-68392776D02*
X95679126Y-68392776D01*
X95679126Y-68392776D02*
X95536269Y-68440395D01*
X95536269Y-68440395D02*
X94964840Y-69011823D01*
X94964840Y-69011823D02*
X94964840Y-68392776D01*
X100134819Y-79336900D02*
X100372914Y-79336900D01*
X100277676Y-79098805D02*
X100372914Y-79336900D01*
X100372914Y-79336900D02*
X100277676Y-79574995D01*
X100563390Y-79194043D02*
X100372914Y-79336900D01*
X100372914Y-79336900D02*
X100563390Y-79479757D01*
X101225180Y-79336899D02*
X100987085Y-79336899D01*
X101082323Y-79574994D02*
X100987085Y-79336899D01*
X100987085Y-79336899D02*
X101082323Y-79098804D01*
X100796609Y-79479756D02*
X100987085Y-79336899D01*
X100987085Y-79336899D02*
X100796609Y-79194042D01*
X99166666Y-79879580D02*
X99214285Y-79927200D01*
X99214285Y-79927200D02*
X99357142Y-79974819D01*
X99357142Y-79974819D02*
X99452380Y-79974819D01*
X99452380Y-79974819D02*
X99595237Y-79927200D01*
X99595237Y-79927200D02*
X99690475Y-79831961D01*
X99690475Y-79831961D02*
X99738094Y-79736723D01*
X99738094Y-79736723D02*
X99785713Y-79546247D01*
X99785713Y-79546247D02*
X99785713Y-79403390D01*
X99785713Y-79403390D02*
X99738094Y-79212914D01*
X99738094Y-79212914D02*
X99690475Y-79117676D01*
X99690475Y-79117676D02*
X99595237Y-79022438D01*
X99595237Y-79022438D02*
X99452380Y-78974819D01*
X99452380Y-78974819D02*
X99357142Y-78974819D01*
X99357142Y-78974819D02*
X99214285Y-79022438D01*
X99214285Y-79022438D02*
X99166666Y-79070057D01*
X98690475Y-79974819D02*
X98499999Y-79974819D01*
X98499999Y-79974819D02*
X98404761Y-79927200D01*
X98404761Y-79927200D02*
X98357142Y-79879580D01*
X98357142Y-79879580D02*
X98261904Y-79736723D01*
X98261904Y-79736723D02*
X98214285Y-79546247D01*
X98214285Y-79546247D02*
X98214285Y-79165295D01*
X98214285Y-79165295D02*
X98261904Y-79070057D01*
X98261904Y-79070057D02*
X98309523Y-79022438D01*
X98309523Y-79022438D02*
X98404761Y-78974819D01*
X98404761Y-78974819D02*
X98595237Y-78974819D01*
X98595237Y-78974819D02*
X98690475Y-79022438D01*
X98690475Y-79022438D02*
X98738094Y-79070057D01*
X98738094Y-79070057D02*
X98785713Y-79165295D01*
X98785713Y-79165295D02*
X98785713Y-79403390D01*
X98785713Y-79403390D02*
X98738094Y-79498628D01*
X98738094Y-79498628D02*
X98690475Y-79546247D01*
X98690475Y-79546247D02*
X98595237Y-79593866D01*
X98595237Y-79593866D02*
X98404761Y-79593866D01*
X98404761Y-79593866D02*
X98309523Y-79546247D01*
X98309523Y-79546247D02*
X98261904Y-79498628D01*
X98261904Y-79498628D02*
X98214285Y-79403390D01*
D11*
%TO.C,U2*%
X108297460Y-78333600D02*
X101457240Y-78333600D01*
X108297460Y-60071000D02*
X108297460Y-78333600D01*
X101457240Y-60071000D02*
X108297460Y-60071000D01*
X83392760Y-78333600D02*
X82541860Y-78333600D01*
X82541860Y-78333600D02*
X82541860Y-75694540D01*
X82541860Y-62710060D02*
X82541860Y-60071000D01*
X82541860Y-60071000D02*
X83392760Y-60071000D01*
D12*
%TO.C,C9*%
X99261252Y-80465000D02*
X98738748Y-80465000D01*
X99261252Y-81935000D02*
X98738748Y-81935000D01*
%TD*%
M02*
