%TF.GenerationSoftware,KiCad,Pcbnew,9.0.2*%
%TF.CreationDate,2026-02-18T14:35:07-06:00*%
%TF.ProjectId,EE326 Webcam,45453332-3620-4576-9562-63616d2e6b69,rev?*%
%TF.SameCoordinates,Original*%
%TF.FileFunction,Paste,Top*%
%TF.FilePolarity,Positive*%
%FSLAX46Y46*%
G04 Gerber Fmt 4.6, Leading zero omitted, Abs format (unit mm)*
G04 Created by KiCad (PCBNEW 9.0.2) date 2026-02-18 14:35:07*
%MOMM*%
%LPD*%
G01*
G04 APERTURE LIST*
G04 Aperture macros list*
%AMRoundRect*
0 Rectangle with rounded corners*
0 $1 Rounding radius*
0 $2 $3 $4 $5 $6 $7 $8 $9 X,Y pos of 4 corners*
0 Add a 4 corners polygon primitive as box body*
4,1,4,$2,$3,$4,$5,$6,$7,$8,$9,$2,$3,0*
0 Add four circle primitives for the rounded corners*
1,1,$1+$1,$2,$3*
1,1,$1+$1,$4,$5*
1,1,$1+$1,$6,$7*
1,1,$1+$1,$8,$9*
0 Add four rect primitives between the rounded corners*
20,1,$1+$1,$2,$3,$4,$5,0*
20,1,$1+$1,$4,$5,$6,$7,0*
20,1,$1+$1,$6,$7,$8,$9,0*
20,1,$1+$1,$8,$9,$2,$3,0*%
G04 Aperture macros list end*
%ADD10C,0.000000*%
%ADD11R,2.000000X2.400000*%
%ADD12RoundRect,0.250000X-0.350000X-0.450000X0.350000X-0.450000X0.350000X0.450000X-0.350000X0.450000X0*%
%ADD13RoundRect,0.250000X0.450000X-0.350000X0.450000X0.350000X-0.450000X0.350000X-0.450000X-0.350000X0*%
%ADD14RoundRect,0.250000X-0.250000X-0.475000X0.250000X-0.475000X0.250000X0.475000X-0.250000X0.475000X0*%
%ADD15RoundRect,0.250000X0.250000X0.475000X-0.250000X0.475000X-0.250000X-0.475000X0.250000X-0.475000X0*%
%ADD16RoundRect,0.250000X0.350000X0.450000X-0.350000X0.450000X-0.350000X-0.450000X0.350000X-0.450000X0*%
%ADD17R,2.300000X3.100000*%
%ADD18RoundRect,0.250000X0.475000X-0.250000X0.475000X0.250000X-0.475000X0.250000X-0.475000X-0.250000X0*%
%ADD19RoundRect,0.250000X-0.475000X0.250000X-0.475000X-0.250000X0.475000X-0.250000X0.475000X0.250000X0*%
%ADD20RoundRect,0.237500X-0.237500X0.287500X-0.237500X-0.287500X0.237500X-0.287500X0.237500X0.287500X0*%
%ADD21RoundRect,0.116250X-0.348750X0.873750X-0.348750X-0.873750X0.348750X-0.873750X0.348750X0.873750X0*%
%ADD22RoundRect,0.247500X-1.367500X0.742500X-1.367500X-0.742500X1.367500X-0.742500X1.367500X0.742500X0*%
%ADD23R,1.900000X2.600000*%
%ADD24RoundRect,0.250000X-0.450000X0.350000X-0.450000X-0.350000X0.450000X-0.350000X0.450000X0.350000X0*%
%ADD25RoundRect,0.033750X-0.701250X-0.101250X0.701250X-0.101250X0.701250X0.101250X-0.701250X0.101250X0*%
%ADD26RoundRect,0.033750X-0.101250X-0.701250X0.101250X-0.701250X0.101250X0.701250X-0.101250X0.701250X0*%
%ADD27RoundRect,0.218750X0.218750X0.381250X-0.218750X0.381250X-0.218750X-0.381250X0.218750X-0.381250X0*%
G04 APERTURE END LIST*
D10*
%TO.C,J2*%
G36*
X58575000Y-99975000D02*
G01*
X58325000Y-99975000D01*
X58325000Y-98725000D01*
X58575000Y-98725000D01*
X58575000Y-99975000D01*
G37*
G36*
X59075000Y-99975000D02*
G01*
X58825000Y-99975000D01*
X58825000Y-98725000D01*
X59075000Y-98725000D01*
X59075000Y-99975000D01*
G37*
G36*
X59575000Y-99975000D02*
G01*
X59325000Y-99975000D01*
X59325000Y-98725000D01*
X59575000Y-98725000D01*
X59575000Y-99975000D01*
G37*
G36*
X60075000Y-99975000D02*
G01*
X59825000Y-99975000D01*
X59825000Y-98725000D01*
X60075000Y-98725000D01*
X60075000Y-99975000D01*
G37*
G36*
X60575000Y-99975000D02*
G01*
X60325000Y-99975000D01*
X60325000Y-98725000D01*
X60575000Y-98725000D01*
X60575000Y-99975000D01*
G37*
G36*
X61075000Y-99975000D02*
G01*
X60825000Y-99975000D01*
X60825000Y-98725000D01*
X61075000Y-98725000D01*
X61075000Y-99975000D01*
G37*
G36*
X61575000Y-99975000D02*
G01*
X61325000Y-99975000D01*
X61325000Y-98725000D01*
X61575000Y-98725000D01*
X61575000Y-99975000D01*
G37*
G36*
X62075000Y-99975000D02*
G01*
X61825000Y-99975000D01*
X61825000Y-98725000D01*
X62075000Y-98725000D01*
X62075000Y-99975000D01*
G37*
G36*
X62575000Y-99975000D02*
G01*
X62325000Y-99975000D01*
X62325000Y-98725000D01*
X62575000Y-98725000D01*
X62575000Y-99975000D01*
G37*
G36*
X63075000Y-99975000D02*
G01*
X62825000Y-99975000D01*
X62825000Y-98725000D01*
X63075000Y-98725000D01*
X63075000Y-99975000D01*
G37*
G36*
X63575000Y-99975000D02*
G01*
X63325000Y-99975000D01*
X63325000Y-98725000D01*
X63575000Y-98725000D01*
X63575000Y-99975000D01*
G37*
G36*
X64075000Y-99975000D02*
G01*
X63825000Y-99975000D01*
X63825000Y-98725000D01*
X64075000Y-98725000D01*
X64075000Y-99975000D01*
G37*
G36*
X64575000Y-99975000D02*
G01*
X64325000Y-99975000D01*
X64325000Y-98725000D01*
X64575000Y-98725000D01*
X64575000Y-99975000D01*
G37*
G36*
X65075000Y-99975000D02*
G01*
X64825000Y-99975000D01*
X64825000Y-98725000D01*
X65075000Y-98725000D01*
X65075000Y-99975000D01*
G37*
G36*
X65575000Y-99975000D02*
G01*
X65325000Y-99975000D01*
X65325000Y-98725000D01*
X65575000Y-98725000D01*
X65575000Y-99975000D01*
G37*
G36*
X66075000Y-99975000D02*
G01*
X65825000Y-99975000D01*
X65825000Y-98725000D01*
X66075000Y-98725000D01*
X66075000Y-99975000D01*
G37*
G36*
X66575000Y-99975000D02*
G01*
X66325000Y-99975000D01*
X66325000Y-98725000D01*
X66575000Y-98725000D01*
X66575000Y-99975000D01*
G37*
G36*
X67075000Y-99975000D02*
G01*
X66825000Y-99975000D01*
X66825000Y-98725000D01*
X67075000Y-98725000D01*
X67075000Y-99975000D01*
G37*
G36*
X67575000Y-99975000D02*
G01*
X67325000Y-99975000D01*
X67325000Y-98725000D01*
X67575000Y-98725000D01*
X67575000Y-99975000D01*
G37*
G36*
X68075000Y-99975000D02*
G01*
X67825000Y-99975000D01*
X67825000Y-98725000D01*
X68075000Y-98725000D01*
X68075000Y-99975000D01*
G37*
G36*
X68575000Y-99975000D02*
G01*
X68325000Y-99975000D01*
X68325000Y-98725000D01*
X68575000Y-98725000D01*
X68575000Y-99975000D01*
G37*
G36*
X69075000Y-99975000D02*
G01*
X68825000Y-99975000D01*
X68825000Y-98725000D01*
X69075000Y-98725000D01*
X69075000Y-99975000D01*
G37*
G36*
X69575000Y-99975000D02*
G01*
X69325000Y-99975000D01*
X69325000Y-98725000D01*
X69575000Y-98725000D01*
X69575000Y-99975000D01*
G37*
G36*
X70075000Y-99975000D02*
G01*
X69825000Y-99975000D01*
X69825000Y-98725000D01*
X70075000Y-98725000D01*
X70075000Y-99975000D01*
G37*
%TD*%
D11*
%TO.C,barreljack1*%
X58950000Y-54200000D03*
X58950000Y-60400000D03*
X69950000Y-54200000D03*
X69950000Y-60400000D03*
%TD*%
D12*
%TO.C,R7*%
X60675000Y-89241428D03*
X62675000Y-89241428D03*
%TD*%
D13*
%TO.C,R5*%
X62800000Y-77295000D03*
X62800000Y-75295000D03*
%TD*%
D12*
%TO.C,R9*%
X89650000Y-91350000D03*
X91650000Y-91350000D03*
%TD*%
D14*
%TO.C,C2*%
X68250000Y-74168000D03*
X70150000Y-74168000D03*
%TD*%
D15*
%TO.C,C11*%
X70084000Y-82296000D03*
X68184000Y-82296000D03*
%TD*%
D16*
%TO.C,R8*%
X91600000Y-87150000D03*
X89600000Y-87150000D03*
%TD*%
D17*
%TO.C,J2*%
X71600000Y-97650000D03*
X56800000Y-97650000D03*
%TD*%
D18*
%TO.C,C10*%
X69200000Y-79756000D03*
X69200000Y-77856000D03*
%TD*%
D12*
%TO.C,R10*%
X95650000Y-97900000D03*
X97650000Y-97900000D03*
%TD*%
D19*
%TO.C,C6*%
X56400000Y-79822000D03*
X56400000Y-81722000D03*
%TD*%
D13*
%TO.C,R1*%
X98044000Y-73660000D03*
X98044000Y-71660000D03*
%TD*%
D20*
%TO.C,WLAN*%
X89916000Y-67056000D03*
X89916000Y-68806000D03*
%TD*%
D19*
%TO.C,C5*%
X55372000Y-63632000D03*
X55372000Y-65532000D03*
%TD*%
%TO.C,C13*%
X79550000Y-90100000D03*
X79550000Y-92000000D03*
%TD*%
D15*
%TO.C,C12*%
X70150000Y-85852000D03*
X68250000Y-85852000D03*
%TD*%
D21*
%TO.C,U3*%
X58688000Y-68580000D03*
X56388000Y-68580000D03*
X54088000Y-68580000D03*
D22*
X56388000Y-74610000D03*
%TD*%
D13*
%TO.C,R2*%
X93980000Y-73660000D03*
X93980000Y-71660000D03*
%TD*%
D18*
%TO.C,C17*%
X83800000Y-72575000D03*
X83800000Y-70675000D03*
%TD*%
D23*
%TO.C,Y1*%
X73706000Y-70612000D03*
X78006000Y-70612000D03*
%TD*%
D18*
%TO.C,C3*%
X73706000Y-67056000D03*
X73706000Y-65156000D03*
%TD*%
D20*
%TO.C,D4*%
X62790000Y-71275000D03*
X62790000Y-73025000D03*
%TD*%
D19*
%TO.C,C7*%
X86400000Y-91350000D03*
X86400000Y-93250000D03*
%TD*%
D14*
%TO.C,C15*%
X87600000Y-78950000D03*
X89500000Y-78950000D03*
%TD*%
D24*
%TO.C,R4*%
X65700000Y-70550000D03*
X65700000Y-72550000D03*
%TD*%
D19*
%TO.C,C14*%
X75475000Y-91425000D03*
X75475000Y-93325000D03*
%TD*%
D18*
%TO.C,C16*%
X81392000Y-72578000D03*
X81392000Y-70678000D03*
%TD*%
D19*
%TO.C,C1*%
X65700000Y-75200000D03*
X65700000Y-77100000D03*
%TD*%
D12*
%TO.C,R6*%
X56425000Y-89300000D03*
X58425000Y-89300000D03*
%TD*%
D20*
%TO.C,WEB*%
X93980000Y-67056000D03*
X93980000Y-68806000D03*
%TD*%
D25*
%TO.C,U1*%
X72988000Y-77448000D03*
X72988000Y-77948000D03*
X72988000Y-78448000D03*
X72988000Y-78948000D03*
X72988000Y-79448000D03*
X72988000Y-79948000D03*
X72988000Y-80448000D03*
X72988000Y-80948000D03*
X72988000Y-81448000D03*
X72988000Y-81948000D03*
X72988000Y-82448000D03*
X72988000Y-82948000D03*
X72988000Y-83448000D03*
X72988000Y-83948000D03*
X72988000Y-84448000D03*
X72988000Y-84948000D03*
D26*
X74908000Y-86868000D03*
X75408000Y-86868000D03*
X75908000Y-86868000D03*
X76408000Y-86868000D03*
X76908000Y-86868000D03*
X77408000Y-86868000D03*
X77908000Y-86868000D03*
X78408000Y-86868000D03*
X78908000Y-86868000D03*
X79408000Y-86868000D03*
X79908000Y-86868000D03*
X80408000Y-86868000D03*
X80908000Y-86868000D03*
X81408000Y-86868000D03*
X81908000Y-86868000D03*
X82408000Y-86868000D03*
D25*
X84328000Y-84948000D03*
X84328000Y-84448000D03*
X84328000Y-83948000D03*
X84328000Y-83448000D03*
X84328000Y-82948000D03*
X84328000Y-82448000D03*
X84328000Y-81948000D03*
X84328000Y-81448000D03*
X84328000Y-80948000D03*
X84328000Y-80448000D03*
X84328000Y-79948000D03*
X84328000Y-79448000D03*
X84328000Y-78948000D03*
X84328000Y-78448000D03*
X84328000Y-77948000D03*
X84328000Y-77448000D03*
D26*
X82408000Y-75528000D03*
X81908000Y-75528000D03*
X81408000Y-75528000D03*
X80908000Y-75528000D03*
X80408000Y-75528000D03*
X79908000Y-75528000D03*
X79408000Y-75528000D03*
X78908000Y-75528000D03*
X78408000Y-75528000D03*
X77908000Y-75528000D03*
X77408000Y-75528000D03*
X76908000Y-75528000D03*
X76408000Y-75528000D03*
X75908000Y-75528000D03*
X75408000Y-75528000D03*
X74908000Y-75528000D03*
%TD*%
D20*
%TO.C,AP*%
X98044000Y-67056000D03*
X98044000Y-68806000D03*
%TD*%
D13*
%TO.C,R3*%
X89916000Y-73660000D03*
X89916000Y-71660000D03*
%TD*%
D27*
%TO.C,L1*%
X70150000Y-70550000D03*
X68025000Y-70550000D03*
%TD*%
D18*
%TO.C,C4*%
X78000000Y-67056000D03*
X78000000Y-65156000D03*
%TD*%
M02*
