M48
; DRILL file {KiCad 9.0.2} date 2026-02-18T14:35:04-0600
; FORMAT={-:-/ absolute / metric / decimal}
; #@! TF.CreationDate,2026-02-18T14:35:04-06:00
; #@! TF.GenerationSoftware,Kicad,Pcbnew,9.0.2
; #@! TF.FileFunction,Plated,1,2,PTH
FMAT,2
METRIC
; #@! TA.AperFunction,Plated,PTH,ViaDrill
T1C0.300
; #@! TA.AperFunction,Plated,PTH,ComponentDrill
T2C1.000
; #@! TA.AperFunction,Plated,PTH,ComponentDrill
T3C1.016
%
G90
G05
T1
X54.05Y-77.5
X55.75Y-56.9
X55.8Y-58.9
X55.8Y-60.75
X56.25Y-93.6
X56.4Y-83.35
X56.95Y-65.6
X57.45Y-85.8
X57.6Y-66.6
X58.42Y-93.98
X58.425Y-90.625
X58.7Y-77.3
X58.775Y-97.975
X60.375Y-91.95
X60.7Y-68.5
X61.3Y-83.35
X61.325Y-85.925
X62.175Y-56.95
X62.225Y-58.95
X62.225Y-60.8
X63.5Y-97.536
X63.975Y-91.675
X64.2Y-87.475
X64.442Y-101.35
X65.117Y-97.717
X66.4Y-82.2
X66.45Y-97.95
X66.7Y-92.5
X66.75Y-67.1
X66.754Y-96.579
X66.9Y-85.85
X67.325Y-96.025
X67.35Y-77.1
X67.375Y-80.522
X67.6Y-84.25
X68.0Y-91.25
X69.15Y-76.45
X69.3Y-83.6
X69.35Y-63.85
X70.15Y-91.811
X70.75Y-67.1
X70.95Y-79.45
X71.05Y-78.45
X71.279Y-84.729
X71.45Y-74.15
X71.5Y-86.2
X71.85Y-65.15
X72.4Y-73.2
X72.65Y-75.65
X73.15Y-93.55
X73.55Y-56.0
X73.55Y-87.5
X73.6Y-63.85
X73.764Y-59.436
X74.65Y-58.45
X74.725Y-83.825
X74.908Y-76.908
X75.65Y-81.2
X75.95Y-80.05
X75.95Y-85.35
X76.1Y-96.25
X76.227Y-77.393
X76.227Y-88.477
X76.3Y-65.15
X76.4Y-68.0
X76.692Y-100.3
X76.955Y-92.48
X77.35Y-73.95
X77.4Y-99.65
X77.474Y-78.55
X77.593Y-85.677
X77.85Y-82.65
X78.4Y-85.6
X78.789Y-82.823
X79.55Y-89.0
X79.9Y-65.9
X79.95Y-81.95
X80.0Y-77.25
X80.3Y-85.4
X80.45Y-82.7
X80.748Y-74.248
X80.9Y-69.2
X80.925Y-84.6
X81.15Y-89.85
X81.4Y-91.65
X81.6Y-79.0
X81.694Y-74.247
X81.7Y-76.8
X81.701Y-84.073
X82.85Y-54.75
X82.85Y-58.15
X82.85Y-60.45
X83.075Y-80.603
X83.75Y-86.5
X84.275Y-74.05
X84.5Y-69.2
X85.329Y-75.981
X85.85Y-56.5
X85.85Y-64.75
X85.955Y-81.878
X86.3Y-67.5
X86.35Y-75.65
X86.4Y-94.625
X86.6Y-62.0
X87.1Y-100.75
X87.2Y-70.35
X87.3Y-87.55
X87.3Y-95.65
X87.6Y-75.5
X88.175Y-80.875
X88.5Y-88.75
X88.75Y-62.65
X89.2Y-75.45
X89.55Y-80.5
X89.55Y-89.4
X89.6Y-53.25
X89.7Y-55.6
X89.75Y-59.05
X90.15Y-92.75
X91.1Y-63.55
X91.525Y-83.825
X91.55Y-74.0
X91.55Y-75.725
X92.45Y-74.05
X92.45Y-75.725
X92.525Y-93.325
X92.8Y-88.8
X93.85Y-81.95
X93.9Y-88.6
X94.0Y-80.05
X94.05Y-90.75
X94.35Y-75.55
X94.4Y-100.75
X95.775Y-62.3
X96.15Y-67.025
X96.8Y-82.3
X96.85Y-58.1
X97.05Y-100.7
X97.6Y-63.05
X99.7Y-89.4
X100.0Y-54.85
X100.0Y-71.0
X100.0Y-76.05
X100.025Y-66.65
T2
X76.708Y-54.356
X76.708Y-56.896
X76.708Y-59.436
X79.248Y-54.356
X79.248Y-56.896
X79.248Y-59.436
X88.392Y-54.356
X88.392Y-56.896
X90.932Y-54.356
X90.932Y-56.896
X93.472Y-54.356
X93.472Y-56.896
T3
X83.825Y-94.41
X83.825Y-99.49
X90.7Y-94.185
X90.7Y-99.265
X94.488Y-85.852
X94.488Y-92.964
X99.568Y-85.852
X99.568Y-92.964
M30
