%TF.GenerationSoftware,KiCad,Pcbnew,9.0.2*%
%TF.CreationDate,2026-02-18T14:35:07-06:00*%
%TF.ProjectId,EE326 Webcam,45453332-3620-4576-9562-63616d2e6b69,rev?*%
%TF.SameCoordinates,Original*%
%TF.FileFunction,Copper,L1,Top*%
%TF.FilePolarity,Positive*%
%FSLAX46Y46*%
G04 Gerber Fmt 4.6, Leading zero omitted, Abs format (unit mm)*
G04 Created by KiCad (PCBNEW 9.0.2) date 2026-02-18 14:35:07*
%MOMM*%
%LPD*%
G01*
G04 APERTURE LIST*
G04 Aperture macros list*
%AMRoundRect*
0 Rectangle with rounded corners*
0 $1 Rounding radius*
0 $2 $3 $4 $5 $6 $7 $8 $9 X,Y pos of 4 corners*
0 Add a 4 corners polygon primitive as box body*
4,1,4,$2,$3,$4,$5,$6,$7,$8,$9,$2,$3,0*
0 Add four circle primitives for the rounded corners*
1,1,$1+$1,$2,$3*
1,1,$1+$1,$4,$5*
1,1,$1+$1,$6,$7*
1,1,$1+$1,$8,$9*
0 Add four rect primitives between the rounded corners*
20,1,$1+$1,$2,$3,$4,$5,0*
20,1,$1+$1,$4,$5,$6,$7,0*
20,1,$1+$1,$6,$7,$8,$9,0*
20,1,$1+$1,$8,$9,$2,$3,0*%
G04 Aperture macros list end*
%TA.AperFunction,SMDPad,CuDef*%
%ADD10R,2.000000X2.400000*%
%TD*%
%TA.AperFunction,ComponentPad*%
%ADD11C,1.930400*%
%TD*%
%TA.AperFunction,SMDPad,CuDef*%
%ADD12RoundRect,0.250000X-0.350000X-0.450000X0.350000X-0.450000X0.350000X0.450000X-0.350000X0.450000X0*%
%TD*%
%TA.AperFunction,SMDPad,CuDef*%
%ADD13RoundRect,0.250000X0.450000X-0.350000X0.450000X0.350000X-0.450000X0.350000X-0.450000X-0.350000X0*%
%TD*%
%TA.AperFunction,SMDPad,CuDef*%
%ADD14RoundRect,0.250000X-0.250000X-0.475000X0.250000X-0.475000X0.250000X0.475000X-0.250000X0.475000X0*%
%TD*%
%TA.AperFunction,SMDPad,CuDef*%
%ADD15RoundRect,0.250000X0.250000X0.475000X-0.250000X0.475000X-0.250000X-0.475000X0.250000X-0.475000X0*%
%TD*%
%TA.AperFunction,SMDPad,CuDef*%
%ADD16RoundRect,0.250000X0.350000X0.450000X-0.350000X0.450000X-0.350000X-0.450000X0.350000X-0.450000X0*%
%TD*%
%TA.AperFunction,SMDPad,CuDef*%
%ADD17R,0.300000X1.300000*%
%TD*%
%TA.AperFunction,SMDPad,CuDef*%
%ADD18R,2.300000X3.100000*%
%TD*%
%TA.AperFunction,SMDPad,CuDef*%
%ADD19RoundRect,0.250000X0.475000X-0.250000X0.475000X0.250000X-0.475000X0.250000X-0.475000X-0.250000X0*%
%TD*%
%TA.AperFunction,SMDPad,CuDef*%
%ADD20RoundRect,0.250000X-0.475000X0.250000X-0.475000X-0.250000X0.475000X-0.250000X0.475000X0.250000X0*%
%TD*%
%TA.AperFunction,SMDPad,CuDef*%
%ADD21RoundRect,0.237500X-0.237500X0.287500X-0.237500X-0.287500X0.237500X-0.287500X0.237500X0.287500X0*%
%TD*%
%TA.AperFunction,SMDPad,CuDef*%
%ADD22RoundRect,0.116250X-0.348750X0.873750X-0.348750X-0.873750X0.348750X-0.873750X0.348750X0.873750X0*%
%TD*%
%TA.AperFunction,SMDPad,CuDef*%
%ADD23RoundRect,0.247500X-1.367500X0.742500X-1.367500X-0.742500X1.367500X-0.742500X1.367500X0.742500X0*%
%TD*%
%TA.AperFunction,SMDPad,CuDef*%
%ADD24R,1.900000X2.600000*%
%TD*%
%TA.AperFunction,SMDPad,CuDef*%
%ADD25RoundRect,0.250000X-0.450000X0.350000X-0.450000X-0.350000X0.450000X-0.350000X0.450000X0.350000X0*%
%TD*%
%TA.AperFunction,ComponentPad*%
%ADD26R,1.700000X1.700000*%
%TD*%
%TA.AperFunction,ComponentPad*%
%ADD27C,1.700000*%
%TD*%
%TA.AperFunction,SMDPad,CuDef*%
%ADD28RoundRect,0.033750X-0.701250X-0.101250X0.701250X-0.101250X0.701250X0.101250X-0.701250X0.101250X0*%
%TD*%
%TA.AperFunction,SMDPad,CuDef*%
%ADD29RoundRect,0.033750X-0.101250X-0.701250X0.101250X-0.701250X0.101250X0.701250X-0.101250X0.701250X0*%
%TD*%
%TA.AperFunction,SMDPad,CuDef*%
%ADD30RoundRect,0.218750X0.218750X0.381250X-0.218750X0.381250X-0.218750X-0.381250X0.218750X-0.381250X0*%
%TD*%
%TA.AperFunction,ViaPad*%
%ADD31C,0.600000*%
%TD*%
%TA.AperFunction,Conductor*%
%ADD32C,0.250000*%
%TD*%
%TA.AperFunction,Conductor*%
%ADD33C,0.200000*%
%TD*%
%TA.AperFunction,Conductor*%
%ADD34C,0.400000*%
%TD*%
%TA.AperFunction,Conductor*%
%ADD35C,0.500000*%
%TD*%
%TA.AperFunction,Conductor*%
%ADD36C,0.300000*%
%TD*%
%TA.AperFunction,Conductor*%
%ADD37C,0.260000*%
%TD*%
%TA.AperFunction,Conductor*%
%ADD38C,0.350000*%
%TD*%
G04 APERTURE END LIST*
D10*
%TO.P,barreljack1,GND,GND*%
%TO.N,GND*%
X58950000Y-54200000D03*
%TO.P,barreljack1,GNDBREAK,GNDBREAK*%
X58950000Y-60400000D03*
%TO.P,barreljack1,PWR1,PWR*%
%TO.N,+5V*%
X69950000Y-54200000D03*
%TO.P,barreljack1,PWR2*%
%TO.N,N/C*%
X69950000Y-60400000D03*
%TD*%
D11*
%TO.P,WIFI_PROV,2,2*%
%TO.N,GND*%
X99568000Y-92964000D03*
%TO.P,WIFI_PROV,1,1*%
%TO.N,/WIFI_PROV*%
X94488000Y-92964000D03*
%TD*%
D12*
%TO.P,R7,1*%
%TO.N,+3V0*%
X60675000Y-89241428D03*
%TO.P,R7,2*%
%TO.N,/SCL*%
X62675000Y-89241428D03*
%TD*%
D13*
%TO.P,R5,1*%
%TO.N,+3V0*%
X62800000Y-77295000D03*
%TO.P,R5,2*%
%TO.N,Net-(D4-A)*%
X62800000Y-75295000D03*
%TD*%
D12*
%TO.P,R9,1,1*%
%TO.N,/WIFI_RST*%
X89650000Y-91350000D03*
%TO.P,R9,2,2*%
%TO.N,+3V0*%
X91650000Y-91350000D03*
%TD*%
D14*
%TO.P,C2,1*%
%TO.N,Net-(C2-Pad1)*%
X68250000Y-74168000D03*
%TO.P,C2,2*%
%TO.N,GND*%
X70150000Y-74168000D03*
%TD*%
D15*
%TO.P,C11,1*%
%TO.N,+1V2*%
X70084000Y-82296000D03*
%TO.P,C11,2*%
%TO.N,GND*%
X68184000Y-82296000D03*
%TD*%
D16*
%TO.P,R8,1,1*%
%TO.N,/NRST*%
X91600000Y-87150000D03*
%TO.P,R8,2,2*%
%TO.N,+3V0*%
X89600000Y-87150000D03*
%TD*%
D11*
%TO.P,IO0,1,1*%
%TO.N,/IO0*%
X90700000Y-94185000D03*
%TO.P,IO0,2,2*%
%TO.N,GND*%
X90700000Y-99265000D03*
%TD*%
D17*
%TO.P,J2,1,1*%
%TO.N,unconnected-(J2-Pad1)*%
X69950000Y-99350000D03*
%TO.P,J2,2,2*%
%TO.N,unconnected-(J2-Pad2)*%
X69450000Y-99350000D03*
%TO.P,J2,3,3*%
%TO.N,/D2*%
X68950000Y-99350000D03*
%TO.P,J2,4,4*%
%TO.N,/D1*%
X68450000Y-99350000D03*
%TO.P,J2,5,5*%
%TO.N,/D3*%
X67950000Y-99350000D03*
%TO.P,J2,6,6*%
%TO.N,/D0*%
X67450000Y-99350000D03*
%TO.P,J2,7,7*%
%TO.N,/D4*%
X66950000Y-99350000D03*
%TO.P,J2,8,8*%
%TO.N,/PCLK*%
X66450000Y-99350000D03*
%TO.P,J2,9,9*%
%TO.N,/D5*%
X65950000Y-99350000D03*
%TO.P,J2,10,10*%
%TO.N,GND*%
X65450000Y-99350000D03*
%TO.P,J2,11,11*%
%TO.N,/D6*%
X64950000Y-99350000D03*
%TO.P,J2,12,12*%
%TO.N,/XCLK*%
X64450000Y-99350000D03*
%TO.P,J2,13,13*%
%TO.N,/D7*%
X63950000Y-99350000D03*
%TO.P,J2,14,14*%
%TO.N,+3V0*%
X63450000Y-99350000D03*
%TO.P,J2,15,15*%
%TO.N,+1V2*%
X62950000Y-99350000D03*
%TO.P,J2,16,16*%
%TO.N,/HREF*%
X62450000Y-99350000D03*
%TO.P,J2,17,17*%
%TO.N,unconnected-(J2-Pad17)*%
X61950000Y-99350000D03*
%TO.P,J2,18,18*%
%TO.N,/VSYNC*%
X61450000Y-99350000D03*
%TO.P,J2,19,19*%
%TO.N,/RST_CAM*%
X60950000Y-99350000D03*
%TO.P,J2,20,20*%
%TO.N,/SCL*%
X60450000Y-99350000D03*
%TO.P,J2,21,21*%
%TO.N,+3V0*%
X59950000Y-99350000D03*
%TO.P,J2,22,22*%
%TO.N,/SDA*%
X59450000Y-99350000D03*
%TO.P,J2,23,23*%
%TO.N,GND*%
X58950000Y-99350000D03*
%TO.P,J2,24,24*%
%TO.N,unconnected-(J2-Pad24)*%
X58450000Y-99350000D03*
D18*
%TO.P,J2,P1,SHIELD*%
%TO.N,unconnected-(J2-SHIELD-PadP1)*%
X71600000Y-97650000D03*
%TO.P,J2,P2,SHIELD__1*%
%TO.N,unconnected-(J2-SHIELD__1-PadP2)*%
X56800000Y-97650000D03*
%TD*%
D19*
%TO.P,C10,1*%
%TO.N,+3V0*%
X69200000Y-79756000D03*
%TO.P,C10,2*%
%TO.N,GND*%
X69200000Y-77856000D03*
%TD*%
D12*
%TO.P,R10,1,1*%
%TO.N,/WIFI_PROV*%
X95650000Y-97900000D03*
%TO.P,R10,2,2*%
%TO.N,+3V0*%
X97650000Y-97900000D03*
%TD*%
D20*
%TO.P,C6,1*%
%TO.N,+3V0*%
X56400000Y-79822000D03*
%TO.P,C6,2*%
%TO.N,GND*%
X56400000Y-81722000D03*
%TD*%
D13*
%TO.P,R1,1*%
%TO.N,/LED1*%
X98044000Y-73660000D03*
%TO.P,R1,2*%
%TO.N,Net-(D1-A)*%
X98044000Y-71660000D03*
%TD*%
D11*
%TO.P,WIFI_RST  ,1,1*%
%TO.N,/WIFI_RST*%
X83825000Y-94410000D03*
%TO.P,WIFI_RST  ,2,2*%
%TO.N,GND*%
X83825000Y-99490000D03*
%TD*%
D21*
%TO.P,WLAN,1,K*%
%TO.N,GND*%
X89916000Y-67056000D03*
%TO.P,WLAN,2,A*%
%TO.N,Net-(D3-A)*%
X89916000Y-68806000D03*
%TD*%
D20*
%TO.P,C5,1*%
%TO.N,+5V*%
X55372000Y-63632000D03*
%TO.P,C5,2*%
%TO.N,GND*%
X55372000Y-65532000D03*
%TD*%
%TO.P,C13,1*%
%TO.N,+3V0*%
X79550000Y-90100000D03*
%TO.P,C13,2*%
%TO.N,GND*%
X79550000Y-92000000D03*
%TD*%
D15*
%TO.P,C12,1*%
%TO.N,+1V2*%
X70150000Y-85852000D03*
%TO.P,C12,2*%
%TO.N,GND*%
X68250000Y-85852000D03*
%TD*%
D22*
%TO.P,U3,1,GND*%
%TO.N,GND*%
X58688000Y-68580000D03*
%TO.P,U3,2,VOUT*%
%TO.N,unconnected-(U3-VOUT-Pad2)*%
X56388000Y-68580000D03*
%TO.P,U3,3,VIN*%
%TO.N,+5V*%
X54088000Y-68580000D03*
D23*
%TO.P,U3,4,VOUT__1*%
%TO.N,+3V0*%
X56388000Y-74610000D03*
%TD*%
D13*
%TO.P,R2,1*%
%TO.N,/LED2*%
X93980000Y-73660000D03*
%TO.P,R2,2*%
%TO.N,Net-(D2-A)*%
X93980000Y-71660000D03*
%TD*%
D19*
%TO.P,C17,1*%
%TO.N,+1V2*%
X83800000Y-72575000D03*
%TO.P,C17,2*%
%TO.N,GND*%
X83800000Y-70675000D03*
%TD*%
D24*
%TO.P,Y1,1*%
%TO.N,/XTAL1*%
X73706000Y-70612000D03*
%TO.P,Y1,2*%
%TO.N,/XTAL2*%
X78006000Y-70612000D03*
%TD*%
D19*
%TO.P,C3,1*%
%TO.N,/XTAL1*%
X73706000Y-67056000D03*
%TO.P,C3,2*%
%TO.N,GND*%
X73706000Y-65156000D03*
%TD*%
D21*
%TO.P,D4,1,K*%
%TO.N,GND*%
X62790000Y-71275000D03*
%TO.P,D4,2,A*%
%TO.N,Net-(D4-A)*%
X62790000Y-73025000D03*
%TD*%
D20*
%TO.P,C7,1,1*%
%TO.N,/WIFI_RST*%
X86400000Y-91350000D03*
%TO.P,C7,2,2*%
%TO.N,GND*%
X86400000Y-93250000D03*
%TD*%
D14*
%TO.P,C15,1*%
%TO.N,+3V0*%
X87600000Y-78950000D03*
%TO.P,C15,2*%
%TO.N,GND*%
X89500000Y-78950000D03*
%TD*%
D25*
%TO.P,R4,1*%
%TO.N,Net-(C2-Pad1)*%
X65700000Y-70550000D03*
%TO.P,R4,2*%
%TO.N,Net-(C1-Pad1)*%
X65700000Y-72550000D03*
%TD*%
D20*
%TO.P,C14,1*%
%TO.N,+1V2*%
X75475000Y-91425000D03*
%TO.P,C14,2*%
%TO.N,GND*%
X75475000Y-93325000D03*
%TD*%
D19*
%TO.P,C16,1*%
%TO.N,+3V0*%
X81392000Y-72578000D03*
%TO.P,C16,2*%
%TO.N,GND*%
X81392000Y-70678000D03*
%TD*%
D20*
%TO.P,C1,1*%
%TO.N,Net-(C1-Pad1)*%
X65700000Y-75200000D03*
%TO.P,C1,2*%
%TO.N,GND*%
X65700000Y-77100000D03*
%TD*%
D26*
%TO.P,J3,1,Pin_1*%
%TO.N,/SWDCLK*%
X76708000Y-54356000D03*
D27*
%TO.P,J3,2,Pin_2*%
%TO.N,/SWDIO*%
X79248000Y-54356000D03*
%TO.P,J3,3,Pin_3*%
%TO.N,/SWO*%
X76708000Y-56896000D03*
%TO.P,J3,4,Pin_4*%
%TO.N,/NRST*%
X79248000Y-56896000D03*
%TO.P,J3,5,Pin_5*%
%TO.N,+3V0*%
X76708000Y-59436000D03*
%TO.P,J3,6,Pin_6*%
%TO.N,GND*%
X79248000Y-59436000D03*
%TD*%
D12*
%TO.P,R6,1*%
%TO.N,+3V0*%
X56425000Y-89300000D03*
%TO.P,R6,2*%
%TO.N,/SDA*%
X58425000Y-89300000D03*
%TD*%
D26*
%TO.P,J4,1,Pin_1*%
%TO.N,/WIFI_RX*%
X93472000Y-54356000D03*
D27*
%TO.P,J4,2,Pin_2*%
%TO.N,/WIFI_TX*%
X93472000Y-56896000D03*
%TO.P,J4,3,Pin_3*%
%TO.N,/RX_DEBUG*%
X90932000Y-54356000D03*
%TO.P,J4,4,Pin_4*%
%TO.N,/TX_DEBUG*%
X90932000Y-56896000D03*
%TO.P,J4,5,Pin_5*%
%TO.N,GND*%
X88392000Y-54356000D03*
%TO.P,J4,6,Pin_6*%
%TO.N,+5V*%
X88392000Y-56896000D03*
%TD*%
D21*
%TO.P,WEB,1,K*%
%TO.N,GND*%
X93980000Y-67056000D03*
%TO.P,WEB,2,A*%
%TO.N,Net-(D2-A)*%
X93980000Y-68806000D03*
%TD*%
D28*
%TO.P,U1,1,ADVREF*%
%TO.N,unconnected-(U1-ADVREF-Pad1)*%
X72988000Y-77448000D03*
%TO.P,U1,2,GND*%
%TO.N,GND*%
X72988000Y-77948000D03*
%TO.P,U1,3,PB0/AD4*%
%TO.N,/WIFI_PROV*%
X72988000Y-78448000D03*
%TO.P,U1,4,PB1/AD5*%
%TO.N,/CTRL4*%
X72988000Y-78948000D03*
%TO.P,U1,5,PB2/AD6*%
%TO.N,/WIFI_RST*%
X72988000Y-79448000D03*
%TO.P,U1,6,PB3/AD7*%
%TO.N,unconnected-(U1-PB3{slash}AD7-Pad6)*%
X72988000Y-79948000D03*
%TO.P,U1,7,VDDIN*%
%TO.N,+3V0*%
X72988000Y-80448000D03*
%TO.P,U1,8,VDDOUT*%
%TO.N,+1V2*%
X72988000Y-80948000D03*
%TO.P,U1,9,PA17/PGMD5/AD0*%
%TO.N,/XCLK*%
X72988000Y-81448000D03*
%TO.P,U1,10,PA18/PGMD6/AD1*%
%TO.N,unconnected-(U1-PA18{slash}PGMD6{slash}AD1-Pad10)*%
X72988000Y-81948000D03*
%TO.P,U1,11,PA21/PGMD9/AD8*%
%TO.N,unconnected-(U1-PA21{slash}PGMD9{slash}AD8-Pad11)*%
X72988000Y-82448000D03*
%TO.P,U1,12,VDDCORE*%
%TO.N,+1V2*%
X72988000Y-82948000D03*
%TO.P,U1,13,PA19/PGMD7/AD2*%
%TO.N,unconnected-(U1-PA19{slash}PGMD7{slash}AD2-Pad13)*%
X72988000Y-83448000D03*
%TO.P,U1,14,PA22/PGMD10/AD9*%
%TO.N,unconnected-(U1-PA22{slash}PGMD10{slash}AD9-Pad14)*%
X72988000Y-83948000D03*
%TO.P,U1,15,PA23/PGMD11*%
%TO.N,/PCLK*%
X72988000Y-84448000D03*
%TO.P,U1,16,PA20/PGMD8/AD3*%
%TO.N,/RST_CAM*%
X72988000Y-84948000D03*
D29*
%TO.P,U1,17,GND__1*%
%TO.N,GND*%
X74908000Y-86868000D03*
%TO.P,U1,18,VDDIO*%
%TO.N,+3V0*%
X75408000Y-86868000D03*
%TO.P,U1,19,PA16/PGMD4*%
%TO.N,/HREF*%
X75908000Y-86868000D03*
%TO.P,U1,20,PA15/PGMD3*%
%TO.N,/VSYNC*%
X76408000Y-86868000D03*
%TO.P,U1,21,PA14/PGMD2*%
%TO.N,/SCK*%
X76908000Y-86868000D03*
%TO.P,U1,22,PA13/PGMD1*%
%TO.N,/MOSI*%
X77408000Y-86868000D03*
%TO.P,U1,23,PA24/PGMD12*%
%TO.N,/D0*%
X77908000Y-86868000D03*
%TO.P,U1,24,VDDCORE__1*%
%TO.N,+1V2*%
X78408000Y-86868000D03*
%TO.P,U1,25,PA25/PGMD13*%
%TO.N,/D1*%
X78908000Y-86868000D03*
%TO.P,U1,26,PA26/PGMD14*%
%TO.N,/D2*%
X79408000Y-86868000D03*
%TO.P,U1,27,PA12/PGMD0*%
%TO.N,/MISO*%
X79908000Y-86868000D03*
%TO.P,U1,28,PA11/PGMM3*%
%TO.N,/WIFI_CS*%
X80408000Y-86868000D03*
%TO.P,U1,29,PA10/PGMM2*%
%TO.N,unconnected-(U1-PA10{slash}PGMM2-Pad29)*%
X80908000Y-86868000D03*
%TO.P,U1,30,PA9/PGMM1*%
%TO.N,unconnected-(U1-PA9{slash}PGMM1-Pad30)*%
X81408000Y-86868000D03*
%TO.P,U1,31,PA8/XOUT32/PGMM0*%
%TO.N,unconnected-(U1-PA8{slash}XOUT32{slash}PGMM0-Pad31)*%
X81908000Y-86868000D03*
%TO.P,U1,32,PA7/XIN32/PGMNVALID*%
%TO.N,unconnected-(U1-PA7{slash}XIN32{slash}PGMNVALID-Pad32)*%
X82408000Y-86868000D03*
D28*
%TO.P,U1,33,TDI/PB4*%
%TO.N,unconnected-(U1-TDI{slash}PB4-Pad33)*%
X84328000Y-84948000D03*
%TO.P,U1,34,PA6/PGMNOE*%
%TO.N,/WIFI_RX*%
X84328000Y-84448000D03*
%TO.P,U1,35,PA5/PGMRDY*%
%TO.N,/WIFI_TX*%
X84328000Y-83948000D03*
%TO.P,U1,36,PA4/PGMNCMD*%
%TO.N,/SCL*%
X84328000Y-83448000D03*
%TO.P,U1,37,PA27/PGMD15*%
%TO.N,/D3*%
X84328000Y-82948000D03*
%TO.P,U1,38,PA28*%
%TO.N,/D4*%
X84328000Y-82448000D03*
%TO.P,U1,39,~{NRST}*%
%TO.N,/NRST*%
X84328000Y-81948000D03*
%TO.P,U1,40,TST*%
%TO.N,unconnected-(U1-TST-Pad40)*%
X84328000Y-81448000D03*
%TO.P,U1,41,PA29*%
%TO.N,/D5*%
X84328000Y-80948000D03*
%TO.P,U1,42,PA30*%
%TO.N,/D6*%
X84328000Y-80448000D03*
%TO.P,U1,43,PA3*%
%TO.N,/SDA*%
X84328000Y-79948000D03*
%TO.P,U1,44,PA2/PGMEN2*%
%TO.N,/CTRL1*%
X84328000Y-79448000D03*
%TO.P,U1,45,VDDIO__1*%
%TO.N,+3V0*%
X84328000Y-78948000D03*
%TO.P,U1,46,GND__2*%
%TO.N,GND*%
X84328000Y-78448000D03*
%TO.P,U1,47,PA1/PGMEN1*%
%TO.N,/CTRL2*%
X84328000Y-77948000D03*
%TO.P,U1,48,PA0/PGMEN0*%
%TO.N,/CTRL3*%
X84328000Y-77448000D03*
D29*
%TO.P,U1,49,TDO/TRACESWO/PB5*%
%TO.N,/SWO*%
X82408000Y-75528000D03*
%TO.P,U1,50,JTAGSEL*%
%TO.N,unconnected-(U1-JTAGSEL-Pad50)*%
X81908000Y-75528000D03*
%TO.P,U1,51,TMS/SWDIO/PB6*%
%TO.N,/SWDIO*%
X81408000Y-75528000D03*
%TO.P,U1,52,PA31*%
%TO.N,/D7*%
X80908000Y-75528000D03*
%TO.P,U1,53,TCK/SWCLK/PB7*%
%TO.N,/SWDCLK*%
X80408000Y-75528000D03*
%TO.P,U1,54,VDDCORE__2*%
%TO.N,+1V2*%
X79908000Y-75528000D03*
%TO.P,U1,55,ERASE/PB12*%
%TO.N,unconnected-(U1-ERASE{slash}PB12-Pad55)*%
X79408000Y-75528000D03*
%TO.P,U1,56,DDM/PB10*%
%TO.N,unconnected-(U1-DDM{slash}PB10-Pad56)*%
X78908000Y-75528000D03*
%TO.P,U1,57,DDP/PB11*%
%TO.N,unconnected-(U1-DDP{slash}PB11-Pad57)*%
X78408000Y-75528000D03*
%TO.P,U1,58,VDDIO__2*%
%TO.N,+3V0*%
X77908000Y-75528000D03*
%TO.P,U1,59,PB13/DAC0*%
%TO.N,unconnected-(U1-PB13{slash}DAC0-Pad59)*%
X77408000Y-75528000D03*
%TO.P,U1,60,GND__3*%
%TO.N,GND*%
X76908000Y-75528000D03*
%TO.P,U1,61,XOUT/PB8*%
%TO.N,/XTAL2*%
X76408000Y-75528000D03*
%TO.P,U1,62,XIN/PGMCK/PB9*%
%TO.N,/XTAL1*%
X75908000Y-75528000D03*
%TO.P,U1,63,PB14/DAC1*%
%TO.N,unconnected-(U1-PB14{slash}DAC1-Pad63)*%
X75408000Y-75528000D03*
%TO.P,U1,64,VDDPLL*%
%TO.N,+1V2*%
X74908000Y-75528000D03*
%TD*%
D21*
%TO.P,AP,1,K*%
%TO.N,GND*%
X98044000Y-67056000D03*
%TO.P,AP,2,A*%
%TO.N,Net-(D1-A)*%
X98044000Y-68806000D03*
%TD*%
D11*
%TO.P,MCU_RST,1,1*%
%TO.N,/NRST*%
X94488000Y-85852000D03*
%TO.P,MCU_RST,2,2*%
%TO.N,GND*%
X99568000Y-85852000D03*
%TD*%
D13*
%TO.P,R3,1*%
%TO.N,/LED3*%
X89916000Y-73660000D03*
%TO.P,R3,2*%
%TO.N,Net-(D3-A)*%
X89916000Y-71660000D03*
%TD*%
D30*
%TO.P,L1,1,1*%
%TO.N,+1V2*%
X70150000Y-70550000D03*
%TO.P,L1,2,2*%
%TO.N,Net-(C2-Pad1)*%
X68025000Y-70550000D03*
%TD*%
D19*
%TO.P,C4,1*%
%TO.N,/XTAL2*%
X78000000Y-67056000D03*
%TO.P,C4,2*%
%TO.N,GND*%
X78000000Y-65156000D03*
%TD*%
D31*
%TO.N,GND*%
X96150000Y-67025000D03*
X95775000Y-62300000D03*
X87300000Y-95650000D03*
X92525000Y-93325000D03*
X96800000Y-82300000D03*
X66754000Y-96579000D03*
%TO.N,+1V2*%
X67375000Y-80522000D03*
X72400000Y-73200000D03*
%TO.N,GND*%
X62225000Y-60800000D03*
X62175000Y-56950000D03*
X62225000Y-58950000D03*
X63975000Y-91675000D03*
%TO.N,/SDA*%
X58425000Y-90625000D03*
X58420000Y-93980000D03*
%TO.N,GND*%
X66900000Y-85850000D03*
X97050000Y-100700000D03*
X94400000Y-100750000D03*
X82850000Y-58150000D03*
X55800000Y-58900000D03*
X56400000Y-83350000D03*
X84500000Y-69200000D03*
X91525000Y-83825000D03*
X67325000Y-96025000D03*
X56250000Y-93600000D03*
X64200000Y-87475000D03*
X66400000Y-82200000D03*
X80900000Y-69200000D03*
X69300000Y-83600000D03*
X58700000Y-77300000D03*
X87100000Y-100750000D03*
X57450000Y-85800000D03*
X100000000Y-71000000D03*
X60700000Y-68500000D03*
X93900000Y-88600000D03*
X66750000Y-67100000D03*
X69150000Y-76450000D03*
X56950000Y-65600000D03*
X79900000Y-65900000D03*
X89550000Y-80500000D03*
X100000000Y-54850000D03*
X100000000Y-76050000D03*
X70750000Y-67100000D03*
X76100000Y-96250000D03*
X86400000Y-94625000D03*
X55750000Y-56900000D03*
X73150000Y-93550000D03*
X86300000Y-67500000D03*
X58775000Y-97975000D03*
X100025000Y-66650000D03*
X85850000Y-56500000D03*
X97600000Y-63050000D03*
X94000000Y-80050000D03*
X54050000Y-77500000D03*
X76400000Y-68000000D03*
X89700000Y-55600000D03*
X73550000Y-56000000D03*
X60375000Y-91950000D03*
X75950000Y-80050000D03*
X55800000Y-60750000D03*
X82850000Y-60450000D03*
X72650000Y-75650000D03*
X57600000Y-66600000D03*
X61325000Y-85925000D03*
X61300000Y-83350000D03*
X67350000Y-77100000D03*
X71450000Y-74150000D03*
X73550000Y-87500000D03*
X89600000Y-53250000D03*
X71850000Y-65150000D03*
X82850000Y-54750000D03*
X96850000Y-58100000D03*
X99700000Y-89400000D03*
X76300000Y-65150000D03*
%TO.N,+3V0*%
X69350000Y-63850000D03*
X75950000Y-85350000D03*
X79550000Y-89000000D03*
X64442254Y-101350000D03*
X81400000Y-91650000D03*
X94050000Y-90750000D03*
X92800000Y-88800000D03*
X73764000Y-59436000D03*
X89550000Y-89400000D03*
X88175000Y-80875000D03*
%TO.N,/WIFI_RST*%
X90150000Y-92750000D03*
X77400000Y-99650000D03*
X70950000Y-79450000D03*
%TO.N,+1V2*%
X78400000Y-85600000D03*
X63500000Y-97536000D03*
X78789117Y-82823001D03*
X80000000Y-77250000D03*
X74908000Y-76908000D03*
X76955149Y-92480149D03*
X80450000Y-82700000D03*
%TO.N,/VSYNC*%
X66700000Y-92500000D03*
X76227157Y-88477157D03*
%TO.N,/PCLK*%
X71278843Y-84728843D03*
X66450000Y-97950000D03*
%TO.N,/D7*%
X70150000Y-91811000D03*
X74725000Y-83825000D03*
%TO.N,/XCLK*%
X65116942Y-97716942D03*
X67600000Y-84250000D03*
%TO.N,/RST_CAM*%
X71500000Y-86200000D03*
X68000000Y-91250000D03*
%TO.N,/SWO*%
X81700000Y-76800000D03*
%TO.N,/SWDIO*%
X81694334Y-74246657D03*
%TO.N,/NRST*%
X76226679Y-77393189D03*
X74650000Y-58450000D03*
X85954901Y-81878239D03*
X77474000Y-78550000D03*
X93850000Y-81950000D03*
X79950000Y-81950000D03*
%TO.N,/SWDCLK*%
X80747893Y-74247892D03*
%TO.N,/LED1*%
X94350000Y-75550000D03*
%TO.N,/LED2*%
X89200000Y-75450000D03*
%TO.N,/LED3*%
X87600000Y-75500000D03*
%TO.N,/CTRL1*%
X87200000Y-70350000D03*
%TO.N,/WIFI_RX*%
X85850000Y-64750000D03*
X87300000Y-87550000D03*
X91550000Y-74000000D03*
X83750000Y-86500000D03*
X91100000Y-63550000D03*
X91550000Y-75725000D03*
%TO.N,/WIFI_PROV*%
X76691942Y-100300000D03*
X71050000Y-78450000D03*
%TO.N,/CTRL3*%
X86350000Y-75650000D03*
%TO.N,/MOSI*%
X77593049Y-85676934D03*
X73600000Y-63850000D03*
X89750000Y-59050000D03*
%TO.N,/WIFI_CS*%
X77350000Y-73950000D03*
X80300000Y-85400000D03*
X86600000Y-62000000D03*
%TO.N,/MISO*%
X92450000Y-74050000D03*
X88500000Y-88750000D03*
X92450000Y-75725000D03*
X81150000Y-89850000D03*
X88750000Y-62650000D03*
%TO.N,/WIFI_TX*%
X81600000Y-79000000D03*
X84275000Y-74050000D03*
X81701415Y-84073000D03*
%TO.N,/CTRL4*%
X77850000Y-82650000D03*
X75650000Y-81200000D03*
X83075000Y-80602875D03*
%TO.N,/SCK*%
X80925000Y-84600000D03*
%TO.N,/CTRL2*%
X85328822Y-75980980D03*
%TD*%
D32*
%TO.N,/WIFI_CS*%
X86600000Y-62000000D02*
X85475000Y-62000000D01*
X79825000Y-71695000D02*
X77570000Y-73950000D01*
X85475000Y-62000000D02*
X79825000Y-67650000D01*
X79825000Y-67650000D02*
X79825000Y-71695000D01*
X77570000Y-73950000D02*
X77350000Y-73950000D01*
D33*
%TO.N,GND*%
X95775000Y-62300000D02*
X95825000Y-62300000D01*
X95825000Y-62300000D02*
X96575000Y-63050000D01*
X96575000Y-63050000D02*
X97600000Y-63050000D01*
%TO.N,/WIFI_RST*%
X77400000Y-99650000D02*
X77950000Y-100200000D01*
X77950000Y-100200000D02*
X78025000Y-100200000D01*
X78025000Y-100200000D02*
X83815000Y-94410000D01*
X83815000Y-94410000D02*
X83825000Y-94410000D01*
X83800000Y-93100000D02*
X85550000Y-91350000D01*
X83825000Y-94410000D02*
X83800000Y-94385000D01*
X83800000Y-94385000D02*
X83800000Y-93100000D01*
X85550000Y-91350000D02*
X86400000Y-91350000D01*
%TO.N,GND*%
X66754000Y-96579000D02*
X65849000Y-97484000D01*
D32*
%TO.N,+1V2*%
X67375000Y-80522000D02*
X67778000Y-80925000D01*
X67778000Y-80925000D02*
X68713000Y-80925000D01*
X68713000Y-80925000D02*
X70084000Y-82296000D01*
D34*
%TO.N,+3V0*%
X56388000Y-89382000D02*
X55582000Y-89382000D01*
X55582000Y-89382000D02*
X54356000Y-88156000D01*
D32*
X54356000Y-88156000D02*
X54356000Y-87350000D01*
X56425000Y-89300000D02*
X56425000Y-90275000D01*
X59056428Y-91560000D02*
X60675000Y-89941428D01*
X56425000Y-90275000D02*
X57710000Y-91560000D01*
X57710000Y-91560000D02*
X59056428Y-91560000D01*
X60675000Y-89941428D02*
X60675000Y-89241428D01*
%TO.N,/SDA*%
X58425000Y-90625000D02*
X58425000Y-89300000D01*
%TO.N,/SCL*%
X60458000Y-93492572D02*
X62675000Y-91275572D01*
X62675000Y-91275572D02*
X62675000Y-89241428D01*
X62675000Y-89241428D02*
X70858572Y-89241428D01*
X70858572Y-89241428D02*
X71825000Y-88275000D01*
%TO.N,/SDA*%
X58425000Y-89300000D02*
X59625000Y-88100000D01*
X79502000Y-79948000D02*
X84328000Y-79948000D01*
X59625000Y-88100000D02*
X71350000Y-88100000D01*
X71350000Y-88100000D02*
X79502000Y-79948000D01*
%TO.N,GND*%
X75967381Y-76767189D02*
X75425000Y-77309570D01*
X74276000Y-87500000D02*
X74908000Y-86868000D01*
X76908000Y-76340198D02*
X76481009Y-76767189D01*
X84328000Y-78448000D02*
X86555486Y-78448000D01*
X75950000Y-80050000D02*
X75950000Y-78950000D01*
X76481009Y-76767189D02*
X75967381Y-76767189D01*
D33*
X65849000Y-97484000D02*
X65849000Y-98049000D01*
X61325000Y-85925000D02*
X62650000Y-85925000D01*
D32*
X71927000Y-77699198D02*
X71927000Y-76373000D01*
D33*
X58950000Y-99350000D02*
X58950000Y-98150000D01*
X58950000Y-98150000D02*
X58775000Y-97975000D01*
D32*
X69300000Y-83600000D02*
X68650000Y-83600000D01*
X72650000Y-75650000D02*
X75425000Y-78425000D01*
D33*
X67325000Y-96025000D02*
X67308000Y-96025000D01*
D32*
X86555486Y-78448000D02*
X87104486Y-77899000D01*
D33*
X65849000Y-98049000D02*
X65450000Y-98448000D01*
D32*
X87104486Y-77899000D02*
X89249000Y-77899000D01*
X68184000Y-83134000D02*
X68184000Y-82296000D01*
D33*
X62650000Y-85925000D02*
X64200000Y-87475000D01*
D32*
X89500000Y-78150000D02*
X89500000Y-78950000D01*
X71927000Y-76373000D02*
X72650000Y-75650000D01*
X75425000Y-77309570D02*
X75425000Y-78425000D01*
D33*
X65450000Y-98448000D02*
X65450000Y-99350000D01*
D32*
X68650000Y-83600000D02*
X68184000Y-83134000D01*
D33*
X67308000Y-96025000D02*
X66754000Y-96579000D01*
D32*
X73550000Y-87500000D02*
X74276000Y-87500000D01*
X72175802Y-77948000D02*
X71927000Y-77699198D01*
X89249000Y-77899000D02*
X89500000Y-78150000D01*
X72988000Y-77948000D02*
X72175802Y-77948000D01*
X76908000Y-75528000D02*
X76908000Y-76340198D01*
X75950000Y-78950000D02*
X75425000Y-78425000D01*
%TO.N,Net-(C1-Pad1)*%
X65700000Y-72550000D02*
X65904000Y-72754000D01*
X65700000Y-75200000D02*
X65700000Y-72550000D01*
%TO.N,Net-(C2-Pad1)*%
X68025000Y-70612000D02*
X68025000Y-70550000D01*
X68025000Y-70550000D02*
X67963000Y-70612000D01*
X67975000Y-70600000D02*
X68025000Y-70550000D01*
X68250000Y-70837000D02*
X68025000Y-70612000D01*
D33*
X65700000Y-70550000D02*
X68025000Y-70550000D01*
D32*
X68250000Y-74168000D02*
X68250000Y-70837000D01*
%TO.N,/XTAL1*%
X73706000Y-71506000D02*
X75908000Y-73708000D01*
X75908000Y-73708000D02*
X75908000Y-75528000D01*
X73706000Y-70612000D02*
X73706000Y-71506000D01*
X73706000Y-70612000D02*
X73706000Y-67056000D01*
%TO.N,/XTAL2*%
X78006000Y-70612000D02*
X78006000Y-72094000D01*
X78006000Y-67062000D02*
X78000000Y-67056000D01*
X76408000Y-73692000D02*
X76408000Y-75528000D01*
X78006000Y-70612000D02*
X78006000Y-67062000D01*
X78006000Y-72094000D02*
X76408000Y-73692000D01*
D35*
%TO.N,+5V*%
X55372000Y-63632000D02*
X54088000Y-64916000D01*
X63616000Y-63632000D02*
X55372000Y-63632000D01*
X54088000Y-64916000D02*
X54088000Y-68580000D01*
X69950000Y-54200000D02*
X69950000Y-57298000D01*
X69950000Y-57298000D02*
X74555000Y-61903000D01*
X69950000Y-57298000D02*
X63616000Y-63632000D01*
X74555000Y-61903000D02*
X83385000Y-61903000D01*
X83385000Y-61903000D02*
X88392000Y-56896000D01*
D32*
%TO.N,+3V0*%
X59950000Y-99350000D02*
X59950000Y-100650000D01*
D36*
X75408000Y-85892000D02*
X75950000Y-85350000D01*
D35*
X79550000Y-90100000D02*
X79850000Y-90100000D01*
D32*
X89550000Y-87200000D02*
X89600000Y-87150000D01*
D37*
X69892000Y-80448000D02*
X72988000Y-80448000D01*
D34*
X56400000Y-79822000D02*
X69134000Y-79822000D01*
D37*
X72988000Y-80448000D02*
X73848000Y-80448000D01*
D34*
X63742254Y-100650000D02*
X63921127Y-100828873D01*
D37*
X75461000Y-82061000D02*
X75903085Y-82061000D01*
D35*
X56388000Y-74610000D02*
X56388000Y-79810000D01*
X58160000Y-74610000D02*
X60845000Y-77295000D01*
D34*
X90450000Y-89400000D02*
X91650000Y-90600000D01*
X97650000Y-97900000D02*
X97650000Y-93150000D01*
D32*
X81392000Y-72578000D02*
X80045802Y-72578000D01*
D37*
X73848000Y-80448000D02*
X75461000Y-82061000D01*
D32*
X91650000Y-90600000D02*
X91650000Y-91350000D01*
D35*
X79850000Y-90100000D02*
X81400000Y-91650000D01*
D34*
X91650000Y-91350000D02*
X93450000Y-91350000D01*
D35*
X56388000Y-79810000D02*
X56400000Y-79822000D01*
D34*
X63921127Y-100828873D02*
X64442254Y-101350000D01*
D36*
X75408000Y-86020448D02*
X75408000Y-85892000D01*
X75408000Y-86020448D02*
X75408000Y-86868000D01*
D35*
X79550000Y-89000000D02*
X79550000Y-90100000D01*
D32*
X86680000Y-78948000D02*
X84328000Y-78948000D01*
D37*
X78154730Y-76594000D02*
X77908000Y-76347270D01*
D35*
X67148000Y-63850000D02*
X56388000Y-74610000D01*
D34*
X89550000Y-89400000D02*
X89550000Y-87200000D01*
D32*
X80045802Y-72578000D02*
X77908000Y-74715802D01*
D38*
X87600000Y-80300000D02*
X87600000Y-78950000D01*
D34*
X54990000Y-79810000D02*
X56388000Y-79810000D01*
D32*
X55946000Y-79822000D02*
X56400000Y-79822000D01*
D38*
X88175000Y-80875000D02*
X87600000Y-80300000D01*
D34*
X54356000Y-99568000D02*
X55438000Y-100650000D01*
D38*
X92800000Y-89450000D02*
X91650000Y-90600000D01*
D34*
X54356000Y-80444000D02*
X54356000Y-99568000D01*
D38*
X92800000Y-88800000D02*
X92800000Y-89450000D01*
D35*
X56388000Y-74610000D02*
X58160000Y-74610000D01*
D34*
X69134000Y-79822000D02*
X69200000Y-79756000D01*
D35*
X69350000Y-63850000D02*
X67148000Y-63850000D01*
D34*
X55438000Y-100650000D02*
X63742254Y-100650000D01*
X54356000Y-80444000D02*
X54990000Y-79810000D01*
D37*
X78154730Y-79809355D02*
X78154730Y-76594000D01*
D35*
X73764000Y-59436000D02*
X76708000Y-59436000D01*
D32*
X69200000Y-79756000D02*
X69892000Y-80448000D01*
X77908000Y-74715802D02*
X77908000Y-75528000D01*
X87600000Y-78950000D02*
X86682000Y-78950000D01*
X86682000Y-78950000D02*
X86680000Y-78948000D01*
D34*
X97650000Y-93150000D02*
X95850000Y-91350000D01*
X89550000Y-89400000D02*
X90450000Y-89400000D01*
D32*
X63458000Y-99236000D02*
X63458000Y-100365746D01*
D34*
X93450000Y-91350000D02*
X94050000Y-90750000D01*
D32*
X63458000Y-100365746D02*
X63921127Y-100828873D01*
D34*
X95850000Y-91350000D02*
X91650000Y-91350000D01*
D37*
X77908000Y-76347270D02*
X77908000Y-75528000D01*
D35*
X60845000Y-77295000D02*
X62800000Y-77295000D01*
D37*
X75903085Y-82061000D02*
X78154730Y-79809355D01*
D33*
%TO.N,/WIFI_RST*%
X89650000Y-91350000D02*
X89650000Y-92250000D01*
X86400000Y-91350000D02*
X89650000Y-91350000D01*
X70950000Y-79450000D02*
X70952000Y-79448000D01*
X89650000Y-92250000D02*
X90150000Y-92750000D01*
X70952000Y-79448000D02*
X72988000Y-79448000D01*
D32*
%TO.N,+1V2*%
X78400000Y-86860000D02*
X78408000Y-86868000D01*
X73800198Y-82948000D02*
X74049000Y-82699198D01*
X80000000Y-77250000D02*
X79908000Y-77158000D01*
X72175802Y-82948000D02*
X72988000Y-82948000D01*
X83327000Y-73625000D02*
X81957975Y-73625000D01*
X74908000Y-76908000D02*
X74908000Y-75528000D01*
X71432000Y-80948000D02*
X72988000Y-80948000D01*
X81430693Y-73625000D02*
X81010299Y-73625000D01*
X74049000Y-82699198D02*
X74049000Y-81196802D01*
X81010299Y-73625000D02*
X81007191Y-73621892D01*
D33*
X75475000Y-91425000D02*
X75900000Y-91425000D01*
D32*
X81953632Y-73620657D02*
X81435036Y-73620657D01*
X73800198Y-80948000D02*
X72988000Y-80948000D01*
X79908000Y-74203901D02*
X79908000Y-75528000D01*
X70150000Y-85852000D02*
X70150000Y-84973802D01*
X80121893Y-73990008D02*
X79908000Y-74203901D01*
X74908000Y-75528000D02*
X74908000Y-74508000D01*
X72400000Y-73200000D02*
X70150000Y-70950000D01*
X70150000Y-84973802D02*
X72175802Y-82948000D01*
X74908000Y-74508000D02*
X73600000Y-73200000D01*
X83800000Y-72575000D02*
X83800000Y-73152000D01*
D33*
X75900000Y-91425000D02*
X76955149Y-92480149D01*
D32*
X78789117Y-82823001D02*
X78912118Y-82700000D01*
X81007191Y-73621892D02*
X80488595Y-73621892D01*
X81435036Y-73620657D02*
X81430693Y-73625000D01*
X72988000Y-82948000D02*
X73800198Y-82948000D01*
X62958000Y-98078000D02*
X63500000Y-97536000D01*
X78400000Y-85600000D02*
X78400000Y-86860000D01*
X70084000Y-82296000D02*
X71432000Y-80948000D01*
X80121893Y-73988594D02*
X80121893Y-73990008D01*
X80488595Y-73621892D02*
X80121893Y-73988594D01*
X81957975Y-73625000D02*
X81953632Y-73620657D01*
X83800000Y-73152000D02*
X83327000Y-73625000D01*
X73600000Y-73200000D02*
X72400000Y-73200000D01*
X79908000Y-77158000D02*
X79908000Y-75528000D01*
X62958000Y-99236000D02*
X62958000Y-98078000D01*
X74049000Y-81196802D02*
X73800198Y-80948000D01*
X78912118Y-82700000D02*
X80450000Y-82700000D01*
X70150000Y-70950000D02*
X70150000Y-70550000D01*
%TO.N,Net-(D1-A)*%
X98044000Y-71660000D02*
X98044000Y-68806000D01*
%TO.N,Net-(D2-A)*%
X93980000Y-71660000D02*
X93980000Y-68806000D01*
%TO.N,Net-(D3-A)*%
X89916000Y-71660000D02*
X89916000Y-68806000D01*
D33*
%TO.N,Net-(D4-A)*%
X62800000Y-73035000D02*
X62790000Y-73025000D01*
X62800000Y-75295000D02*
X62800000Y-73035000D01*
D32*
X62800000Y-72905000D02*
X62790000Y-72895000D01*
%TO.N,/D1*%
X68458000Y-95312913D02*
X68458000Y-99236000D01*
X73724913Y-90046000D02*
X68458000Y-95312913D01*
X76542198Y-90046000D02*
X73724913Y-90046000D01*
X78908000Y-87680198D02*
X76542198Y-90046000D01*
X78908000Y-86868000D02*
X78908000Y-87680198D01*
%TO.N,/D0*%
X77908000Y-87680198D02*
X77908000Y-86868000D01*
X68080000Y-96520000D02*
X68080000Y-95156341D01*
X68080000Y-95156341D02*
X73568341Y-89668000D01*
X67458000Y-97142000D02*
X68080000Y-96520000D01*
X67458000Y-99236000D02*
X67458000Y-97142000D01*
X75920198Y-89668000D02*
X77908000Y-87680198D01*
X73568341Y-89668000D02*
X75920198Y-89668000D01*
%TO.N,/VSYNC*%
X76227157Y-88477157D02*
X76408000Y-88296314D01*
X66700000Y-92500000D02*
X61458000Y-97742000D01*
X76408000Y-88296314D02*
X76408000Y-86868000D01*
X61458000Y-97742000D02*
X61458000Y-99236000D01*
%TO.N,/PCLK*%
X66458000Y-99236000D02*
X66458000Y-97958000D01*
X66458000Y-97958000D02*
X66450000Y-97950000D01*
X71278843Y-84728843D02*
X71559686Y-84448000D01*
X71559686Y-84448000D02*
X72988000Y-84448000D01*
%TO.N,/HREF*%
X75908000Y-87795000D02*
X75908000Y-86868000D01*
X74603000Y-89100000D02*
X75908000Y-87795000D01*
X62458000Y-97692702D02*
X68964702Y-91186000D01*
X73560428Y-89100000D02*
X74603000Y-89100000D01*
X62458000Y-99236000D02*
X62458000Y-97692702D01*
X68964702Y-91186000D02*
X71474428Y-91186000D01*
X71474428Y-91186000D02*
X73560428Y-89100000D01*
%TO.N,/SDA*%
X59458000Y-99236000D02*
X59458000Y-95018000D01*
X59458000Y-95018000D02*
X58420000Y-93980000D01*
%TO.N,/D7*%
X63958000Y-97992000D02*
X63958000Y-99236000D01*
X70150000Y-91811000D02*
X70111000Y-91850000D01*
X80908000Y-77642000D02*
X80908000Y-75528000D01*
X74725000Y-83825000D02*
X80908000Y-77642000D01*
X70100000Y-91850000D02*
X63958000Y-97992000D01*
X70111000Y-91850000D02*
X70100000Y-91850000D01*
%TO.N,/XCLK*%
X70000000Y-84250000D02*
X71650000Y-82600000D01*
X67600000Y-84250000D02*
X70000000Y-84250000D01*
X64458000Y-99236000D02*
X64458000Y-98375884D01*
X71650000Y-81973802D02*
X72175802Y-81448000D01*
X71650000Y-82600000D02*
X71650000Y-81973802D01*
X64458000Y-98375884D02*
X65116942Y-97716942D01*
X72175802Y-81448000D02*
X72988000Y-81448000D01*
%TO.N,/D6*%
X74375999Y-101724000D02*
X83500000Y-92599999D01*
X87200000Y-81150000D02*
X86498000Y-80448000D01*
X64958000Y-99236000D02*
X64958000Y-100358000D01*
X64958000Y-100358000D02*
X66324000Y-101724000D01*
X86498000Y-80448000D02*
X84328000Y-80448000D01*
X87200000Y-86166732D02*
X87200000Y-81150000D01*
X66324000Y-101724000D02*
X74375999Y-101724000D01*
X83500000Y-92599999D02*
X83500000Y-89866732D01*
X83500000Y-89866732D02*
X87200000Y-86166732D01*
%TO.N,/D5*%
X83050000Y-89700000D02*
X83050000Y-92400000D01*
X65958000Y-100358000D02*
X65958000Y-99236000D01*
X85948000Y-80948000D02*
X86700000Y-81700000D01*
X74150000Y-101300000D02*
X66900000Y-101300000D01*
X86700000Y-81700000D02*
X86700000Y-86050000D01*
X86700000Y-86050000D02*
X83050000Y-89700000D01*
X84328000Y-80948000D02*
X85948000Y-80948000D01*
X66900000Y-101300000D02*
X65958000Y-100358000D01*
X83050000Y-92400000D02*
X74150000Y-101300000D01*
%TO.N,/RST_CAM*%
X71500000Y-85400000D02*
X71500000Y-86200000D01*
X60958000Y-97042000D02*
X66750000Y-91250000D01*
X66750000Y-91250000D02*
X68000000Y-91250000D01*
X60958000Y-99236000D02*
X60958000Y-97042000D01*
X71952000Y-84948000D02*
X71500000Y-85400000D01*
X72988000Y-84948000D02*
X71952000Y-84948000D01*
%TO.N,/D4*%
X82672000Y-89443428D02*
X82672000Y-92036514D01*
X73808514Y-100900000D02*
X67350000Y-100900000D01*
X85698000Y-82448000D02*
X86222000Y-82972000D01*
X86222000Y-82972000D02*
X86222000Y-85893428D01*
X67350000Y-100900000D02*
X66958000Y-100508000D01*
X82672000Y-92036514D02*
X73808514Y-100900000D01*
X66958000Y-100508000D02*
X66958000Y-99236000D01*
X84328000Y-82448000D02*
X85698000Y-82448000D01*
X86222000Y-85893428D02*
X82672000Y-89443428D01*
%TO.N,/D3*%
X85140198Y-82948000D02*
X85389000Y-83196802D01*
X85389000Y-86191856D02*
X82236971Y-89343885D01*
X82236971Y-91936971D02*
X82213029Y-91936971D01*
X67958000Y-100136000D02*
X67958000Y-99236000D01*
X82213029Y-91936971D02*
X73678000Y-100472000D01*
X82236971Y-89343885D02*
X82236971Y-91936971D01*
X68294000Y-100472000D02*
X67958000Y-100136000D01*
X73678000Y-100472000D02*
X68294000Y-100472000D01*
X84328000Y-82948000D02*
X85140198Y-82948000D01*
X85389000Y-83196802D02*
X85389000Y-86191856D01*
%TO.N,/SCL*%
X71825000Y-88275000D02*
X76652000Y-83448000D01*
X60458000Y-99236000D02*
X60458000Y-93492572D01*
X76652000Y-83448000D02*
X84328000Y-83448000D01*
%TO.N,/D2*%
X73881486Y-90424000D02*
X76962000Y-90424000D01*
X76962000Y-90424000D02*
X79408000Y-87978000D01*
X68958000Y-95347486D02*
X73881486Y-90424000D01*
X68958000Y-99236000D02*
X68958000Y-95347486D01*
X79408000Y-87978000D02*
X79408000Y-86868000D01*
%TO.N,/SWO*%
X82408000Y-76340198D02*
X81948198Y-76800000D01*
X82408000Y-75528000D02*
X82408000Y-76340198D01*
X81948198Y-76800000D02*
X81700000Y-76800000D01*
%TO.N,/SWDIO*%
X81694334Y-74246657D02*
X81408000Y-74532991D01*
X81408000Y-74532991D02*
X81408000Y-75528000D01*
D33*
%TO.N,/NRST*%
X94488000Y-82588000D02*
X93850000Y-81950000D01*
X94488000Y-85852000D02*
X94488000Y-82588000D01*
D32*
X76317189Y-77393189D02*
X77474000Y-78550000D01*
X84326000Y-81950000D02*
X84328000Y-81948000D01*
D33*
X93190000Y-87150000D02*
X91600000Y-87150000D01*
X94488000Y-85852000D02*
X93190000Y-87150000D01*
D32*
X77994000Y-58150000D02*
X74950000Y-58150000D01*
X76226679Y-77393189D02*
X76317189Y-77393189D01*
X79248000Y-56896000D02*
X77994000Y-58150000D01*
X74950000Y-58150000D02*
X74650000Y-58450000D01*
D33*
X85885140Y-81948000D02*
X84328000Y-81948000D01*
D32*
X79950000Y-81950000D02*
X84326000Y-81950000D01*
D33*
X85954901Y-81878239D02*
X85885140Y-81948000D01*
D32*
%TO.N,/SWDCLK*%
X80747893Y-74375909D02*
X80408000Y-74715802D01*
X80408000Y-74715802D02*
X80408000Y-75528000D01*
X80747893Y-74247892D02*
X80747893Y-74375909D01*
%TO.N,/LED1*%
X96240000Y-73660000D02*
X94350000Y-75550000D01*
X98044000Y-73660000D02*
X96240000Y-73660000D01*
%TO.N,/LED2*%
X92640000Y-75000000D02*
X89650000Y-75000000D01*
X93980000Y-73660000D02*
X92640000Y-75000000D01*
X89650000Y-75000000D02*
X89200000Y-75450000D01*
%TO.N,/LED3*%
X87600000Y-75500000D02*
X89440000Y-73660000D01*
X89440000Y-73660000D02*
X89916000Y-73660000D01*
%TO.N,/CTRL1*%
X83515802Y-79448000D02*
X82889000Y-78821198D01*
X82889000Y-76961000D02*
X87200000Y-72650000D01*
X87200000Y-72650000D02*
X87200000Y-70350000D01*
X82889000Y-78821198D02*
X82889000Y-76961000D01*
X84328000Y-79448000D02*
X83515802Y-79448000D01*
%TO.N,/WIFI_RX*%
X91550000Y-66064702D02*
X90235298Y-64750000D01*
X83267000Y-84696802D02*
X83267000Y-86017000D01*
D33*
X94623000Y-61777000D02*
X92850000Y-63550000D01*
D32*
X87300000Y-87550000D02*
X87874000Y-86976000D01*
X83515802Y-84448000D02*
X83267000Y-84696802D01*
X91550000Y-74000000D02*
X91550000Y-66064702D01*
D33*
X94623000Y-55507000D02*
X94623000Y-61777000D01*
D32*
X90235298Y-64750000D02*
X85850000Y-64750000D01*
D33*
X93472000Y-54356000D02*
X94623000Y-55507000D01*
D32*
X91550000Y-80050000D02*
X91550000Y-75725000D01*
X84328000Y-84448000D02*
X83515802Y-84448000D01*
X87874000Y-86976000D02*
X87874000Y-83726000D01*
D33*
X92850000Y-63550000D02*
X91100000Y-63550000D01*
D32*
X87874000Y-83726000D02*
X91550000Y-80050000D01*
X83267000Y-86017000D02*
X83750000Y-86500000D01*
D33*
%TO.N,/WIFI_PROV*%
X80300000Y-99750000D02*
X82450000Y-97600000D01*
X95650000Y-97900000D02*
X95100000Y-97900000D01*
X79522000Y-100528000D02*
X80300000Y-99750000D01*
X76919942Y-100528000D02*
X79522000Y-100528000D01*
X82450000Y-97600000D02*
X89852000Y-97600000D01*
X94500000Y-97300000D02*
X94500000Y-92976000D01*
X94500000Y-92976000D02*
X94488000Y-92964000D01*
X76691942Y-100300000D02*
X76919942Y-100528000D01*
X72986000Y-78450000D02*
X72988000Y-78448000D01*
X71050000Y-78450000D02*
X72986000Y-78450000D01*
X95100000Y-97900000D02*
X94500000Y-97300000D01*
X89852000Y-97600000D02*
X94488000Y-92964000D01*
D32*
%TO.N,/CTRL3*%
X85950000Y-76050000D02*
X86350000Y-75650000D01*
X84328000Y-77448000D02*
X85402000Y-77448000D01*
X85950000Y-76900000D02*
X85950000Y-76050000D01*
X85402000Y-77448000D02*
X85950000Y-76900000D01*
%TO.N,/MOSI*%
X82800000Y-63350000D02*
X87100000Y-59050000D01*
X87100000Y-59050000D02*
X89750000Y-59050000D01*
X73600000Y-63850000D02*
X74100000Y-63350000D01*
X74100000Y-63350000D02*
X82800000Y-63350000D01*
X77408000Y-85861983D02*
X77593049Y-85676934D01*
X77408000Y-86868000D02*
X77408000Y-85861983D01*
%TO.N,/WIFI_CS*%
X80300000Y-85400000D02*
X80408000Y-85508000D01*
X80408000Y-85508000D02*
X80408000Y-86868000D01*
%TO.N,/MISO*%
X92450000Y-79963288D02*
X92450000Y-75725000D01*
X88500000Y-83913288D02*
X92450000Y-79963288D01*
X79908000Y-88472702D02*
X81150000Y-89714702D01*
X79908000Y-86868000D02*
X79908000Y-88472702D01*
X92450000Y-74050000D02*
X92450000Y-66350000D01*
X81150000Y-89714702D02*
X81150000Y-89850000D01*
X88500000Y-88750000D02*
X88500000Y-83913288D01*
X92450000Y-66350000D02*
X88750000Y-62650000D01*
D33*
%TO.N,/WIFI_TX*%
X84275000Y-74050000D02*
X84413160Y-74050000D01*
X85249000Y-64501057D02*
X86541057Y-63209000D01*
X84275000Y-75007770D02*
X82511000Y-76771770D01*
X84413160Y-74050000D02*
X85249000Y-73214160D01*
D32*
X82418117Y-83948000D02*
X84328000Y-83948000D01*
D33*
X87159000Y-63209000D02*
X93472000Y-56896000D01*
X82511000Y-76771770D02*
X82511000Y-78089000D01*
X82511000Y-78089000D02*
X81600000Y-79000000D01*
X85249000Y-73214160D02*
X85249000Y-64501057D01*
D32*
X82293117Y-84073000D02*
X82418117Y-83948000D01*
D33*
X86541057Y-63209000D02*
X87159000Y-63209000D01*
X84275000Y-74050000D02*
X84275000Y-75007770D01*
D32*
X81701415Y-84073000D02*
X82293117Y-84073000D01*
%TO.N,/CTRL4*%
X83075000Y-80602875D02*
X79947125Y-80602875D01*
X79947125Y-80602875D02*
X77900000Y-82650000D01*
X73800198Y-78948000D02*
X72988000Y-78948000D01*
X75650000Y-81200000D02*
X75650000Y-80797802D01*
X75650000Y-80797802D02*
X73800198Y-78948000D01*
%TO.N,/SCK*%
X77455444Y-84594556D02*
X76908000Y-85142000D01*
X76908000Y-85142000D02*
X76908000Y-86868000D01*
X80925000Y-84600000D02*
X80433888Y-84600000D01*
X80428444Y-84594556D02*
X77455444Y-84594556D01*
X80433888Y-84600000D02*
X80428444Y-84594556D01*
%TO.N,/CTRL2*%
X83267000Y-77196802D02*
X83267000Y-77699198D01*
X83515802Y-77948000D02*
X84328000Y-77948000D01*
X83488000Y-76987000D02*
X83476802Y-76987000D01*
X84494020Y-75980980D02*
X83488000Y-76987000D01*
X83476802Y-76987000D02*
X83267000Y-77196802D01*
X83267000Y-77699198D02*
X83515802Y-77948000D01*
X85328822Y-75980980D02*
X84494020Y-75980980D01*
%TD*%
%TA.AperFunction,Conductor*%
%TO.N,GND*%
G36*
X57435154Y-52670185D02*
G01*
X57480909Y-52722989D01*
X57490853Y-52792147D01*
X57484297Y-52817833D01*
X57456403Y-52892620D01*
X57456401Y-52892627D01*
X57450000Y-52952155D01*
X57450000Y-53950000D01*
X59881000Y-53950000D01*
X59948039Y-53969685D01*
X59993794Y-54022489D01*
X60005000Y-54074000D01*
X60005000Y-54326000D01*
X59985315Y-54393039D01*
X59932511Y-54438794D01*
X59881000Y-54450000D01*
X59200000Y-54450000D01*
X59200000Y-55346000D01*
X59180315Y-55413039D01*
X59127511Y-55458794D01*
X59076000Y-55470000D01*
X58824000Y-55470000D01*
X58756961Y-55450315D01*
X58711206Y-55397511D01*
X58700000Y-55346000D01*
X58700000Y-54450000D01*
X57450000Y-54450000D01*
X57450000Y-55447844D01*
X57456401Y-55507372D01*
X57456403Y-55507379D01*
X57506645Y-55642086D01*
X57506649Y-55642093D01*
X57592809Y-55757187D01*
X57592812Y-55757190D01*
X57707906Y-55843350D01*
X57707913Y-55843354D01*
X57842620Y-55893596D01*
X57842627Y-55893598D01*
X57902155Y-55899999D01*
X57902172Y-55900000D01*
X58700000Y-55900000D01*
X58700000Y-55619400D01*
X58719685Y-55552361D01*
X58772489Y-55506606D01*
X58824000Y-55495400D01*
X59076000Y-55495400D01*
X59143039Y-55515085D01*
X59188794Y-55567889D01*
X59200000Y-55619400D01*
X59200000Y-55900000D01*
X59997828Y-55900000D01*
X59997844Y-55899999D01*
X60057372Y-55893598D01*
X60057379Y-55893596D01*
X60192086Y-55843354D01*
X60192093Y-55843350D01*
X60307187Y-55757190D01*
X60307190Y-55757187D01*
X60393350Y-55642093D01*
X60393354Y-55642086D01*
X60443596Y-55507379D01*
X60443598Y-55507372D01*
X60449999Y-55447844D01*
X60450000Y-55447827D01*
X60450000Y-54450000D01*
X60154400Y-54450000D01*
X60145714Y-54447449D01*
X60136753Y-54448738D01*
X60112712Y-54437759D01*
X60087361Y-54430315D01*
X60081433Y-54423474D01*
X60073197Y-54419713D01*
X60058907Y-54397478D01*
X60041606Y-54377511D01*
X60039318Y-54366996D01*
X60035423Y-54360935D01*
X60030400Y-54326000D01*
X60030400Y-54096530D01*
X63399500Y-54096530D01*
X63399500Y-54303469D01*
X63439868Y-54506412D01*
X63439870Y-54506420D01*
X63519058Y-54697596D01*
X63634024Y-54869657D01*
X63780342Y-55015975D01*
X63780345Y-55015977D01*
X63952402Y-55130941D01*
X64143580Y-55210130D01*
X64314199Y-55244068D01*
X64346530Y-55250499D01*
X64346534Y-55250500D01*
X64346535Y-55250500D01*
X64553466Y-55250500D01*
X64553467Y-55250499D01*
X64756420Y-55210130D01*
X64947598Y-55130941D01*
X65119655Y-55015977D01*
X65265977Y-54869655D01*
X65380941Y-54697598D01*
X65460130Y-54506420D01*
X65500500Y-54303465D01*
X65500500Y-54096535D01*
X65460130Y-53893580D01*
X65380941Y-53702402D01*
X65265977Y-53530345D01*
X65265975Y-53530342D01*
X65119657Y-53384024D01*
X65032651Y-53325889D01*
X64947598Y-53269059D01*
X64934590Y-53263671D01*
X64756420Y-53189870D01*
X64756412Y-53189868D01*
X64553469Y-53149500D01*
X64553465Y-53149500D01*
X64346535Y-53149500D01*
X64346530Y-53149500D01*
X64143587Y-53189868D01*
X64143579Y-53189870D01*
X63952403Y-53269058D01*
X63780342Y-53384024D01*
X63634024Y-53530342D01*
X63519058Y-53702403D01*
X63439870Y-53893579D01*
X63439868Y-53893587D01*
X63399500Y-54096530D01*
X60030400Y-54096530D01*
X60030400Y-54074000D01*
X60050085Y-54006961D01*
X60102889Y-53961206D01*
X60154400Y-53950000D01*
X60450000Y-53950000D01*
X60450000Y-52952172D01*
X60449999Y-52952155D01*
X60443598Y-52892627D01*
X60443596Y-52892620D01*
X60415703Y-52817833D01*
X60410719Y-52748141D01*
X60444204Y-52686818D01*
X60505527Y-52653334D01*
X60531885Y-52650500D01*
X68367582Y-52650500D01*
X68434621Y-52670185D01*
X68480376Y-52722989D01*
X68490320Y-52792147D01*
X68483764Y-52817833D01*
X68455908Y-52892517D01*
X68449501Y-52952116D01*
X68449501Y-52952123D01*
X68449500Y-52952135D01*
X68449500Y-55447870D01*
X68449501Y-55447876D01*
X68455908Y-55507483D01*
X68506202Y-55642328D01*
X68506206Y-55642335D01*
X68592452Y-55757544D01*
X68592455Y-55757547D01*
X68707664Y-55843793D01*
X68707671Y-55843797D01*
X68752618Y-55860561D01*
X68842517Y-55894091D01*
X68902127Y-55900500D01*
X69075500Y-55900499D01*
X69142539Y-55920183D01*
X69188294Y-55972987D01*
X69199500Y-56024499D01*
X69199500Y-56935770D01*
X69179815Y-57002809D01*
X69163181Y-57023451D01*
X63341451Y-62845181D01*
X63280128Y-62878666D01*
X63253770Y-62881500D01*
X56459230Y-62881500D01*
X56392191Y-62861815D01*
X56371549Y-62845181D01*
X56315657Y-62789289D01*
X56315656Y-62789288D01*
X56166334Y-62697186D01*
X55999797Y-62642001D01*
X55999795Y-62642000D01*
X55897010Y-62631500D01*
X54846998Y-62631500D01*
X54846980Y-62631501D01*
X54744203Y-62642000D01*
X54744200Y-62642001D01*
X54577668Y-62697185D01*
X54577663Y-62697187D01*
X54428342Y-62789289D01*
X54304289Y-62913342D01*
X54212187Y-63062663D01*
X54212185Y-63062668D01*
X54186359Y-63140606D01*
X54157001Y-63229203D01*
X54157001Y-63229204D01*
X54157000Y-63229204D01*
X54146500Y-63331983D01*
X54146500Y-63744769D01*
X54126815Y-63811808D01*
X54110181Y-63832450D01*
X53505047Y-64437584D01*
X53505043Y-64437589D01*
X53463011Y-64500498D01*
X53463010Y-64500500D01*
X53422919Y-64560499D01*
X53422912Y-64560511D01*
X53366343Y-64697082D01*
X53366340Y-64697092D01*
X53337500Y-64842079D01*
X53337500Y-67184421D01*
X53317815Y-67251460D01*
X53301181Y-67272102D01*
X53248053Y-67325229D01*
X53248046Y-67325238D01*
X53168726Y-67459361D01*
X53168724Y-67459366D01*
X53125252Y-67608997D01*
X53125251Y-67609003D01*
X53122500Y-67643962D01*
X53122500Y-69516037D01*
X53125251Y-69550996D01*
X53125252Y-69551002D01*
X53168724Y-69700633D01*
X53168726Y-69700638D01*
X53248046Y-69834761D01*
X53248053Y-69834770D01*
X53358229Y-69944946D01*
X53358238Y-69944953D01*
X53401967Y-69970814D01*
X53492362Y-70024274D01*
X53531822Y-70035738D01*
X53641997Y-70067747D01*
X53642000Y-70067747D01*
X53642002Y-70067748D01*
X53676968Y-70070500D01*
X53676974Y-70070500D01*
X54499026Y-70070500D01*
X54499032Y-70070500D01*
X54533998Y-70067748D01*
X54534000Y-70067747D01*
X54534002Y-70067747D01*
X54576590Y-70055374D01*
X54683638Y-70024274D01*
X54817765Y-69944951D01*
X54927951Y-69834765D01*
X55007274Y-69700638D01*
X55050748Y-69550998D01*
X55053500Y-69516032D01*
X55053500Y-67643968D01*
X55053500Y-67643962D01*
X55422500Y-67643962D01*
X55422500Y-69516037D01*
X55425251Y-69550996D01*
X55425252Y-69551002D01*
X55468724Y-69700633D01*
X55468726Y-69700638D01*
X55548046Y-69834761D01*
X55548053Y-69834770D01*
X55658229Y-69944946D01*
X55658238Y-69944953D01*
X55701967Y-69970814D01*
X55792362Y-70024274D01*
X55831822Y-70035738D01*
X55941997Y-70067747D01*
X55942000Y-70067747D01*
X55942002Y-70067748D01*
X55976968Y-70070500D01*
X55976974Y-70070500D01*
X56799026Y-70070500D01*
X56799032Y-70070500D01*
X56833998Y-70067748D01*
X56834000Y-70067747D01*
X56834002Y-70067747D01*
X56876590Y-70055374D01*
X56983638Y-70024274D01*
X57117765Y-69944951D01*
X57227951Y-69834765D01*
X57307274Y-69700638D01*
X57350748Y-69550998D01*
X57353500Y-69516032D01*
X57353500Y-69515995D01*
X57723000Y-69515995D01*
X57725748Y-69550917D01*
X57725749Y-69550923D01*
X57769186Y-69700433D01*
X57769188Y-69700436D01*
X57848445Y-69834452D01*
X57848451Y-69834461D01*
X57958538Y-69944548D01*
X57958547Y-69944554D01*
X58092563Y-70023811D01*
X58092566Y-70023813D01*
X58242076Y-70067250D01*
X58242082Y-70067251D01*
X58277004Y-70069999D01*
X58277020Y-70070000D01*
X58438000Y-70070000D01*
X58938000Y-70070000D01*
X59098980Y-70070000D01*
X59098995Y-70069999D01*
X59133917Y-70067251D01*
X59133923Y-70067250D01*
X59283433Y-70023813D01*
X59283436Y-70023811D01*
X59417452Y-69944554D01*
X59417461Y-69944548D01*
X59527548Y-69834461D01*
X59527554Y-69834452D01*
X59606811Y-69700436D01*
X59606813Y-69700433D01*
X59650250Y-69550923D01*
X59650251Y-69550917D01*
X59652999Y-69515995D01*
X59653000Y-69515980D01*
X59653000Y-68830000D01*
X58938000Y-68830000D01*
X58938000Y-70070000D01*
X58438000Y-70070000D01*
X58438000Y-68830000D01*
X57723000Y-68830000D01*
X57723000Y-69515995D01*
X57353500Y-69515995D01*
X57353500Y-67644004D01*
X57723000Y-67644004D01*
X57723000Y-68330000D01*
X58438000Y-68330000D01*
X58938000Y-68330000D01*
X59653000Y-68330000D01*
X59653000Y-67644019D01*
X59652999Y-67644004D01*
X59650251Y-67609082D01*
X59650250Y-67609076D01*
X59606813Y-67459566D01*
X59606811Y-67459563D01*
X59527554Y-67325547D01*
X59527548Y-67325538D01*
X59417461Y-67215451D01*
X59417452Y-67215445D01*
X59283436Y-67136188D01*
X59283433Y-67136186D01*
X59133923Y-67092749D01*
X59133917Y-67092748D01*
X59098995Y-67090000D01*
X58938000Y-67090000D01*
X58938000Y-68330000D01*
X58438000Y-68330000D01*
X58438000Y-67090000D01*
X58277004Y-67090000D01*
X58242082Y-67092748D01*
X58242076Y-67092749D01*
X58092566Y-67136186D01*
X58092563Y-67136188D01*
X57958547Y-67215445D01*
X57958538Y-67215451D01*
X57848451Y-67325538D01*
X57848445Y-67325547D01*
X57769188Y-67459563D01*
X57769186Y-67459566D01*
X57725749Y-67609076D01*
X57725748Y-67609082D01*
X57723000Y-67644004D01*
X57353500Y-67644004D01*
X57353500Y-67643968D01*
X57350748Y-67609002D01*
X57307274Y-67459362D01*
X57227951Y-67325235D01*
X57227949Y-67325233D01*
X57227946Y-67325229D01*
X57117770Y-67215053D01*
X57117761Y-67215046D01*
X56983638Y-67135726D01*
X56983633Y-67135724D01*
X56834002Y-67092252D01*
X56833996Y-67092251D01*
X56799037Y-67089500D01*
X56799032Y-67089500D01*
X55976968Y-67089500D01*
X55976962Y-67089500D01*
X55942003Y-67092251D01*
X55941997Y-67092252D01*
X55792366Y-67135724D01*
X55792361Y-67135726D01*
X55658238Y-67215046D01*
X55658229Y-67215053D01*
X55548053Y-67325229D01*
X55548046Y-67325238D01*
X55468726Y-67459361D01*
X55468724Y-67459366D01*
X55425252Y-67608997D01*
X55425251Y-67609003D01*
X55422500Y-67643962D01*
X55053500Y-67643962D01*
X55050748Y-67609002D01*
X55007274Y-67459362D01*
X54927951Y-67325235D01*
X54927949Y-67325233D01*
X54927946Y-67325229D01*
X54874819Y-67272102D01*
X54841334Y-67210779D01*
X54838500Y-67184421D01*
X54838500Y-66655999D01*
X54858185Y-66588960D01*
X54910989Y-66543205D01*
X54962500Y-66531999D01*
X55121999Y-66531999D01*
X55622000Y-66531999D01*
X55896972Y-66531999D01*
X55896986Y-66531998D01*
X55999697Y-66521505D01*
X56166119Y-66466358D01*
X56166124Y-66466356D01*
X56315345Y-66374315D01*
X56439315Y-66250345D01*
X56531356Y-66101124D01*
X56531358Y-66101119D01*
X56586505Y-65934697D01*
X56586506Y-65934690D01*
X56596999Y-65831986D01*
X56597000Y-65831973D01*
X56597000Y-65782000D01*
X55622000Y-65782000D01*
X55622000Y-66531999D01*
X55121999Y-66531999D01*
X55122000Y-66531998D01*
X55122000Y-65656000D01*
X55141685Y-65588961D01*
X55194489Y-65543206D01*
X55246000Y-65532000D01*
X55372000Y-65532000D01*
X55372000Y-65406000D01*
X55391685Y-65338961D01*
X55444489Y-65293206D01*
X55496000Y-65282000D01*
X56596999Y-65282000D01*
X56596999Y-65232028D01*
X56596998Y-65232013D01*
X56586505Y-65129302D01*
X56531358Y-64962880D01*
X56531356Y-64962875D01*
X56439315Y-64813654D01*
X56315344Y-64689683D01*
X56315341Y-64689681D01*
X56312339Y-64687829D01*
X56310713Y-64686021D01*
X56309677Y-64685202D01*
X56309817Y-64685024D01*
X56265617Y-64635880D01*
X56254397Y-64566917D01*
X56282243Y-64502836D01*
X56293157Y-64491341D01*
X56302036Y-64483112D01*
X56315656Y-64474712D01*
X56373214Y-64417153D01*
X56374947Y-64415548D01*
X56404197Y-64400991D01*
X56432872Y-64385334D01*
X56436428Y-64384951D01*
X56437499Y-64384419D01*
X56439419Y-64384630D01*
X56459230Y-64382500D01*
X63689920Y-64382500D01*
X63801562Y-64360292D01*
X63834913Y-64353658D01*
X63971495Y-64297084D01*
X64027902Y-64259394D01*
X64094416Y-64214952D01*
X68237821Y-60071545D01*
X68299142Y-60038062D01*
X68368834Y-60043046D01*
X68424767Y-60084918D01*
X68449184Y-60150382D01*
X68449500Y-60159228D01*
X68449500Y-61647870D01*
X68449501Y-61647876D01*
X68455908Y-61707483D01*
X68506202Y-61842328D01*
X68506206Y-61842335D01*
X68592452Y-61957544D01*
X68592455Y-61957547D01*
X68707664Y-62043793D01*
X68707671Y-62043797D01*
X68842517Y-62094091D01*
X68842516Y-62094091D01*
X68849444Y-62094835D01*
X68902127Y-62100500D01*
X70997872Y-62100499D01*
X71057483Y-62094091D01*
X71192331Y-62043796D01*
X71307546Y-61957546D01*
X71393796Y-61842331D01*
X71444091Y-61707483D01*
X71450500Y-61647873D01*
X71450499Y-60159227D01*
X71470184Y-60092189D01*
X71522987Y-60046434D01*
X71592146Y-60036490D01*
X71655702Y-60065515D01*
X71662180Y-60071547D01*
X73972048Y-62381415D01*
X73972049Y-62381416D01*
X74076583Y-62485950D01*
X74094674Y-62498038D01*
X74139479Y-62551650D01*
X74148188Y-62620975D01*
X74118033Y-62684003D01*
X74058591Y-62720722D01*
X74041188Y-62723943D01*
X73977971Y-62736518D01*
X73917548Y-62748537D01*
X73917543Y-62748538D01*
X73883546Y-62762620D01*
X73870397Y-62768067D01*
X73803718Y-62795685D01*
X73784571Y-62808479D01*
X73778190Y-62812743D01*
X73778189Y-62812744D01*
X73778188Y-62812743D01*
X73701266Y-62864142D01*
X73701265Y-62864143D01*
X73657704Y-62907705D01*
X73614142Y-62951267D01*
X73614139Y-62951270D01*
X73541203Y-63024206D01*
X73479879Y-63057690D01*
X73477714Y-63058141D01*
X73366508Y-63080261D01*
X73366498Y-63080264D01*
X73220827Y-63140602D01*
X73220814Y-63140609D01*
X73089711Y-63228210D01*
X73089707Y-63228213D01*
X72978213Y-63339707D01*
X72978210Y-63339711D01*
X72890609Y-63470814D01*
X72890602Y-63470827D01*
X72830264Y-63616498D01*
X72830261Y-63616510D01*
X72799500Y-63771153D01*
X72799500Y-63928846D01*
X72830261Y-64083489D01*
X72830263Y-64083497D01*
X72852039Y-64136071D01*
X72859506Y-64205541D01*
X72828230Y-64268019D01*
X72802575Y-64289060D01*
X72762656Y-64313682D01*
X72638684Y-64437654D01*
X72546643Y-64586875D01*
X72546641Y-64586880D01*
X72491494Y-64753302D01*
X72491493Y-64753309D01*
X72481000Y-64856013D01*
X72481000Y-64906000D01*
X74930999Y-64906000D01*
X74930999Y-64856028D01*
X74930998Y-64856013D01*
X74920505Y-64753302D01*
X74865358Y-64586880D01*
X74865356Y-64586875D01*
X74773315Y-64437654D01*
X74649345Y-64313684D01*
X74500124Y-64221643D01*
X74500121Y-64221642D01*
X74486733Y-64217206D01*
X74429289Y-64177433D01*
X74402466Y-64112917D01*
X74414781Y-64044141D01*
X74462325Y-63992941D01*
X74525738Y-63975500D01*
X77180262Y-63975500D01*
X77247301Y-63995185D01*
X77293056Y-64047989D01*
X77303000Y-64117147D01*
X77273975Y-64180703D01*
X77219267Y-64217206D01*
X77205878Y-64221642D01*
X77205875Y-64221643D01*
X77056654Y-64313684D01*
X76932684Y-64437654D01*
X76840643Y-64586875D01*
X76840641Y-64586880D01*
X76785494Y-64753302D01*
X76785493Y-64753309D01*
X76775000Y-64856013D01*
X76775000Y-64906000D01*
X79224999Y-64906000D01*
X79224999Y-64856028D01*
X79224998Y-64856013D01*
X79214505Y-64753302D01*
X79159358Y-64586880D01*
X79159356Y-64586875D01*
X79067315Y-64437654D01*
X78943345Y-64313684D01*
X78794124Y-64221643D01*
X78794121Y-64221642D01*
X78780733Y-64217206D01*
X78723289Y-64177433D01*
X78696466Y-64112917D01*
X78708781Y-64044141D01*
X78756325Y-63992941D01*
X78819738Y-63975500D01*
X82315547Y-63975500D01*
X82382586Y-63995185D01*
X82428341Y-64047989D01*
X82438285Y-64117147D01*
X82409260Y-64180703D01*
X82403228Y-64187181D01*
X79437180Y-67153228D01*
X79375857Y-67186713D01*
X79306165Y-67181729D01*
X79250232Y-67139857D01*
X79225815Y-67074393D01*
X79225499Y-67065561D01*
X79225499Y-66755992D01*
X79221755Y-66719345D01*
X79214999Y-66653203D01*
X79214998Y-66653200D01*
X79178549Y-66543205D01*
X79159814Y-66486666D01*
X79067712Y-66337344D01*
X78943656Y-66213288D01*
X78940342Y-66211243D01*
X78938546Y-66209248D01*
X78937989Y-66208807D01*
X78938064Y-66208711D01*
X78893618Y-66159297D01*
X78882397Y-66090334D01*
X78910240Y-66026252D01*
X78940348Y-66000165D01*
X78943342Y-65998318D01*
X79067315Y-65874345D01*
X79159356Y-65725124D01*
X79159358Y-65725119D01*
X79214505Y-65558697D01*
X79214506Y-65558690D01*
X79224999Y-65455986D01*
X79225000Y-65455973D01*
X79225000Y-65406000D01*
X76775001Y-65406000D01*
X76775001Y-65455986D01*
X76785494Y-65558697D01*
X76840641Y-65725119D01*
X76840643Y-65725124D01*
X76932684Y-65874345D01*
X77056655Y-65998316D01*
X77056659Y-65998319D01*
X77059656Y-66000168D01*
X77061279Y-66001972D01*
X77062323Y-66002798D01*
X77062181Y-66002976D01*
X77106381Y-66052116D01*
X77117602Y-66121079D01*
X77089759Y-66185161D01*
X77059661Y-66211241D01*
X77056349Y-66213283D01*
X77056343Y-66213288D01*
X76932289Y-66337342D01*
X76840187Y-66486663D01*
X76840186Y-66486666D01*
X76785001Y-66653203D01*
X76785001Y-66653204D01*
X76785000Y-66653204D01*
X76774500Y-66755983D01*
X76774500Y-67356001D01*
X76774501Y-67356019D01*
X76785000Y-67458796D01*
X76785001Y-67458799D01*
X76827945Y-67588394D01*
X76840186Y-67625334D01*
X76932288Y-67774656D01*
X77056344Y-67898712D01*
X77205666Y-67990814D01*
X77295505Y-68020583D01*
X77352949Y-68060356D01*
X77379772Y-68124871D01*
X77380500Y-68138289D01*
X77380500Y-68687500D01*
X77360815Y-68754539D01*
X77308011Y-68800294D01*
X77256500Y-68811500D01*
X77008130Y-68811500D01*
X77008123Y-68811501D01*
X76948516Y-68817908D01*
X76813671Y-68868202D01*
X76813664Y-68868206D01*
X76698455Y-68954452D01*
X76698452Y-68954455D01*
X76612206Y-69069664D01*
X76612202Y-69069671D01*
X76561908Y-69204517D01*
X76555501Y-69264116D01*
X76555501Y-69264123D01*
X76555500Y-69264135D01*
X76555500Y-71959870D01*
X76555501Y-71959876D01*
X76561908Y-72019483D01*
X76612202Y-72154328D01*
X76612206Y-72154335D01*
X76698452Y-72269544D01*
X76698455Y-72269547D01*
X76725385Y-72289707D01*
X76767256Y-72345640D01*
X76772240Y-72415332D01*
X76738755Y-72476654D01*
X76237680Y-72977728D01*
X76176357Y-73011213D01*
X76106665Y-73006229D01*
X76062318Y-72977728D01*
X75187573Y-72102983D01*
X75154088Y-72041660D01*
X75151965Y-72002050D01*
X75156500Y-71959873D01*
X75156499Y-69264128D01*
X75150091Y-69204517D01*
X75127026Y-69142677D01*
X75099797Y-69069671D01*
X75099793Y-69069664D01*
X75013547Y-68954455D01*
X75013544Y-68954452D01*
X74898335Y-68868206D01*
X74898328Y-68868202D01*
X74763482Y-68817908D01*
X74763483Y-68817908D01*
X74703883Y-68811501D01*
X74703881Y-68811500D01*
X74703873Y-68811500D01*
X74703865Y-68811500D01*
X74455500Y-68811500D01*
X74388461Y-68791815D01*
X74342706Y-68739011D01*
X74331500Y-68687500D01*
X74331500Y-68136300D01*
X74351185Y-68069261D01*
X74403989Y-68023506D01*
X74416482Y-68018599D01*
X74500334Y-67990814D01*
X74649656Y-67898712D01*
X74773712Y-67774656D01*
X74865814Y-67625334D01*
X74920999Y-67458797D01*
X74931500Y-67356009D01*
X74931499Y-66755992D01*
X74927755Y-66719345D01*
X74920999Y-66653203D01*
X74920998Y-66653200D01*
X74884549Y-66543205D01*
X74865814Y-66486666D01*
X74773712Y-66337344D01*
X74649656Y-66213288D01*
X74646342Y-66211243D01*
X74644546Y-66209248D01*
X74643989Y-66208807D01*
X74644064Y-66208711D01*
X74599618Y-66159297D01*
X74588397Y-66090334D01*
X74616240Y-66026252D01*
X74646348Y-66000165D01*
X74649342Y-65998318D01*
X74773315Y-65874345D01*
X74865356Y-65725124D01*
X74865358Y-65725119D01*
X74920505Y-65558697D01*
X74920506Y-65558690D01*
X74930999Y-65455986D01*
X74931000Y-65455973D01*
X74931000Y-65406000D01*
X72481001Y-65406000D01*
X72481001Y-65455986D01*
X72491494Y-65558697D01*
X72546641Y-65725119D01*
X72546643Y-65725124D01*
X72638684Y-65874345D01*
X72762655Y-65998316D01*
X72762659Y-65998319D01*
X72765656Y-66000168D01*
X72767279Y-66001972D01*
X72768323Y-66002798D01*
X72768181Y-66002976D01*
X72812381Y-66052116D01*
X72823602Y-66121079D01*
X72795759Y-66185161D01*
X72765661Y-66211241D01*
X72762349Y-66213283D01*
X72762343Y-66213288D01*
X72638289Y-66337342D01*
X72546187Y-66486663D01*
X72546186Y-66486666D01*
X72491001Y-66653203D01*
X72491001Y-66653204D01*
X72491000Y-66653204D01*
X72480500Y-66755983D01*
X72480500Y-67356001D01*
X72480501Y-67356019D01*
X72491000Y-67458796D01*
X72491001Y-67458799D01*
X72533945Y-67588394D01*
X72546186Y-67625334D01*
X72638288Y-67774656D01*
X72762344Y-67898712D01*
X72911666Y-67990814D01*
X72995505Y-68018595D01*
X73052948Y-68058366D01*
X73079772Y-68122882D01*
X73080500Y-68136300D01*
X73080500Y-68687500D01*
X73060815Y-68754539D01*
X73008011Y-68800294D01*
X72956500Y-68811500D01*
X72708130Y-68811500D01*
X72708123Y-68811501D01*
X72648516Y-68817908D01*
X72513671Y-68868202D01*
X72513664Y-68868206D01*
X72398455Y-68954452D01*
X72398452Y-68954455D01*
X72312206Y-69069664D01*
X72312202Y-69069671D01*
X72261908Y-69204517D01*
X72255501Y-69264116D01*
X72255501Y-69264123D01*
X72255500Y-69264135D01*
X72255500Y-71871548D01*
X72235815Y-71938587D01*
X72183011Y-71984342D01*
X72113853Y-71994286D01*
X72050297Y-71965261D01*
X72043828Y-71959238D01*
X71591256Y-71506666D01*
X71124319Y-71039728D01*
X71090834Y-70978405D01*
X71088000Y-70952047D01*
X71088000Y-70120831D01*
X71087999Y-70120818D01*
X71082858Y-70070500D01*
X71077936Y-70022315D01*
X71025049Y-69862713D01*
X71025045Y-69862707D01*
X71025044Y-69862704D01*
X70936783Y-69719612D01*
X70936780Y-69719608D01*
X70817891Y-69600719D01*
X70817887Y-69600716D01*
X70674795Y-69512455D01*
X70674789Y-69512452D01*
X70674787Y-69512451D01*
X70515185Y-69459564D01*
X70515183Y-69459563D01*
X70416681Y-69449500D01*
X70416674Y-69449500D01*
X69883326Y-69449500D01*
X69883318Y-69449500D01*
X69784816Y-69459563D01*
X69784815Y-69459564D01*
X69705719Y-69485773D01*
X69625215Y-69512450D01*
X69625204Y-69512455D01*
X69482112Y-69600716D01*
X69482108Y-69600719D01*
X69363219Y-69719608D01*
X69363216Y-69719612D01*
X69274955Y-69862704D01*
X69274950Y-69862715D01*
X69252222Y-69931303D01*
X69222064Y-70022315D01*
X69222064Y-70022316D01*
X69222063Y-70022316D01*
X69212000Y-70120818D01*
X69212000Y-70979181D01*
X69222063Y-71077683D01*
X69274950Y-71237284D01*
X69274955Y-71237295D01*
X69363216Y-71380387D01*
X69363219Y-71380391D01*
X69482108Y-71499280D01*
X69482112Y-71499283D01*
X69625204Y-71587544D01*
X69625207Y-71587545D01*
X69625213Y-71587549D01*
X69784815Y-71640436D01*
X69883326Y-71650500D01*
X69914548Y-71650500D01*
X69981587Y-71670185D01*
X70002229Y-71686819D01*
X71574205Y-73258796D01*
X71607690Y-73320119D01*
X71608141Y-73322286D01*
X71630261Y-73433489D01*
X71630264Y-73433501D01*
X71690602Y-73579172D01*
X71690609Y-73579185D01*
X71778210Y-73710288D01*
X71778213Y-73710292D01*
X71889707Y-73821786D01*
X71889711Y-73821789D01*
X72020814Y-73909390D01*
X72020827Y-73909397D01*
X72166498Y-73969735D01*
X72166503Y-73969737D01*
X72299204Y-73996133D01*
X72321153Y-74000499D01*
X72321156Y-74000500D01*
X72321158Y-74000500D01*
X72478844Y-74000500D01*
X72478845Y-74000499D01*
X72633497Y-73969737D01*
X72746166Y-73923067D01*
X72779172Y-73909397D01*
X72779172Y-73909396D01*
X72779179Y-73909394D01*
X72873459Y-73846398D01*
X72940136Y-73825520D01*
X72942350Y-73825500D01*
X73289548Y-73825500D01*
X73356587Y-73845185D01*
X73377228Y-73861818D01*
X74236182Y-74720773D01*
X74269666Y-74782094D01*
X74272500Y-74808452D01*
X74272500Y-76271078D01*
X74281615Y-76346979D01*
X74282500Y-76361764D01*
X74282500Y-76365650D01*
X74262815Y-76432689D01*
X74261602Y-76434541D01*
X74198609Y-76528815D01*
X74198602Y-76528828D01*
X74138264Y-76674498D01*
X74138261Y-76674508D01*
X74116504Y-76783885D01*
X74084118Y-76845796D01*
X74023402Y-76880370D01*
X73953633Y-76876629D01*
X73949397Y-76875048D01*
X73816929Y-76822809D01*
X73772861Y-76817517D01*
X73731078Y-76812500D01*
X72244922Y-76812500D01*
X72180532Y-76820232D01*
X72159067Y-76822810D01*
X72022450Y-76876685D01*
X72022444Y-76876688D01*
X71905426Y-76965426D01*
X71816688Y-77082444D01*
X71816685Y-77082450D01*
X71762810Y-77219067D01*
X71762810Y-77219069D01*
X71752500Y-77304922D01*
X71752500Y-77591078D01*
X71761997Y-77670158D01*
X71763758Y-77684825D01*
X71763142Y-77684898D01*
X71763838Y-77714708D01*
X71760768Y-77740280D01*
X71733233Y-77804496D01*
X71675351Y-77843630D01*
X71637652Y-77849500D01*
X71629766Y-77849500D01*
X71614600Y-77845046D01*
X71605501Y-77845259D01*
X71596389Y-77839699D01*
X71562727Y-77829815D01*
X71560875Y-77828602D01*
X71429185Y-77740609D01*
X71429172Y-77740602D01*
X71283501Y-77680264D01*
X71283489Y-77680261D01*
X71128845Y-77649500D01*
X71128842Y-77649500D01*
X70971158Y-77649500D01*
X70971155Y-77649500D01*
X70816510Y-77680261D01*
X70816498Y-77680264D01*
X70670827Y-77740602D01*
X70670816Y-77740608D01*
X70617889Y-77775973D01*
X70551211Y-77796850D01*
X70483831Y-77778365D01*
X70437142Y-77726386D01*
X70424999Y-77672870D01*
X70424999Y-77556028D01*
X70424998Y-77556013D01*
X70414505Y-77453302D01*
X70359358Y-77286880D01*
X70359356Y-77286875D01*
X70267315Y-77137654D01*
X70143345Y-77013684D01*
X69994124Y-76921643D01*
X69994119Y-76921641D01*
X69827697Y-76866494D01*
X69827690Y-76866493D01*
X69724986Y-76856000D01*
X69450000Y-76856000D01*
X69450000Y-77732000D01*
X69430315Y-77799039D01*
X69377511Y-77844794D01*
X69326000Y-77856000D01*
X69200000Y-77856000D01*
X69200000Y-77982000D01*
X69180315Y-78049039D01*
X69127511Y-78094794D01*
X69076000Y-78106000D01*
X67975001Y-78106000D01*
X67975001Y-78155986D01*
X67985494Y-78258697D01*
X68040641Y-78425119D01*
X68040643Y-78425124D01*
X68132684Y-78574345D01*
X68256655Y-78698316D01*
X68256659Y-78698319D01*
X68259656Y-78700168D01*
X68261279Y-78701972D01*
X68262323Y-78702798D01*
X68262181Y-78702976D01*
X68306381Y-78752116D01*
X68317602Y-78821079D01*
X68289759Y-78885161D01*
X68259661Y-78911241D01*
X68256349Y-78913283D01*
X68256343Y-78913288D01*
X68132287Y-79037344D01*
X68116711Y-79062598D01*
X68064763Y-79109322D01*
X68011173Y-79121500D01*
X57537231Y-79121500D01*
X57470192Y-79101815D01*
X57449550Y-79085182D01*
X57398872Y-79034504D01*
X57343656Y-78979288D01*
X57197402Y-78889078D01*
X57150679Y-78837131D01*
X57138500Y-78783540D01*
X57138500Y-76224499D01*
X57158185Y-76157460D01*
X57210989Y-76111705D01*
X57262500Y-76100499D01*
X57805336Y-76100499D01*
X57805342Y-76100499D01*
X57907788Y-76090034D01*
X58073770Y-76035033D01*
X58222594Y-75943237D01*
X58239547Y-75926282D01*
X58300867Y-75892796D01*
X58370559Y-75897777D01*
X58414912Y-75926280D01*
X59338633Y-76850000D01*
X60262048Y-77773415D01*
X60262049Y-77773416D01*
X60316844Y-77828211D01*
X60366585Y-77877952D01*
X60489498Y-77960080D01*
X60489511Y-77960087D01*
X60609175Y-78009653D01*
X60626087Y-78016658D01*
X60626091Y-78016658D01*
X60626092Y-78016659D01*
X60771079Y-78045500D01*
X60771082Y-78045500D01*
X61646042Y-78045500D01*
X61713081Y-78065185D01*
X61751580Y-78104402D01*
X61757288Y-78113656D01*
X61881344Y-78237712D01*
X62030666Y-78329814D01*
X62197203Y-78384999D01*
X62299991Y-78395500D01*
X63300008Y-78395499D01*
X63300016Y-78395498D01*
X63300019Y-78395498D01*
X63356302Y-78389748D01*
X63402797Y-78384999D01*
X63569334Y-78329814D01*
X63718656Y-78237712D01*
X63842712Y-78113656D01*
X63934814Y-77964334D01*
X63989999Y-77797797D01*
X64000500Y-77695009D01*
X64000499Y-77399986D01*
X64475001Y-77399986D01*
X64485494Y-77502697D01*
X64540641Y-77669119D01*
X64540643Y-77669124D01*
X64632684Y-77818345D01*
X64756654Y-77942315D01*
X64905875Y-78034356D01*
X64905880Y-78034358D01*
X65072302Y-78089505D01*
X65072309Y-78089506D01*
X65175019Y-78099999D01*
X65449999Y-78099999D01*
X65950000Y-78099999D01*
X66224972Y-78099999D01*
X66224986Y-78099998D01*
X66327697Y-78089505D01*
X66494119Y-78034358D01*
X66494124Y-78034356D01*
X66643345Y-77942315D01*
X66767315Y-77818345D01*
X66859356Y-77669124D01*
X66859358Y-77669119D01*
X66896838Y-77556013D01*
X67975000Y-77556013D01*
X67975000Y-77606000D01*
X68950000Y-77606000D01*
X68950000Y-76856000D01*
X68675029Y-76856000D01*
X68675012Y-76856001D01*
X68572302Y-76866494D01*
X68405880Y-76921641D01*
X68405875Y-76921643D01*
X68256654Y-77013684D01*
X68132684Y-77137654D01*
X68040643Y-77286875D01*
X68040641Y-77286880D01*
X67985494Y-77453302D01*
X67985493Y-77453309D01*
X67975000Y-77556013D01*
X66896838Y-77556013D01*
X66910806Y-77513860D01*
X66910807Y-77513858D01*
X66914504Y-77502702D01*
X66914506Y-77502690D01*
X66924999Y-77399986D01*
X66925000Y-77399973D01*
X66925000Y-77350000D01*
X65950000Y-77350000D01*
X65950000Y-78099999D01*
X65449999Y-78099999D01*
X65450000Y-78099998D01*
X65450000Y-77350000D01*
X64475001Y-77350000D01*
X64475001Y-77399986D01*
X64000499Y-77399986D01*
X64000499Y-77286880D01*
X64000499Y-76894998D01*
X64000498Y-76894980D01*
X63989999Y-76792203D01*
X63989998Y-76792200D01*
X63985514Y-76778668D01*
X63934814Y-76625666D01*
X63842712Y-76476344D01*
X63749049Y-76382681D01*
X63715564Y-76321358D01*
X63720548Y-76251666D01*
X63749049Y-76207319D01*
X63794433Y-76161935D01*
X63842712Y-76113656D01*
X63934814Y-75964334D01*
X63989999Y-75797797D01*
X64000500Y-75695009D01*
X64000499Y-74899983D01*
X64474500Y-74899983D01*
X64474500Y-75500001D01*
X64474501Y-75500019D01*
X64485000Y-75602796D01*
X64485001Y-75602799D01*
X64540185Y-75769331D01*
X64540187Y-75769336D01*
X64561472Y-75803844D01*
X64632288Y-75918656D01*
X64756344Y-76042712D01*
X64759628Y-76044737D01*
X64759653Y-76044753D01*
X64761445Y-76046746D01*
X64762011Y-76047193D01*
X64761934Y-76047289D01*
X64806379Y-76096699D01*
X64817603Y-76165661D01*
X64789761Y-76229744D01*
X64759665Y-76255826D01*
X64756660Y-76257679D01*
X64756655Y-76257683D01*
X64632684Y-76381654D01*
X64540643Y-76530875D01*
X64540641Y-76530880D01*
X64485494Y-76697302D01*
X64485493Y-76697309D01*
X64475000Y-76800013D01*
X64475000Y-76850000D01*
X66924999Y-76850000D01*
X66924999Y-76800028D01*
X66924998Y-76800013D01*
X66914505Y-76697302D01*
X66859358Y-76530880D01*
X66859356Y-76530875D01*
X66767315Y-76381654D01*
X66643344Y-76257683D01*
X66643341Y-76257681D01*
X66640339Y-76255829D01*
X66638713Y-76254021D01*
X66637677Y-76253202D01*
X66637817Y-76253024D01*
X66593617Y-76203880D01*
X66582397Y-76134917D01*
X66610243Y-76070836D01*
X66640344Y-76044754D01*
X66643656Y-76042712D01*
X66767712Y-75918656D01*
X66859814Y-75769334D01*
X66914999Y-75602797D01*
X66925500Y-75500009D01*
X66925499Y-74899992D01*
X66924987Y-74894983D01*
X66914999Y-74797203D01*
X66914998Y-74797200D01*
X66902836Y-74760498D01*
X66859814Y-74630666D01*
X66767712Y-74481344D01*
X66643656Y-74357288D01*
X66531863Y-74288334D01*
X66494336Y-74265187D01*
X66494331Y-74265185D01*
X66471562Y-74257640D01*
X66410495Y-74237404D01*
X66353051Y-74197632D01*
X66326228Y-74133116D01*
X66325500Y-74119699D01*
X66325500Y-73722016D01*
X66345185Y-73654977D01*
X66397989Y-73609222D01*
X66410488Y-73604313D01*
X66469334Y-73584814D01*
X66618656Y-73492712D01*
X66742712Y-73368656D01*
X66834814Y-73219334D01*
X66889999Y-73052797D01*
X66900500Y-72950009D01*
X66900499Y-72149992D01*
X66899530Y-72140510D01*
X66889999Y-72047203D01*
X66889998Y-72047200D01*
X66869169Y-71984342D01*
X66834814Y-71880666D01*
X66742712Y-71731344D01*
X66649049Y-71637681D01*
X66615564Y-71576358D01*
X66620548Y-71506666D01*
X66649049Y-71462319D01*
X66742712Y-71368656D01*
X66834814Y-71219334D01*
X66834815Y-71219331D01*
X66838605Y-71213187D01*
X66840399Y-71214293D01*
X66844985Y-71209083D01*
X66852195Y-71193297D01*
X66867593Y-71183401D01*
X66879687Y-71169663D01*
X66896574Y-71164775D01*
X66910973Y-71155523D01*
X66945908Y-71150500D01*
X67031652Y-71150500D01*
X67098691Y-71170185D01*
X67144446Y-71222989D01*
X67149358Y-71235496D01*
X67149950Y-71237284D01*
X67149955Y-71237295D01*
X67238216Y-71380387D01*
X67238219Y-71380391D01*
X67357108Y-71499280D01*
X67357112Y-71499283D01*
X67500204Y-71587544D01*
X67500207Y-71587545D01*
X67500213Y-71587549D01*
X67539503Y-71600568D01*
X67596948Y-71640340D01*
X67623772Y-71704856D01*
X67624500Y-71718274D01*
X67624500Y-72973621D01*
X67604815Y-73040660D01*
X67565599Y-73079158D01*
X67531346Y-73100285D01*
X67407289Y-73224342D01*
X67315187Y-73373663D01*
X67315185Y-73373668D01*
X67295360Y-73433497D01*
X67260001Y-73540203D01*
X67260001Y-73540204D01*
X67260000Y-73540204D01*
X67249500Y-73642983D01*
X67249500Y-74693001D01*
X67249501Y-74693019D01*
X67260000Y-74795796D01*
X67260001Y-74795799D01*
X67294528Y-74899992D01*
X67315186Y-74962334D01*
X67407288Y-75111656D01*
X67531344Y-75235712D01*
X67680666Y-75327814D01*
X67847203Y-75382999D01*
X67949991Y-75393500D01*
X68550008Y-75393499D01*
X68550016Y-75393498D01*
X68550019Y-75393498D01*
X68606302Y-75387748D01*
X68652797Y-75382999D01*
X68819334Y-75327814D01*
X68968656Y-75235712D01*
X69092712Y-75111656D01*
X69094752Y-75108347D01*
X69096745Y-75106555D01*
X69097193Y-75105989D01*
X69097289Y-75106065D01*
X69146694Y-75061623D01*
X69215656Y-75050395D01*
X69279740Y-75078234D01*
X69305829Y-75108339D01*
X69307681Y-75111341D01*
X69307683Y-75111344D01*
X69431654Y-75235315D01*
X69580875Y-75327356D01*
X69580880Y-75327358D01*
X69747302Y-75382505D01*
X69747309Y-75382506D01*
X69850019Y-75392999D01*
X70400000Y-75392999D01*
X70449972Y-75392999D01*
X70449986Y-75392998D01*
X70552697Y-75382505D01*
X70719119Y-75327358D01*
X70719124Y-75327356D01*
X70868345Y-75235315D01*
X70992315Y-75111345D01*
X71084356Y-74962124D01*
X71084358Y-74962119D01*
X71139505Y-74795697D01*
X71139506Y-74795690D01*
X71149999Y-74692986D01*
X71150000Y-74692973D01*
X71150000Y-74418000D01*
X70400000Y-74418000D01*
X70400000Y-75392999D01*
X69850019Y-75392999D01*
X69899999Y-75392998D01*
X69900000Y-75392998D01*
X69900000Y-73918000D01*
X70400000Y-73918000D01*
X71149999Y-73918000D01*
X71149999Y-73643028D01*
X71149998Y-73643013D01*
X71139505Y-73540302D01*
X71084358Y-73373880D01*
X71084356Y-73373875D01*
X70992315Y-73224654D01*
X70868345Y-73100684D01*
X70719124Y-73008643D01*
X70719119Y-73008641D01*
X70552697Y-72953494D01*
X70552690Y-72953493D01*
X70449986Y-72943000D01*
X70400000Y-72943000D01*
X70400000Y-73918000D01*
X69900000Y-73918000D01*
X69900000Y-72943000D01*
X69899999Y-72942999D01*
X69850029Y-72943000D01*
X69850011Y-72943001D01*
X69747302Y-72953494D01*
X69580880Y-73008641D01*
X69580875Y-73008643D01*
X69431654Y-73100684D01*
X69307683Y-73224655D01*
X69307679Y-73224660D01*
X69305826Y-73227665D01*
X69304018Y-73229290D01*
X69303202Y-73230323D01*
X69303025Y-73230183D01*
X69253874Y-73274385D01*
X69184911Y-73285601D01*
X69120831Y-73257752D01*
X69094753Y-73227653D01*
X69094737Y-73227628D01*
X69092712Y-73224344D01*
X68968656Y-73100288D01*
X68968653Y-73100285D01*
X68934401Y-73079158D01*
X68887678Y-73027210D01*
X68875500Y-72973621D01*
X68875500Y-71312252D01*
X68893963Y-71247153D01*
X68900049Y-71237287D01*
X68952936Y-71077685D01*
X68963000Y-70979174D01*
X68963000Y-70120826D01*
X68952936Y-70022315D01*
X68900049Y-69862713D01*
X68900045Y-69862707D01*
X68900044Y-69862704D01*
X68811783Y-69719612D01*
X68811780Y-69719608D01*
X68692891Y-69600719D01*
X68692887Y-69600716D01*
X68549795Y-69512455D01*
X68549789Y-69512452D01*
X68549787Y-69512451D01*
X68390185Y-69459564D01*
X68390183Y-69459563D01*
X68291681Y-69449500D01*
X68291674Y-69449500D01*
X67758326Y-69449500D01*
X67758318Y-69449500D01*
X67659816Y-69459563D01*
X67659815Y-69459564D01*
X67580719Y-69485773D01*
X67500215Y-69512450D01*
X67500204Y-69512455D01*
X67357112Y-69600716D01*
X67357108Y-69600719D01*
X67238219Y-69719608D01*
X67238216Y-69719612D01*
X67149955Y-69862704D01*
X67149950Y-69862715D01*
X67149358Y-69864504D01*
X67148619Y-69865571D01*
X67146901Y-69869256D01*
X67146271Y-69868962D01*
X67135487Y-69884536D01*
X67125365Y-69906703D01*
X67115952Y-69912751D01*
X67109585Y-69921949D01*
X67087085Y-69931303D01*
X67066587Y-69944477D01*
X67049486Y-69946935D01*
X67045070Y-69948772D01*
X67031652Y-69949500D01*
X66945908Y-69949500D01*
X66878869Y-69929815D01*
X66840363Y-69885728D01*
X66838605Y-69886813D01*
X66827776Y-69869256D01*
X66742712Y-69731344D01*
X66618656Y-69607288D01*
X66470706Y-69516032D01*
X66469336Y-69515187D01*
X66469331Y-69515185D01*
X66461077Y-69512450D01*
X66302797Y-69460001D01*
X66302795Y-69460000D01*
X66200010Y-69449500D01*
X65199998Y-69449500D01*
X65199980Y-69449501D01*
X65097203Y-69460000D01*
X65097200Y-69460001D01*
X64930668Y-69515185D01*
X64930663Y-69515187D01*
X64781342Y-69607289D01*
X64657289Y-69731342D01*
X64565187Y-69880663D01*
X64565185Y-69880668D01*
X64543886Y-69944946D01*
X64510001Y-70047203D01*
X64510001Y-70047204D01*
X64510000Y-70047204D01*
X64499500Y-70149983D01*
X64499500Y-70950001D01*
X64499501Y-70950019D01*
X64510000Y-71052796D01*
X64510001Y-71052799D01*
X64565185Y-71219331D01*
X64565187Y-71219336D01*
X64657289Y-71368657D01*
X64750951Y-71462319D01*
X64784436Y-71523642D01*
X64779452Y-71593334D01*
X64750951Y-71637681D01*
X64657289Y-71731342D01*
X64565187Y-71880663D01*
X64565186Y-71880666D01*
X64510001Y-72047203D01*
X64510001Y-72047204D01*
X64510000Y-72047204D01*
X64499500Y-72149983D01*
X64499500Y-72950001D01*
X64499501Y-72950019D01*
X64510000Y-73052796D01*
X64510001Y-73052799D01*
X64565185Y-73219331D01*
X64565187Y-73219336D01*
X64590257Y-73259981D01*
X64657288Y-73368656D01*
X64781344Y-73492712D01*
X64930666Y-73584814D01*
X64930668Y-73584815D01*
X64951110Y-73591588D01*
X64989502Y-73604310D01*
X65046947Y-73644081D01*
X65073772Y-73708596D01*
X65074500Y-73722016D01*
X65074500Y-74119699D01*
X65054815Y-74186738D01*
X65002011Y-74232493D01*
X64989507Y-74237403D01*
X64956962Y-74248188D01*
X64905668Y-74265185D01*
X64905663Y-74265187D01*
X64756342Y-74357289D01*
X64632289Y-74481342D01*
X64540187Y-74630663D01*
X64540185Y-74630668D01*
X64519524Y-74693019D01*
X64485001Y-74797203D01*
X64485001Y-74797204D01*
X64485000Y-74797204D01*
X64474500Y-74899983D01*
X64000499Y-74899983D01*
X64000499Y-74894992D01*
X63998994Y-74880263D01*
X63989999Y-74792203D01*
X63989998Y-74792200D01*
X63976014Y-74749999D01*
X63934814Y-74625666D01*
X63842712Y-74476344D01*
X63718656Y-74352288D01*
X63621724Y-74292500D01*
X63569336Y-74260187D01*
X63569331Y-74260185D01*
X63545883Y-74252415D01*
X63485495Y-74232404D01*
X63465463Y-74218534D01*
X63443297Y-74208412D01*
X63437248Y-74198999D01*
X63428051Y-74192632D01*
X63418697Y-74170133D01*
X63405523Y-74149634D01*
X63403064Y-74132532D01*
X63401228Y-74128116D01*
X63400500Y-74114699D01*
X63400500Y-74018732D01*
X63420185Y-73951693D01*
X63459404Y-73913193D01*
X63488350Y-73895340D01*
X63610340Y-73773350D01*
X63700908Y-73626516D01*
X63755174Y-73462753D01*
X63765500Y-73361677D01*
X63765499Y-72688324D01*
X63755174Y-72587247D01*
X63700908Y-72423484D01*
X63610340Y-72276650D01*
X63571016Y-72237326D01*
X63537532Y-72176004D01*
X63542516Y-72106312D01*
X63571018Y-72061964D01*
X63609945Y-72023037D01*
X63609947Y-72023034D01*
X63700448Y-71876311D01*
X63700453Y-71876300D01*
X63754680Y-71712652D01*
X63764999Y-71611654D01*
X63765000Y-71611641D01*
X63765000Y-71525000D01*
X61815001Y-71525000D01*
X61815001Y-71611654D01*
X61825319Y-71712652D01*
X61879546Y-71876300D01*
X61879551Y-71876311D01*
X61970052Y-72023034D01*
X61970055Y-72023038D01*
X62008982Y-72061965D01*
X62042467Y-72123288D01*
X62037483Y-72192980D01*
X62008983Y-72237326D01*
X61969661Y-72276648D01*
X61879093Y-72423481D01*
X61879091Y-72423486D01*
X61861473Y-72476654D01*
X61824826Y-72587247D01*
X61824826Y-72587248D01*
X61824825Y-72587248D01*
X61814500Y-72688315D01*
X61814500Y-73361669D01*
X61814501Y-73361687D01*
X61824825Y-73462752D01*
X61850491Y-73540204D01*
X61878002Y-73623228D01*
X61879092Y-73626515D01*
X61879093Y-73626518D01*
X61895212Y-73652651D01*
X61969660Y-73773350D01*
X62091650Y-73895340D01*
X62140597Y-73925530D01*
X62147420Y-73933115D01*
X62156703Y-73937355D01*
X62170389Y-73958651D01*
X62187321Y-73977475D01*
X62189965Y-73989113D01*
X62194477Y-73996133D01*
X62199500Y-74031068D01*
X62199500Y-74114699D01*
X62179815Y-74181738D01*
X62127011Y-74227493D01*
X62114507Y-74232403D01*
X62081962Y-74243188D01*
X62030668Y-74260185D01*
X62030663Y-74260187D01*
X61881342Y-74352289D01*
X61757289Y-74476342D01*
X61665187Y-74625663D01*
X61665185Y-74625668D01*
X61663530Y-74630663D01*
X61610001Y-74792203D01*
X61610001Y-74792204D01*
X61610000Y-74792204D01*
X61599500Y-74894983D01*
X61599500Y-75695001D01*
X61599501Y-75695019D01*
X61610000Y-75797796D01*
X61610001Y-75797799D01*
X61643131Y-75897777D01*
X61665186Y-75964334D01*
X61751438Y-76104172D01*
X61757289Y-76113657D01*
X61850951Y-76207319D01*
X61854268Y-76213394D01*
X61859949Y-76217352D01*
X61870798Y-76243667D01*
X61884436Y-76268642D01*
X61883942Y-76275545D01*
X61886581Y-76281946D01*
X61881482Y-76309944D01*
X61879452Y-76338334D01*
X61875003Y-76345522D01*
X61874063Y-76350686D01*
X61858324Y-76372473D01*
X61853887Y-76379644D01*
X61852455Y-76381176D01*
X61757288Y-76476344D01*
X61745093Y-76496114D01*
X61736659Y-76505144D01*
X61716791Y-76516887D01*
X61699632Y-76532322D01*
X61685092Y-76535626D01*
X61676512Y-76540698D01*
X61664712Y-76540257D01*
X61646042Y-76544500D01*
X61207229Y-76544500D01*
X61140190Y-76524815D01*
X61119548Y-76508181D01*
X58638421Y-74027052D01*
X58638418Y-74027049D01*
X58558608Y-73973722D01*
X58536208Y-73946919D01*
X58513889Y-73920307D01*
X58513862Y-73920181D01*
X58513803Y-73920110D01*
X58504493Y-73886286D01*
X58503499Y-73878481D01*
X58503499Y-73817658D01*
X58493034Y-73715212D01*
X58476256Y-73664580D01*
X58474737Y-73652651D01*
X58478439Y-73629549D01*
X58477635Y-73606161D01*
X58483967Y-73595057D01*
X58485794Y-73583662D01*
X58498671Y-73569275D01*
X58510060Y-73549306D01*
X61121022Y-70938345D01*
X61815000Y-70938345D01*
X61815000Y-71025000D01*
X62540000Y-71025000D01*
X63040000Y-71025000D01*
X63764999Y-71025000D01*
X63764999Y-70938360D01*
X63764998Y-70938345D01*
X63754680Y-70837347D01*
X63700453Y-70673699D01*
X63700448Y-70673688D01*
X63609947Y-70526965D01*
X63609944Y-70526961D01*
X63488038Y-70405055D01*
X63488034Y-70405052D01*
X63341311Y-70314551D01*
X63341300Y-70314546D01*
X63177652Y-70260319D01*
X63076654Y-70250000D01*
X63040000Y-70250000D01*
X63040000Y-71025000D01*
X62540000Y-71025000D01*
X62540000Y-70250000D01*
X62503361Y-70250000D01*
X62503343Y-70250001D01*
X62402347Y-70260319D01*
X62238699Y-70314546D01*
X62238688Y-70314551D01*
X62091965Y-70405052D01*
X62091961Y-70405055D01*
X61970055Y-70526961D01*
X61970052Y-70526965D01*
X61879551Y-70673688D01*
X61879546Y-70673699D01*
X61825319Y-70837347D01*
X61815000Y-70938345D01*
X61121022Y-70938345D01*
X67422549Y-64636819D01*
X67483872Y-64603334D01*
X67510230Y-64600500D01*
X69045396Y-64600500D01*
X69092844Y-64609937D01*
X69116503Y-64619737D01*
X69116508Y-64619738D01*
X69116511Y-64619739D01*
X69271153Y-64650499D01*
X69271156Y-64650500D01*
X69271158Y-64650500D01*
X69428844Y-64650500D01*
X69428845Y-64650499D01*
X69583497Y-64619737D01*
X69711017Y-64566917D01*
X69729172Y-64559397D01*
X69729172Y-64559396D01*
X69729179Y-64559394D01*
X69860289Y-64471789D01*
X69971789Y-64360289D01*
X70059394Y-64229179D01*
X70062516Y-64221643D01*
X70080828Y-64177433D01*
X70119737Y-64083497D01*
X70150500Y-63928842D01*
X70150500Y-63771158D01*
X70150500Y-63771155D01*
X70150499Y-63771153D01*
X70119738Y-63616510D01*
X70119737Y-63616503D01*
X70103670Y-63577713D01*
X70059397Y-63470827D01*
X70059390Y-63470814D01*
X69971789Y-63339711D01*
X69971786Y-63339707D01*
X69860292Y-63228213D01*
X69860288Y-63228210D01*
X69729185Y-63140609D01*
X69729172Y-63140602D01*
X69583501Y-63080264D01*
X69583489Y-63080261D01*
X69428845Y-63049500D01*
X69428842Y-63049500D01*
X69271158Y-63049500D01*
X69271155Y-63049500D01*
X69116511Y-63080260D01*
X69116506Y-63080262D01*
X69116504Y-63080262D01*
X69116503Y-63080263D01*
X69092844Y-63090062D01*
X69045396Y-63099500D01*
X67074080Y-63099500D01*
X66929092Y-63128340D01*
X66929086Y-63128342D01*
X66792508Y-63184914D01*
X66792496Y-63184921D01*
X66743269Y-63217813D01*
X66669588Y-63267044D01*
X66669580Y-63267050D01*
X56853449Y-73083181D01*
X56792126Y-73116666D01*
X56765768Y-73119500D01*
X54970664Y-73119500D01*
X54970647Y-73119501D01*
X54868212Y-73129965D01*
X54868209Y-73129966D01*
X54702232Y-73184966D01*
X54702221Y-73184971D01*
X54553409Y-73276760D01*
X54553405Y-73276763D01*
X54429763Y-73400405D01*
X54429760Y-73400409D01*
X54337971Y-73549221D01*
X54337966Y-73549232D01*
X54326175Y-73584815D01*
X54282966Y-73715212D01*
X54282966Y-73715213D01*
X54282965Y-73715213D01*
X54272500Y-73817649D01*
X54272500Y-75402335D01*
X54272501Y-75402352D01*
X54282965Y-75504787D01*
X54282966Y-75504790D01*
X54337966Y-75670767D01*
X54337971Y-75670778D01*
X54429760Y-75819590D01*
X54429763Y-75819594D01*
X54553405Y-75943236D01*
X54553409Y-75943239D01*
X54702221Y-76035028D01*
X54702224Y-76035029D01*
X54702230Y-76035033D01*
X54868212Y-76090034D01*
X54970657Y-76100500D01*
X55513500Y-76100499D01*
X55580539Y-76120183D01*
X55626294Y-76172987D01*
X55637500Y-76224499D01*
X55637500Y-78798343D01*
X55617815Y-78865382D01*
X55578597Y-78903882D01*
X55456342Y-78979289D01*
X55362451Y-79073181D01*
X55301128Y-79106666D01*
X55274770Y-79109500D01*
X54921005Y-79109500D01*
X54860679Y-79121500D01*
X54815680Y-79130451D01*
X54785671Y-79136420D01*
X54785669Y-79136420D01*
X54785668Y-79136421D01*
X54785660Y-79136423D01*
X54732865Y-79158292D01*
X54658191Y-79189223D01*
X54543963Y-79265549D01*
X54543953Y-79265556D01*
X54543454Y-79265888D01*
X54543451Y-79265891D01*
X53811888Y-79997453D01*
X53811887Y-79997454D01*
X53735222Y-80112192D01*
X53682421Y-80239667D01*
X53682418Y-80239679D01*
X53656621Y-80369371D01*
X53656620Y-80369377D01*
X53655501Y-80374999D01*
X53655500Y-80375003D01*
X53655500Y-80375007D01*
X53655500Y-99499006D01*
X53655500Y-99636994D01*
X53655500Y-99636996D01*
X53655499Y-99636996D01*
X53682418Y-99772322D01*
X53682421Y-99772332D01*
X53735222Y-99899807D01*
X53811887Y-100014545D01*
X54991454Y-101194112D01*
X55106192Y-101270777D01*
X55233667Y-101323578D01*
X55233672Y-101323580D01*
X55233676Y-101323580D01*
X55233677Y-101323581D01*
X55369003Y-101350500D01*
X55369006Y-101350500D01*
X55369007Y-101350500D01*
X63400735Y-101350500D01*
X63430175Y-101359144D01*
X63460162Y-101365668D01*
X63465177Y-101369422D01*
X63467774Y-101370185D01*
X63488416Y-101386819D01*
X63539416Y-101437819D01*
X63572901Y-101499142D01*
X63567917Y-101568834D01*
X63526045Y-101624767D01*
X63460581Y-101649184D01*
X63451735Y-101649500D01*
X52974500Y-101649500D01*
X52907461Y-101629815D01*
X52861706Y-101577011D01*
X52850500Y-101525500D01*
X52850500Y-61647844D01*
X57450000Y-61647844D01*
X57456401Y-61707372D01*
X57456403Y-61707379D01*
X57506645Y-61842086D01*
X57506649Y-61842093D01*
X57592809Y-61957187D01*
X57592812Y-61957190D01*
X57707906Y-62043350D01*
X57707913Y-62043354D01*
X57842620Y-62093596D01*
X57842627Y-62093598D01*
X57902155Y-62099999D01*
X57902172Y-62100000D01*
X58700000Y-62100000D01*
X58700000Y-60650000D01*
X57450000Y-60650000D01*
X57450000Y-61647844D01*
X52850500Y-61647844D01*
X52850500Y-59152155D01*
X57450000Y-59152155D01*
X57450000Y-60150000D01*
X58700000Y-60150000D01*
X58700000Y-59251600D01*
X58719685Y-59184561D01*
X58772489Y-59138806D01*
X58824000Y-59127600D01*
X59076000Y-59127600D01*
X59143039Y-59147285D01*
X59188794Y-59200089D01*
X59200000Y-59251600D01*
X59200000Y-60150000D01*
X59881000Y-60150000D01*
X59948039Y-60169685D01*
X59993794Y-60222489D01*
X60005000Y-60274000D01*
X60005000Y-60526000D01*
X59985315Y-60593039D01*
X59932511Y-60638794D01*
X59881000Y-60650000D01*
X59200000Y-60650000D01*
X59200000Y-62100000D01*
X59997828Y-62100000D01*
X59997844Y-62099999D01*
X60057372Y-62093598D01*
X60057379Y-62093596D01*
X60192086Y-62043354D01*
X60192093Y-62043350D01*
X60307187Y-61957190D01*
X60307190Y-61957187D01*
X60393350Y-61842093D01*
X60393354Y-61842086D01*
X60443596Y-61707379D01*
X60443598Y-61707372D01*
X60449999Y-61647844D01*
X60450000Y-61647827D01*
X60450000Y-60650000D01*
X60154400Y-60650000D01*
X60087361Y-60630315D01*
X60041606Y-60577511D01*
X60030400Y-60526000D01*
X60030400Y-60274000D01*
X60050085Y-60206961D01*
X60102889Y-60161206D01*
X60154400Y-60150000D01*
X60450000Y-60150000D01*
X60450000Y-59152172D01*
X60449999Y-59152155D01*
X60443598Y-59092627D01*
X60443596Y-59092620D01*
X60393354Y-58957913D01*
X60393350Y-58957906D01*
X60307190Y-58842812D01*
X60307187Y-58842809D01*
X60192093Y-58756649D01*
X60192086Y-58756645D01*
X60095883Y-58720764D01*
X60057379Y-58706403D01*
X60057372Y-58706401D01*
X59997844Y-58700000D01*
X59200000Y-58700000D01*
X59200000Y-58978200D01*
X59180315Y-59045239D01*
X59127511Y-59090994D01*
X59076000Y-59102200D01*
X58824000Y-59102200D01*
X58756961Y-59082515D01*
X58711206Y-59029711D01*
X58700000Y-58978200D01*
X58700000Y-58700000D01*
X57902155Y-58700000D01*
X57842627Y-58706401D01*
X57842620Y-58706403D01*
X57707913Y-58756645D01*
X57707906Y-58756649D01*
X57592812Y-58842809D01*
X57592809Y-58842812D01*
X57506649Y-58957906D01*
X57506645Y-58957913D01*
X57456403Y-59092620D01*
X57456401Y-59092627D01*
X57450000Y-59152155D01*
X52850500Y-59152155D01*
X52850500Y-58609448D01*
X63299500Y-58609448D01*
X63299500Y-58790551D01*
X63327829Y-58969410D01*
X63383787Y-59141636D01*
X63383788Y-59141639D01*
X63466006Y-59302997D01*
X63572441Y-59449494D01*
X63572445Y-59449499D01*
X63700500Y-59577554D01*
X63700505Y-59577558D01*
X63771300Y-59628993D01*
X63847006Y-59683996D01*
X63952484Y-59737740D01*
X64008360Y-59766211D01*
X64008363Y-59766212D01*
X64094476Y-59794191D01*
X64180591Y-59822171D01*
X64263429Y-59835291D01*
X64359449Y-59850500D01*
X64359454Y-59850500D01*
X64540551Y-59850500D01*
X64627259Y-59836765D01*
X64719409Y-59822171D01*
X64891639Y-59766211D01*
X65052994Y-59683996D01*
X65199501Y-59577553D01*
X65327553Y-59449501D01*
X65433996Y-59302994D01*
X65516211Y-59141639D01*
X65572171Y-58969409D01*
X65592222Y-58842812D01*
X65600500Y-58790551D01*
X65600500Y-58609448D01*
X65584019Y-58505397D01*
X65572171Y-58430591D01*
X65523328Y-58280264D01*
X65516212Y-58258363D01*
X65516211Y-58258360D01*
X65451422Y-58131207D01*
X65433996Y-58097006D01*
X65414972Y-58070821D01*
X65327558Y-57950505D01*
X65327554Y-57950500D01*
X65199499Y-57822445D01*
X65199494Y-57822441D01*
X65052997Y-57716006D01*
X65052996Y-57716005D01*
X65052994Y-57716004D01*
X64982845Y-57680261D01*
X64891639Y-57633788D01*
X64891636Y-57633787D01*
X64719410Y-57577829D01*
X64540551Y-57549500D01*
X64540546Y-57549500D01*
X64359454Y-57549500D01*
X64359449Y-57549500D01*
X64180589Y-57577829D01*
X64008363Y-57633787D01*
X64008360Y-57633788D01*
X63847002Y-57716006D01*
X63700505Y-57822441D01*
X63700500Y-57822445D01*
X63572445Y-57950500D01*
X63572441Y-57950505D01*
X63466006Y-58097002D01*
X63383788Y-58258360D01*
X63383787Y-58258363D01*
X63327829Y-58430589D01*
X63299500Y-58609448D01*
X52850500Y-58609448D01*
X52850500Y-55332288D01*
X52870185Y-55265249D01*
X52922989Y-55219494D01*
X52992147Y-55209550D01*
X53055703Y-55238575D01*
X53081887Y-55270289D01*
X53197072Y-55469798D01*
X53197074Y-55469802D01*
X53356718Y-55677851D01*
X53356726Y-55677860D01*
X53542140Y-55863274D01*
X53542148Y-55863281D01*
X53750196Y-56022924D01*
X53977299Y-56154041D01*
X53977309Y-56154046D01*
X54203512Y-56247742D01*
X54219581Y-56254398D01*
X54472884Y-56322270D01*
X54732880Y-56356500D01*
X54732887Y-56356500D01*
X54995113Y-56356500D01*
X54995120Y-56356500D01*
X55255116Y-56322270D01*
X55508419Y-56254398D01*
X55750697Y-56154043D01*
X55977803Y-56022924D01*
X56185851Y-55863282D01*
X56185855Y-55863277D01*
X56185860Y-55863274D01*
X56371274Y-55677860D01*
X56371277Y-55677855D01*
X56371282Y-55677851D01*
X56530924Y-55469803D01*
X56662043Y-55242697D01*
X56762398Y-55000419D01*
X56830270Y-54747116D01*
X56864500Y-54487120D01*
X56864500Y-54224880D01*
X56830270Y-53964884D01*
X56762398Y-53711581D01*
X56761036Y-53708293D01*
X56662046Y-53469309D01*
X56662041Y-53469299D01*
X56530924Y-53242196D01*
X56392811Y-53062206D01*
X56371282Y-53034149D01*
X56371281Y-53034148D01*
X56371274Y-53034140D01*
X56199315Y-52862181D01*
X56165830Y-52800858D01*
X56170814Y-52731166D01*
X56212686Y-52675233D01*
X56278150Y-52650816D01*
X56286996Y-52650500D01*
X57368115Y-52650500D01*
X57435154Y-52670185D01*
G37*
%TD.AperFunction*%
%TA.AperFunction,Conductor*%
G36*
X93818834Y-94584914D02*
G01*
X93874767Y-94626786D01*
X93899184Y-94692250D01*
X93899500Y-94701096D01*
X93899500Y-97213330D01*
X93899499Y-97213348D01*
X93899499Y-97379054D01*
X93899498Y-97379054D01*
X93940424Y-97531787D01*
X93951670Y-97551265D01*
X93951671Y-97551267D01*
X94019477Y-97668712D01*
X94019481Y-97668717D01*
X94138349Y-97787585D01*
X94138355Y-97787590D01*
X94513181Y-98162416D01*
X94546666Y-98223739D01*
X94549500Y-98250096D01*
X94549500Y-98400000D01*
X94549501Y-98400019D01*
X94560000Y-98502796D01*
X94560001Y-98502799D01*
X94615185Y-98669331D01*
X94615187Y-98669336D01*
X94647710Y-98722064D01*
X94707288Y-98818656D01*
X94831344Y-98942712D01*
X94980666Y-99034814D01*
X95147203Y-99089999D01*
X95249991Y-99100500D01*
X96050008Y-99100499D01*
X96050016Y-99100498D01*
X96050019Y-99100498D01*
X96106302Y-99094748D01*
X96152797Y-99089999D01*
X96319334Y-99034814D01*
X96468656Y-98942712D01*
X96562319Y-98849049D01*
X96623642Y-98815564D01*
X96693334Y-98820548D01*
X96737681Y-98849049D01*
X96831344Y-98942712D01*
X96980666Y-99034814D01*
X97147203Y-99089999D01*
X97249991Y-99100500D01*
X98002391Y-99100499D01*
X98069430Y-99120183D01*
X98115185Y-99172987D01*
X98125330Y-99240685D01*
X98099500Y-99436872D01*
X98099500Y-99699127D01*
X98118515Y-99843553D01*
X98133730Y-99959116D01*
X98198831Y-100202076D01*
X98201602Y-100212418D01*
X98201605Y-100212428D01*
X98301953Y-100454690D01*
X98301958Y-100454700D01*
X98433075Y-100681803D01*
X98592718Y-100889851D01*
X98592726Y-100889860D01*
X98778140Y-101075274D01*
X98778148Y-101075281D01*
X98778149Y-101075282D01*
X98816520Y-101104725D01*
X98986196Y-101234924D01*
X99213299Y-101366041D01*
X99213300Y-101366041D01*
X99213303Y-101366043D01*
X99263461Y-101386819D01*
X99321691Y-101410939D01*
X99376094Y-101454780D01*
X99398159Y-101521074D01*
X99380880Y-101588773D01*
X99329743Y-101636384D01*
X99274238Y-101649500D01*
X75634451Y-101649500D01*
X75567412Y-101629815D01*
X75521657Y-101577011D01*
X75511713Y-101507853D01*
X75540738Y-101444297D01*
X75546770Y-101437819D01*
X75661011Y-101323578D01*
X76038448Y-100946139D01*
X76099769Y-100912656D01*
X76169460Y-100917640D01*
X76195018Y-100930720D01*
X76312756Y-101009390D01*
X76312769Y-101009397D01*
X76391177Y-101041874D01*
X76458445Y-101069737D01*
X76613095Y-101100499D01*
X76613098Y-101100500D01*
X76613100Y-101100500D01*
X76720060Y-101100500D01*
X76752153Y-101104724D01*
X76840885Y-101128501D01*
X76840887Y-101128501D01*
X77006596Y-101128501D01*
X77006612Y-101128500D01*
X79435331Y-101128500D01*
X79435347Y-101128501D01*
X79442943Y-101128501D01*
X79601054Y-101128501D01*
X79601057Y-101128501D01*
X79753785Y-101087577D01*
X79832946Y-101041873D01*
X79890716Y-101008520D01*
X80002520Y-100896716D01*
X80002520Y-100896714D01*
X80012724Y-100886511D01*
X80012727Y-100886506D01*
X80780519Y-100118716D01*
X82506375Y-98392859D01*
X82567696Y-98359376D01*
X82637388Y-98364360D01*
X82693321Y-98406232D01*
X82717738Y-98471696D01*
X82702886Y-98539969D01*
X82694372Y-98553427D01*
X82571850Y-98722064D01*
X82467147Y-98927553D01*
X82395877Y-99146897D01*
X82359800Y-99374680D01*
X82359800Y-99605319D01*
X82395877Y-99833102D01*
X82467147Y-100052446D01*
X82571850Y-100257935D01*
X82627253Y-100334191D01*
X82627254Y-100334192D01*
X83335504Y-99625941D01*
X83351619Y-99686081D01*
X83418498Y-99801920D01*
X83513080Y-99896502D01*
X83628919Y-99963381D01*
X83689057Y-99979494D01*
X82980806Y-100687744D01*
X83057067Y-100743151D01*
X83262553Y-100847852D01*
X83481897Y-100919122D01*
X83709681Y-100955200D01*
X83940319Y-100955200D01*
X84168102Y-100919122D01*
X84387446Y-100847852D01*
X84592924Y-100743155D01*
X84592930Y-100743151D01*
X84669191Y-100687744D01*
X84669192Y-100687744D01*
X83960942Y-99979495D01*
X84021081Y-99963381D01*
X84136920Y-99896502D01*
X84231502Y-99801920D01*
X84298381Y-99686081D01*
X84314495Y-99625942D01*
X85022744Y-100334192D01*
X85078151Y-100257930D01*
X85078155Y-100257924D01*
X85182852Y-100052446D01*
X85254122Y-99833102D01*
X85290200Y-99605319D01*
X85290200Y-99374680D01*
X85254122Y-99146897D01*
X85182852Y-98927553D01*
X85078151Y-98722067D01*
X85022744Y-98645807D01*
X85022744Y-98645806D01*
X84314494Y-99354056D01*
X84298381Y-99293919D01*
X84231502Y-99178080D01*
X84136920Y-99083498D01*
X84021081Y-99016619D01*
X83960941Y-99000504D01*
X84684535Y-98276911D01*
X84686858Y-98265854D01*
X84735908Y-98216096D01*
X84796113Y-98200500D01*
X89418954Y-98200500D01*
X89485993Y-98220185D01*
X89531748Y-98272989D01*
X89541692Y-98342147D01*
X89519272Y-98397386D01*
X89446848Y-98497067D01*
X89342147Y-98702553D01*
X89270877Y-98921897D01*
X89234800Y-99149680D01*
X89234800Y-99380319D01*
X89270877Y-99608102D01*
X89342147Y-99827446D01*
X89446850Y-100032935D01*
X89502253Y-100109191D01*
X89502254Y-100109192D01*
X90210504Y-99400941D01*
X90226619Y-99461081D01*
X90293498Y-99576920D01*
X90388080Y-99671502D01*
X90503919Y-99738381D01*
X90564057Y-99754494D01*
X89855806Y-100462744D01*
X89932067Y-100518151D01*
X90137553Y-100622852D01*
X90356897Y-100694122D01*
X90584681Y-100730200D01*
X90815319Y-100730200D01*
X91043102Y-100694122D01*
X91262446Y-100622852D01*
X91467924Y-100518155D01*
X91467930Y-100518151D01*
X91544191Y-100462744D01*
X91544192Y-100462744D01*
X90835942Y-99754495D01*
X90896081Y-99738381D01*
X91011920Y-99671502D01*
X91106502Y-99576920D01*
X91173381Y-99461081D01*
X91189494Y-99400942D01*
X91897744Y-100109192D01*
X91897744Y-100109191D01*
X91953151Y-100032930D01*
X91953155Y-100032924D01*
X92057852Y-99827446D01*
X92129122Y-99608102D01*
X92165200Y-99380319D01*
X92165200Y-99149680D01*
X92129122Y-98921897D01*
X92057852Y-98702553D01*
X91953151Y-98497067D01*
X91897744Y-98420807D01*
X91897744Y-98420806D01*
X91189494Y-99129056D01*
X91173381Y-99068919D01*
X91106502Y-98953080D01*
X91011920Y-98858498D01*
X90896081Y-98791619D01*
X90835941Y-98775504D01*
X91544192Y-98067254D01*
X91544191Y-98067253D01*
X91467935Y-98011850D01*
X91262446Y-97907147D01*
X91043102Y-97835877D01*
X90815319Y-97799800D01*
X90800795Y-97799800D01*
X90733756Y-97780115D01*
X90688001Y-97727311D01*
X90678057Y-97658153D01*
X90707082Y-97594597D01*
X90713099Y-97588135D01*
X93687821Y-94613413D01*
X93749142Y-94579930D01*
X93818834Y-94584914D01*
G37*
%TD.AperFunction*%
%TA.AperFunction,Conductor*%
G36*
X78243834Y-90129269D02*
G01*
X78299767Y-90171141D01*
X78324184Y-90236605D01*
X78324500Y-90245450D01*
X78324500Y-90400000D01*
X78324501Y-90400019D01*
X78335000Y-90502796D01*
X78335001Y-90502799D01*
X78390185Y-90669331D01*
X78390187Y-90669336D01*
X78394557Y-90676421D01*
X78482288Y-90818656D01*
X78606344Y-90942712D01*
X78609628Y-90944737D01*
X78609653Y-90944753D01*
X78611445Y-90946746D01*
X78612011Y-90947193D01*
X78611934Y-90947289D01*
X78656379Y-90996699D01*
X78667603Y-91065661D01*
X78639761Y-91129744D01*
X78609665Y-91155826D01*
X78606660Y-91157679D01*
X78606655Y-91157683D01*
X78482684Y-91281654D01*
X78390643Y-91430875D01*
X78390641Y-91430880D01*
X78335494Y-91597302D01*
X78335493Y-91597309D01*
X78325000Y-91700013D01*
X78325000Y-91750000D01*
X79426000Y-91750000D01*
X79493039Y-91769685D01*
X79538794Y-91822489D01*
X79550000Y-91874000D01*
X79550000Y-92000000D01*
X79676000Y-92000000D01*
X79743039Y-92019685D01*
X79788794Y-92072489D01*
X79800000Y-92124000D01*
X79800000Y-92999999D01*
X79966047Y-92999999D01*
X80033086Y-93019684D01*
X80078841Y-93072488D01*
X80088785Y-93141646D01*
X80059760Y-93205202D01*
X80053728Y-93211680D01*
X73455229Y-99810181D01*
X73393906Y-99843666D01*
X73367548Y-99846500D01*
X73094110Y-99846500D01*
X73027071Y-99826815D01*
X72981316Y-99774011D01*
X72971372Y-99704853D01*
X73000397Y-99641297D01*
X73019796Y-99623235D01*
X73107546Y-99557546D01*
X73193796Y-99442331D01*
X73244091Y-99307483D01*
X73250500Y-99247873D01*
X73250499Y-96052128D01*
X73244091Y-95992517D01*
X73195553Y-95862381D01*
X73193797Y-95857671D01*
X73193793Y-95857664D01*
X73107547Y-95742455D01*
X73107544Y-95742452D01*
X72992335Y-95656206D01*
X72992328Y-95656202D01*
X72857482Y-95605908D01*
X72857483Y-95605908D01*
X72797883Y-95599501D01*
X72797881Y-95599500D01*
X72797873Y-95599500D01*
X72797864Y-95599500D01*
X70402129Y-95599500D01*
X70402123Y-95599501D01*
X70342516Y-95605908D01*
X70207671Y-95656202D01*
X70207664Y-95656206D01*
X70092455Y-95742452D01*
X70092452Y-95742455D01*
X70006206Y-95857664D01*
X70006202Y-95857671D01*
X69955908Y-95992517D01*
X69949501Y-96052116D01*
X69949501Y-96052123D01*
X69949500Y-96052135D01*
X69949500Y-98075500D01*
X69947559Y-98082109D01*
X69948775Y-98088892D01*
X69937840Y-98115205D01*
X69929815Y-98142539D01*
X69924608Y-98147050D01*
X69921965Y-98153413D01*
X69898540Y-98169638D01*
X69877011Y-98188294D01*
X69868820Y-98190224D01*
X69864528Y-98193198D01*
X69838112Y-98197463D01*
X69829788Y-98199426D01*
X69827631Y-98199500D01*
X69752128Y-98199501D01*
X69716287Y-98203353D01*
X69711788Y-98203509D01*
X69682126Y-98195902D01*
X69651992Y-98190465D01*
X69648598Y-98187305D01*
X69644108Y-98186154D01*
X69623267Y-98163720D01*
X69600856Y-98142853D01*
X69599587Y-98138229D01*
X69596554Y-98134964D01*
X69592521Y-98112470D01*
X69583500Y-98079583D01*
X69583500Y-95657938D01*
X69603185Y-95590899D01*
X69619819Y-95570257D01*
X71565090Y-93624986D01*
X74250001Y-93624986D01*
X74260494Y-93727697D01*
X74315641Y-93894119D01*
X74315643Y-93894124D01*
X74407684Y-94043345D01*
X74531654Y-94167315D01*
X74680875Y-94259356D01*
X74680880Y-94259358D01*
X74847302Y-94314505D01*
X74847309Y-94314506D01*
X74950019Y-94324999D01*
X75224999Y-94324999D01*
X75725000Y-94324999D01*
X75999972Y-94324999D01*
X75999986Y-94324998D01*
X76102697Y-94314505D01*
X76269119Y-94259358D01*
X76269124Y-94259356D01*
X76418345Y-94167315D01*
X76542315Y-94043345D01*
X76634356Y-93894124D01*
X76634358Y-93894119D01*
X76689505Y-93727697D01*
X76689506Y-93727690D01*
X76699999Y-93624986D01*
X76700000Y-93624973D01*
X76700000Y-93575000D01*
X75725000Y-93575000D01*
X75725000Y-94324999D01*
X75224999Y-94324999D01*
X75225000Y-94324998D01*
X75225000Y-93575000D01*
X74250001Y-93575000D01*
X74250001Y-93624986D01*
X71565090Y-93624986D01*
X71844697Y-93345379D01*
X74037821Y-91152255D01*
X74099142Y-91118772D01*
X74168834Y-91123756D01*
X74224767Y-91165628D01*
X74249184Y-91231092D01*
X74249500Y-91239938D01*
X74249500Y-91725001D01*
X74249501Y-91725019D01*
X74260000Y-91827796D01*
X74260001Y-91827799D01*
X74315185Y-91994331D01*
X74315187Y-91994336D01*
X74332860Y-92022989D01*
X74407288Y-92143656D01*
X74531344Y-92267712D01*
X74534628Y-92269737D01*
X74534653Y-92269753D01*
X74536445Y-92271746D01*
X74537011Y-92272193D01*
X74536934Y-92272289D01*
X74581379Y-92321699D01*
X74592603Y-92390661D01*
X74564761Y-92454744D01*
X74534665Y-92480826D01*
X74531660Y-92482679D01*
X74531655Y-92482683D01*
X74407684Y-92606654D01*
X74315643Y-92755875D01*
X74315641Y-92755880D01*
X74260494Y-92922302D01*
X74260493Y-92922309D01*
X74250000Y-93025013D01*
X74250000Y-93075000D01*
X76367668Y-93075000D01*
X76434707Y-93094685D01*
X76442567Y-93100406D01*
X76575963Y-93189539D01*
X76575976Y-93189546D01*
X76674024Y-93230158D01*
X76721652Y-93249886D01*
X76852533Y-93275920D01*
X76876302Y-93280648D01*
X76876305Y-93280649D01*
X76876307Y-93280649D01*
X77033993Y-93280649D01*
X77033994Y-93280648D01*
X77188646Y-93249886D01*
X77334328Y-93189543D01*
X77465438Y-93101938D01*
X77576938Y-92990438D01*
X77664543Y-92859328D01*
X77724886Y-92713646D01*
X77755649Y-92558991D01*
X77755649Y-92401307D01*
X77755649Y-92401304D01*
X77755648Y-92401302D01*
X77745543Y-92350500D01*
X77735495Y-92299986D01*
X78325001Y-92299986D01*
X78335494Y-92402697D01*
X78390641Y-92569119D01*
X78390643Y-92569124D01*
X78482684Y-92718345D01*
X78606654Y-92842315D01*
X78755875Y-92934356D01*
X78755880Y-92934358D01*
X78922302Y-92989505D01*
X78922309Y-92989506D01*
X79025019Y-92999999D01*
X79299999Y-92999999D01*
X79300000Y-92999998D01*
X79300000Y-92250000D01*
X78325001Y-92250000D01*
X78325001Y-92299986D01*
X77735495Y-92299986D01*
X77724886Y-92246652D01*
X77703387Y-92194749D01*
X77664546Y-92100976D01*
X77664539Y-92100963D01*
X77576938Y-91969860D01*
X77576935Y-91969856D01*
X77465441Y-91858362D01*
X77465437Y-91858359D01*
X77334334Y-91770758D01*
X77334321Y-91770751D01*
X77188650Y-91710413D01*
X77188640Y-91710410D01*
X77033298Y-91679510D01*
X76971387Y-91647125D01*
X76969809Y-91645574D01*
X76736818Y-91412583D01*
X76722114Y-91385655D01*
X76705522Y-91359837D01*
X76704630Y-91353636D01*
X76703333Y-91351260D01*
X76700499Y-91324902D01*
X76700499Y-91173500D01*
X76720184Y-91106461D01*
X76772988Y-91060706D01*
X76824499Y-91049500D01*
X77023608Y-91049500D01*
X77023608Y-91049499D01*
X77097440Y-91034814D01*
X77144452Y-91025463D01*
X77180576Y-91010500D01*
X77258286Y-90978312D01*
X77314715Y-90940606D01*
X77360733Y-90909858D01*
X77447858Y-90822733D01*
X77447858Y-90822731D01*
X77458066Y-90812524D01*
X77458067Y-90812521D01*
X78112820Y-90157769D01*
X78174142Y-90124285D01*
X78243834Y-90129269D01*
G37*
%TD.AperFunction*%
%TA.AperFunction,Conductor*%
G36*
X101792539Y-52670185D02*
G01*
X101838294Y-52722989D01*
X101849500Y-52774500D01*
X101849500Y-98196521D01*
X101829815Y-98263560D01*
X101777011Y-98309315D01*
X101707853Y-98319259D01*
X101644297Y-98290234D01*
X101627126Y-98272009D01*
X101612184Y-98252537D01*
X101607282Y-98246149D01*
X101607278Y-98246145D01*
X101607274Y-98246140D01*
X101421860Y-98060726D01*
X101421851Y-98060718D01*
X101213803Y-97901075D01*
X100986700Y-97769958D01*
X100986690Y-97769953D01*
X100744428Y-97669605D01*
X100744421Y-97669603D01*
X100744419Y-97669602D01*
X100491116Y-97601730D01*
X100433339Y-97594123D01*
X100231127Y-97567500D01*
X100231120Y-97567500D01*
X99968880Y-97567500D01*
X99968872Y-97567500D01*
X99737772Y-97597926D01*
X99708884Y-97601730D01*
X99458903Y-97668712D01*
X99455581Y-97669602D01*
X99455571Y-97669605D01*
X99213309Y-97769953D01*
X99213299Y-97769958D01*
X98986197Y-97901075D01*
X98949985Y-97928862D01*
X98884816Y-97954056D01*
X98816371Y-97940017D01*
X98766381Y-97891203D01*
X98750499Y-97830486D01*
X98750499Y-97399998D01*
X98750498Y-97399981D01*
X98739999Y-97297203D01*
X98739998Y-97297200D01*
X98721980Y-97242825D01*
X98684814Y-97130666D01*
X98592712Y-96981344D01*
X98468656Y-96857288D01*
X98468655Y-96857287D01*
X98409402Y-96820739D01*
X98362678Y-96768791D01*
X98350500Y-96715201D01*
X98350500Y-93879308D01*
X98370185Y-93812269D01*
X98386819Y-93791627D01*
X99078504Y-93099941D01*
X99094619Y-93160081D01*
X99161498Y-93275920D01*
X99256080Y-93370502D01*
X99371919Y-93437381D01*
X99432057Y-93453494D01*
X98723806Y-94161744D01*
X98800067Y-94217151D01*
X99005553Y-94321852D01*
X99224897Y-94393122D01*
X99452681Y-94429200D01*
X99683319Y-94429200D01*
X99911102Y-94393122D01*
X100130446Y-94321852D01*
X100335924Y-94217155D01*
X100335930Y-94217151D01*
X100412191Y-94161744D01*
X100412192Y-94161744D01*
X99703942Y-93453495D01*
X99764081Y-93437381D01*
X99879920Y-93370502D01*
X99974502Y-93275920D01*
X100041381Y-93160081D01*
X100057494Y-93099942D01*
X100765744Y-93808192D01*
X100765744Y-93808191D01*
X100821151Y-93731930D01*
X100821155Y-93731924D01*
X100925852Y-93526446D01*
X100997122Y-93307102D01*
X101033200Y-93079319D01*
X101033200Y-92848680D01*
X100997122Y-92620897D01*
X100925852Y-92401553D01*
X100821151Y-92196067D01*
X100765744Y-92119807D01*
X100765744Y-92119806D01*
X100057494Y-92828056D01*
X100041381Y-92767919D01*
X99974502Y-92652080D01*
X99879920Y-92557498D01*
X99764081Y-92490619D01*
X99703941Y-92474504D01*
X100412192Y-91766254D01*
X100412191Y-91766253D01*
X100335935Y-91710850D01*
X100130446Y-91606147D01*
X99911102Y-91534877D01*
X99683319Y-91498800D01*
X99452681Y-91498800D01*
X99224897Y-91534877D01*
X99005553Y-91606147D01*
X98800069Y-91710847D01*
X98723807Y-91766254D01*
X99432058Y-92474504D01*
X99371919Y-92490619D01*
X99256080Y-92557498D01*
X99161498Y-92652080D01*
X99094619Y-92767919D01*
X99078504Y-92828057D01*
X98370254Y-92119807D01*
X98314847Y-92196069D01*
X98210145Y-92401557D01*
X98194705Y-92449077D01*
X98155267Y-92506752D01*
X98090908Y-92533949D01*
X98022061Y-92522033D01*
X97989094Y-92498438D01*
X97391851Y-91901194D01*
X96296546Y-90805888D01*
X96296545Y-90805887D01*
X96181807Y-90729222D01*
X96054332Y-90676421D01*
X96054322Y-90676418D01*
X95918996Y-90649500D01*
X95918994Y-90649500D01*
X95918993Y-90649500D01*
X94947956Y-90649500D01*
X94880917Y-90629815D01*
X94835162Y-90577011D01*
X94826339Y-90549691D01*
X94819738Y-90516510D01*
X94819737Y-90516503D01*
X94816154Y-90507853D01*
X94759397Y-90370827D01*
X94759390Y-90370814D01*
X94671789Y-90239711D01*
X94671786Y-90239707D01*
X94560292Y-90128213D01*
X94560288Y-90128210D01*
X94429185Y-90040609D01*
X94429172Y-90040602D01*
X94283501Y-89980264D01*
X94283489Y-89980261D01*
X94128845Y-89949500D01*
X94128842Y-89949500D01*
X93971158Y-89949500D01*
X93971155Y-89949500D01*
X93816510Y-89980261D01*
X93816498Y-89980264D01*
X93670827Y-90040602D01*
X93670814Y-90040609D01*
X93539711Y-90128210D01*
X93539707Y-90128213D01*
X93428213Y-90239707D01*
X93428210Y-90239711D01*
X93340609Y-90370814D01*
X93340604Y-90370824D01*
X93280809Y-90515183D01*
X93276177Y-90522115D01*
X93275081Y-90527155D01*
X93253931Y-90555410D01*
X93196163Y-90613180D01*
X93134840Y-90646666D01*
X93108480Y-90649500D01*
X92855162Y-90649500D01*
X92788123Y-90629815D01*
X92742368Y-90577011D01*
X92732424Y-90507853D01*
X92761449Y-90444297D01*
X92767481Y-90437819D01*
X92993647Y-90211654D01*
X93324695Y-89880606D01*
X93336093Y-89863548D01*
X93398620Y-89769969D01*
X93416300Y-89727285D01*
X93449541Y-89647036D01*
X93475500Y-89516531D01*
X93475500Y-89383469D01*
X93475500Y-89267519D01*
X93495185Y-89200480D01*
X93496398Y-89198628D01*
X93499415Y-89194113D01*
X93509394Y-89179179D01*
X93569737Y-89033497D01*
X93600500Y-88878842D01*
X93600500Y-88721158D01*
X93600500Y-88721155D01*
X93600499Y-88721153D01*
X93592276Y-88679815D01*
X93569737Y-88566503D01*
X93551283Y-88521950D01*
X93509397Y-88420827D01*
X93509390Y-88420814D01*
X93421789Y-88289711D01*
X93421786Y-88289707D01*
X93310292Y-88178213D01*
X93310288Y-88178210D01*
X93179185Y-88090609D01*
X93179172Y-88090602D01*
X93033501Y-88030264D01*
X93033489Y-88030261D01*
X92878845Y-87999500D01*
X92878842Y-87999500D01*
X92779970Y-87999500D01*
X92752661Y-87991481D01*
X92724649Y-87986475D01*
X92719573Y-87981765D01*
X92712931Y-87979815D01*
X92694294Y-87958307D01*
X92673433Y-87938949D01*
X92671709Y-87932243D01*
X92667176Y-87927011D01*
X92663125Y-87898842D01*
X92656042Y-87871279D01*
X92657771Y-87861602D01*
X92657232Y-87857853D01*
X92662251Y-87836535D01*
X92662582Y-87835535D01*
X92702336Y-87778077D01*
X92766843Y-87751233D01*
X92780301Y-87750500D01*
X93103331Y-87750500D01*
X93103347Y-87750501D01*
X93110943Y-87750501D01*
X93269054Y-87750501D01*
X93269057Y-87750501D01*
X93421785Y-87709577D01*
X93471904Y-87680639D01*
X93558716Y-87630520D01*
X93670520Y-87518716D01*
X93670520Y-87518714D01*
X93680728Y-87508507D01*
X93680730Y-87508504D01*
X93912055Y-87277178D01*
X93973376Y-87243695D01*
X94038051Y-87246929D01*
X94144781Y-87281609D01*
X94372647Y-87317700D01*
X94372648Y-87317700D01*
X94603352Y-87317700D01*
X94603353Y-87317700D01*
X94831219Y-87281609D01*
X95050633Y-87210317D01*
X95256194Y-87105579D01*
X95442839Y-86969973D01*
X95605973Y-86806839D01*
X95741579Y-86620194D01*
X95846317Y-86414633D01*
X95917609Y-86195219D01*
X95953700Y-85967353D01*
X95953700Y-85736680D01*
X98102800Y-85736680D01*
X98102800Y-85967319D01*
X98138877Y-86195102D01*
X98210147Y-86414446D01*
X98314850Y-86619935D01*
X98370253Y-86696191D01*
X98370254Y-86696192D01*
X99078504Y-85987941D01*
X99094619Y-86048081D01*
X99161498Y-86163920D01*
X99256080Y-86258502D01*
X99371919Y-86325381D01*
X99432057Y-86341494D01*
X98723806Y-87049744D01*
X98800067Y-87105151D01*
X99005553Y-87209852D01*
X99224897Y-87281122D01*
X99452681Y-87317200D01*
X99683319Y-87317200D01*
X99911102Y-87281122D01*
X100130446Y-87209852D01*
X100335924Y-87105155D01*
X100335930Y-87105151D01*
X100412191Y-87049744D01*
X100412192Y-87049744D01*
X99703942Y-86341495D01*
X99764081Y-86325381D01*
X99879920Y-86258502D01*
X99974502Y-86163920D01*
X100041381Y-86048081D01*
X100057494Y-85987942D01*
X100765744Y-86696192D01*
X100765744Y-86696191D01*
X100821151Y-86619930D01*
X100821155Y-86619924D01*
X100925852Y-86414446D01*
X100997122Y-86195102D01*
X101033200Y-85967319D01*
X101033200Y-85736680D01*
X100997122Y-85508897D01*
X100925852Y-85289553D01*
X100821151Y-85084067D01*
X100765744Y-85007807D01*
X100765744Y-85007806D01*
X100057494Y-85716056D01*
X100041381Y-85655919D01*
X99974502Y-85540080D01*
X99879920Y-85445498D01*
X99764081Y-85378619D01*
X99703941Y-85362504D01*
X100412192Y-84654254D01*
X100412191Y-84654253D01*
X100335935Y-84598850D01*
X100130446Y-84494147D01*
X99911102Y-84422877D01*
X99683319Y-84386800D01*
X99452681Y-84386800D01*
X99224897Y-84422877D01*
X99005553Y-84494147D01*
X98800069Y-84598847D01*
X98723807Y-84654254D01*
X99432058Y-85362504D01*
X99371919Y-85378619D01*
X99256080Y-85445498D01*
X99161498Y-85540080D01*
X99094619Y-85655919D01*
X99078504Y-85716057D01*
X98370254Y-85007807D01*
X98314847Y-85084069D01*
X98210147Y-85289553D01*
X98138877Y-85508897D01*
X98102800Y-85736680D01*
X95953700Y-85736680D01*
X95953700Y-85736647D01*
X95949434Y-85709713D01*
X95917609Y-85508780D01*
X95894048Y-85436269D01*
X95846317Y-85289367D01*
X95741579Y-85083806D01*
X95605973Y-84897161D01*
X95442839Y-84734027D01*
X95256194Y-84598421D01*
X95231730Y-84585956D01*
X95156205Y-84547474D01*
X95105409Y-84499499D01*
X95088500Y-84436989D01*
X95088500Y-82508943D01*
X95086111Y-82500026D01*
X95086111Y-82500025D01*
X95083167Y-82489039D01*
X95047577Y-82356215D01*
X95006652Y-82285331D01*
X94968520Y-82219284D01*
X94856716Y-82107480D01*
X94856715Y-82107479D01*
X94852385Y-82103149D01*
X94852374Y-82103139D01*
X94684574Y-81935339D01*
X94651089Y-81874016D01*
X94650638Y-81871849D01*
X94619738Y-81716510D01*
X94619737Y-81716503D01*
X94570108Y-81596687D01*
X94559397Y-81570827D01*
X94559390Y-81570814D01*
X94471789Y-81439711D01*
X94471786Y-81439707D01*
X94360292Y-81328213D01*
X94360288Y-81328210D01*
X94229185Y-81240609D01*
X94229172Y-81240602D01*
X94083501Y-81180264D01*
X94083489Y-81180261D01*
X93928845Y-81149500D01*
X93928842Y-81149500D01*
X93771158Y-81149500D01*
X93771155Y-81149500D01*
X93616510Y-81180261D01*
X93616498Y-81180264D01*
X93470827Y-81240602D01*
X93470814Y-81240609D01*
X93339711Y-81328210D01*
X93339707Y-81328213D01*
X93228213Y-81439707D01*
X93228210Y-81439711D01*
X93140609Y-81570814D01*
X93140602Y-81570827D01*
X93080264Y-81716498D01*
X93080261Y-81716510D01*
X93049500Y-81871153D01*
X93049500Y-82028846D01*
X93080261Y-82183489D01*
X93080264Y-82183501D01*
X93140602Y-82329172D01*
X93140609Y-82329185D01*
X93228210Y-82460288D01*
X93228213Y-82460292D01*
X93339707Y-82571786D01*
X93339711Y-82571789D01*
X93470814Y-82659390D01*
X93470827Y-82659397D01*
X93614890Y-82719069D01*
X93616503Y-82719737D01*
X93681147Y-82732595D01*
X93771849Y-82750638D01*
X93788605Y-82759402D01*
X93807085Y-82763423D01*
X93832123Y-82782167D01*
X93833760Y-82783023D01*
X93835339Y-82784574D01*
X93851181Y-82800416D01*
X93884666Y-82861739D01*
X93887500Y-82888097D01*
X93887500Y-84436989D01*
X93867815Y-84504028D01*
X93819795Y-84547474D01*
X93719805Y-84598421D01*
X93622298Y-84669265D01*
X93533161Y-84734027D01*
X93533159Y-84734029D01*
X93533158Y-84734029D01*
X93370029Y-84897158D01*
X93370029Y-84897159D01*
X93370027Y-84897161D01*
X93324813Y-84959392D01*
X93234421Y-85083805D01*
X93129685Y-85289362D01*
X93129684Y-85289364D01*
X93129683Y-85289367D01*
X93117458Y-85326991D01*
X93058390Y-85508780D01*
X93022300Y-85736647D01*
X93022300Y-85967352D01*
X93058391Y-86195220D01*
X93058391Y-86195223D01*
X93093068Y-86301946D01*
X93093502Y-86317157D01*
X93098821Y-86331416D01*
X93094479Y-86351373D01*
X93095063Y-86371787D01*
X93086975Y-86385872D01*
X93083970Y-86399690D01*
X93062819Y-86427944D01*
X92977585Y-86513180D01*
X92916263Y-86546666D01*
X92889903Y-86549500D01*
X92780301Y-86549500D01*
X92713262Y-86529815D01*
X92667507Y-86477011D01*
X92662595Y-86464504D01*
X92650480Y-86427944D01*
X92634814Y-86380666D01*
X92542712Y-86231344D01*
X92418656Y-86107288D01*
X92269334Y-86015186D01*
X92102797Y-85960001D01*
X92102795Y-85960000D01*
X92000010Y-85949500D01*
X91199998Y-85949500D01*
X91199980Y-85949501D01*
X91097203Y-85960000D01*
X91097200Y-85960001D01*
X90930668Y-86015185D01*
X90930663Y-86015187D01*
X90781342Y-86107289D01*
X90687681Y-86200951D01*
X90626358Y-86234436D01*
X90556666Y-86229452D01*
X90512319Y-86200951D01*
X90418657Y-86107289D01*
X90418656Y-86107288D01*
X90269334Y-86015186D01*
X90102797Y-85960001D01*
X90102795Y-85960000D01*
X90000016Y-85949500D01*
X89249500Y-85949500D01*
X89182461Y-85929815D01*
X89136706Y-85877011D01*
X89125500Y-85825500D01*
X89125500Y-84223740D01*
X89145185Y-84156701D01*
X89161819Y-84136059D01*
X92935855Y-80362024D01*
X92935855Y-80362023D01*
X92935858Y-80362021D01*
X93004312Y-80259573D01*
X93033873Y-80188206D01*
X93051463Y-80145740D01*
X93057176Y-80117017D01*
X93075501Y-80024894D01*
X93075501Y-79901681D01*
X93075500Y-79901675D01*
X93075500Y-76267350D01*
X93095185Y-76200311D01*
X93096398Y-76198459D01*
X93118313Y-76165661D01*
X93159394Y-76104179D01*
X93219737Y-75958497D01*
X93250500Y-75803842D01*
X93250500Y-75646158D01*
X93250500Y-75646155D01*
X93250499Y-75646153D01*
X93246642Y-75626762D01*
X93219737Y-75491503D01*
X93196774Y-75436067D01*
X93189305Y-75366600D01*
X93220579Y-75304120D01*
X93223626Y-75300962D01*
X93402630Y-75121958D01*
X93463951Y-75088475D01*
X93533643Y-75093459D01*
X93589576Y-75135331D01*
X93613993Y-75200795D01*
X93604871Y-75257092D01*
X93580263Y-75316503D01*
X93580261Y-75316510D01*
X93549500Y-75471153D01*
X93549500Y-75628846D01*
X93580261Y-75783489D01*
X93580264Y-75783501D01*
X93640602Y-75929172D01*
X93640609Y-75929185D01*
X93728210Y-76060288D01*
X93728213Y-76060292D01*
X93839707Y-76171786D01*
X93839711Y-76171789D01*
X93970814Y-76259390D01*
X93970827Y-76259397D01*
X94070060Y-76300500D01*
X94116503Y-76319737D01*
X94246132Y-76345522D01*
X94271153Y-76350499D01*
X94271156Y-76350500D01*
X94271158Y-76350500D01*
X94428844Y-76350500D01*
X94428845Y-76350499D01*
X94583497Y-76319737D01*
X94709971Y-76267350D01*
X94729172Y-76259397D01*
X94729172Y-76259396D01*
X94729179Y-76259394D01*
X94860289Y-76171789D01*
X94971789Y-76060289D01*
X95059394Y-75929179D01*
X95119737Y-75783497D01*
X95141858Y-75672282D01*
X95174240Y-75610375D01*
X95175733Y-75608855D01*
X96462772Y-74321819D01*
X96524095Y-74288334D01*
X96550453Y-74285500D01*
X96812942Y-74285500D01*
X96879981Y-74305185D01*
X96918479Y-74344401D01*
X97001288Y-74478656D01*
X97125344Y-74602712D01*
X97274666Y-74694814D01*
X97441203Y-74749999D01*
X97543991Y-74760500D01*
X98544008Y-74760499D01*
X98544016Y-74760498D01*
X98544019Y-74760498D01*
X98600302Y-74754748D01*
X98646797Y-74749999D01*
X98813334Y-74694814D01*
X98962656Y-74602712D01*
X99086712Y-74478656D01*
X99178814Y-74329334D01*
X99233999Y-74162797D01*
X99244500Y-74060009D01*
X99244499Y-73259992D01*
X99240857Y-73224343D01*
X99233999Y-73157203D01*
X99233998Y-73157200D01*
X99178814Y-72990666D01*
X99086712Y-72841344D01*
X98993049Y-72747681D01*
X98959564Y-72686358D01*
X98964548Y-72616666D01*
X98993049Y-72572319D01*
X99086712Y-72478656D01*
X99178814Y-72329334D01*
X99233999Y-72162797D01*
X99244500Y-72060009D01*
X99244499Y-71259992D01*
X99243187Y-71247153D01*
X99233999Y-71157203D01*
X99233998Y-71157200D01*
X99207649Y-71077684D01*
X99178814Y-70990666D01*
X99086712Y-70841344D01*
X98962656Y-70717288D01*
X98813334Y-70625186D01*
X98754493Y-70605688D01*
X98697051Y-70565916D01*
X98670228Y-70501400D01*
X98669500Y-70487983D01*
X98669500Y-69790481D01*
X98689185Y-69723442D01*
X98728404Y-69684942D01*
X98729295Y-69684392D01*
X98742350Y-69676340D01*
X98864340Y-69554350D01*
X98954908Y-69407516D01*
X99009174Y-69243753D01*
X99019500Y-69142677D01*
X99019499Y-68469324D01*
X99009174Y-68368247D01*
X98954908Y-68204484D01*
X98864340Y-68057650D01*
X98825016Y-68018326D01*
X98791532Y-67957004D01*
X98796516Y-67887312D01*
X98825018Y-67842964D01*
X98863945Y-67804037D01*
X98863947Y-67804034D01*
X98954448Y-67657311D01*
X98954453Y-67657300D01*
X99008680Y-67493652D01*
X99018999Y-67392654D01*
X99019000Y-67392641D01*
X99019000Y-67306000D01*
X97069001Y-67306000D01*
X97069001Y-67392654D01*
X97079319Y-67493652D01*
X97133546Y-67657300D01*
X97133551Y-67657311D01*
X97224052Y-67804034D01*
X97224055Y-67804038D01*
X97262982Y-67842965D01*
X97296467Y-67904288D01*
X97291483Y-67973980D01*
X97262983Y-68018326D01*
X97223661Y-68057648D01*
X97133093Y-68204481D01*
X97133092Y-68204484D01*
X97078826Y-68368247D01*
X97078826Y-68368248D01*
X97078825Y-68368248D01*
X97068500Y-68469315D01*
X97068500Y-69142669D01*
X97068501Y-69142687D01*
X97078825Y-69243752D01*
X97115109Y-69353249D01*
X97133092Y-69407516D01*
X97223660Y-69554350D01*
X97345650Y-69676340D01*
X97357920Y-69683908D01*
X97359596Y-69684942D01*
X97406321Y-69736890D01*
X97418500Y-69790481D01*
X97418500Y-70487983D01*
X97398815Y-70555022D01*
X97346011Y-70600777D01*
X97333510Y-70605686D01*
X97274666Y-70625186D01*
X97274663Y-70625187D01*
X97125342Y-70717289D01*
X97001289Y-70841342D01*
X96909187Y-70990663D01*
X96909185Y-70990668D01*
X96897809Y-71025000D01*
X96854001Y-71157203D01*
X96854001Y-71157204D01*
X96854000Y-71157204D01*
X96843500Y-71259983D01*
X96843500Y-72060001D01*
X96843501Y-72060019D01*
X96854000Y-72162796D01*
X96854001Y-72162799D01*
X96909185Y-72329331D01*
X96909187Y-72329336D01*
X96925508Y-72355796D01*
X97000053Y-72476654D01*
X97001289Y-72478657D01*
X97094951Y-72572319D01*
X97128436Y-72633642D01*
X97123452Y-72703334D01*
X97094951Y-72747681D01*
X97001289Y-72841342D01*
X97001288Y-72841344D01*
X96919700Y-72973621D01*
X96918481Y-72975597D01*
X96866533Y-73022321D01*
X96812942Y-73034500D01*
X96307741Y-73034500D01*
X96307721Y-73034499D01*
X96301607Y-73034499D01*
X96178394Y-73034499D01*
X96077597Y-73054548D01*
X96077592Y-73054548D01*
X96057548Y-73058536D01*
X96057545Y-73058537D01*
X96028213Y-73070688D01*
X96028210Y-73070689D01*
X95943721Y-73105684D01*
X95943708Y-73105691D01*
X95841267Y-73174141D01*
X95841263Y-73174144D01*
X95392180Y-73623228D01*
X95330857Y-73656713D01*
X95261165Y-73651729D01*
X95205232Y-73609857D01*
X95180815Y-73544393D01*
X95180499Y-73535547D01*
X95180499Y-73259998D01*
X95180498Y-73259981D01*
X95169999Y-73157203D01*
X95169998Y-73157200D01*
X95114814Y-72990666D01*
X95022712Y-72841344D01*
X94929049Y-72747681D01*
X94895564Y-72686358D01*
X94900548Y-72616666D01*
X94929049Y-72572319D01*
X95022712Y-72478656D01*
X95114814Y-72329334D01*
X95169999Y-72162797D01*
X95180500Y-72060009D01*
X95180499Y-71259992D01*
X95179187Y-71247153D01*
X95169999Y-71157203D01*
X95169998Y-71157200D01*
X95143649Y-71077684D01*
X95114814Y-70990666D01*
X95022712Y-70841344D01*
X94898656Y-70717288D01*
X94749334Y-70625186D01*
X94690493Y-70605688D01*
X94633051Y-70565916D01*
X94606228Y-70501400D01*
X94605500Y-70487983D01*
X94605500Y-69790481D01*
X94625185Y-69723442D01*
X94664404Y-69684942D01*
X94665295Y-69684392D01*
X94678350Y-69676340D01*
X94800340Y-69554350D01*
X94890908Y-69407516D01*
X94945174Y-69243753D01*
X94955500Y-69142677D01*
X94955499Y-68469324D01*
X94945174Y-68368247D01*
X94890908Y-68204484D01*
X94800340Y-68057650D01*
X94761016Y-68018326D01*
X94727532Y-67957004D01*
X94732516Y-67887312D01*
X94761018Y-67842964D01*
X94799945Y-67804037D01*
X94799947Y-67804034D01*
X94890448Y-67657311D01*
X94890453Y-67657300D01*
X94944680Y-67493652D01*
X94954999Y-67392654D01*
X94955000Y-67392641D01*
X94955000Y-67306000D01*
X94104000Y-67306000D01*
X94036961Y-67286315D01*
X93991206Y-67233511D01*
X93980000Y-67182000D01*
X93980000Y-67056000D01*
X93854000Y-67056000D01*
X93786961Y-67036315D01*
X93741206Y-66983511D01*
X93730000Y-66932000D01*
X93730000Y-66806000D01*
X94230000Y-66806000D01*
X94954999Y-66806000D01*
X94954999Y-66719361D01*
X94954998Y-66719345D01*
X97069000Y-66719345D01*
X97069000Y-66806000D01*
X97794000Y-66806000D01*
X98294000Y-66806000D01*
X99018999Y-66806000D01*
X99018999Y-66719360D01*
X99018998Y-66719345D01*
X99008680Y-66618347D01*
X98954453Y-66454699D01*
X98954448Y-66454688D01*
X98863947Y-66307965D01*
X98863944Y-66307961D01*
X98742038Y-66186055D01*
X98742034Y-66186052D01*
X98595311Y-66095551D01*
X98595300Y-66095546D01*
X98431652Y-66041319D01*
X98330654Y-66031000D01*
X98294000Y-66031000D01*
X98294000Y-66806000D01*
X97794000Y-66806000D01*
X97794000Y-66031000D01*
X97757361Y-66031000D01*
X97757343Y-66031001D01*
X97656347Y-66041319D01*
X97492699Y-66095546D01*
X97492688Y-66095551D01*
X97345965Y-66186052D01*
X97345961Y-66186055D01*
X97224055Y-66307961D01*
X97224052Y-66307965D01*
X97133551Y-66454688D01*
X97133546Y-66454699D01*
X97079319Y-66618347D01*
X97069000Y-66719345D01*
X94954998Y-66719345D01*
X94954998Y-66719344D01*
X94944680Y-66618347D01*
X94890453Y-66454699D01*
X94890448Y-66454688D01*
X94799947Y-66307965D01*
X94799944Y-66307961D01*
X94678038Y-66186055D01*
X94678034Y-66186052D01*
X94531311Y-66095551D01*
X94531300Y-66095546D01*
X94367652Y-66041319D01*
X94266654Y-66031000D01*
X94230000Y-66031000D01*
X94230000Y-66806000D01*
X93730000Y-66806000D01*
X93730000Y-66031000D01*
X93693361Y-66031000D01*
X93693343Y-66031001D01*
X93592347Y-66041319D01*
X93428699Y-66095546D01*
X93428688Y-66095551D01*
X93281965Y-66186052D01*
X93255618Y-66212399D01*
X93194294Y-66245883D01*
X93124603Y-66240897D01*
X93068670Y-66199025D01*
X93053377Y-66172169D01*
X93023947Y-66101119D01*
X93004311Y-66053714D01*
X93004309Y-66053711D01*
X93004307Y-66053707D01*
X92935858Y-65951267D01*
X92935855Y-65951263D01*
X92845637Y-65861045D01*
X92845606Y-65861016D01*
X91444095Y-64459505D01*
X91410610Y-64398182D01*
X91415594Y-64328490D01*
X91457466Y-64272557D01*
X91463642Y-64268220D01*
X91473461Y-64261762D01*
X91479179Y-64259394D01*
X91610289Y-64171789D01*
X91610317Y-64171760D01*
X91611632Y-64170896D01*
X91644651Y-64160822D01*
X91677553Y-64150520D01*
X91678444Y-64150511D01*
X91678461Y-64150507D01*
X91678477Y-64150511D01*
X91679766Y-64150500D01*
X92763331Y-64150500D01*
X92763347Y-64150501D01*
X92770943Y-64150501D01*
X92929054Y-64150501D01*
X92929057Y-64150501D01*
X93081785Y-64109577D01*
X93131904Y-64080639D01*
X93218716Y-64030520D01*
X93330520Y-63918716D01*
X93330520Y-63918714D01*
X93340728Y-63908507D01*
X93340729Y-63908504D01*
X95103520Y-62145716D01*
X95182577Y-62008784D01*
X95223501Y-61856057D01*
X95223501Y-61697942D01*
X95223501Y-61690347D01*
X95223500Y-61690329D01*
X95223500Y-55596060D01*
X95223501Y-55596047D01*
X95223501Y-55427945D01*
X95223501Y-55427943D01*
X95182577Y-55275215D01*
X95145000Y-55210130D01*
X95103520Y-55138284D01*
X94991716Y-55026480D01*
X94991715Y-55026479D01*
X94987385Y-55022149D01*
X94987374Y-55022139D01*
X94858818Y-54893583D01*
X94825333Y-54832260D01*
X94822499Y-54805902D01*
X94822499Y-53458129D01*
X94822498Y-53458123D01*
X94822497Y-53458116D01*
X94816091Y-53398517D01*
X94814810Y-53395083D01*
X94765797Y-53263671D01*
X94765793Y-53263664D01*
X94679547Y-53148455D01*
X94679544Y-53148452D01*
X94564335Y-53062206D01*
X94564328Y-53062202D01*
X94429482Y-53011908D01*
X94429483Y-53011908D01*
X94369883Y-53005501D01*
X94369881Y-53005500D01*
X94369873Y-53005500D01*
X94369864Y-53005500D01*
X92574129Y-53005500D01*
X92574123Y-53005501D01*
X92514516Y-53011908D01*
X92379671Y-53062202D01*
X92379664Y-53062206D01*
X92264455Y-53148452D01*
X92264452Y-53148455D01*
X92178206Y-53263664D01*
X92178203Y-53263669D01*
X92129189Y-53395083D01*
X92087317Y-53451016D01*
X92021853Y-53475433D01*
X91953580Y-53460581D01*
X91925326Y-53439430D01*
X91811786Y-53325890D01*
X91639820Y-53200951D01*
X91450414Y-53104444D01*
X91450413Y-53104443D01*
X91450412Y-53104443D01*
X91248243Y-53038754D01*
X91248241Y-53038753D01*
X91248240Y-53038753D01*
X91086957Y-53013208D01*
X91038287Y-53005500D01*
X90825713Y-53005500D01*
X90777042Y-53013208D01*
X90615760Y-53038753D01*
X90413585Y-53104444D01*
X90224179Y-53200951D01*
X90052213Y-53325890D01*
X89901890Y-53476213D01*
X89776949Y-53648182D01*
X89772202Y-53657499D01*
X89724227Y-53708293D01*
X89656405Y-53725087D01*
X89590271Y-53702548D01*
X89551234Y-53657495D01*
X89546626Y-53648452D01*
X89507270Y-53594282D01*
X89507269Y-53594282D01*
X88874962Y-54226590D01*
X88857925Y-54163007D01*
X88792099Y-54048993D01*
X88699007Y-53955901D01*
X88584993Y-53890075D01*
X88521409Y-53873037D01*
X89153716Y-53240728D01*
X89099550Y-53201375D01*
X88910217Y-53104904D01*
X88708129Y-53039242D01*
X88498246Y-53006000D01*
X88285754Y-53006000D01*
X88075872Y-53039242D01*
X88075869Y-53039242D01*
X87873782Y-53104904D01*
X87684439Y-53201380D01*
X87630282Y-53240727D01*
X87630282Y-53240728D01*
X88262591Y-53873037D01*
X88199007Y-53890075D01*
X88084993Y-53955901D01*
X87991901Y-54048993D01*
X87926075Y-54163007D01*
X87909037Y-54226591D01*
X87276728Y-53594282D01*
X87276727Y-53594282D01*
X87237380Y-53648439D01*
X87140904Y-53837782D01*
X87075242Y-54039869D01*
X87075242Y-54039872D01*
X87042000Y-54249753D01*
X87042000Y-54462246D01*
X87075242Y-54672127D01*
X87075242Y-54672130D01*
X87140904Y-54874217D01*
X87237375Y-55063550D01*
X87276728Y-55117716D01*
X87909037Y-54485408D01*
X87926075Y-54548993D01*
X87991901Y-54663007D01*
X88084993Y-54756099D01*
X88199007Y-54821925D01*
X88262590Y-54838962D01*
X87630282Y-55471269D01*
X87630282Y-55471270D01*
X87684452Y-55510626D01*
X87684451Y-55510626D01*
X87693495Y-55515234D01*
X87744292Y-55563208D01*
X87761087Y-55631029D01*
X87738550Y-55697164D01*
X87693499Y-55736202D01*
X87684182Y-55740949D01*
X87512213Y-55865890D01*
X87361890Y-56016213D01*
X87236951Y-56188179D01*
X87140444Y-56377585D01*
X87074753Y-56579760D01*
X87041500Y-56789713D01*
X87041500Y-57002292D01*
X87056616Y-57097728D01*
X87047662Y-57167021D01*
X87021824Y-57204807D01*
X83110451Y-61116181D01*
X83049128Y-61149666D01*
X83022770Y-61152500D01*
X74917229Y-61152500D01*
X74850190Y-61132815D01*
X74829548Y-61116181D01*
X74111548Y-60398181D01*
X74078063Y-60336858D01*
X74083047Y-60267166D01*
X74124919Y-60211233D01*
X74190383Y-60186816D01*
X74199229Y-60186500D01*
X75520779Y-60186500D01*
X75587818Y-60206185D01*
X75621097Y-60237615D01*
X75677892Y-60315788D01*
X75828213Y-60466109D01*
X76000179Y-60591048D01*
X76000181Y-60591049D01*
X76000184Y-60591051D01*
X76189588Y-60687557D01*
X76391757Y-60753246D01*
X76601713Y-60786500D01*
X76601714Y-60786500D01*
X76814286Y-60786500D01*
X76814287Y-60786500D01*
X77024243Y-60753246D01*
X77226412Y-60687557D01*
X77415816Y-60591051D01*
X77505352Y-60526000D01*
X77587786Y-60466109D01*
X77587788Y-60466106D01*
X77587792Y-60466104D01*
X77738104Y-60315792D01*
X77738106Y-60315788D01*
X77738109Y-60315786D01*
X77817174Y-60206961D01*
X77863051Y-60143816D01*
X77867793Y-60134508D01*
X77915763Y-60083711D01*
X77983583Y-60066911D01*
X78049719Y-60089445D01*
X78088763Y-60134500D01*
X78093373Y-60143547D01*
X78132728Y-60197716D01*
X78765037Y-59565408D01*
X78782075Y-59628993D01*
X78847901Y-59743007D01*
X78940993Y-59836099D01*
X79055007Y-59901925D01*
X79118590Y-59918962D01*
X78486282Y-60551269D01*
X78486282Y-60551270D01*
X78540449Y-60590624D01*
X78729782Y-60687095D01*
X78931870Y-60752757D01*
X79141754Y-60786000D01*
X79354246Y-60786000D01*
X79564127Y-60752757D01*
X79564130Y-60752757D01*
X79766217Y-60687095D01*
X79955554Y-60590622D01*
X80009716Y-60551270D01*
X80009717Y-60551270D01*
X79377408Y-59918962D01*
X79440993Y-59901925D01*
X79555007Y-59836099D01*
X79648099Y-59743007D01*
X79713925Y-59628993D01*
X79730962Y-59565408D01*
X80363270Y-60197717D01*
X80363270Y-60197716D01*
X80402622Y-60143554D01*
X80499095Y-59954217D01*
X80564757Y-59752130D01*
X80564757Y-59752127D01*
X80598000Y-59542246D01*
X80598000Y-59329753D01*
X80564757Y-59119872D01*
X80564757Y-59119869D01*
X80499095Y-58917782D01*
X80402624Y-58728449D01*
X80363270Y-58674282D01*
X80363269Y-58674282D01*
X79730962Y-59306590D01*
X79713925Y-59243007D01*
X79648099Y-59128993D01*
X79555007Y-59035901D01*
X79440993Y-58970075D01*
X79377408Y-58953037D01*
X80009716Y-58320728D01*
X79955547Y-58281373D01*
X79955547Y-58281372D01*
X79946500Y-58276763D01*
X79895706Y-58228788D01*
X79878912Y-58160966D01*
X79901451Y-58094832D01*
X79946508Y-58055793D01*
X79955816Y-58051051D01*
X80094215Y-57950499D01*
X80127786Y-57926109D01*
X80127788Y-57926106D01*
X80127792Y-57926104D01*
X80278104Y-57775792D01*
X80278106Y-57775788D01*
X80278109Y-57775786D01*
X80403048Y-57603820D01*
X80403047Y-57603820D01*
X80403051Y-57603816D01*
X80499557Y-57414412D01*
X80565246Y-57212243D01*
X80598500Y-57002287D01*
X80598500Y-56789713D01*
X80565246Y-56579757D01*
X80499557Y-56377588D01*
X80403051Y-56188184D01*
X80403049Y-56188181D01*
X80403048Y-56188179D01*
X80278109Y-56016213D01*
X80127786Y-55865890D01*
X79955820Y-55740951D01*
X79955115Y-55740591D01*
X79947054Y-55736485D01*
X79896259Y-55688512D01*
X79879463Y-55620692D01*
X79901999Y-55554556D01*
X79947054Y-55515515D01*
X79955816Y-55511051D01*
X80012318Y-55470000D01*
X80127786Y-55386109D01*
X80127788Y-55386106D01*
X80127792Y-55386104D01*
X80278104Y-55235792D01*
X80278106Y-55235788D01*
X80278109Y-55235786D01*
X80403048Y-55063820D01*
X80403050Y-55063817D01*
X80403051Y-55063816D01*
X80499557Y-54874412D01*
X80565246Y-54672243D01*
X80598500Y-54462287D01*
X80598500Y-54249713D01*
X80565246Y-54039757D01*
X80499557Y-53837588D01*
X80403051Y-53648184D01*
X80403049Y-53648181D01*
X80403048Y-53648179D01*
X80278109Y-53476213D01*
X80127786Y-53325890D01*
X79955820Y-53200951D01*
X79766414Y-53104444D01*
X79766413Y-53104443D01*
X79766412Y-53104443D01*
X79564243Y-53038754D01*
X79564241Y-53038753D01*
X79564240Y-53038753D01*
X79402957Y-53013208D01*
X79354287Y-53005500D01*
X79141713Y-53005500D01*
X79093042Y-53013208D01*
X78931760Y-53038753D01*
X78729585Y-53104444D01*
X78540179Y-53200951D01*
X78368215Y-53325889D01*
X78254673Y-53439431D01*
X78193350Y-53472915D01*
X78123658Y-53467931D01*
X78067725Y-53426059D01*
X78050810Y-53395082D01*
X78001797Y-53263671D01*
X78001793Y-53263664D01*
X77915547Y-53148455D01*
X77915544Y-53148452D01*
X77800335Y-53062206D01*
X77800328Y-53062202D01*
X77665482Y-53011908D01*
X77665483Y-53011908D01*
X77605883Y-53005501D01*
X77605881Y-53005500D01*
X77605873Y-53005500D01*
X77605864Y-53005500D01*
X75810129Y-53005500D01*
X75810123Y-53005501D01*
X75750516Y-53011908D01*
X75615671Y-53062202D01*
X75615664Y-53062206D01*
X75500455Y-53148452D01*
X75500452Y-53148455D01*
X75414206Y-53263664D01*
X75414202Y-53263671D01*
X75363908Y-53398517D01*
X75357501Y-53458116D01*
X75357501Y-53458123D01*
X75357500Y-53458135D01*
X75357500Y-55253870D01*
X75357501Y-55253876D01*
X75363908Y-55313483D01*
X75414202Y-55448328D01*
X75414206Y-55448335D01*
X75500452Y-55563544D01*
X75500455Y-55563547D01*
X75615664Y-55649793D01*
X75615671Y-55649797D01*
X75747082Y-55698810D01*
X75803016Y-55740681D01*
X75827433Y-55806145D01*
X75812582Y-55874418D01*
X75791431Y-55902673D01*
X75677889Y-56016215D01*
X75552951Y-56188179D01*
X75456444Y-56377585D01*
X75390753Y-56579760D01*
X75357500Y-56789713D01*
X75357500Y-57002287D01*
X75390754Y-57212243D01*
X75439473Y-57362184D01*
X75441468Y-57432023D01*
X75405388Y-57491856D01*
X75342687Y-57522684D01*
X75321542Y-57524500D01*
X75011607Y-57524500D01*
X74888393Y-57524500D01*
X74841729Y-57533782D01*
X74841728Y-57533781D01*
X74767554Y-57548535D01*
X74767545Y-57548537D01*
X74745731Y-57557573D01*
X74734207Y-57562347D01*
X74653714Y-57595688D01*
X74602490Y-57629915D01*
X74596689Y-57633791D01*
X74596672Y-57633800D01*
X74594538Y-57635227D01*
X74591348Y-57636548D01*
X74590457Y-57637008D01*
X74590046Y-57637087D01*
X74549845Y-57653738D01*
X74416508Y-57680261D01*
X74416498Y-57680264D01*
X74270827Y-57740602D01*
X74270814Y-57740609D01*
X74139711Y-57828210D01*
X74139707Y-57828213D01*
X74028213Y-57939707D01*
X74028210Y-57939711D01*
X73940609Y-58070814D01*
X73940602Y-58070827D01*
X73880264Y-58216498D01*
X73880261Y-58216510D01*
X73849500Y-58371153D01*
X73849500Y-58511500D01*
X73829815Y-58578539D01*
X73777011Y-58624294D01*
X73725500Y-58635500D01*
X73685155Y-58635500D01*
X73530510Y-58666261D01*
X73530498Y-58666264D01*
X73384827Y-58726602D01*
X73384814Y-58726609D01*
X73253711Y-58814210D01*
X73253707Y-58814213D01*
X73142213Y-58925707D01*
X73142210Y-58925711D01*
X73054609Y-59056814D01*
X73054603Y-59056826D01*
X73042318Y-59086484D01*
X72998476Y-59140887D01*
X72932181Y-59162950D01*
X72864482Y-59145670D01*
X72840077Y-59126710D01*
X71810373Y-58097006D01*
X70736819Y-57023451D01*
X70703334Y-56962128D01*
X70700500Y-56935770D01*
X70700500Y-56024499D01*
X70720185Y-55957460D01*
X70772989Y-55911705D01*
X70824500Y-55900499D01*
X70997871Y-55900499D01*
X70997872Y-55900499D01*
X71057483Y-55894091D01*
X71192331Y-55843796D01*
X71307546Y-55757546D01*
X71393796Y-55642331D01*
X71444091Y-55507483D01*
X71450500Y-55447873D01*
X71450499Y-52952128D01*
X71444091Y-52892517D01*
X71432776Y-52862181D01*
X71416236Y-52817833D01*
X71411252Y-52748141D01*
X71444737Y-52686818D01*
X71506061Y-52653334D01*
X71532418Y-52650500D01*
X101725500Y-52650500D01*
X101792539Y-52670185D01*
G37*
%TD.AperFunction*%
%TA.AperFunction,Conductor*%
G36*
X55197498Y-89982698D02*
G01*
X55198147Y-89982605D01*
X55200702Y-89983584D01*
X55230228Y-89991751D01*
X55240268Y-89996146D01*
X55250189Y-90002775D01*
X55347194Y-90042955D01*
X55348321Y-90043449D01*
X55374186Y-90065157D01*
X55400449Y-90086321D01*
X55400854Y-90087539D01*
X55401839Y-90088366D01*
X55404128Y-90091938D01*
X55482288Y-90218656D01*
X55606344Y-90342712D01*
X55755666Y-90434814D01*
X55769615Y-90439436D01*
X55794479Y-90456651D01*
X55820622Y-90471853D01*
X55824036Y-90477114D01*
X55827060Y-90479208D01*
X55841005Y-90500666D01*
X55843273Y-90505099D01*
X55870688Y-90571286D01*
X55894186Y-90606452D01*
X55898194Y-90612451D01*
X55898195Y-90612452D01*
X55939140Y-90673731D01*
X55939141Y-90673732D01*
X55939142Y-90673733D01*
X56026267Y-90760858D01*
X56026268Y-90760858D01*
X56033335Y-90767925D01*
X56033334Y-90767925D01*
X56033337Y-90767927D01*
X57224141Y-91958732D01*
X57224142Y-91958733D01*
X57274812Y-92009403D01*
X57311268Y-92045859D01*
X57403195Y-92107283D01*
X57406748Y-92109656D01*
X57413714Y-92114311D01*
X57527548Y-92161463D01*
X57648388Y-92185499D01*
X57648392Y-92185500D01*
X57648393Y-92185500D01*
X59118036Y-92185500D01*
X59118036Y-92185499D01*
X59191219Y-92170943D01*
X59238880Y-92161463D01*
X59281870Y-92143656D01*
X59352714Y-92114312D01*
X59421041Y-92068656D01*
X59455161Y-92045858D01*
X59542286Y-91958733D01*
X59542286Y-91958731D01*
X59552494Y-91948524D01*
X59552495Y-91948521D01*
X61026087Y-90474930D01*
X61087408Y-90441447D01*
X61101165Y-90439255D01*
X61115223Y-90437819D01*
X61177797Y-90431427D01*
X61344334Y-90376242D01*
X61493656Y-90284140D01*
X61587319Y-90190477D01*
X61648642Y-90156992D01*
X61718334Y-90161976D01*
X61762681Y-90190477D01*
X61856344Y-90284140D01*
X61990597Y-90366947D01*
X62037321Y-90418893D01*
X62049500Y-90472485D01*
X62049500Y-90965119D01*
X62029815Y-91032158D01*
X62013181Y-91052800D01*
X59972144Y-93093836D01*
X59972138Y-93093844D01*
X59903690Y-93196280D01*
X59903688Y-93196285D01*
X59881486Y-93249887D01*
X59864032Y-93292023D01*
X59864033Y-93292024D01*
X59856538Y-93310118D01*
X59856535Y-93310128D01*
X59835317Y-93416799D01*
X59835318Y-93416800D01*
X59832500Y-93430968D01*
X59832500Y-94208547D01*
X59812815Y-94275586D01*
X59760011Y-94321341D01*
X59690853Y-94331285D01*
X59627297Y-94302260D01*
X59620819Y-94296228D01*
X59245793Y-93921203D01*
X59212308Y-93859880D01*
X59211887Y-93857864D01*
X59189737Y-93746503D01*
X59150879Y-93652690D01*
X59129397Y-93600827D01*
X59129390Y-93600814D01*
X59041789Y-93469711D01*
X59041786Y-93469707D01*
X58930292Y-93358213D01*
X58930288Y-93358210D01*
X58799185Y-93270609D01*
X58799172Y-93270602D01*
X58653501Y-93210264D01*
X58653489Y-93210261D01*
X58498845Y-93179500D01*
X58498842Y-93179500D01*
X58341158Y-93179500D01*
X58341155Y-93179500D01*
X58186510Y-93210261D01*
X58186498Y-93210264D01*
X58040827Y-93270602D01*
X58040814Y-93270609D01*
X57909711Y-93358210D01*
X57909707Y-93358213D01*
X57798213Y-93469707D01*
X57798210Y-93469711D01*
X57710609Y-93600814D01*
X57710602Y-93600827D01*
X57650264Y-93746498D01*
X57650261Y-93746510D01*
X57619500Y-93901153D01*
X57619500Y-94058846D01*
X57650261Y-94213489D01*
X57650264Y-94213501D01*
X57710602Y-94359172D01*
X57710609Y-94359185D01*
X57798210Y-94490288D01*
X57798213Y-94490292D01*
X57909707Y-94601786D01*
X57909711Y-94601789D01*
X58040814Y-94689390D01*
X58040827Y-94689397D01*
X58069072Y-94701096D01*
X58186503Y-94749737D01*
X58297716Y-94771858D01*
X58359623Y-94804241D01*
X58361203Y-94805793D01*
X58796181Y-95240771D01*
X58829666Y-95302094D01*
X58832500Y-95328452D01*
X58832500Y-98079979D01*
X58831854Y-98082177D01*
X58832421Y-98084397D01*
X58822060Y-98115531D01*
X58812815Y-98147018D01*
X58811083Y-98148518D01*
X58810360Y-98150693D01*
X58784799Y-98171293D01*
X58760011Y-98192773D01*
X58757187Y-98193547D01*
X58755960Y-98194537D01*
X58721762Y-98203268D01*
X58715608Y-98203930D01*
X58689092Y-98203931D01*
X58647875Y-98199500D01*
X58647873Y-98199500D01*
X58574499Y-98199500D01*
X58507460Y-98179815D01*
X58461705Y-98127011D01*
X58450499Y-98075500D01*
X58450499Y-96052129D01*
X58450498Y-96052123D01*
X58450497Y-96052116D01*
X58444091Y-95992517D01*
X58395553Y-95862381D01*
X58393797Y-95857671D01*
X58393793Y-95857664D01*
X58307547Y-95742455D01*
X58307544Y-95742452D01*
X58192335Y-95656206D01*
X58192328Y-95656202D01*
X58057482Y-95605908D01*
X58057483Y-95605908D01*
X57997883Y-95599501D01*
X57997881Y-95599500D01*
X57997873Y-95599500D01*
X57997864Y-95599500D01*
X55602129Y-95599500D01*
X55602123Y-95599501D01*
X55542516Y-95605908D01*
X55407671Y-95656202D01*
X55407664Y-95656206D01*
X55292455Y-95742452D01*
X55279766Y-95759403D01*
X55223832Y-95801274D01*
X55154140Y-95806257D01*
X55092817Y-95772771D01*
X55059333Y-95711447D01*
X55056500Y-95685091D01*
X55056500Y-90105343D01*
X55066070Y-90072750D01*
X55075141Y-90039956D01*
X55075899Y-90039277D01*
X55076185Y-90038304D01*
X55101838Y-90016075D01*
X55127217Y-89993374D01*
X55128222Y-89993213D01*
X55128989Y-89992549D01*
X55162608Y-89987714D01*
X55196211Y-89982342D01*
X55197498Y-89982698D01*
G37*
%TD.AperFunction*%
%TA.AperFunction,Conductor*%
G36*
X67373834Y-95563270D02*
G01*
X67429767Y-95605142D01*
X67454184Y-95670606D01*
X67454500Y-95679452D01*
X67454500Y-96209547D01*
X67434815Y-96276586D01*
X67418181Y-96297228D01*
X66972141Y-96743267D01*
X66959783Y-96761764D01*
X66956777Y-96766263D01*
X66903688Y-96845714D01*
X66875316Y-96914211D01*
X66872730Y-96920452D01*
X66872726Y-96920461D01*
X66856538Y-96959544D01*
X66856535Y-96959556D01*
X66831910Y-97083354D01*
X66799525Y-97145265D01*
X66738809Y-97179839D01*
X66686102Y-97180780D01*
X66528846Y-97149500D01*
X66528842Y-97149500D01*
X66371158Y-97149500D01*
X66371155Y-97149500D01*
X66216510Y-97180261D01*
X66216498Y-97180264D01*
X66070827Y-97240602D01*
X66070814Y-97240609D01*
X65960020Y-97314640D01*
X65951381Y-97317344D01*
X65944646Y-97323395D01*
X65918558Y-97327622D01*
X65893342Y-97335518D01*
X65884611Y-97333123D01*
X65875676Y-97334571D01*
X65851444Y-97324023D01*
X65825962Y-97317033D01*
X65818219Y-97309561D01*
X65811612Y-97306686D01*
X65788027Y-97280429D01*
X65750890Y-97224850D01*
X65730012Y-97158173D01*
X65748496Y-97090793D01*
X65766307Y-97068282D01*
X67242819Y-95591771D01*
X67304142Y-95558286D01*
X67373834Y-95563270D01*
G37*
%TD.AperFunction*%
%TA.AperFunction,Conductor*%
G36*
X88536738Y-91970185D02*
G01*
X88582493Y-92022989D01*
X88587403Y-92035492D01*
X88608291Y-92098525D01*
X88615185Y-92119331D01*
X88615187Y-92119336D01*
X88640447Y-92160289D01*
X88707288Y-92268656D01*
X88831344Y-92392712D01*
X88980666Y-92484814D01*
X89073760Y-92515662D01*
X89128799Y-92552546D01*
X89136348Y-92561331D01*
X89169480Y-92618716D01*
X89281284Y-92730520D01*
X89281285Y-92730521D01*
X89306644Y-92755880D01*
X89315425Y-92764660D01*
X89348911Y-92825983D01*
X89349362Y-92828151D01*
X89380261Y-92983491D01*
X89380264Y-92983501D01*
X89440602Y-93129172D01*
X89440609Y-93129185D01*
X89495491Y-93211321D01*
X89516369Y-93277999D01*
X89497884Y-93345379D01*
X89492708Y-93353097D01*
X89446420Y-93416806D01*
X89341685Y-93622362D01*
X89341684Y-93622364D01*
X89341683Y-93622367D01*
X89331828Y-93652697D01*
X89270390Y-93841780D01*
X89238466Y-94043345D01*
X89234300Y-94069647D01*
X89234300Y-94300353D01*
X89236542Y-94314506D01*
X89270390Y-94528219D01*
X89288812Y-94584914D01*
X89341683Y-94747633D01*
X89341684Y-94747636D01*
X89341685Y-94747637D01*
X89342755Y-94749737D01*
X89446421Y-94953194D01*
X89582027Y-95139839D01*
X89745161Y-95302973D01*
X89931806Y-95438579D01*
X90137367Y-95543317D01*
X90314850Y-95600984D01*
X90356780Y-95614609D01*
X90422203Y-95624971D01*
X90584647Y-95650700D01*
X90584648Y-95650700D01*
X90652702Y-95650700D01*
X90719741Y-95670385D01*
X90765496Y-95723189D01*
X90775440Y-95792347D01*
X90746415Y-95855903D01*
X90740383Y-95862381D01*
X89639584Y-96963181D01*
X89578261Y-96996666D01*
X89551903Y-96999500D01*
X82374097Y-96999500D01*
X82307058Y-96979815D01*
X82261303Y-96927011D01*
X82251359Y-96857853D01*
X82280384Y-96794297D01*
X82286416Y-96787819D01*
X82496776Y-96577459D01*
X83241508Y-95832726D01*
X83302829Y-95799243D01*
X83367504Y-95802477D01*
X83481781Y-95839609D01*
X83709647Y-95875700D01*
X83709648Y-95875700D01*
X83940352Y-95875700D01*
X83940353Y-95875700D01*
X84168219Y-95839609D01*
X84387633Y-95768317D01*
X84593194Y-95663579D01*
X84779839Y-95527973D01*
X84942973Y-95364839D01*
X85078579Y-95178194D01*
X85183317Y-94972633D01*
X85254609Y-94753219D01*
X85290700Y-94525353D01*
X85290700Y-94294647D01*
X85279454Y-94223646D01*
X85288408Y-94154357D01*
X85333404Y-94100904D01*
X85400155Y-94080264D01*
X85467024Y-94098712D01*
X85605875Y-94184356D01*
X85605880Y-94184358D01*
X85772302Y-94239505D01*
X85772309Y-94239506D01*
X85875019Y-94249999D01*
X86149999Y-94249999D01*
X86650000Y-94249999D01*
X86924972Y-94249999D01*
X86924986Y-94249998D01*
X87027697Y-94239505D01*
X87194119Y-94184358D01*
X87194124Y-94184356D01*
X87343345Y-94092315D01*
X87467315Y-93968345D01*
X87559356Y-93819124D01*
X87559358Y-93819119D01*
X87614505Y-93652697D01*
X87614506Y-93652690D01*
X87624999Y-93549986D01*
X87625000Y-93549973D01*
X87625000Y-93500000D01*
X86650000Y-93500000D01*
X86650000Y-94249999D01*
X86149999Y-94249999D01*
X86150000Y-94249998D01*
X86150000Y-93500000D01*
X85175000Y-93500000D01*
X85162141Y-93512859D01*
X85100818Y-93546343D01*
X85031126Y-93541358D01*
X84975193Y-93499486D01*
X84974143Y-93498063D01*
X84953541Y-93469707D01*
X84942973Y-93455161D01*
X84779839Y-93292027D01*
X84710428Y-93241596D01*
X84667764Y-93186268D01*
X84661785Y-93116654D01*
X84694391Y-93054859D01*
X84695552Y-93053681D01*
X84971296Y-92777937D01*
X85032619Y-92744453D01*
X85102311Y-92749437D01*
X85158244Y-92791309D01*
X85182661Y-92856773D01*
X85182335Y-92878221D01*
X85175000Y-92950011D01*
X85175000Y-93000000D01*
X87624999Y-93000000D01*
X87624999Y-92950028D01*
X87624998Y-92950013D01*
X87614505Y-92847302D01*
X87559358Y-92680880D01*
X87559356Y-92680875D01*
X87467315Y-92531654D01*
X87343344Y-92407683D01*
X87343341Y-92407681D01*
X87340339Y-92405829D01*
X87338713Y-92404021D01*
X87337677Y-92403202D01*
X87337817Y-92403024D01*
X87293617Y-92353880D01*
X87282397Y-92284917D01*
X87310243Y-92220836D01*
X87340344Y-92194754D01*
X87343656Y-92192712D01*
X87467712Y-92068656D01*
X87504259Y-92009402D01*
X87556207Y-91962679D01*
X87609798Y-91950500D01*
X88469699Y-91950500D01*
X88536738Y-91970185D01*
G37*
%TD.AperFunction*%
%TA.AperFunction,Conductor*%
G36*
X74192334Y-86894768D02*
G01*
X74248267Y-86936640D01*
X74272684Y-87002104D01*
X74273000Y-87010950D01*
X74273000Y-87611027D01*
X74283300Y-87696809D01*
X74337127Y-87833306D01*
X74337128Y-87833308D01*
X74425782Y-87950217D01*
X74542691Y-88038871D01*
X74550086Y-88043029D01*
X74548557Y-88045747D01*
X74591809Y-88079388D01*
X74615015Y-88145291D01*
X74598907Y-88213278D01*
X74578871Y-88239536D01*
X74380229Y-88438181D01*
X74318906Y-88471666D01*
X74292547Y-88474500D01*
X73498817Y-88474500D01*
X73411479Y-88491873D01*
X73377976Y-88498537D01*
X73377975Y-88498537D01*
X73264144Y-88545687D01*
X73179056Y-88602542D01*
X73161694Y-88614142D01*
X73161688Y-88614147D01*
X71251657Y-90524181D01*
X71190334Y-90557666D01*
X71163976Y-90560500D01*
X69026309Y-90560500D01*
X68903095Y-90560500D01*
X68886937Y-90563714D01*
X68870778Y-90566928D01*
X68870777Y-90566927D01*
X68782257Y-90584535D01*
X68782247Y-90584538D01*
X68668417Y-90631688D01*
X68660051Y-90637278D01*
X68593372Y-90658152D01*
X68525993Y-90639664D01*
X68512501Y-90630026D01*
X68510288Y-90628210D01*
X68379185Y-90540609D01*
X68379172Y-90540602D01*
X68233501Y-90480264D01*
X68233489Y-90480261D01*
X68078845Y-90449500D01*
X68078842Y-90449500D01*
X67921158Y-90449500D01*
X67921155Y-90449500D01*
X67766510Y-90480261D01*
X67766498Y-90480264D01*
X67620827Y-90540602D01*
X67620815Y-90540609D01*
X67526541Y-90603602D01*
X67459864Y-90624480D01*
X67457650Y-90624500D01*
X66811607Y-90624500D01*
X66688393Y-90624500D01*
X66670322Y-90628094D01*
X66652250Y-90631689D01*
X66652249Y-90631688D01*
X66567555Y-90648535D01*
X66567545Y-90648538D01*
X66526200Y-90665664D01*
X66524107Y-90666531D01*
X66453715Y-90695688D01*
X66447048Y-90700143D01*
X66438790Y-90705660D01*
X66438785Y-90705663D01*
X66351268Y-90764140D01*
X66315306Y-90800103D01*
X66264142Y-90851267D01*
X61295181Y-95820228D01*
X61233858Y-95853713D01*
X61164166Y-95848729D01*
X61108233Y-95806857D01*
X61083816Y-95741393D01*
X61083500Y-95732547D01*
X61083500Y-93803024D01*
X61103185Y-93735985D01*
X61119819Y-93715343D01*
X62131705Y-92703458D01*
X63160857Y-91674306D01*
X63162494Y-91671857D01*
X63229311Y-91571858D01*
X63276463Y-91458024D01*
X63280099Y-91439744D01*
X63300500Y-91337179D01*
X63300500Y-91213966D01*
X63300500Y-90472485D01*
X63320185Y-90405446D01*
X63359401Y-90366948D01*
X63493656Y-90284140D01*
X63617712Y-90160084D01*
X63709814Y-90010762D01*
X63729311Y-89951921D01*
X63769084Y-89894479D01*
X63833600Y-89867656D01*
X63847017Y-89866928D01*
X70920180Y-89866928D01*
X70920180Y-89866927D01*
X71003016Y-89850451D01*
X71041024Y-89842891D01*
X71075665Y-89828542D01*
X71154858Y-89795740D01*
X71231533Y-89744506D01*
X71257305Y-89727286D01*
X71344430Y-89640161D01*
X71344431Y-89640158D01*
X72310858Y-88673733D01*
X72310859Y-88673730D01*
X72317919Y-88666671D01*
X72317924Y-88666664D01*
X74061322Y-86923266D01*
X74122642Y-86889784D01*
X74192334Y-86894768D01*
G37*
%TD.AperFunction*%
%TA.AperFunction,Conductor*%
G36*
X93108747Y-92051275D02*
G01*
X93111418Y-92050614D01*
X93142077Y-92061061D01*
X93173147Y-92070185D01*
X93174947Y-92072263D01*
X93177553Y-92073151D01*
X93197703Y-92098525D01*
X93218902Y-92122989D01*
X93219293Y-92125710D01*
X93221005Y-92127866D01*
X93224238Y-92160100D01*
X93228846Y-92192147D01*
X93227787Y-92195486D01*
X93227978Y-92197387D01*
X93216593Y-92230795D01*
X93129685Y-92401362D01*
X93129684Y-92401364D01*
X93129683Y-92401367D01*
X93127631Y-92407683D01*
X93058390Y-92620780D01*
X93030205Y-92798735D01*
X93022300Y-92848647D01*
X93022300Y-93079353D01*
X93034486Y-93156292D01*
X93058391Y-93307220D01*
X93058391Y-93307223D01*
X93093068Y-93413946D01*
X93095063Y-93483787D01*
X93062818Y-93539945D01*
X92377381Y-94225383D01*
X92316058Y-94258868D01*
X92246367Y-94253884D01*
X92190433Y-94212013D01*
X92166016Y-94146548D01*
X92165700Y-94137702D01*
X92165700Y-94069647D01*
X92129609Y-93841780D01*
X92113313Y-93791627D01*
X92058317Y-93622367D01*
X91953579Y-93416806D01*
X91817973Y-93230161D01*
X91654839Y-93067027D01*
X91468194Y-92931421D01*
X91262633Y-92826683D01*
X91135136Y-92785256D01*
X91077461Y-92745819D01*
X91050263Y-92681461D01*
X91062178Y-92612614D01*
X91109422Y-92561139D01*
X91176996Y-92543377D01*
X91186042Y-92543966D01*
X91249991Y-92550500D01*
X92050008Y-92550499D01*
X92050016Y-92550498D01*
X92050019Y-92550498D01*
X92119728Y-92543377D01*
X92152797Y-92539999D01*
X92319334Y-92484814D01*
X92468656Y-92392712D01*
X92592712Y-92268656D01*
X92684814Y-92119334D01*
X92684815Y-92119331D01*
X92688605Y-92113187D01*
X92690399Y-92114293D01*
X92729687Y-92069663D01*
X92795908Y-92050500D01*
X93106108Y-92050500D01*
X93108747Y-92051275D01*
G37*
%TD.AperFunction*%
%TA.AperFunction,Conductor*%
G36*
X66524191Y-80542185D02*
G01*
X66569946Y-80594989D01*
X66578769Y-80622308D01*
X66605261Y-80755491D01*
X66605264Y-80755501D01*
X66665602Y-80901172D01*
X66665609Y-80901185D01*
X66753210Y-81032288D01*
X66753213Y-81032292D01*
X66864707Y-81143786D01*
X66864711Y-81143789D01*
X66995814Y-81231390D01*
X66995827Y-81231397D01*
X67083230Y-81267599D01*
X67141503Y-81291737D01*
X67178237Y-81299043D01*
X67240146Y-81331425D01*
X67274722Y-81392140D01*
X67270984Y-81461910D01*
X67259587Y-81485753D01*
X67249646Y-81501870D01*
X67249641Y-81501880D01*
X67194494Y-81668302D01*
X67194493Y-81668309D01*
X67184000Y-81771013D01*
X67184000Y-82046000D01*
X68060000Y-82046000D01*
X68127039Y-82065685D01*
X68172794Y-82118489D01*
X68184000Y-82170000D01*
X68184000Y-82422000D01*
X68164315Y-82489039D01*
X68111511Y-82534794D01*
X68060000Y-82546000D01*
X67184001Y-82546000D01*
X67184001Y-82820986D01*
X67194494Y-82923697D01*
X67249641Y-83090119D01*
X67249643Y-83090124D01*
X67341684Y-83239345D01*
X67388083Y-83285744D01*
X67421568Y-83347067D01*
X67416584Y-83416759D01*
X67374712Y-83472692D01*
X67347855Y-83487986D01*
X67220824Y-83540604D01*
X67220814Y-83540609D01*
X67089711Y-83628210D01*
X67089707Y-83628213D01*
X66978213Y-83739707D01*
X66978210Y-83739711D01*
X66890609Y-83870814D01*
X66890602Y-83870827D01*
X66830264Y-84016498D01*
X66830261Y-84016510D01*
X66799500Y-84171153D01*
X66799500Y-84328846D01*
X66830261Y-84483489D01*
X66830264Y-84483501D01*
X66890602Y-84629172D01*
X66890609Y-84629185D01*
X66978210Y-84760288D01*
X66978213Y-84760292D01*
X67089707Y-84871786D01*
X67089711Y-84871789D01*
X67220817Y-84959392D01*
X67220819Y-84959393D01*
X67220821Y-84959394D01*
X67226372Y-84961693D01*
X67280776Y-85005532D01*
X67302843Y-85071826D01*
X67296628Y-85115259D01*
X67260494Y-85224302D01*
X67260493Y-85224309D01*
X67250000Y-85327013D01*
X67250000Y-85602000D01*
X68126000Y-85602000D01*
X68193039Y-85621685D01*
X68238794Y-85674489D01*
X68250000Y-85726000D01*
X68250000Y-85852000D01*
X68376000Y-85852000D01*
X68443039Y-85871685D01*
X68488794Y-85924489D01*
X68500000Y-85976000D01*
X68500000Y-87076999D01*
X68549972Y-87076999D01*
X68549986Y-87076998D01*
X68652697Y-87066505D01*
X68819119Y-87011358D01*
X68819124Y-87011356D01*
X68968345Y-86919315D01*
X69092318Y-86795342D01*
X69094165Y-86792348D01*
X69095969Y-86790724D01*
X69096798Y-86789677D01*
X69096976Y-86789818D01*
X69146110Y-86745621D01*
X69215073Y-86734396D01*
X69279156Y-86762236D01*
X69305243Y-86792341D01*
X69307288Y-86795656D01*
X69431344Y-86919712D01*
X69580666Y-87011814D01*
X69747203Y-87066999D01*
X69849991Y-87077500D01*
X70450008Y-87077499D01*
X70450016Y-87077498D01*
X70450019Y-87077498D01*
X70506302Y-87071748D01*
X70552797Y-87066999D01*
X70719334Y-87011814D01*
X70868656Y-86919712D01*
X70903886Y-86884481D01*
X70965206Y-86850997D01*
X71034898Y-86855981D01*
X71060456Y-86869061D01*
X71120809Y-86909387D01*
X71120818Y-86909392D01*
X71120821Y-86909394D01*
X71120823Y-86909394D01*
X71120827Y-86909397D01*
X71266498Y-86969735D01*
X71266503Y-86969737D01*
X71313532Y-86979091D01*
X71375440Y-87011475D01*
X71410015Y-87072190D01*
X71406276Y-87141959D01*
X71377020Y-87188389D01*
X71127229Y-87438181D01*
X71065906Y-87471666D01*
X71039548Y-87474500D01*
X59686606Y-87474500D01*
X59563393Y-87474500D01*
X59505925Y-87485931D01*
X59505924Y-87485930D01*
X59442555Y-87498535D01*
X59442545Y-87498538D01*
X59328716Y-87545687D01*
X59328707Y-87545692D01*
X59226268Y-87614140D01*
X59182705Y-87657703D01*
X59139142Y-87701267D01*
X59139139Y-87701270D01*
X58777227Y-88063181D01*
X58715904Y-88096666D01*
X58689546Y-88099500D01*
X58024998Y-88099500D01*
X58024980Y-88099501D01*
X57922203Y-88110000D01*
X57922200Y-88110001D01*
X57755668Y-88165185D01*
X57755663Y-88165187D01*
X57606342Y-88257289D01*
X57512681Y-88350951D01*
X57451358Y-88384436D01*
X57381666Y-88379452D01*
X57337319Y-88350951D01*
X57243657Y-88257289D01*
X57243656Y-88257288D01*
X57120863Y-88181549D01*
X57094336Y-88165187D01*
X57094331Y-88165185D01*
X57059228Y-88153553D01*
X56927797Y-88110001D01*
X56927795Y-88110000D01*
X56825010Y-88099500D01*
X56024998Y-88099500D01*
X56024980Y-88099501D01*
X55922203Y-88110000D01*
X55922200Y-88110001D01*
X55755668Y-88165185D01*
X55755663Y-88165187D01*
X55606331Y-88257296D01*
X55604431Y-88258799D01*
X55602886Y-88259421D01*
X55600198Y-88261080D01*
X55599914Y-88260620D01*
X55539631Y-88284928D01*
X55470991Y-88271875D01*
X55439857Y-88249200D01*
X55092819Y-87902162D01*
X55059334Y-87840839D01*
X55056500Y-87814481D01*
X55056500Y-86376986D01*
X67250001Y-86376986D01*
X67260494Y-86479697D01*
X67315641Y-86646119D01*
X67315643Y-86646124D01*
X67407684Y-86795345D01*
X67531654Y-86919315D01*
X67680875Y-87011356D01*
X67680880Y-87011358D01*
X67847302Y-87066505D01*
X67847309Y-87066506D01*
X67950019Y-87076999D01*
X67999999Y-87076998D01*
X68000000Y-87076998D01*
X68000000Y-86102000D01*
X67250001Y-86102000D01*
X67250001Y-86376986D01*
X55056500Y-86376986D01*
X55056500Y-82429818D01*
X55076185Y-82362779D01*
X55128989Y-82317024D01*
X55198147Y-82307080D01*
X55261703Y-82336105D01*
X55286039Y-82364721D01*
X55332684Y-82440345D01*
X55456654Y-82564315D01*
X55605875Y-82656356D01*
X55605880Y-82656358D01*
X55772302Y-82711505D01*
X55772309Y-82711506D01*
X55875019Y-82721999D01*
X56149999Y-82721999D01*
X56650000Y-82721999D01*
X56924972Y-82721999D01*
X56924986Y-82721998D01*
X57027697Y-82711505D01*
X57194119Y-82656358D01*
X57194124Y-82656356D01*
X57343345Y-82564315D01*
X57467315Y-82440345D01*
X57559356Y-82291124D01*
X57559358Y-82291119D01*
X57614505Y-82124697D01*
X57614506Y-82124690D01*
X57624999Y-82021986D01*
X57625000Y-82021973D01*
X57625000Y-81972000D01*
X56650000Y-81972000D01*
X56650000Y-82721999D01*
X56149999Y-82721999D01*
X56150000Y-82721998D01*
X56150000Y-81846000D01*
X56169685Y-81778961D01*
X56222489Y-81733206D01*
X56274000Y-81722000D01*
X56400000Y-81722000D01*
X56400000Y-81596000D01*
X56419685Y-81528961D01*
X56472489Y-81483206D01*
X56524000Y-81472000D01*
X57624999Y-81472000D01*
X57624999Y-81422028D01*
X57624998Y-81422013D01*
X57614505Y-81319302D01*
X57559358Y-81152880D01*
X57559356Y-81152875D01*
X57467315Y-81003654D01*
X57343344Y-80879683D01*
X57343341Y-80879681D01*
X57340339Y-80877829D01*
X57338713Y-80876021D01*
X57337677Y-80875202D01*
X57337817Y-80875024D01*
X57293617Y-80825880D01*
X57282397Y-80756917D01*
X57310243Y-80692836D01*
X57319824Y-80682594D01*
X57329248Y-80673598D01*
X57343656Y-80664712D01*
X57450560Y-80557807D01*
X57451615Y-80556801D01*
X57481422Y-80541414D01*
X57510873Y-80525334D01*
X57513023Y-80525102D01*
X57513701Y-80524753D01*
X57515068Y-80524882D01*
X57537231Y-80522500D01*
X66457152Y-80522500D01*
X66524191Y-80542185D01*
G37*
%TD.AperFunction*%
%TA.AperFunction,Conductor*%
G36*
X69213156Y-83206236D02*
G01*
X69239243Y-83236341D01*
X69241288Y-83239656D01*
X69241289Y-83239657D01*
X69365344Y-83363712D01*
X69416007Y-83394961D01*
X69462732Y-83446909D01*
X69473955Y-83515871D01*
X69446112Y-83579954D01*
X69388043Y-83618810D01*
X69350911Y-83624500D01*
X68916137Y-83624500D01*
X68849098Y-83604815D01*
X68803343Y-83552011D01*
X68793399Y-83482853D01*
X68822424Y-83419297D01*
X68851040Y-83394961D01*
X68902345Y-83363315D01*
X69026318Y-83239342D01*
X69028165Y-83236348D01*
X69029969Y-83234724D01*
X69030798Y-83233677D01*
X69030976Y-83233818D01*
X69080110Y-83189621D01*
X69149073Y-83178396D01*
X69213156Y-83206236D01*
G37*
%TD.AperFunction*%
%TA.AperFunction,Conductor*%
G36*
X90634185Y-75628050D02*
G01*
X90643147Y-75626762D01*
X90667187Y-75637740D01*
X90692539Y-75645185D01*
X90698466Y-75652025D01*
X90706703Y-75655787D01*
X90720992Y-75678021D01*
X90738294Y-75697989D01*
X90740581Y-75708503D01*
X90744477Y-75714565D01*
X90749500Y-75749500D01*
X90749500Y-75803846D01*
X90780261Y-75958489D01*
X90780264Y-75958501D01*
X90840602Y-76104172D01*
X90840609Y-76104184D01*
X90903602Y-76198459D01*
X90924480Y-76265136D01*
X90924500Y-76267350D01*
X90924500Y-79739548D01*
X90904815Y-79806587D01*
X90888181Y-79827229D01*
X88037181Y-82678229D01*
X87975858Y-82711714D01*
X87906166Y-82706730D01*
X87850233Y-82664858D01*
X87825816Y-82599394D01*
X87825500Y-82590548D01*
X87825500Y-81772757D01*
X87845185Y-81705718D01*
X87897989Y-81659963D01*
X87967147Y-81650019D01*
X87973692Y-81651140D01*
X88096155Y-81675500D01*
X88096158Y-81675500D01*
X88253844Y-81675500D01*
X88253845Y-81675499D01*
X88408497Y-81644737D01*
X88554179Y-81584394D01*
X88685289Y-81496789D01*
X88796789Y-81385289D01*
X88884394Y-81254179D01*
X88944737Y-81108497D01*
X88975500Y-80953842D01*
X88975500Y-80796158D01*
X88975500Y-80796155D01*
X88975499Y-80796153D01*
X88967674Y-80756814D01*
X88944737Y-80641503D01*
X88927895Y-80600842D01*
X88884397Y-80495827D01*
X88884390Y-80495814D01*
X88796789Y-80364711D01*
X88796786Y-80364707D01*
X88685292Y-80253213D01*
X88685288Y-80253210D01*
X88554185Y-80165609D01*
X88554175Y-80165604D01*
X88454514Y-80124323D01*
X88431674Y-80105917D01*
X88407202Y-80089735D01*
X88404781Y-80084245D01*
X88400111Y-80080482D01*
X88390847Y-80052649D01*
X88379009Y-80025805D01*
X88379940Y-80019879D01*
X88378046Y-80014188D01*
X88385301Y-79985760D01*
X88389855Y-79956783D01*
X88394313Y-79950449D01*
X88395325Y-79946488D01*
X88409322Y-79927343D01*
X88411715Y-79924652D01*
X88442712Y-79893656D01*
X88450447Y-79881115D01*
X88457648Y-79873021D01*
X88478456Y-79860028D01*
X88496694Y-79843623D01*
X88507567Y-79841852D01*
X88516914Y-79836017D01*
X88541443Y-79836337D01*
X88565656Y-79832395D01*
X88575762Y-79836785D01*
X88586778Y-79836929D01*
X88607240Y-79850459D01*
X88629740Y-79860234D01*
X88640099Y-79872188D01*
X88645058Y-79875467D01*
X88647251Y-79880441D01*
X88655829Y-79890339D01*
X88657681Y-79893341D01*
X88657683Y-79893344D01*
X88781654Y-80017315D01*
X88930875Y-80109356D01*
X88930880Y-80109358D01*
X89097302Y-80164505D01*
X89097309Y-80164506D01*
X89200019Y-80174999D01*
X89750000Y-80174999D01*
X89799972Y-80174999D01*
X89799986Y-80174998D01*
X89902697Y-80164505D01*
X90069119Y-80109358D01*
X90069124Y-80109356D01*
X90218345Y-80017315D01*
X90342315Y-79893345D01*
X90434356Y-79744124D01*
X90434358Y-79744119D01*
X90489505Y-79577697D01*
X90489506Y-79577690D01*
X90499999Y-79474986D01*
X90500000Y-79474973D01*
X90500000Y-79200000D01*
X89750000Y-79200000D01*
X89750000Y-80174999D01*
X89200019Y-80174999D01*
X89249999Y-80174998D01*
X89250000Y-80174998D01*
X89250000Y-78700000D01*
X89750000Y-78700000D01*
X90499999Y-78700000D01*
X90499999Y-78425028D01*
X90499998Y-78425013D01*
X90489505Y-78322302D01*
X90434358Y-78155880D01*
X90434356Y-78155875D01*
X90342315Y-78006654D01*
X90218345Y-77882684D01*
X90069124Y-77790643D01*
X90069119Y-77790641D01*
X89902697Y-77735494D01*
X89902690Y-77735493D01*
X89799986Y-77725000D01*
X89750000Y-77725000D01*
X89750000Y-78700000D01*
X89250000Y-78700000D01*
X89250000Y-77725000D01*
X89249999Y-77724999D01*
X89200029Y-77725000D01*
X89200011Y-77725001D01*
X89097302Y-77735494D01*
X88930880Y-77790641D01*
X88930875Y-77790643D01*
X88781654Y-77882684D01*
X88657683Y-78006655D01*
X88657679Y-78006660D01*
X88655826Y-78009665D01*
X88654018Y-78011290D01*
X88653202Y-78012323D01*
X88653025Y-78012183D01*
X88603874Y-78056385D01*
X88534911Y-78067601D01*
X88470831Y-78039752D01*
X88444753Y-78009653D01*
X88444737Y-78009628D01*
X88442712Y-78006344D01*
X88318656Y-77882288D01*
X88193306Y-77804972D01*
X88169336Y-77790187D01*
X88169331Y-77790185D01*
X88149154Y-77783499D01*
X88002797Y-77735001D01*
X88002795Y-77735000D01*
X87900010Y-77724500D01*
X87299998Y-77724500D01*
X87299980Y-77724501D01*
X87197203Y-77735000D01*
X87197200Y-77735001D01*
X87030668Y-77790185D01*
X87030663Y-77790187D01*
X86881342Y-77882289D01*
X86757289Y-78006342D01*
X86665187Y-78155663D01*
X86665185Y-78155668D01*
X86665115Y-78155880D01*
X86640552Y-78230008D01*
X86638068Y-78237504D01*
X86598295Y-78294949D01*
X86533780Y-78321772D01*
X86520362Y-78322500D01*
X85675490Y-78322500D01*
X85659742Y-78317875D01*
X85643336Y-78318258D01*
X85626912Y-78308235D01*
X85608451Y-78302815D01*
X85597703Y-78290412D01*
X85583694Y-78281863D01*
X85575294Y-78264550D01*
X85562696Y-78250011D01*
X85560075Y-78233181D01*
X85553196Y-78219001D01*
X85552374Y-78183716D01*
X85553188Y-78176935D01*
X85553190Y-78176931D01*
X85559014Y-78128430D01*
X85586549Y-78064222D01*
X85634673Y-78028660D01*
X85698286Y-78002312D01*
X85753488Y-77965426D01*
X85800733Y-77933858D01*
X85887858Y-77846733D01*
X85887859Y-77846731D01*
X85894925Y-77839665D01*
X85894928Y-77839661D01*
X86348729Y-77385860D01*
X86348733Y-77385858D01*
X86435858Y-77298733D01*
X86487743Y-77221082D01*
X86504312Y-77196286D01*
X86545129Y-77097744D01*
X86551463Y-77082452D01*
X86569903Y-76989744D01*
X86573094Y-76973702D01*
X86575500Y-76961609D01*
X86575500Y-76505903D01*
X86595185Y-76438864D01*
X86647989Y-76393109D01*
X86651999Y-76391362D01*
X86729179Y-76359394D01*
X86860289Y-76271789D01*
X86970144Y-76161933D01*
X87031465Y-76128450D01*
X87101157Y-76133434D01*
X87126713Y-76146512D01*
X87220821Y-76209394D01*
X87220823Y-76209395D01*
X87220827Y-76209397D01*
X87355395Y-76265136D01*
X87366503Y-76269737D01*
X87493508Y-76295000D01*
X87521153Y-76300499D01*
X87521156Y-76300500D01*
X87521158Y-76300500D01*
X87678844Y-76300500D01*
X87678845Y-76300499D01*
X87833497Y-76269737D01*
X87979179Y-76209394D01*
X88110289Y-76121789D01*
X88221789Y-76010289D01*
X88275990Y-75929172D01*
X88312779Y-75874114D01*
X88314835Y-75875488D01*
X88356137Y-75833381D01*
X88424264Y-75817871D01*
X88489961Y-75841655D01*
X88519714Y-75872744D01*
X88578210Y-75960288D01*
X88578213Y-75960292D01*
X88689707Y-76071786D01*
X88689711Y-76071789D01*
X88820814Y-76159390D01*
X88820827Y-76159397D01*
X88960745Y-76217352D01*
X88966503Y-76219737D01*
X89121153Y-76250499D01*
X89121156Y-76250500D01*
X89121158Y-76250500D01*
X89278844Y-76250500D01*
X89278845Y-76250499D01*
X89433497Y-76219737D01*
X89564049Y-76165661D01*
X89579172Y-76159397D01*
X89579172Y-76159396D01*
X89579179Y-76159394D01*
X89710289Y-76071789D01*
X89821789Y-75960289D01*
X89909394Y-75829179D01*
X89949027Y-75733497D01*
X89962053Y-75702048D01*
X90005893Y-75647644D01*
X90072187Y-75625579D01*
X90076614Y-75625500D01*
X90625500Y-75625500D01*
X90634185Y-75628050D01*
G37*
%TD.AperFunction*%
%TA.AperFunction,Conductor*%
G36*
X74374494Y-77522155D02*
G01*
X74374528Y-77522155D01*
X74374629Y-77522216D01*
X74411179Y-77538788D01*
X74528814Y-77617390D01*
X74528827Y-77617397D01*
X74662753Y-77672870D01*
X74674503Y-77677737D01*
X74829153Y-77708499D01*
X74829156Y-77708500D01*
X74829158Y-77708500D01*
X74986844Y-77708500D01*
X74986845Y-77708499D01*
X75141497Y-77677737D01*
X75258744Y-77629172D01*
X75287172Y-77617397D01*
X75287172Y-77617396D01*
X75287179Y-77617394D01*
X75291488Y-77614515D01*
X75358163Y-77593631D01*
X75425545Y-77612110D01*
X75472239Y-77664085D01*
X75474948Y-77670158D01*
X75517283Y-77772365D01*
X75517288Y-77772374D01*
X75604889Y-77903477D01*
X75604892Y-77903481D01*
X75716386Y-78014975D01*
X75716390Y-78014978D01*
X75847493Y-78102579D01*
X75847506Y-78102586D01*
X75976159Y-78155875D01*
X75993182Y-78162926D01*
X76097700Y-78183716D01*
X76147832Y-78193688D01*
X76147835Y-78193689D01*
X76147837Y-78193689D01*
X76181737Y-78193689D01*
X76248776Y-78213374D01*
X76269418Y-78230008D01*
X76648205Y-78608795D01*
X76681690Y-78670118D01*
X76682141Y-78672285D01*
X76704261Y-78783489D01*
X76704264Y-78783501D01*
X76764602Y-78929172D01*
X76764609Y-78929185D01*
X76852210Y-79060288D01*
X76852213Y-79060292D01*
X76963707Y-79171786D01*
X76963711Y-79171789D01*
X77094814Y-79259390D01*
X77094827Y-79259397D01*
X77190627Y-79299078D01*
X77240503Y-79319737D01*
X77395153Y-79350499D01*
X77395156Y-79350500D01*
X77395158Y-79350500D01*
X77400230Y-79350500D01*
X77408915Y-79353050D01*
X77417877Y-79351762D01*
X77441917Y-79362740D01*
X77467269Y-79370185D01*
X77473196Y-79377025D01*
X77481433Y-79380787D01*
X77495722Y-79403021D01*
X77513024Y-79422989D01*
X77515311Y-79433503D01*
X77519207Y-79439565D01*
X77524230Y-79474500D01*
X77524230Y-79496830D01*
X77504545Y-79563869D01*
X77487911Y-79584511D01*
X76442908Y-80629513D01*
X76381585Y-80662998D01*
X76311893Y-80658014D01*
X76255960Y-80616142D01*
X76240669Y-80589291D01*
X76224187Y-80549500D01*
X76204312Y-80501516D01*
X76204308Y-80501508D01*
X76163112Y-80439858D01*
X76163111Y-80439856D01*
X76135856Y-80399066D01*
X76045637Y-80308847D01*
X76045606Y-80308818D01*
X74290393Y-78553605D01*
X74286057Y-78549269D01*
X74286056Y-78549267D01*
X74275104Y-78538315D01*
X74259816Y-78523026D01*
X74231399Y-78470981D01*
X74226334Y-78461706D01*
X74226333Y-78461703D01*
X74226333Y-78461698D01*
X74223500Y-78435348D01*
X74223500Y-78304921D01*
X74212242Y-78211176D01*
X74214079Y-78210955D01*
X74212161Y-78181286D01*
X74223000Y-78091034D01*
X74223000Y-78083000D01*
X74221322Y-78083000D01*
X74217319Y-78081824D01*
X74213247Y-78082737D01*
X74184078Y-78072063D01*
X74154283Y-78063315D01*
X74150432Y-78059752D01*
X74147632Y-78058728D01*
X74122520Y-78033928D01*
X74114177Y-78022926D01*
X74089353Y-77957617D01*
X74103779Y-77889253D01*
X74114173Y-77873078D01*
X74122520Y-77862071D01*
X74152503Y-77839916D01*
X74152876Y-77839540D01*
X74153073Y-77839495D01*
X74178714Y-77820550D01*
X74221322Y-77813000D01*
X74222999Y-77813000D01*
X74222999Y-77804972D01*
X74212161Y-77714709D01*
X74212172Y-77685054D01*
X74213137Y-77677065D01*
X74213190Y-77676931D01*
X74219184Y-77627014D01*
X74233033Y-77594784D01*
X74246709Y-77562892D01*
X74246748Y-77562865D01*
X74246766Y-77562824D01*
X74275561Y-77543385D01*
X74304592Y-77523759D01*
X74304637Y-77523757D01*
X74304676Y-77523732D01*
X74339630Y-77522942D01*
X74374442Y-77522132D01*
X74374494Y-77522155D01*
G37*
%TD.AperFunction*%
%TA.AperFunction,Conductor*%
G36*
X89991885Y-65395185D02*
G01*
X90012527Y-65411819D01*
X90439763Y-65839055D01*
X90473248Y-65900378D01*
X90468264Y-65970070D01*
X90426392Y-66026003D01*
X90360928Y-66050420D01*
X90313081Y-66044443D01*
X90303652Y-66041319D01*
X90303653Y-66041319D01*
X90202654Y-66031000D01*
X90166000Y-66031000D01*
X90166000Y-66932000D01*
X90146315Y-66999039D01*
X90093511Y-67044794D01*
X90042000Y-67056000D01*
X89916000Y-67056000D01*
X89916000Y-67182000D01*
X89896315Y-67249039D01*
X89843511Y-67294794D01*
X89792000Y-67306000D01*
X88941001Y-67306000D01*
X88941001Y-67392654D01*
X88951319Y-67493652D01*
X89005546Y-67657300D01*
X89005551Y-67657311D01*
X89096052Y-67804034D01*
X89096055Y-67804038D01*
X89134982Y-67842965D01*
X89168467Y-67904288D01*
X89163483Y-67973980D01*
X89134983Y-68018326D01*
X89095661Y-68057648D01*
X89005093Y-68204481D01*
X89005092Y-68204484D01*
X88950826Y-68368247D01*
X88950826Y-68368248D01*
X88950825Y-68368248D01*
X88940500Y-68469315D01*
X88940500Y-69142669D01*
X88940501Y-69142687D01*
X88950825Y-69243752D01*
X88987109Y-69353249D01*
X89005092Y-69407516D01*
X89095660Y-69554350D01*
X89217650Y-69676340D01*
X89229920Y-69683908D01*
X89231596Y-69684942D01*
X89278321Y-69736890D01*
X89290500Y-69790481D01*
X89290500Y-70487983D01*
X89270815Y-70555022D01*
X89218011Y-70600777D01*
X89205510Y-70605686D01*
X89146666Y-70625186D01*
X89146663Y-70625187D01*
X88997342Y-70717289D01*
X88873289Y-70841342D01*
X88781187Y-70990663D01*
X88781185Y-70990668D01*
X88769809Y-71025000D01*
X88726001Y-71157203D01*
X88726001Y-71157204D01*
X88726000Y-71157204D01*
X88715500Y-71259983D01*
X88715500Y-72060001D01*
X88715501Y-72060019D01*
X88726000Y-72162796D01*
X88726001Y-72162799D01*
X88781185Y-72329331D01*
X88781187Y-72329336D01*
X88797508Y-72355796D01*
X88872053Y-72476654D01*
X88873289Y-72478657D01*
X88966951Y-72572319D01*
X89000436Y-72633642D01*
X88995452Y-72703334D01*
X88966951Y-72747681D01*
X88873289Y-72841342D01*
X88781187Y-72990663D01*
X88781185Y-72990668D01*
X88760017Y-73054549D01*
X88726001Y-73157203D01*
X88726001Y-73157204D01*
X88726000Y-73157204D01*
X88715500Y-73259983D01*
X88715500Y-73448547D01*
X88695815Y-73515586D01*
X88679181Y-73536228D01*
X87541203Y-74674205D01*
X87479880Y-74707690D01*
X87477714Y-74708141D01*
X87366508Y-74730261D01*
X87366498Y-74730264D01*
X87220827Y-74790602D01*
X87220814Y-74790609D01*
X87089711Y-74878210D01*
X86979856Y-74988065D01*
X86918533Y-75021549D01*
X86848841Y-75016565D01*
X86823284Y-75003485D01*
X86729184Y-74940609D01*
X86729172Y-74940602D01*
X86583501Y-74880264D01*
X86583489Y-74880261D01*
X86428845Y-74849500D01*
X86428842Y-74849500D01*
X86271158Y-74849500D01*
X86190145Y-74865614D01*
X86120554Y-74859385D01*
X86065377Y-74816522D01*
X86042133Y-74750632D01*
X86058201Y-74682635D01*
X86078269Y-74656320D01*
X87685858Y-73048733D01*
X87754312Y-72946285D01*
X87781932Y-72879603D01*
X87801463Y-72832452D01*
X87807278Y-72803216D01*
X87825501Y-72711606D01*
X87825501Y-72588393D01*
X87825501Y-72583283D01*
X87825500Y-72583257D01*
X87825500Y-70892350D01*
X87845185Y-70825311D01*
X87846398Y-70823459D01*
X87859400Y-70804000D01*
X87909394Y-70729179D01*
X87969737Y-70583497D01*
X88000500Y-70428842D01*
X88000500Y-70271158D01*
X88000500Y-70271155D01*
X88000499Y-70271153D01*
X87976398Y-70149991D01*
X87969737Y-70116503D01*
X87949542Y-70067747D01*
X87909397Y-69970827D01*
X87909390Y-69970814D01*
X87821789Y-69839711D01*
X87821786Y-69839707D01*
X87710292Y-69728213D01*
X87710288Y-69728210D01*
X87579185Y-69640609D01*
X87579172Y-69640602D01*
X87433501Y-69580264D01*
X87433489Y-69580261D01*
X87278845Y-69549500D01*
X87278842Y-69549500D01*
X87121158Y-69549500D01*
X87121155Y-69549500D01*
X86966510Y-69580261D01*
X86966498Y-69580264D01*
X86820827Y-69640602D01*
X86820814Y-69640609D01*
X86689711Y-69728210D01*
X86689707Y-69728213D01*
X86578213Y-69839707D01*
X86578210Y-69839711D01*
X86490609Y-69970814D01*
X86490602Y-69970827D01*
X86430264Y-70116498D01*
X86430261Y-70116510D01*
X86399500Y-70271153D01*
X86399500Y-70428846D01*
X86430261Y-70583489D01*
X86430264Y-70583501D01*
X86490602Y-70729172D01*
X86490609Y-70729184D01*
X86553602Y-70823459D01*
X86574480Y-70890136D01*
X86574500Y-70892350D01*
X86574500Y-72339547D01*
X86554815Y-72406586D01*
X86538181Y-72427228D01*
X86061181Y-72904228D01*
X85999858Y-72937713D01*
X85930166Y-72932729D01*
X85874233Y-72890857D01*
X85849816Y-72825393D01*
X85849500Y-72816547D01*
X85849500Y-66719345D01*
X88941000Y-66719345D01*
X88941000Y-66806000D01*
X89666000Y-66806000D01*
X89666000Y-66031000D01*
X89629361Y-66031000D01*
X89629343Y-66031001D01*
X89528347Y-66041319D01*
X89364699Y-66095546D01*
X89364688Y-66095551D01*
X89217965Y-66186052D01*
X89217961Y-66186055D01*
X89096055Y-66307961D01*
X89096052Y-66307965D01*
X89005551Y-66454688D01*
X89005546Y-66454699D01*
X88951319Y-66618347D01*
X88941000Y-66719345D01*
X85849500Y-66719345D01*
X85849500Y-65668046D01*
X85869185Y-65601007D01*
X85921989Y-65555252D01*
X85949309Y-65546429D01*
X85978848Y-65540552D01*
X86083497Y-65519737D01*
X86229179Y-65459394D01*
X86323459Y-65396398D01*
X86390136Y-65375520D01*
X86392350Y-65375500D01*
X89924846Y-65375500D01*
X89991885Y-65395185D01*
G37*
%TD.AperFunction*%
%TA.AperFunction,Conductor*%
G36*
X86042997Y-62645185D02*
G01*
X86088752Y-62697989D01*
X86098696Y-62767147D01*
X86069671Y-62830703D01*
X86063639Y-62837181D01*
X84880286Y-64020535D01*
X84768481Y-64132339D01*
X84768479Y-64132342D01*
X84757984Y-64150520D01*
X84726245Y-64205495D01*
X84689423Y-64269272D01*
X84648499Y-64422000D01*
X84648499Y-64422002D01*
X84648499Y-64590103D01*
X84648500Y-64590116D01*
X84648500Y-69586941D01*
X84628815Y-69653980D01*
X84576011Y-69699735D01*
X84506853Y-69709679D01*
X84485497Y-69704647D01*
X84427700Y-69685495D01*
X84427690Y-69685493D01*
X84324986Y-69675000D01*
X84050000Y-69675000D01*
X84050000Y-70551000D01*
X84030315Y-70618039D01*
X83977511Y-70663794D01*
X83926000Y-70675000D01*
X83800000Y-70675000D01*
X83800000Y-70801000D01*
X83780315Y-70868039D01*
X83727511Y-70913794D01*
X83676000Y-70925000D01*
X82719300Y-70925000D01*
X82718996Y-70925166D01*
X82692638Y-70928000D01*
X81516000Y-70928000D01*
X81448961Y-70908315D01*
X81403206Y-70855511D01*
X81392000Y-70804000D01*
X81392000Y-70678000D01*
X81266000Y-70678000D01*
X81198961Y-70658315D01*
X81153206Y-70605511D01*
X81142000Y-70554000D01*
X81142000Y-69678000D01*
X81642000Y-69678000D01*
X81642000Y-70428000D01*
X82472700Y-70428000D01*
X82473004Y-70427834D01*
X82499362Y-70425000D01*
X83550000Y-70425000D01*
X83550000Y-69675000D01*
X83275029Y-69675000D01*
X83275012Y-69675001D01*
X83172302Y-69685494D01*
X83005880Y-69740641D01*
X83005875Y-69740643D01*
X82856654Y-69832684D01*
X82732682Y-69956656D01*
X82700612Y-70008650D01*
X82648663Y-70055374D01*
X82579701Y-70066595D01*
X82515619Y-70038751D01*
X82489535Y-70008648D01*
X82459317Y-69959656D01*
X82335345Y-69835684D01*
X82186124Y-69743643D01*
X82186119Y-69743641D01*
X82019697Y-69688494D01*
X82019690Y-69688493D01*
X81916986Y-69678000D01*
X81642000Y-69678000D01*
X81142000Y-69678000D01*
X80867029Y-69678000D01*
X80867012Y-69678001D01*
X80764302Y-69688494D01*
X80613504Y-69738464D01*
X80543676Y-69740866D01*
X80483634Y-69705134D01*
X80452441Y-69642614D01*
X80450500Y-69620758D01*
X80450500Y-67960452D01*
X80470185Y-67893413D01*
X80486819Y-67872771D01*
X85697772Y-62661819D01*
X85724699Y-62647115D01*
X85750518Y-62630523D01*
X85756718Y-62629631D01*
X85759095Y-62628334D01*
X85785453Y-62625500D01*
X85975958Y-62625500D01*
X86042997Y-62645185D01*
G37*
%TD.AperFunction*%
%TA.AperFunction,Conductor*%
G36*
X89507270Y-55117717D02*
G01*
X89507270Y-55117716D01*
X89546622Y-55063555D01*
X89551232Y-55054507D01*
X89599205Y-55003709D01*
X89667025Y-54986912D01*
X89733161Y-55009447D01*
X89772204Y-55054504D01*
X89776949Y-55063817D01*
X89901890Y-55235786D01*
X90052213Y-55386109D01*
X90224182Y-55511050D01*
X90232946Y-55515516D01*
X90283742Y-55563491D01*
X90300536Y-55631312D01*
X90277998Y-55697447D01*
X90232946Y-55736484D01*
X90224182Y-55740949D01*
X90052213Y-55865890D01*
X89901890Y-56016213D01*
X89776949Y-56188182D01*
X89772484Y-56196946D01*
X89724509Y-56247742D01*
X89656688Y-56264536D01*
X89590553Y-56241998D01*
X89551516Y-56196946D01*
X89547050Y-56188182D01*
X89422109Y-56016213D01*
X89271786Y-55865890D01*
X89099817Y-55740949D01*
X89090504Y-55736204D01*
X89039707Y-55688230D01*
X89022912Y-55620409D01*
X89045449Y-55554274D01*
X89090507Y-55515232D01*
X89099555Y-55510622D01*
X89153716Y-55471270D01*
X89153717Y-55471270D01*
X88521408Y-54838962D01*
X88584993Y-54821925D01*
X88699007Y-54756099D01*
X88792099Y-54663007D01*
X88857925Y-54548993D01*
X88874962Y-54485408D01*
X89507270Y-55117717D01*
G37*
%TD.AperFunction*%
%TD*%
M02*
