%TF.GenerationSoftware,KiCad,Pcbnew,9.0.2*%
%TF.CreationDate,2026-02-18T14:35:07-06:00*%
%TF.ProjectId,EE326 Webcam,45453332-3620-4576-9562-63616d2e6b69,rev?*%
%TF.SameCoordinates,Original*%
%TF.FileFunction,Copper,L2,Bot*%
%TF.FilePolarity,Positive*%
%FSLAX46Y46*%
G04 Gerber Fmt 4.6, Leading zero omitted, Abs format (unit mm)*
G04 Created by KiCad (PCBNEW 9.0.2) date 2026-02-18 14:35:07*
%MOMM*%
%LPD*%
G01*
G04 APERTURE LIST*
G04 Aperture macros list*
%AMRoundRect*
0 Rectangle with rounded corners*
0 $1 Rounding radius*
0 $2 $3 $4 $5 $6 $7 $8 $9 X,Y pos of 4 corners*
0 Add a 4 corners polygon primitive as box body*
4,1,4,$2,$3,$4,$5,$6,$7,$8,$9,$2,$3,0*
0 Add four circle primitives for the rounded corners*
1,1,$1+$1,$2,$3*
1,1,$1+$1,$4,$5*
1,1,$1+$1,$6,$7*
1,1,$1+$1,$8,$9*
0 Add four rect primitives between the rounded corners*
20,1,$1+$1,$2,$3,$4,$5,0*
20,1,$1+$1,$4,$5,$6,$7,0*
20,1,$1+$1,$6,$7,$8,$9,0*
20,1,$1+$1,$8,$9,$2,$3,0*%
G04 Aperture macros list end*
%TA.AperFunction,SMDPad,CuDef*%
%ADD10R,0.889000X0.889000*%
%TD*%
%TA.AperFunction,SMDPad,CuDef*%
%ADD11R,0.889000X1.498600*%
%TD*%
%TA.AperFunction,SMDPad,CuDef*%
%ADD12R,1.498600X0.889000*%
%TD*%
%TA.AperFunction,ComponentPad*%
%ADD13C,1.930400*%
%TD*%
%TA.AperFunction,ComponentPad*%
%ADD14R,1.700000X1.700000*%
%TD*%
%TA.AperFunction,ComponentPad*%
%ADD15C,1.700000*%
%TD*%
%TA.AperFunction,SMDPad,CuDef*%
%ADD16RoundRect,0.250000X0.250000X0.475000X-0.250000X0.475000X-0.250000X-0.475000X0.250000X-0.475000X0*%
%TD*%
%TA.AperFunction,ViaPad*%
%ADD17C,0.600000*%
%TD*%
%TA.AperFunction,Conductor*%
%ADD18C,0.200000*%
%TD*%
%TA.AperFunction,Conductor*%
%ADD19C,0.250000*%
%TD*%
%TA.AperFunction,Conductor*%
%ADD20C,0.400000*%
%TD*%
%TA.AperFunction,Conductor*%
%ADD21C,0.350000*%
%TD*%
%TA.AperFunction,Conductor*%
%ADD22C,0.300000*%
%TD*%
%TA.AperFunction,Conductor*%
%ADD23C,0.500000*%
%TD*%
G04 APERTURE END LIST*
D10*
%TO.P,U2,47,GND*%
%TO.N,GND*%
X94357940Y-70703440D03*
%TO.P,U2,46,GND*%
X94357940Y-69303900D03*
%TO.P,U2,45,GND*%
X92958400Y-69303900D03*
%TO.P,U2,44,GND*%
X91558860Y-69303900D03*
%TO.P,U2,43,GND*%
X91558860Y-70703440D03*
%TO.P,U2,42,GND*%
X91558860Y-72102980D03*
%TO.P,U2,41,GND*%
X92958400Y-72102980D03*
%TO.P,U2,40,GND*%
X94357940Y-72102980D03*
%TO.P,U2,39,GND*%
X92958400Y-70703440D03*
D11*
%TO.P,U2,38,GND*%
X100680000Y-60452000D03*
%TO.P,U2,37,IO23*%
%TO.N,/CTRL3*%
X99410000Y-60452000D03*
%TO.P,U2,36,IO22*%
%TO.N,/CTRL2*%
X98140000Y-60452000D03*
%TO.P,U2,35,TXD0*%
%TO.N,/RX_DEBUG*%
X96870000Y-60452000D03*
%TO.P,U2,34,RXD0*%
%TO.N,/TX_DEBUG*%
X95600000Y-60452000D03*
%TO.P,U2,33,IO21*%
%TO.N,/CTRL1*%
X94330000Y-60452000D03*
%TO.P,U2,32,NC*%
%TO.N,unconnected-(U2-NC-Pad32)*%
X93060000Y-60452000D03*
%TO.P,U2,31,IO19*%
%TO.N,/SCK*%
X91790000Y-60452000D03*
%TO.P,U2,30,IO18*%
%TO.N,/MOSI*%
X90520000Y-60452000D03*
%TO.P,U2,29,IO5*%
%TO.N,unconnected-(U2-IO5-Pad29)*%
X89250000Y-60452000D03*
%TO.P,U2,28,IO17*%
%TO.N,/MISO*%
X87980000Y-60452000D03*
%TO.P,U2,27,IO16*%
%TO.N,/WIFI_CS*%
X86710000Y-60452000D03*
%TO.P,U2,26,IO4*%
%TO.N,unconnected-(U2-IO4-Pad26)*%
X85440000Y-60452000D03*
%TO.P,U2,25,IO0*%
%TO.N,/IO0*%
X84170000Y-60452000D03*
D12*
%TO.P,U2,24,IO2*%
%TO.N,unconnected-(U2-IO2-Pad24)*%
X82919050Y-63487300D03*
%TO.P,U2,23,IO15*%
%TO.N,/WIFI_RX*%
X82919050Y-64757300D03*
%TO.P,U2,22,NC*%
%TO.N,unconnected-(U2-NC-Pad22)*%
X82919050Y-66027300D03*
%TO.P,U2,21,NC*%
%TO.N,unconnected-(U2-NC-Pad21)*%
X82919050Y-67297300D03*
%TO.P,U2,20,NC*%
%TO.N,unconnected-(U2-NC-Pad20)*%
X82919050Y-68567300D03*
%TO.P,U2,19,NC*%
%TO.N,unconnected-(U2-NC-Pad19)*%
X82919050Y-69837300D03*
%TO.P,U2,18,NC*%
%TO.N,unconnected-(U2-NC-Pad18)*%
X82919050Y-71107300D03*
%TO.P,U2,17,NC*%
%TO.N,unconnected-(U2-NC-Pad17)*%
X82919050Y-72377300D03*
%TO.P,U2,16,IO13*%
%TO.N,/WIFI_TX*%
X82919050Y-73647300D03*
%TO.P,U2,15,GND*%
%TO.N,unconnected-(U2-GND-Pad15)*%
X82919050Y-74917300D03*
D11*
%TO.P,U2,14,IO12*%
%TO.N,unconnected-(U2-IO12-Pad14)*%
X84170000Y-77952600D03*
%TO.P,U2,13,IO14*%
%TO.N,unconnected-(U2-IO14-Pad13)*%
X85440000Y-77952600D03*
%TO.P,U2,12,IO27*%
%TO.N,/LED3*%
X86710000Y-77952600D03*
%TO.P,U2,11,IO26*%
%TO.N,/LED2*%
X87980000Y-77952600D03*
%TO.P,U2,10,IO25*%
%TO.N,/LED1*%
X89250000Y-77952600D03*
%TO.P,U2,9,IO33*%
%TO.N,unconnected-(U2-IO33-Pad9)*%
X90520000Y-77952600D03*
%TO.P,U2,8,IO32*%
%TO.N,/CTRL4*%
X91790000Y-77952600D03*
%TO.P,U2,7,IO35*%
%TO.N,unconnected-(U2-IO35-Pad7)*%
X93060000Y-77952600D03*
%TO.P,U2,6,IO34*%
%TO.N,unconnected-(U2-IO34-Pad6)*%
X94330000Y-77952600D03*
%TO.P,U2,5,SENSOR_VN*%
%TO.N,unconnected-(U2-SENSOR_VN-Pad5)*%
X95600000Y-77952600D03*
%TO.P,U2,4,SENSOR_VP*%
%TO.N,unconnected-(U2-SENSOR_VP-Pad4)*%
X96870000Y-77952600D03*
%TO.P,U2,3,EN*%
%TO.N,/WIFI_RST*%
X98140000Y-77952600D03*
%TO.P,U2,2,3V3*%
%TO.N,+3V0*%
X99410000Y-77952600D03*
%TO.P,U2,1,GND*%
%TO.N,GND*%
X100680000Y-77952600D03*
%TD*%
D13*
%TO.P,WIFI_PROV,2,2*%
%TO.N,GND*%
X99568000Y-92964000D03*
%TO.P,WIFI_PROV,1,1*%
%TO.N,/WIFI_PROV*%
X94488000Y-92964000D03*
%TD*%
%TO.P,IO0,1,1*%
%TO.N,/IO0*%
X90700000Y-94185000D03*
%TO.P,IO0,2,2*%
%TO.N,GND*%
X90700000Y-99265000D03*
%TD*%
%TO.P,WIFI_RST  ,1,1*%
%TO.N,/WIFI_RST*%
X83825000Y-94410000D03*
%TO.P,WIFI_RST  ,2,2*%
%TO.N,GND*%
X83825000Y-99490000D03*
%TD*%
D14*
%TO.P,J3,1,Pin_1*%
%TO.N,/SWDCLK*%
X76708000Y-54356000D03*
D15*
%TO.P,J3,2,Pin_2*%
%TO.N,/SWDIO*%
X79248000Y-54356000D03*
%TO.P,J3,3,Pin_3*%
%TO.N,/SWO*%
X76708000Y-56896000D03*
%TO.P,J3,4,Pin_4*%
%TO.N,/NRST*%
X79248000Y-56896000D03*
%TO.P,J3,5,Pin_5*%
%TO.N,+3V0*%
X76708000Y-59436000D03*
%TO.P,J3,6,Pin_6*%
%TO.N,GND*%
X79248000Y-59436000D03*
%TD*%
D14*
%TO.P,J4,1,Pin_1*%
%TO.N,/WIFI_RX*%
X93472000Y-54356000D03*
D15*
%TO.P,J4,2,Pin_2*%
%TO.N,/WIFI_TX*%
X93472000Y-56896000D03*
%TO.P,J4,3,Pin_3*%
%TO.N,/RX_DEBUG*%
X90932000Y-54356000D03*
%TO.P,J4,4,Pin_4*%
%TO.N,/TX_DEBUG*%
X90932000Y-56896000D03*
%TO.P,J4,5,Pin_5*%
%TO.N,GND*%
X88392000Y-54356000D03*
%TO.P,J4,6,Pin_6*%
%TO.N,+5V*%
X88392000Y-56896000D03*
%TD*%
D13*
%TO.P,MCU_RST,1,1*%
%TO.N,/NRST*%
X94488000Y-85852000D03*
%TO.P,MCU_RST,2,2*%
%TO.N,GND*%
X99568000Y-85852000D03*
%TD*%
D16*
%TO.P,C9,1*%
%TO.N,+3V0*%
X99950000Y-81200000D03*
%TO.P,C9,2*%
%TO.N,GND*%
X98050000Y-81200000D03*
%TD*%
D17*
%TO.N,GND*%
X96150000Y-67025000D03*
X95775000Y-62300000D03*
X87300000Y-95650000D03*
X92525000Y-93325000D03*
X96800000Y-82300000D03*
X66754000Y-96579000D03*
%TO.N,+1V2*%
X67375000Y-80522000D03*
X72400000Y-73200000D03*
%TO.N,GND*%
X62225000Y-60800000D03*
X62175000Y-56950000D03*
X62225000Y-58950000D03*
X63975000Y-91675000D03*
%TO.N,/SDA*%
X58425000Y-90625000D03*
X58420000Y-93980000D03*
%TO.N,GND*%
X66900000Y-85850000D03*
X97050000Y-100700000D03*
X94400000Y-100750000D03*
X82850000Y-58150000D03*
X55800000Y-58900000D03*
X56400000Y-83350000D03*
X84500000Y-69200000D03*
X91525000Y-83825000D03*
X67325000Y-96025000D03*
X56250000Y-93600000D03*
X64200000Y-87475000D03*
X66400000Y-82200000D03*
X80900000Y-69200000D03*
X69300000Y-83600000D03*
X58700000Y-77300000D03*
X87100000Y-100750000D03*
X57450000Y-85800000D03*
X100000000Y-71000000D03*
X60700000Y-68500000D03*
X93900000Y-88600000D03*
X66750000Y-67100000D03*
X69150000Y-76450000D03*
X56950000Y-65600000D03*
X79900000Y-65900000D03*
X89550000Y-80500000D03*
X100000000Y-54850000D03*
X100000000Y-76050000D03*
X70750000Y-67100000D03*
X76100000Y-96250000D03*
X86400000Y-94625000D03*
X55750000Y-56900000D03*
X73150000Y-93550000D03*
X86300000Y-67500000D03*
X58775000Y-97975000D03*
X100025000Y-66650000D03*
X85850000Y-56500000D03*
X97600000Y-63050000D03*
X94000000Y-80050000D03*
X54050000Y-77500000D03*
X76400000Y-68000000D03*
X89700000Y-55600000D03*
X73550000Y-56000000D03*
X60375000Y-91950000D03*
X75950000Y-80050000D03*
X55800000Y-60750000D03*
X82850000Y-60450000D03*
X72650000Y-75650000D03*
X57600000Y-66600000D03*
X61325000Y-85925000D03*
X61300000Y-83350000D03*
X67350000Y-77100000D03*
X71450000Y-74150000D03*
X73550000Y-87500000D03*
X89600000Y-53250000D03*
X71850000Y-65150000D03*
X82850000Y-54750000D03*
X96850000Y-58100000D03*
X99700000Y-89400000D03*
X76300000Y-65150000D03*
%TO.N,+3V0*%
X69350000Y-63850000D03*
X75950000Y-85350000D03*
X79550000Y-89000000D03*
X64442254Y-101350000D03*
X81400000Y-91650000D03*
X94050000Y-90750000D03*
X92800000Y-88800000D03*
X73764000Y-59436000D03*
X89550000Y-89400000D03*
X88175000Y-80875000D03*
%TO.N,/WIFI_RST*%
X90150000Y-92750000D03*
X77400000Y-99650000D03*
X70950000Y-79450000D03*
%TO.N,+1V2*%
X78400000Y-85600000D03*
X63500000Y-97536000D03*
X78789117Y-82823001D03*
X80000000Y-77250000D03*
X74908000Y-76908000D03*
X76955149Y-92480149D03*
X80450000Y-82700000D03*
%TO.N,/VSYNC*%
X66700000Y-92500000D03*
X76227157Y-88477157D03*
%TO.N,/PCLK*%
X71278843Y-84728843D03*
X66450000Y-97950000D03*
%TO.N,/D7*%
X70150000Y-91811000D03*
X74725000Y-83825000D03*
%TO.N,/XCLK*%
X65116942Y-97716942D03*
X67600000Y-84250000D03*
%TO.N,/RST_CAM*%
X71500000Y-86200000D03*
X68000000Y-91250000D03*
%TO.N,/SWO*%
X81700000Y-76800000D03*
%TO.N,/SWDIO*%
X81694334Y-74246657D03*
%TO.N,/NRST*%
X76226679Y-77393189D03*
X74650000Y-58450000D03*
X85954901Y-81878239D03*
X77474000Y-78550000D03*
X93850000Y-81950000D03*
X79950000Y-81950000D03*
%TO.N,/SWDCLK*%
X80747893Y-74247892D03*
%TO.N,/LED1*%
X94350000Y-75550000D03*
%TO.N,/LED2*%
X89200000Y-75450000D03*
%TO.N,/LED3*%
X87600000Y-75500000D03*
%TO.N,/CTRL1*%
X87200000Y-70350000D03*
%TO.N,/WIFI_RX*%
X85850000Y-64750000D03*
X87300000Y-87550000D03*
X91550000Y-74000000D03*
X83750000Y-86500000D03*
X91100000Y-63550000D03*
X91550000Y-75725000D03*
%TO.N,/WIFI_PROV*%
X76691942Y-100300000D03*
X71050000Y-78450000D03*
%TO.N,/CTRL3*%
X86350000Y-75650000D03*
%TO.N,/MOSI*%
X77593049Y-85676934D03*
X73600000Y-63850000D03*
X89750000Y-59050000D03*
%TO.N,/WIFI_CS*%
X77350000Y-73950000D03*
X80300000Y-85400000D03*
X86600000Y-62000000D03*
%TO.N,/MISO*%
X92450000Y-74050000D03*
X88500000Y-88750000D03*
X92450000Y-75725000D03*
X81150000Y-89850000D03*
X88750000Y-62650000D03*
%TO.N,/WIFI_TX*%
X81600000Y-79000000D03*
X84275000Y-74050000D03*
X81701415Y-84073000D03*
%TO.N,/CTRL4*%
X77850000Y-82650000D03*
X75650000Y-81200000D03*
X83075000Y-80602875D03*
%TO.N,/SCK*%
X80925000Y-84600000D03*
%TO.N,/CTRL2*%
X85328822Y-75980980D03*
%TD*%
D18*
%TO.N,GND*%
X87300000Y-95650000D02*
X87300000Y-100550000D01*
X87300000Y-100550000D02*
X87100000Y-100750000D01*
D19*
%TO.N,/IO0*%
X84170000Y-55480000D02*
X87074000Y-52576000D01*
X98425000Y-96225000D02*
X92240000Y-96225000D01*
X87074000Y-52576000D02*
X95726000Y-52576000D01*
X101450500Y-58300500D02*
X101450500Y-93199500D01*
X84170000Y-60452000D02*
X84170000Y-55480000D01*
X95726000Y-52576000D02*
X101450500Y-58300500D01*
X101450500Y-93199500D02*
X98425000Y-96225000D01*
X92240000Y-96225000D02*
X90700000Y-94685000D01*
D18*
%TO.N,GND*%
X66754000Y-96579000D02*
X67051000Y-96876000D01*
X66710931Y-98561069D02*
X65111126Y-98561069D01*
X64101000Y-91801000D02*
X63975000Y-91675000D01*
X67051000Y-96876000D02*
X67051000Y-98221000D01*
X67051000Y-98221000D02*
X66710931Y-98561069D01*
X65111126Y-98561069D02*
X64101000Y-97550943D01*
X64101000Y-97550943D02*
X64101000Y-91801000D01*
D19*
%TO.N,+1V2*%
X67375000Y-80522000D02*
X67375000Y-79110298D01*
X67375000Y-79110298D02*
X72400000Y-74085298D01*
X72400000Y-74085298D02*
X72400000Y-73200000D01*
%TO.N,/SDA*%
X58425000Y-90959000D02*
X58420000Y-90964000D01*
X58420000Y-90964000D02*
X58420000Y-93980000D01*
X58425000Y-90625000D02*
X58425000Y-90959000D01*
%TO.N,GND*%
X72350000Y-84914702D02*
X72350000Y-86300000D01*
X98050000Y-81200000D02*
X97622000Y-80772000D01*
X69300000Y-83600000D02*
X71035298Y-83600000D01*
D18*
X93550000Y-80500000D02*
X89550000Y-80500000D01*
D19*
X71035298Y-83600000D02*
X72350000Y-84914702D01*
X72350000Y-86300000D02*
X73550000Y-87500000D01*
D18*
X67325000Y-96025000D02*
X70675000Y-96025000D01*
X70675000Y-96025000D02*
X73150000Y-93550000D01*
X94000000Y-80050000D02*
X93550000Y-80500000D01*
D20*
%TO.N,+3V0*%
X76881695Y-101426000D02*
X81400000Y-96907695D01*
X81400000Y-91650000D02*
X87300000Y-91650000D01*
D19*
X64442254Y-101350000D02*
X64518254Y-101426000D01*
D21*
X88500000Y-81200000D02*
X88175000Y-80875000D01*
D22*
X79550000Y-88950000D02*
X79550000Y-89000000D01*
D20*
X87300000Y-91650000D02*
X89550000Y-89400000D01*
D21*
X92800000Y-88800000D02*
X92800000Y-85300000D01*
D22*
X75950000Y-85350000D02*
X79550000Y-88950000D01*
D21*
X92800000Y-85300000D02*
X94800000Y-83300000D01*
X94800000Y-83300000D02*
X94800000Y-81750000D01*
D20*
X99950000Y-82100000D02*
X99950000Y-81200000D01*
X97100000Y-87700000D02*
X97100000Y-84950000D01*
X97100000Y-84950000D02*
X99950000Y-82100000D01*
X99410000Y-80660000D02*
X99410000Y-77952600D01*
D19*
X99350000Y-78012600D02*
X99410000Y-77952600D01*
D20*
X99950000Y-81200000D02*
X99410000Y-80660000D01*
X81400000Y-96907695D02*
X81400000Y-91650000D01*
D21*
X94250000Y-81200000D02*
X88500000Y-81200000D01*
D23*
X69350000Y-63850000D02*
X73764000Y-59436000D01*
D20*
X64518254Y-101426000D02*
X76881695Y-101426000D01*
D21*
X94800000Y-81750000D02*
X94250000Y-81200000D01*
D19*
X79544935Y-89000000D02*
X79550000Y-89000000D01*
D20*
X94050000Y-90750000D02*
X97100000Y-87700000D01*
D18*
%TO.N,/WIFI_RST*%
X62899000Y-87501000D02*
X70950000Y-79450000D01*
X95900000Y-88000000D02*
X95900000Y-80810840D01*
X77400000Y-99650000D02*
X77350000Y-99700000D01*
X64814057Y-99700000D02*
X62899000Y-97784943D01*
X77350000Y-99700000D02*
X64814057Y-99700000D01*
X62899000Y-97784943D02*
X62899000Y-87501000D01*
X90150000Y-92750000D02*
X91150000Y-92750000D01*
X91150000Y-92750000D02*
X95900000Y-88000000D01*
X95900000Y-80810840D02*
X98140000Y-78570840D01*
X98140000Y-78570840D02*
X98140000Y-77952600D01*
D19*
%TO.N,+1V2*%
X80576000Y-82574000D02*
X80450000Y-82700000D01*
X80000000Y-77250000D02*
X80576000Y-77826000D01*
D18*
X80176000Y-87376000D02*
X78400000Y-85600000D01*
D19*
X78789117Y-82823001D02*
X78751235Y-82860883D01*
D18*
X76955149Y-92480149D02*
X70435298Y-99000000D01*
D19*
X74850000Y-82050000D02*
X77150000Y-84350000D01*
X74908000Y-77092000D02*
X74850000Y-77150000D01*
X80576000Y-77826000D02*
X80576000Y-82574000D01*
X74850000Y-77150000D02*
X74850000Y-82050000D01*
D18*
X64964000Y-99000000D02*
X63500000Y-97536000D01*
D19*
X78639117Y-82860883D02*
X77150000Y-84350000D01*
D18*
X70435298Y-99000000D02*
X64964000Y-99000000D01*
D19*
X77150000Y-84350000D02*
X78400000Y-85600000D01*
X78751235Y-82860883D02*
X78639117Y-82860883D01*
D18*
X80176000Y-89259298D02*
X80176000Y-87376000D01*
D19*
X74908000Y-76908000D02*
X74908000Y-77092000D01*
D18*
X76955149Y-92480149D02*
X80176000Y-89259298D01*
D19*
%TO.N,/VSYNC*%
X76227157Y-88477157D02*
X72204314Y-92500000D01*
X72204314Y-92500000D02*
X66700000Y-92500000D01*
%TO.N,/PCLK*%
X66074000Y-97574000D02*
X66074000Y-89933686D01*
X66074000Y-89933686D02*
X71278843Y-84728843D01*
X66450000Y-97950000D02*
X66074000Y-97574000D01*
%TO.N,/D7*%
X74400000Y-87600000D02*
X70189000Y-91811000D01*
X74725000Y-83825000D02*
X74400000Y-84150000D01*
X70189000Y-91811000D02*
X70150000Y-91811000D01*
X74400000Y-84150000D02*
X74400000Y-87600000D01*
%TO.N,/XCLK*%
X65116942Y-86733058D02*
X67600000Y-84250000D01*
X65116942Y-97716942D02*
X65116942Y-86733058D01*
%TO.N,/RST_CAM*%
X71500000Y-87750000D02*
X71500000Y-86200000D01*
X68000000Y-91250000D02*
X71500000Y-87750000D01*
%TO.N,/SWO*%
X75532000Y-71182000D02*
X75532000Y-58072000D01*
X75532000Y-58072000D02*
X76708000Y-56896000D01*
X81150000Y-76800000D02*
X75532000Y-71182000D01*
X81700000Y-76800000D02*
X81150000Y-76800000D01*
%TO.N,/SWDIO*%
X81694334Y-56802334D02*
X79248000Y-54356000D01*
X81694334Y-74246657D02*
X81694334Y-56802334D01*
D18*
%TO.N,/NRST*%
X93823293Y-81923293D02*
X88576707Y-81923293D01*
D19*
X77474000Y-80074000D02*
X77474000Y-78550000D01*
D18*
X85999955Y-81923293D02*
X85954901Y-81878239D01*
X88576707Y-81923293D02*
X85999955Y-81923293D01*
X93850000Y-81950000D02*
X93823293Y-81923293D01*
D19*
X79950000Y-81950000D02*
X79350000Y-81950000D01*
X76226679Y-77326679D02*
X74650000Y-75750000D01*
X76226679Y-77393189D02*
X76226679Y-77326679D01*
X74650000Y-75750000D02*
X74650000Y-58450000D01*
X79350000Y-81950000D02*
X77474000Y-80074000D01*
%TO.N,/SWDCLK*%
X80747893Y-74247892D02*
X79250000Y-72749999D01*
X79250000Y-62750000D02*
X77884000Y-61384000D01*
X79250000Y-72749999D02*
X79250000Y-62750000D01*
X77884000Y-61384000D02*
X77884000Y-55532000D01*
X77884000Y-55532000D02*
X76708000Y-54356000D01*
%TO.N,/RX_DEBUG*%
X93771116Y-55532000D02*
X92108000Y-55532000D01*
X95065800Y-58072000D02*
X95065800Y-56826684D01*
X96870000Y-59876200D02*
X95065800Y-58072000D01*
X95065800Y-56826684D02*
X93771116Y-55532000D01*
X92108000Y-55532000D02*
X90932000Y-54356000D01*
X96870000Y-60452000D02*
X96870000Y-59876200D01*
%TO.N,/TX_DEBUG*%
X95600000Y-59452700D02*
X94597300Y-58450000D01*
X95600000Y-60452000D02*
X95600000Y-59452700D01*
X94597300Y-58450000D02*
X92486000Y-58450000D01*
X92486000Y-58450000D02*
X90932000Y-56896000D01*
%TO.N,/LED1*%
X89853300Y-76350000D02*
X89250000Y-76953300D01*
X94350000Y-75550000D02*
X93550000Y-76350000D01*
X89250000Y-76953300D02*
X89250000Y-77952600D01*
X93550000Y-76350000D02*
X89853300Y-76350000D01*
%TO.N,/LED2*%
X87980000Y-76670000D02*
X87980000Y-77952600D01*
X89200000Y-75450000D02*
X87980000Y-76670000D01*
%TO.N,/LED3*%
X86710000Y-76390000D02*
X87600000Y-75500000D01*
X86710000Y-77952600D02*
X86710000Y-76390000D01*
%TO.N,/CTRL1*%
X87800000Y-70350000D02*
X94330000Y-63820000D01*
X94330000Y-63820000D02*
X94330000Y-60452000D01*
X87200000Y-70350000D02*
X87800000Y-70350000D01*
%TO.N,/WIFI_RX*%
X83750000Y-86500000D02*
X84800000Y-87550000D01*
X91550000Y-75725000D02*
X91550000Y-74000000D01*
X84800000Y-87550000D02*
X87300000Y-87550000D01*
X85850000Y-64750000D02*
X85350000Y-64750000D01*
X85350000Y-64750000D02*
X85342700Y-64757300D01*
X85342700Y-64757300D02*
X82919050Y-64757300D01*
D18*
X87050000Y-63550000D02*
X85850000Y-64750000D01*
X91100000Y-63550000D02*
X87050000Y-63550000D01*
%TO.N,/WIFI_PROV*%
X76691942Y-100300000D02*
X76691942Y-100408058D01*
X64240782Y-100300000D02*
X76691942Y-100300000D01*
X62000000Y-98059218D02*
X64240782Y-100300000D01*
X62000000Y-87500000D02*
X62000000Y-98059218D01*
X71050000Y-78450000D02*
X62000000Y-87500000D01*
D19*
%TO.N,/CTRL3*%
X90788360Y-71061640D02*
X89950000Y-71900000D01*
X89950000Y-71900000D02*
X89950000Y-72050000D01*
X89950000Y-72050000D02*
X86350000Y-75650000D01*
X93316600Y-68533400D02*
X90788360Y-68533400D01*
X99410000Y-60452000D02*
X99410000Y-62440000D01*
X99410000Y-62440000D02*
X93316600Y-68533400D01*
X90788360Y-68533400D02*
X90788360Y-71061640D01*
%TO.N,/MOSI*%
X90520000Y-59820000D02*
X90520000Y-60452000D01*
X73600000Y-81683885D02*
X73600000Y-63850000D01*
X77593049Y-85676934D02*
X73600000Y-81683885D01*
X89750000Y-59050000D02*
X90520000Y-59820000D01*
%TO.N,/WIFI_CS*%
X77350000Y-76950000D02*
X77350000Y-73950000D01*
X80300000Y-85400000D02*
X80300000Y-83450000D01*
X86710000Y-60452000D02*
X86710000Y-61890000D01*
X86710000Y-61890000D02*
X86600000Y-62000000D01*
X76849000Y-77451000D02*
X77350000Y-76950000D01*
X76849000Y-79999000D02*
X76849000Y-77451000D01*
X80300000Y-83450000D02*
X76849000Y-79999000D01*
%TO.N,/MISO*%
X88500000Y-88750000D02*
X87400000Y-89850000D01*
X92450000Y-75725000D02*
X92450000Y-74050000D01*
X87980000Y-61880000D02*
X87980000Y-60452000D01*
X87400000Y-89850000D02*
X81150000Y-89850000D01*
X88750000Y-62650000D02*
X87980000Y-61880000D01*
%TO.N,/WIFI_TX*%
X82919050Y-73647300D02*
X83872300Y-73647300D01*
X83872300Y-73647300D02*
X84275000Y-74050000D01*
X81600000Y-79000000D02*
X81600000Y-83971585D01*
X81600000Y-83971585D02*
X81701415Y-84073000D01*
%TO.N,/CTRL4*%
X77900000Y-82650000D02*
X77850000Y-82650000D01*
X76850000Y-82650000D02*
X77850000Y-82650000D01*
X83075000Y-80602875D02*
X83145820Y-80602875D01*
X75650000Y-81200000D02*
X75650000Y-81450000D01*
X91790000Y-78951900D02*
X91790000Y-77952600D01*
X84048695Y-79700000D02*
X91041900Y-79700000D01*
X91041900Y-79700000D02*
X91790000Y-78951900D01*
X75650000Y-81450000D02*
X76850000Y-82650000D01*
X83145820Y-80602875D02*
X84048695Y-79700000D01*
%TO.N,/SCK*%
X80950000Y-84600000D02*
X81049000Y-84699000D01*
X81049000Y-84699000D02*
X81959298Y-84699000D01*
X91790000Y-64874702D02*
X91790000Y-60452000D01*
X84900000Y-71764702D02*
X85232351Y-71432351D01*
X80925000Y-84600000D02*
X80950000Y-84600000D01*
X85232351Y-71432351D02*
X91790000Y-64874702D01*
X82450000Y-84208298D02*
X82450000Y-77232150D01*
X82450000Y-77232150D02*
X84900000Y-74782150D01*
X81959298Y-84699000D02*
X82450000Y-84208298D01*
X84900000Y-74782150D02*
X84900000Y-71764702D01*
%TO.N,/CTRL2*%
X85450000Y-73300000D02*
X90750000Y-68000000D01*
X91591300Y-68000000D02*
X98140000Y-61451300D01*
X85328822Y-75980980D02*
X85450000Y-75859802D01*
X85450000Y-75859802D02*
X85450000Y-73300000D01*
X90750000Y-68000000D02*
X91591300Y-68000000D01*
X98140000Y-61451300D02*
X98140000Y-60452000D01*
%TD*%
%TA.AperFunction,Conductor*%
%TO.N,GND*%
G36*
X85882587Y-52670185D02*
G01*
X85928342Y-52722989D01*
X85938286Y-52792147D01*
X85909261Y-52855703D01*
X85903229Y-52862181D01*
X83774182Y-54991226D01*
X83774174Y-54991234D01*
X83771270Y-54994139D01*
X83771267Y-54994142D01*
X83684142Y-55081267D01*
X83652499Y-55128624D01*
X83648013Y-55135336D01*
X83648009Y-55135342D01*
X83615688Y-55183714D01*
X83594117Y-55235792D01*
X83568538Y-55297544D01*
X83568535Y-55297556D01*
X83544500Y-55418389D01*
X83544500Y-59151841D01*
X83524815Y-59218880D01*
X83489148Y-59252091D01*
X83490269Y-59253588D01*
X83367955Y-59345152D01*
X83367952Y-59345155D01*
X83281706Y-59460364D01*
X83281702Y-59460371D01*
X83231408Y-59595217D01*
X83225001Y-59654816D01*
X83225000Y-59654835D01*
X83225000Y-61249170D01*
X83225001Y-61249176D01*
X83231408Y-61308783D01*
X83281702Y-61443628D01*
X83281706Y-61443635D01*
X83367952Y-61558844D01*
X83367955Y-61558847D01*
X83483164Y-61645093D01*
X83483171Y-61645097D01*
X83618017Y-61695391D01*
X83618016Y-61695391D01*
X83624944Y-61696135D01*
X83677627Y-61701800D01*
X84662372Y-61701799D01*
X84721983Y-61695391D01*
X84761665Y-61680589D01*
X84831356Y-61675604D01*
X84848322Y-61680585D01*
X84888017Y-61695391D01*
X84947627Y-61701800D01*
X85692038Y-61701799D01*
X85759077Y-61721483D01*
X85804832Y-61774287D01*
X85814776Y-61843446D01*
X85813656Y-61849989D01*
X85799500Y-61921158D01*
X85799500Y-62078846D01*
X85830261Y-62233489D01*
X85830264Y-62233501D01*
X85890602Y-62379172D01*
X85890609Y-62379185D01*
X85978210Y-62510288D01*
X85978213Y-62510292D01*
X86089707Y-62621786D01*
X86089711Y-62621789D01*
X86220814Y-62709390D01*
X86220827Y-62709397D01*
X86314401Y-62748156D01*
X86366503Y-62769737D01*
X86520977Y-62800464D01*
X86521153Y-62800499D01*
X86521156Y-62800500D01*
X86684397Y-62800500D01*
X86751436Y-62820185D01*
X86797191Y-62872989D01*
X86807135Y-62942147D01*
X86778110Y-63005703D01*
X86746397Y-63031887D01*
X86681287Y-63069477D01*
X86681282Y-63069481D01*
X85835339Y-63915425D01*
X85774016Y-63948910D01*
X85771850Y-63949361D01*
X85616508Y-63980261D01*
X85616498Y-63980264D01*
X85470827Y-64040602D01*
X85470815Y-64040609D01*
X85376541Y-64103602D01*
X85363388Y-64108371D01*
X85355055Y-64115081D01*
X85332556Y-64119551D01*
X85320853Y-64123795D01*
X85314270Y-64124500D01*
X85288393Y-64124500D01*
X85258213Y-64130502D01*
X85252685Y-64131095D01*
X85250553Y-64130709D01*
X85239482Y-64131800D01*
X84290540Y-64131800D01*
X84223501Y-64112115D01*
X84177746Y-64059311D01*
X84167251Y-63994544D01*
X84168786Y-63980264D01*
X84168850Y-63979673D01*
X84168849Y-62994928D01*
X84162441Y-62935317D01*
X84159936Y-62928602D01*
X84112147Y-62800471D01*
X84112143Y-62800464D01*
X84025897Y-62685255D01*
X84025894Y-62685252D01*
X83910685Y-62599006D01*
X83910678Y-62599002D01*
X83775832Y-62548708D01*
X83775833Y-62548708D01*
X83716233Y-62542301D01*
X83716231Y-62542300D01*
X83716223Y-62542300D01*
X83716215Y-62542300D01*
X82443834Y-62542300D01*
X82376795Y-62522615D01*
X82331040Y-62469811D01*
X82319834Y-62418300D01*
X82319834Y-56740727D01*
X82319833Y-56740723D01*
X82295797Y-56619882D01*
X82258732Y-56530399D01*
X82258731Y-56530396D01*
X82248649Y-56506054D01*
X82248642Y-56506042D01*
X82180192Y-56403601D01*
X82180189Y-56403597D01*
X80590428Y-54813837D01*
X80556943Y-54752514D01*
X80560178Y-54687837D01*
X80565246Y-54672243D01*
X80598500Y-54462287D01*
X80598500Y-54249713D01*
X80565246Y-54039757D01*
X80499557Y-53837588D01*
X80403051Y-53648184D01*
X80403049Y-53648181D01*
X80403048Y-53648179D01*
X80278109Y-53476213D01*
X80127786Y-53325890D01*
X79955820Y-53200951D01*
X79766414Y-53104444D01*
X79766413Y-53104443D01*
X79766412Y-53104443D01*
X79564243Y-53038754D01*
X79564241Y-53038753D01*
X79564240Y-53038753D01*
X79402957Y-53013208D01*
X79354287Y-53005500D01*
X79141713Y-53005500D01*
X79093042Y-53013208D01*
X78931760Y-53038753D01*
X78729585Y-53104444D01*
X78540179Y-53200951D01*
X78368215Y-53325889D01*
X78254673Y-53439431D01*
X78193350Y-53472915D01*
X78123658Y-53467931D01*
X78067725Y-53426059D01*
X78050810Y-53395082D01*
X78001797Y-53263671D01*
X78001793Y-53263664D01*
X77915547Y-53148455D01*
X77915544Y-53148452D01*
X77800335Y-53062206D01*
X77800328Y-53062202D01*
X77665482Y-53011908D01*
X77665483Y-53011908D01*
X77605883Y-53005501D01*
X77605881Y-53005500D01*
X77605873Y-53005500D01*
X77605864Y-53005500D01*
X75810129Y-53005500D01*
X75810123Y-53005501D01*
X75750516Y-53011908D01*
X75615671Y-53062202D01*
X75615664Y-53062206D01*
X75500455Y-53148452D01*
X75500452Y-53148455D01*
X75414206Y-53263664D01*
X75414202Y-53263671D01*
X75363908Y-53398517D01*
X75359510Y-53439431D01*
X75357501Y-53458123D01*
X75357500Y-53458135D01*
X75357500Y-55253870D01*
X75357501Y-55253876D01*
X75363908Y-55313483D01*
X75414202Y-55448328D01*
X75414206Y-55448335D01*
X75500452Y-55563544D01*
X75500455Y-55563547D01*
X75615664Y-55649793D01*
X75615671Y-55649797D01*
X75747082Y-55698810D01*
X75803016Y-55740681D01*
X75827433Y-55806145D01*
X75812582Y-55874418D01*
X75791431Y-55902673D01*
X75677889Y-56016215D01*
X75552951Y-56188179D01*
X75456444Y-56377585D01*
X75456443Y-56377587D01*
X75456443Y-56377588D01*
X75390754Y-56579757D01*
X75384399Y-56619882D01*
X75357500Y-56789713D01*
X75357500Y-57002286D01*
X75390753Y-57212241D01*
X75395821Y-57227837D01*
X75397816Y-57297678D01*
X75365571Y-57353837D01*
X75133270Y-57586139D01*
X75133266Y-57586143D01*
X75052142Y-57667265D01*
X74990819Y-57700750D01*
X74921127Y-57695764D01*
X74917026Y-57694150D01*
X74883497Y-57680263D01*
X74883493Y-57680262D01*
X74883488Y-57680260D01*
X74728845Y-57649500D01*
X74728842Y-57649500D01*
X74571158Y-57649500D01*
X74571155Y-57649500D01*
X74416510Y-57680261D01*
X74416498Y-57680264D01*
X74270827Y-57740602D01*
X74270814Y-57740609D01*
X74139711Y-57828210D01*
X74139707Y-57828213D01*
X74028213Y-57939707D01*
X74028210Y-57939711D01*
X73940609Y-58070814D01*
X73940602Y-58070827D01*
X73880264Y-58216498D01*
X73880261Y-58216510D01*
X73849500Y-58371153D01*
X73849500Y-58511500D01*
X73829815Y-58578539D01*
X73777011Y-58624294D01*
X73725500Y-58635500D01*
X73685155Y-58635500D01*
X73530510Y-58666261D01*
X73530498Y-58666264D01*
X73384827Y-58726602D01*
X73384814Y-58726609D01*
X73253711Y-58814210D01*
X73253707Y-58814213D01*
X73142213Y-58925707D01*
X73142207Y-58925715D01*
X73054607Y-59056818D01*
X73054605Y-59056822D01*
X73044805Y-59080480D01*
X73017927Y-59120704D01*
X69034703Y-63103927D01*
X68994480Y-63130805D01*
X68970819Y-63140606D01*
X68970818Y-63140607D01*
X68839715Y-63228207D01*
X68839707Y-63228213D01*
X68728213Y-63339707D01*
X68728210Y-63339711D01*
X68640609Y-63470814D01*
X68640602Y-63470827D01*
X68580264Y-63616498D01*
X68580261Y-63616510D01*
X68549500Y-63771153D01*
X68549500Y-63928846D01*
X68580261Y-64083489D01*
X68580264Y-64083501D01*
X68640602Y-64229172D01*
X68640609Y-64229185D01*
X68728210Y-64360288D01*
X68728213Y-64360292D01*
X68839707Y-64471786D01*
X68839711Y-64471789D01*
X68970814Y-64559390D01*
X68970827Y-64559397D01*
X69106544Y-64615612D01*
X69116503Y-64619737D01*
X69271153Y-64650499D01*
X69271156Y-64650500D01*
X69271158Y-64650500D01*
X69428844Y-64650500D01*
X69428845Y-64650499D01*
X69583497Y-64619737D01*
X69696166Y-64573067D01*
X69729172Y-64559397D01*
X69729172Y-64559396D01*
X69729179Y-64559394D01*
X69860289Y-64471789D01*
X69971789Y-64360289D01*
X70059394Y-64229179D01*
X70069191Y-64205524D01*
X70096069Y-64165297D01*
X73812819Y-60448548D01*
X73874142Y-60415063D01*
X73943834Y-60420047D01*
X73999767Y-60461919D01*
X74024184Y-60527383D01*
X74024500Y-60536229D01*
X74024500Y-62973799D01*
X74004815Y-63040838D01*
X73952011Y-63086593D01*
X73882853Y-63096537D01*
X73853051Y-63088362D01*
X73842654Y-63084056D01*
X73833497Y-63080263D01*
X73833493Y-63080262D01*
X73833489Y-63080261D01*
X73678845Y-63049500D01*
X73678842Y-63049500D01*
X73521158Y-63049500D01*
X73521155Y-63049500D01*
X73366510Y-63080261D01*
X73366498Y-63080264D01*
X73220827Y-63140602D01*
X73220814Y-63140609D01*
X73089711Y-63228210D01*
X73089707Y-63228213D01*
X72978213Y-63339707D01*
X72978210Y-63339711D01*
X72890609Y-63470814D01*
X72890602Y-63470827D01*
X72830264Y-63616498D01*
X72830261Y-63616510D01*
X72799500Y-63771153D01*
X72799500Y-63928846D01*
X72830261Y-64083489D01*
X72830264Y-64083501D01*
X72890602Y-64229172D01*
X72890609Y-64229184D01*
X72953602Y-64323459D01*
X72974480Y-64390136D01*
X72974500Y-64392350D01*
X72974500Y-72389127D01*
X72954815Y-72456166D01*
X72902011Y-72501921D01*
X72832853Y-72511865D01*
X72784607Y-72493378D01*
X72784554Y-72493479D01*
X72783750Y-72493049D01*
X72781609Y-72492229D01*
X72779185Y-72490609D01*
X72779172Y-72490602D01*
X72633501Y-72430264D01*
X72633489Y-72430261D01*
X72478845Y-72399500D01*
X72478842Y-72399500D01*
X72321158Y-72399500D01*
X72321155Y-72399500D01*
X72166510Y-72430261D01*
X72166498Y-72430264D01*
X72020827Y-72490602D01*
X72020814Y-72490609D01*
X71889711Y-72578210D01*
X71889707Y-72578213D01*
X71778213Y-72689707D01*
X71778210Y-72689711D01*
X71690609Y-72820814D01*
X71690602Y-72820827D01*
X71630264Y-72966498D01*
X71630261Y-72966510D01*
X71599500Y-73121153D01*
X71599500Y-73278846D01*
X71630261Y-73433489D01*
X71630264Y-73433501D01*
X71690602Y-73579172D01*
X71690609Y-73579184D01*
X71753602Y-73673459D01*
X71759252Y-73691505D01*
X71769477Y-73707415D01*
X71773928Y-73738374D01*
X71774480Y-73740136D01*
X71774500Y-73742350D01*
X71774500Y-73774845D01*
X71754815Y-73841884D01*
X71738181Y-73862526D01*
X69364849Y-76235858D01*
X66976270Y-78624437D01*
X66976267Y-78624440D01*
X66932703Y-78668003D01*
X66889140Y-78711566D01*
X66863615Y-78749769D01*
X66863613Y-78749772D01*
X66820687Y-78814013D01*
X66820685Y-78814016D01*
X66789091Y-78890291D01*
X66789092Y-78890292D01*
X66780340Y-78911421D01*
X66780338Y-78911426D01*
X66776308Y-78921158D01*
X66773537Y-78927847D01*
X66752158Y-79035331D01*
X66751835Y-79036952D01*
X66751826Y-79036994D01*
X66749500Y-79048687D01*
X66749500Y-79979650D01*
X66729815Y-80046689D01*
X66728626Y-80048503D01*
X66720537Y-80060611D01*
X66665609Y-80142815D01*
X66665602Y-80142828D01*
X66605264Y-80288498D01*
X66605261Y-80288510D01*
X66574500Y-80443153D01*
X66574500Y-80600846D01*
X66605261Y-80755489D01*
X66605264Y-80755501D01*
X66665602Y-80901172D01*
X66665609Y-80901185D01*
X66753210Y-81032288D01*
X66753213Y-81032292D01*
X66864707Y-81143786D01*
X66864711Y-81143789D01*
X66995814Y-81231390D01*
X66995827Y-81231397D01*
X67123862Y-81284430D01*
X67178266Y-81328270D01*
X67200331Y-81394564D01*
X67183052Y-81462264D01*
X67164091Y-81486672D01*
X64391284Y-84259480D01*
X61631286Y-87019478D01*
X61631284Y-87019480D01*
X61602455Y-87048309D01*
X61519481Y-87131282D01*
X61519480Y-87131284D01*
X61505276Y-87155887D01*
X61440423Y-87268215D01*
X61399499Y-87420943D01*
X61399499Y-87420945D01*
X61399499Y-87589046D01*
X61399500Y-87589059D01*
X61399500Y-97972548D01*
X61399499Y-97972566D01*
X61399499Y-98138272D01*
X61399498Y-98138272D01*
X61399499Y-98138275D01*
X61440423Y-98291003D01*
X61440424Y-98291005D01*
X61440423Y-98291005D01*
X61448930Y-98305738D01*
X61448931Y-98305739D01*
X61519477Y-98427930D01*
X61519481Y-98427935D01*
X61638349Y-98546803D01*
X61638355Y-98546808D01*
X63760260Y-100668713D01*
X63760262Y-100668716D01*
X63785668Y-100694122D01*
X63792886Y-100701340D01*
X63816579Y-100744733D01*
X63826368Y-100762661D01*
X63826367Y-100762662D01*
X63826369Y-100762664D01*
X63825242Y-100778410D01*
X63821384Y-100832353D01*
X63821383Y-100832354D01*
X63821383Y-100832356D01*
X63821381Y-100832358D01*
X63808304Y-100857910D01*
X63732863Y-100970814D01*
X63732856Y-100970827D01*
X63672518Y-101116498D01*
X63672515Y-101116510D01*
X63641754Y-101271153D01*
X63641754Y-101428846D01*
X63656168Y-101501309D01*
X63649941Y-101570900D01*
X63607078Y-101626078D01*
X63541188Y-101649322D01*
X63534551Y-101649500D01*
X52974500Y-101649500D01*
X52907461Y-101629815D01*
X52861706Y-101577011D01*
X52850500Y-101525500D01*
X52850500Y-93901153D01*
X57619500Y-93901153D01*
X57619500Y-94058846D01*
X57650261Y-94213489D01*
X57650264Y-94213501D01*
X57710602Y-94359172D01*
X57710609Y-94359185D01*
X57798210Y-94490288D01*
X57798213Y-94490292D01*
X57909707Y-94601786D01*
X57909711Y-94601789D01*
X58040814Y-94689390D01*
X58040827Y-94689397D01*
X58181423Y-94747633D01*
X58186503Y-94749737D01*
X58341153Y-94780499D01*
X58341156Y-94780500D01*
X58341158Y-94780500D01*
X58498844Y-94780500D01*
X58498845Y-94780499D01*
X58653497Y-94749737D01*
X58799179Y-94689394D01*
X58930289Y-94601789D01*
X59041789Y-94490289D01*
X59129394Y-94359179D01*
X59189737Y-94213497D01*
X59220500Y-94058842D01*
X59220500Y-93901158D01*
X59220500Y-93901155D01*
X59220499Y-93901153D01*
X59213958Y-93868269D01*
X59189737Y-93746503D01*
X59164300Y-93685091D01*
X59129397Y-93600828D01*
X59129396Y-93600827D01*
X59129394Y-93600821D01*
X59066397Y-93506539D01*
X59045520Y-93439863D01*
X59045500Y-93437650D01*
X59045500Y-91174833D01*
X59065185Y-91107794D01*
X59066398Y-91105942D01*
X59076398Y-91090976D01*
X59134394Y-91004179D01*
X59194737Y-90858497D01*
X59225500Y-90703842D01*
X59225500Y-90546158D01*
X59225500Y-90546155D01*
X59225499Y-90546153D01*
X59212393Y-90480264D01*
X59194737Y-90391503D01*
X59181808Y-90360289D01*
X59134397Y-90245827D01*
X59134390Y-90245814D01*
X59046789Y-90114711D01*
X59046786Y-90114707D01*
X58935292Y-90003213D01*
X58935288Y-90003210D01*
X58804185Y-89915609D01*
X58804172Y-89915602D01*
X58658501Y-89855264D01*
X58658489Y-89855261D01*
X58503845Y-89824500D01*
X58503842Y-89824500D01*
X58346158Y-89824500D01*
X58346155Y-89824500D01*
X58191510Y-89855261D01*
X58191498Y-89855264D01*
X58045827Y-89915602D01*
X58045814Y-89915609D01*
X57914711Y-90003210D01*
X57914707Y-90003213D01*
X57803213Y-90114707D01*
X57803210Y-90114711D01*
X57715609Y-90245814D01*
X57715602Y-90245827D01*
X57655264Y-90391498D01*
X57655261Y-90391510D01*
X57624500Y-90546153D01*
X57624500Y-90703846D01*
X57655261Y-90858489D01*
X57655264Y-90858501D01*
X57715602Y-91004172D01*
X57715609Y-91004184D01*
X57773602Y-91090976D01*
X57794480Y-91157653D01*
X57794500Y-91159867D01*
X57794500Y-93437650D01*
X57774815Y-93504689D01*
X57773626Y-93506503D01*
X57760177Y-93526633D01*
X57710609Y-93600815D01*
X57710602Y-93600828D01*
X57650264Y-93746498D01*
X57650261Y-93746510D01*
X57619500Y-93901153D01*
X52850500Y-93901153D01*
X52850500Y-58609448D01*
X63299500Y-58609448D01*
X63299500Y-58790551D01*
X63327829Y-58969410D01*
X63383787Y-59141636D01*
X63383788Y-59141639D01*
X63466006Y-59302997D01*
X63572441Y-59449494D01*
X63572445Y-59449499D01*
X63700500Y-59577554D01*
X63700505Y-59577558D01*
X63771300Y-59628993D01*
X63847006Y-59683996D01*
X63952484Y-59737740D01*
X64008360Y-59766211D01*
X64008363Y-59766212D01*
X64094476Y-59794191D01*
X64180591Y-59822171D01*
X64263429Y-59835291D01*
X64359449Y-59850500D01*
X64359454Y-59850500D01*
X64540551Y-59850500D01*
X64627259Y-59836765D01*
X64719409Y-59822171D01*
X64891639Y-59766211D01*
X65052994Y-59683996D01*
X65199501Y-59577553D01*
X65327553Y-59449501D01*
X65433996Y-59302994D01*
X65516211Y-59141639D01*
X65572171Y-58969409D01*
X65596389Y-58816503D01*
X65600500Y-58790551D01*
X65600500Y-58609448D01*
X65584019Y-58505397D01*
X65572171Y-58430591D01*
X65523328Y-58280264D01*
X65516212Y-58258363D01*
X65516211Y-58258360D01*
X65478677Y-58184697D01*
X65433996Y-58097006D01*
X65414972Y-58070821D01*
X65327558Y-57950505D01*
X65327554Y-57950500D01*
X65199499Y-57822445D01*
X65199494Y-57822441D01*
X65052997Y-57716006D01*
X65052996Y-57716005D01*
X65052994Y-57716004D01*
X64982843Y-57680260D01*
X64891639Y-57633788D01*
X64891636Y-57633787D01*
X64719410Y-57577829D01*
X64540551Y-57549500D01*
X64540546Y-57549500D01*
X64359454Y-57549500D01*
X64359449Y-57549500D01*
X64180589Y-57577829D01*
X64008363Y-57633787D01*
X64008360Y-57633788D01*
X63847002Y-57716006D01*
X63700505Y-57822441D01*
X63700500Y-57822445D01*
X63572445Y-57950500D01*
X63572441Y-57950505D01*
X63466006Y-58097002D01*
X63383788Y-58258360D01*
X63383787Y-58258363D01*
X63327829Y-58430589D01*
X63299500Y-58609448D01*
X52850500Y-58609448D01*
X52850500Y-55332288D01*
X52870185Y-55265249D01*
X52922989Y-55219494D01*
X52992147Y-55209550D01*
X53055703Y-55238575D01*
X53081887Y-55270289D01*
X53197072Y-55469798D01*
X53197074Y-55469802D01*
X53356718Y-55677851D01*
X53356726Y-55677860D01*
X53542140Y-55863274D01*
X53542148Y-55863281D01*
X53750196Y-56022924D01*
X53977299Y-56154041D01*
X53977309Y-56154046D01*
X54203512Y-56247742D01*
X54219581Y-56254398D01*
X54472884Y-56322270D01*
X54732880Y-56356500D01*
X54732887Y-56356500D01*
X54995113Y-56356500D01*
X54995120Y-56356500D01*
X55255116Y-56322270D01*
X55508419Y-56254398D01*
X55750697Y-56154043D01*
X55977803Y-56022924D01*
X56185851Y-55863282D01*
X56185855Y-55863277D01*
X56185860Y-55863274D01*
X56371274Y-55677860D01*
X56371277Y-55677855D01*
X56371282Y-55677851D01*
X56530924Y-55469803D01*
X56662043Y-55242697D01*
X56762398Y-55000419D01*
X56830270Y-54747116D01*
X56864500Y-54487120D01*
X56864500Y-54224880D01*
X56856354Y-54163007D01*
X56848932Y-54106628D01*
X56847602Y-54096530D01*
X63399500Y-54096530D01*
X63399500Y-54303469D01*
X63439868Y-54506412D01*
X63439870Y-54506420D01*
X63508556Y-54672243D01*
X63519059Y-54697598D01*
X63558148Y-54756099D01*
X63634024Y-54869657D01*
X63780342Y-55015975D01*
X63780345Y-55015977D01*
X63952402Y-55130941D01*
X64143580Y-55210130D01*
X64346530Y-55250499D01*
X64346534Y-55250500D01*
X64346535Y-55250500D01*
X64553466Y-55250500D01*
X64553467Y-55250499D01*
X64756420Y-55210130D01*
X64947598Y-55130941D01*
X65119655Y-55015977D01*
X65265977Y-54869655D01*
X65380941Y-54697598D01*
X65460130Y-54506420D01*
X65500500Y-54303465D01*
X65500500Y-54096535D01*
X65460130Y-53893580D01*
X65380941Y-53702402D01*
X65265977Y-53530345D01*
X65265975Y-53530342D01*
X65119657Y-53384024D01*
X64954976Y-53273989D01*
X64947598Y-53269059D01*
X64934590Y-53263671D01*
X64756420Y-53189870D01*
X64756412Y-53189868D01*
X64553469Y-53149500D01*
X64553465Y-53149500D01*
X64346535Y-53149500D01*
X64346530Y-53149500D01*
X64143587Y-53189868D01*
X64143579Y-53189870D01*
X63952403Y-53269058D01*
X63780342Y-53384024D01*
X63634024Y-53530342D01*
X63519058Y-53702403D01*
X63439870Y-53893579D01*
X63439868Y-53893587D01*
X63399500Y-54096530D01*
X56847602Y-54096530D01*
X56841343Y-54048993D01*
X56830270Y-53964884D01*
X56762398Y-53711581D01*
X56761036Y-53708293D01*
X56662046Y-53469309D01*
X56662041Y-53469299D01*
X56530924Y-53242196D01*
X56392811Y-53062206D01*
X56371282Y-53034149D01*
X56371281Y-53034148D01*
X56371274Y-53034140D01*
X56199315Y-52862181D01*
X56165830Y-52800858D01*
X56170814Y-52731166D01*
X56212686Y-52675233D01*
X56278150Y-52650816D01*
X56286996Y-52650500D01*
X85815548Y-52650500D01*
X85882587Y-52670185D01*
G37*
%TD.AperFunction*%
%TA.AperFunction,Conductor*%
G36*
X87382049Y-80334741D02*
G01*
X87413849Y-80342858D01*
X87415413Y-80344538D01*
X87417615Y-80345185D01*
X87439088Y-80369966D01*
X87461460Y-80393995D01*
X87461867Y-80396255D01*
X87463370Y-80397989D01*
X87468037Y-80430449D01*
X87473866Y-80462754D01*
X87473108Y-80465720D01*
X87473314Y-80467147D01*
X87465137Y-80496952D01*
X87405264Y-80641498D01*
X87405261Y-80641510D01*
X87374500Y-80796153D01*
X87374500Y-80953846D01*
X87405261Y-81108489D01*
X87405264Y-81108501D01*
X87423009Y-81151341D01*
X87430478Y-81220810D01*
X87399202Y-81283289D01*
X87339113Y-81318941D01*
X87308448Y-81322793D01*
X86582896Y-81322793D01*
X86515857Y-81303108D01*
X86495215Y-81286474D01*
X86465193Y-81256452D01*
X86465189Y-81256449D01*
X86334086Y-81168848D01*
X86334073Y-81168841D01*
X86188402Y-81108503D01*
X86188390Y-81108500D01*
X86033746Y-81077739D01*
X86033743Y-81077739D01*
X85876059Y-81077739D01*
X85876056Y-81077739D01*
X85721411Y-81108500D01*
X85721399Y-81108503D01*
X85575728Y-81168841D01*
X85575715Y-81168848D01*
X85444612Y-81256449D01*
X85444608Y-81256452D01*
X85333114Y-81367946D01*
X85333111Y-81367950D01*
X85245510Y-81499053D01*
X85245503Y-81499066D01*
X85185165Y-81644737D01*
X85185162Y-81644749D01*
X85154401Y-81799392D01*
X85154401Y-81957085D01*
X85185162Y-82111728D01*
X85185165Y-82111740D01*
X85245503Y-82257411D01*
X85245510Y-82257424D01*
X85333111Y-82388527D01*
X85333114Y-82388531D01*
X85444608Y-82500025D01*
X85444612Y-82500028D01*
X85575715Y-82587629D01*
X85575728Y-82587636D01*
X85721399Y-82647974D01*
X85721404Y-82647976D01*
X85876054Y-82678738D01*
X85876057Y-82678739D01*
X85876059Y-82678739D01*
X86033745Y-82678739D01*
X86033746Y-82678738D01*
X86188398Y-82647976D01*
X86334080Y-82587633D01*
X86398347Y-82544690D01*
X86465024Y-82523813D01*
X86467238Y-82523793D01*
X88497650Y-82523793D01*
X93240352Y-82523793D01*
X93307391Y-82543478D01*
X93328033Y-82560112D01*
X93339707Y-82571786D01*
X93339711Y-82571789D01*
X93470814Y-82659390D01*
X93470827Y-82659397D01*
X93616498Y-82719735D01*
X93616503Y-82719737D01*
X93748465Y-82745986D01*
X93771153Y-82750499D01*
X93771156Y-82750500D01*
X93771158Y-82750500D01*
X93928843Y-82750500D01*
X93945010Y-82747284D01*
X93976308Y-82741058D01*
X93997293Y-82742935D01*
X94018147Y-82739937D01*
X94031393Y-82745986D01*
X94045898Y-82747284D01*
X94062536Y-82760208D01*
X94081703Y-82768962D01*
X94089577Y-82781214D01*
X94101076Y-82790147D01*
X94108085Y-82810013D01*
X94119477Y-82827740D01*
X94123011Y-82852320D01*
X94124322Y-82856036D01*
X94124500Y-82862675D01*
X94124500Y-82968836D01*
X94104815Y-83035875D01*
X94088181Y-83056517D01*
X92275307Y-84869390D01*
X92275304Y-84869394D01*
X92201383Y-84980024D01*
X92201378Y-84980034D01*
X92150459Y-85102963D01*
X92150457Y-85102971D01*
X92127016Y-85220819D01*
X92127016Y-85220823D01*
X92124500Y-85233469D01*
X92124500Y-88332479D01*
X92104815Y-88399518D01*
X92103602Y-88401370D01*
X92090609Y-88420814D01*
X92090602Y-88420827D01*
X92030264Y-88566498D01*
X92030261Y-88566510D01*
X91999500Y-88721153D01*
X91999500Y-88878846D01*
X92030261Y-89033489D01*
X92030264Y-89033501D01*
X92090602Y-89179172D01*
X92090609Y-89179185D01*
X92178210Y-89310288D01*
X92178213Y-89310292D01*
X92289707Y-89421786D01*
X92289711Y-89421789D01*
X92420814Y-89509390D01*
X92420827Y-89509397D01*
X92566498Y-89569735D01*
X92566503Y-89569737D01*
X92708952Y-89598072D01*
X92721153Y-89600499D01*
X92721156Y-89600500D01*
X92721158Y-89600500D01*
X92878844Y-89600500D01*
X92878845Y-89600499D01*
X93033497Y-89569737D01*
X93146166Y-89523067D01*
X93179172Y-89509397D01*
X93179172Y-89509396D01*
X93179179Y-89509394D01*
X93223890Y-89479518D01*
X93290567Y-89458640D01*
X93357947Y-89477124D01*
X93404638Y-89529102D01*
X93415816Y-89598072D01*
X93387931Y-89662136D01*
X93380463Y-89670301D01*
X90937584Y-92113181D01*
X90910656Y-92127884D01*
X90884838Y-92144477D01*
X90878637Y-92145368D01*
X90876261Y-92146666D01*
X90849903Y-92149500D01*
X90729766Y-92149500D01*
X90662727Y-92129815D01*
X90660875Y-92128602D01*
X90529185Y-92040609D01*
X90529172Y-92040602D01*
X90383501Y-91980264D01*
X90383489Y-91980261D01*
X90228845Y-91949500D01*
X90228842Y-91949500D01*
X90071158Y-91949500D01*
X90071155Y-91949500D01*
X89916510Y-91980261D01*
X89916498Y-91980264D01*
X89770827Y-92040602D01*
X89770814Y-92040609D01*
X89639711Y-92128210D01*
X89639707Y-92128213D01*
X89528213Y-92239707D01*
X89528210Y-92239711D01*
X89440609Y-92370814D01*
X89440602Y-92370827D01*
X89380264Y-92516498D01*
X89380261Y-92516510D01*
X89349500Y-92671153D01*
X89349500Y-92828846D01*
X89380261Y-92983489D01*
X89380264Y-92983501D01*
X89440602Y-93129172D01*
X89440609Y-93129185D01*
X89495491Y-93211321D01*
X89516369Y-93277999D01*
X89497884Y-93345379D01*
X89492708Y-93353097D01*
X89446420Y-93416806D01*
X89341685Y-93622362D01*
X89270390Y-93841780D01*
X89234300Y-94069647D01*
X89234300Y-94300352D01*
X89270390Y-94528219D01*
X89294294Y-94601786D01*
X89341683Y-94747633D01*
X89446421Y-94953194D01*
X89582027Y-95139839D01*
X89745161Y-95302973D01*
X89931806Y-95438579D01*
X90137367Y-95543317D01*
X90301558Y-95596666D01*
X90356780Y-95614609D01*
X90470714Y-95632654D01*
X90584647Y-95650700D01*
X90729748Y-95650700D01*
X90796787Y-95670385D01*
X90817429Y-95687019D01*
X91754139Y-96623729D01*
X91754142Y-96623733D01*
X91841267Y-96710858D01*
X91918190Y-96762256D01*
X91923990Y-96766132D01*
X91923993Y-96766134D01*
X91943710Y-96779309D01*
X91943712Y-96779310D01*
X91943715Y-96779312D01*
X92010396Y-96806931D01*
X92010398Y-96806933D01*
X92050640Y-96823601D01*
X92057548Y-96826463D01*
X92117971Y-96838481D01*
X92178393Y-96850500D01*
X98486607Y-96850500D01*
X98547029Y-96838481D01*
X98607452Y-96826463D01*
X98640792Y-96812652D01*
X98721286Y-96779312D01*
X98772509Y-96745084D01*
X98780762Y-96739570D01*
X98786853Y-96735500D01*
X98823733Y-96710858D01*
X98910858Y-96623733D01*
X98910859Y-96623731D01*
X98917925Y-96616665D01*
X98917928Y-96616661D01*
X101637819Y-93896770D01*
X101699142Y-93863285D01*
X101768834Y-93868269D01*
X101824767Y-93910141D01*
X101849184Y-93975605D01*
X101849500Y-93984451D01*
X101849500Y-98196521D01*
X101829815Y-98263560D01*
X101777011Y-98309315D01*
X101707853Y-98319259D01*
X101644297Y-98290234D01*
X101627126Y-98272009D01*
X101611643Y-98251832D01*
X101607282Y-98246149D01*
X101607278Y-98246145D01*
X101607274Y-98246140D01*
X101421860Y-98060726D01*
X101421851Y-98060718D01*
X101213803Y-97901075D01*
X100986700Y-97769958D01*
X100986690Y-97769953D01*
X100744428Y-97669605D01*
X100744421Y-97669603D01*
X100744419Y-97669602D01*
X100491116Y-97601730D01*
X100433339Y-97594123D01*
X100231127Y-97567500D01*
X100231120Y-97567500D01*
X99968880Y-97567500D01*
X99968872Y-97567500D01*
X99737772Y-97597926D01*
X99708884Y-97601730D01*
X99455581Y-97669602D01*
X99455571Y-97669605D01*
X99213309Y-97769953D01*
X99213299Y-97769958D01*
X98986196Y-97901075D01*
X98778148Y-98060718D01*
X98592718Y-98246148D01*
X98433075Y-98454196D01*
X98301958Y-98681299D01*
X98301953Y-98681309D01*
X98201605Y-98923571D01*
X98201602Y-98923581D01*
X98137126Y-99164212D01*
X98133730Y-99176885D01*
X98099500Y-99436872D01*
X98099500Y-99699127D01*
X98118515Y-99843553D01*
X98133730Y-99959116D01*
X98173943Y-100109192D01*
X98201602Y-100212418D01*
X98201605Y-100212428D01*
X98301953Y-100454690D01*
X98301958Y-100454700D01*
X98433075Y-100681803D01*
X98592718Y-100889851D01*
X98592726Y-100889860D01*
X98778140Y-101075274D01*
X98778148Y-101075281D01*
X98986196Y-101234924D01*
X99213299Y-101366041D01*
X99213300Y-101366041D01*
X99213303Y-101366043D01*
X99296638Y-101400561D01*
X99321691Y-101410939D01*
X99376094Y-101454780D01*
X99398159Y-101521074D01*
X99380880Y-101588773D01*
X99329743Y-101636384D01*
X99274238Y-101649500D01*
X77948214Y-101649500D01*
X77881175Y-101629815D01*
X77835420Y-101577011D01*
X77825476Y-101507853D01*
X77854501Y-101444297D01*
X77860533Y-101437819D01*
X78745548Y-100552804D01*
X79923673Y-99374680D01*
X82359800Y-99374680D01*
X82359800Y-99605319D01*
X82395877Y-99833102D01*
X82467147Y-100052446D01*
X82571850Y-100257935D01*
X82627253Y-100334191D01*
X82627254Y-100334192D01*
X83335504Y-99625941D01*
X83351619Y-99686081D01*
X83418498Y-99801920D01*
X83513080Y-99896502D01*
X83628919Y-99963381D01*
X83689057Y-99979494D01*
X82980806Y-100687744D01*
X83057067Y-100743151D01*
X83262553Y-100847852D01*
X83481897Y-100919122D01*
X83709681Y-100955200D01*
X83940319Y-100955200D01*
X84168102Y-100919122D01*
X84387446Y-100847852D01*
X84592924Y-100743155D01*
X84592930Y-100743151D01*
X84669191Y-100687744D01*
X84669192Y-100687744D01*
X83960942Y-99979495D01*
X84021081Y-99963381D01*
X84136920Y-99896502D01*
X84231502Y-99801920D01*
X84298381Y-99686081D01*
X84314495Y-99625942D01*
X85022744Y-100334192D01*
X85078151Y-100257930D01*
X85078155Y-100257924D01*
X85182852Y-100052446D01*
X85254122Y-99833102D01*
X85290200Y-99605319D01*
X85290200Y-99374680D01*
X85256864Y-99164212D01*
X85256863Y-99164210D01*
X85254562Y-99149680D01*
X89234800Y-99149680D01*
X89234800Y-99380319D01*
X89270877Y-99608102D01*
X89342147Y-99827446D01*
X89446850Y-100032935D01*
X89502253Y-100109191D01*
X89502254Y-100109192D01*
X90210504Y-99400941D01*
X90226619Y-99461081D01*
X90293498Y-99576920D01*
X90388080Y-99671502D01*
X90503919Y-99738381D01*
X90564057Y-99754494D01*
X89855806Y-100462744D01*
X89932067Y-100518151D01*
X90137553Y-100622852D01*
X90356897Y-100694122D01*
X90584681Y-100730200D01*
X90815319Y-100730200D01*
X91043102Y-100694122D01*
X91262446Y-100622852D01*
X91467924Y-100518155D01*
X91467930Y-100518151D01*
X91544191Y-100462744D01*
X91544192Y-100462744D01*
X90835942Y-99754495D01*
X90896081Y-99738381D01*
X91011920Y-99671502D01*
X91106502Y-99576920D01*
X91173381Y-99461081D01*
X91189494Y-99400942D01*
X91897744Y-100109192D01*
X91897744Y-100109191D01*
X91953151Y-100032930D01*
X91953155Y-100032924D01*
X92057852Y-99827446D01*
X92129122Y-99608102D01*
X92165200Y-99380319D01*
X92165200Y-99149680D01*
X92129122Y-98921897D01*
X92057852Y-98702553D01*
X91953151Y-98497067D01*
X91897744Y-98420807D01*
X91897744Y-98420806D01*
X91189494Y-99129056D01*
X91173381Y-99068919D01*
X91106502Y-98953080D01*
X91011920Y-98858498D01*
X90896081Y-98791619D01*
X90835941Y-98775504D01*
X91544192Y-98067254D01*
X91544191Y-98067253D01*
X91467935Y-98011850D01*
X91262446Y-97907147D01*
X91043102Y-97835877D01*
X90815319Y-97799800D01*
X90584681Y-97799800D01*
X90356897Y-97835877D01*
X90137553Y-97907147D01*
X89932069Y-98011847D01*
X89855807Y-98067254D01*
X90564058Y-98775504D01*
X90503919Y-98791619D01*
X90388080Y-98858498D01*
X90293498Y-98953080D01*
X90226619Y-99068919D01*
X90210504Y-99129057D01*
X89502254Y-98420807D01*
X89446847Y-98497069D01*
X89342147Y-98702553D01*
X89270877Y-98921897D01*
X89234800Y-99149680D01*
X85254562Y-99149680D01*
X85254120Y-99146892D01*
X85182852Y-98927553D01*
X85078151Y-98722067D01*
X85022744Y-98645807D01*
X85022744Y-98645806D01*
X84314494Y-99354056D01*
X84298381Y-99293919D01*
X84231502Y-99178080D01*
X84136920Y-99083498D01*
X84021081Y-99016619D01*
X83960941Y-99000504D01*
X84669192Y-98292254D01*
X84669191Y-98292253D01*
X84592935Y-98236850D01*
X84569675Y-98224998D01*
X84387446Y-98132147D01*
X84168102Y-98060877D01*
X83940319Y-98024800D01*
X83709681Y-98024800D01*
X83481897Y-98060877D01*
X83262553Y-98132147D01*
X83057069Y-98236847D01*
X82980807Y-98292254D01*
X83689058Y-99000504D01*
X83628919Y-99016619D01*
X83513080Y-99083498D01*
X83418498Y-99178080D01*
X83351619Y-99293919D01*
X83335504Y-99354057D01*
X82627254Y-98645807D01*
X82571847Y-98722069D01*
X82467147Y-98927553D01*
X82395877Y-99146897D01*
X82359800Y-99374680D01*
X79923673Y-99374680D01*
X80016220Y-99282133D01*
X81046521Y-98251832D01*
X81944111Y-97354241D01*
X81944112Y-97354240D01*
X81944114Y-97354238D01*
X82020775Y-97239506D01*
X82073580Y-97112024D01*
X82081628Y-97071558D01*
X82089751Y-97030727D01*
X82089751Y-97030724D01*
X82100500Y-96976688D01*
X82100500Y-94294647D01*
X82359300Y-94294647D01*
X82359300Y-94525352D01*
X82395390Y-94753219D01*
X82437320Y-94882264D01*
X82466683Y-94972633D01*
X82571421Y-95178194D01*
X82707027Y-95364839D01*
X82870161Y-95527973D01*
X83056806Y-95663579D01*
X83262367Y-95768317D01*
X83439850Y-95825984D01*
X83481780Y-95839609D01*
X83595714Y-95857654D01*
X83709647Y-95875700D01*
X83709648Y-95875700D01*
X83940352Y-95875700D01*
X83940353Y-95875700D01*
X84168219Y-95839609D01*
X84387633Y-95768317D01*
X84593194Y-95663579D01*
X84779839Y-95527973D01*
X84942973Y-95364839D01*
X85078579Y-95178194D01*
X85183317Y-94972633D01*
X85254609Y-94753219D01*
X85290700Y-94525353D01*
X85290700Y-94294647D01*
X85254609Y-94066781D01*
X85252029Y-94058842D01*
X85206540Y-93918841D01*
X85183317Y-93847367D01*
X85078579Y-93641806D01*
X84942973Y-93455161D01*
X84779839Y-93292027D01*
X84593194Y-93156421D01*
X84387633Y-93051683D01*
X84297264Y-93022320D01*
X84168219Y-92980390D01*
X83971508Y-92949234D01*
X83940353Y-92944300D01*
X83709647Y-92944300D01*
X83682239Y-92948641D01*
X83481780Y-92980390D01*
X83326392Y-93030880D01*
X83262367Y-93051683D01*
X83262364Y-93051684D01*
X83262362Y-93051685D01*
X83056805Y-93156421D01*
X82983895Y-93209394D01*
X82870161Y-93292027D01*
X82870159Y-93292029D01*
X82870158Y-93292029D01*
X82707029Y-93455158D01*
X82707029Y-93455159D01*
X82707027Y-93455161D01*
X82648789Y-93535317D01*
X82571421Y-93641805D01*
X82466685Y-93847362D01*
X82395390Y-94066780D01*
X82359300Y-94294647D01*
X82100500Y-94294647D01*
X82100500Y-92474500D01*
X82120185Y-92407461D01*
X82172989Y-92361706D01*
X82224500Y-92350500D01*
X87368996Y-92350500D01*
X87460040Y-92332389D01*
X87504328Y-92323580D01*
X87568069Y-92297177D01*
X87631807Y-92270777D01*
X87631808Y-92270776D01*
X87631811Y-92270775D01*
X87746543Y-92194114D01*
X89744586Y-90196069D01*
X89784810Y-90169192D01*
X89839435Y-90146566D01*
X89929173Y-90109397D01*
X89929176Y-90109395D01*
X89929179Y-90109394D01*
X90060289Y-90021789D01*
X90171789Y-89910289D01*
X90259394Y-89779179D01*
X90319737Y-89633497D01*
X90350500Y-89478842D01*
X90350500Y-89321158D01*
X90350500Y-89321155D01*
X90350499Y-89321153D01*
X90341588Y-89276353D01*
X90319737Y-89166503D01*
X90315221Y-89155600D01*
X90259397Y-89020827D01*
X90259390Y-89020814D01*
X90171789Y-88889711D01*
X90171786Y-88889707D01*
X90060292Y-88778213D01*
X90060288Y-88778210D01*
X89929185Y-88690609D01*
X89929172Y-88690602D01*
X89783501Y-88630264D01*
X89783489Y-88630261D01*
X89628845Y-88599500D01*
X89628842Y-88599500D01*
X89471158Y-88599500D01*
X89414899Y-88610690D01*
X89345307Y-88604461D01*
X89290131Y-88561598D01*
X89272868Y-88521922D01*
X89271506Y-88522336D01*
X89269738Y-88516510D01*
X89269737Y-88516503D01*
X89239235Y-88442865D01*
X89209397Y-88370827D01*
X89209390Y-88370814D01*
X89121789Y-88239711D01*
X89121786Y-88239707D01*
X89010292Y-88128213D01*
X89010288Y-88128210D01*
X88879185Y-88040609D01*
X88879172Y-88040602D01*
X88733501Y-87980264D01*
X88733489Y-87980261D01*
X88578845Y-87949500D01*
X88578842Y-87949500D01*
X88421158Y-87949500D01*
X88421155Y-87949500D01*
X88266510Y-87980261D01*
X88266503Y-87980263D01*
X88207175Y-88004837D01*
X88137706Y-88012305D01*
X88075227Y-87981029D01*
X88039575Y-87920940D01*
X88042070Y-87851115D01*
X88045150Y-87842854D01*
X88069737Y-87783497D01*
X88100500Y-87628842D01*
X88100500Y-87471158D01*
X88100500Y-87471155D01*
X88100499Y-87471153D01*
X88090512Y-87420945D01*
X88069737Y-87316503D01*
X88062568Y-87299196D01*
X88009397Y-87170827D01*
X88009390Y-87170814D01*
X87921789Y-87039711D01*
X87921786Y-87039707D01*
X87810292Y-86928213D01*
X87810288Y-86928210D01*
X87679185Y-86840609D01*
X87679172Y-86840602D01*
X87533501Y-86780264D01*
X87533489Y-86780261D01*
X87378845Y-86749500D01*
X87378842Y-86749500D01*
X87221158Y-86749500D01*
X87221155Y-86749500D01*
X87066510Y-86780261D01*
X87066498Y-86780264D01*
X86920827Y-86840602D01*
X86920815Y-86840609D01*
X86826541Y-86903602D01*
X86759864Y-86924480D01*
X86757650Y-86924500D01*
X85110452Y-86924500D01*
X85043413Y-86904815D01*
X85022771Y-86888181D01*
X84575793Y-86441203D01*
X84542308Y-86379880D01*
X84541887Y-86377864D01*
X84519737Y-86266503D01*
X84492398Y-86200500D01*
X84459397Y-86120827D01*
X84459390Y-86120814D01*
X84371789Y-85989711D01*
X84371786Y-85989707D01*
X84260292Y-85878213D01*
X84260288Y-85878210D01*
X84129185Y-85790609D01*
X84129172Y-85790602D01*
X83983501Y-85730264D01*
X83983489Y-85730261D01*
X83828845Y-85699500D01*
X83828842Y-85699500D01*
X83671158Y-85699500D01*
X83671155Y-85699500D01*
X83516510Y-85730261D01*
X83516498Y-85730264D01*
X83370827Y-85790602D01*
X83370814Y-85790609D01*
X83239711Y-85878210D01*
X83239707Y-85878213D01*
X83128213Y-85989707D01*
X83128210Y-85989711D01*
X83040609Y-86120814D01*
X83040602Y-86120827D01*
X82980264Y-86266498D01*
X82980261Y-86266510D01*
X82949500Y-86421153D01*
X82949500Y-86578846D01*
X82980261Y-86733489D01*
X82980264Y-86733501D01*
X83040602Y-86879172D01*
X83040609Y-86879185D01*
X83128210Y-87010288D01*
X83128213Y-87010292D01*
X83239707Y-87121786D01*
X83239711Y-87121789D01*
X83370814Y-87209390D01*
X83370827Y-87209397D01*
X83458230Y-87245599D01*
X83516503Y-87269737D01*
X83627716Y-87291858D01*
X83689623Y-87324241D01*
X83691203Y-87325793D01*
X84311016Y-87945606D01*
X84311045Y-87945637D01*
X84401263Y-88035855D01*
X84401267Y-88035858D01*
X84503707Y-88104307D01*
X84503713Y-88104310D01*
X84503714Y-88104311D01*
X84617548Y-88151463D01*
X84677971Y-88163481D01*
X84738393Y-88175500D01*
X84738394Y-88175500D01*
X86757650Y-88175500D01*
X86824689Y-88195185D01*
X86826541Y-88196398D01*
X86920821Y-88259394D01*
X86920823Y-88259395D01*
X86920827Y-88259397D01*
X87042061Y-88309613D01*
X87066503Y-88319737D01*
X87221153Y-88350499D01*
X87221156Y-88350500D01*
X87221158Y-88350500D01*
X87378844Y-88350500D01*
X87378845Y-88350499D01*
X87533497Y-88319737D01*
X87592825Y-88295162D01*
X87607475Y-88293587D01*
X87620784Y-88287266D01*
X87641510Y-88289928D01*
X87662291Y-88287694D01*
X87675467Y-88294289D01*
X87690084Y-88296167D01*
X87706082Y-88309613D01*
X87724770Y-88318968D01*
X87732289Y-88331641D01*
X87743570Y-88341123D01*
X87749758Y-88361083D01*
X87760423Y-88379057D01*
X87760258Y-88394950D01*
X87764261Y-88407859D01*
X87759889Y-88430736D01*
X87759764Y-88442865D01*
X87757736Y-88450176D01*
X87730263Y-88516503D01*
X87707244Y-88632222D01*
X87706013Y-88636663D01*
X87689903Y-88662579D01*
X87675756Y-88689625D01*
X87674205Y-88691203D01*
X87177229Y-89188181D01*
X87115906Y-89221666D01*
X87089548Y-89224500D01*
X81692350Y-89224500D01*
X81625311Y-89204815D01*
X81623459Y-89203602D01*
X81529184Y-89140609D01*
X81529172Y-89140602D01*
X81383501Y-89080264D01*
X81383489Y-89080261D01*
X81228845Y-89049500D01*
X81228842Y-89049500D01*
X81071158Y-89049500D01*
X81071153Y-89049500D01*
X80924691Y-89078633D01*
X80855099Y-89072406D01*
X80799922Y-89029543D01*
X80776678Y-88963653D01*
X80776500Y-88957016D01*
X80776500Y-87296944D01*
X80775137Y-87291856D01*
X80772392Y-87281609D01*
X80735577Y-87144215D01*
X80696461Y-87076465D01*
X80696461Y-87076463D01*
X80656524Y-87007290D01*
X80656521Y-87007286D01*
X80656520Y-87007284D01*
X80544716Y-86895480D01*
X80544715Y-86895479D01*
X80540385Y-86891149D01*
X80540374Y-86891139D01*
X80046555Y-86397320D01*
X80013070Y-86335997D01*
X80018054Y-86266305D01*
X80059926Y-86210372D01*
X80125390Y-86185955D01*
X80158426Y-86188021D01*
X80175005Y-86191319D01*
X80221156Y-86200500D01*
X80221158Y-86200500D01*
X80378844Y-86200500D01*
X80378845Y-86200499D01*
X80533497Y-86169737D01*
X80651592Y-86120821D01*
X80679172Y-86109397D01*
X80679172Y-86109396D01*
X80679179Y-86109394D01*
X80810289Y-86021789D01*
X80921789Y-85910289D01*
X81009394Y-85779179D01*
X81069737Y-85633497D01*
X81100500Y-85478842D01*
X81100500Y-85476613D01*
X81100830Y-85475487D01*
X81101097Y-85472782D01*
X81101610Y-85472832D01*
X81106132Y-85457432D01*
X81106846Y-85437452D01*
X81115775Y-85424591D01*
X81120185Y-85409574D01*
X81135290Y-85396484D01*
X81146695Y-85380060D01*
X81170643Y-85365851D01*
X81172989Y-85363819D01*
X81176973Y-85362083D01*
X81244925Y-85333937D01*
X81292374Y-85324500D01*
X82020906Y-85324500D01*
X82020906Y-85324499D01*
X82096849Y-85309394D01*
X82141750Y-85300463D01*
X82195495Y-85278201D01*
X82255584Y-85253312D01*
X82320020Y-85210256D01*
X82358031Y-85184858D01*
X82445156Y-85097733D01*
X82445157Y-85097730D01*
X82935857Y-84607032D01*
X82941325Y-84598850D01*
X82942508Y-84597080D01*
X83004307Y-84504590D01*
X83004307Y-84504589D01*
X83004311Y-84504584D01*
X83051463Y-84390750D01*
X83063777Y-84328842D01*
X83075500Y-84269905D01*
X83075500Y-84146692D01*
X83075500Y-81520722D01*
X83095185Y-81453683D01*
X83147989Y-81407928D01*
X83175309Y-81399105D01*
X83191291Y-81395925D01*
X83308497Y-81372612D01*
X83454179Y-81312269D01*
X83585289Y-81224664D01*
X83696789Y-81113164D01*
X83784394Y-80982054D01*
X83844737Y-80836372D01*
X83849273Y-80813565D01*
X83881655Y-80751656D01*
X83883150Y-80750133D01*
X84271466Y-80361819D01*
X84332789Y-80328334D01*
X84359147Y-80325500D01*
X87350576Y-80325500D01*
X87382049Y-80334741D01*
G37*
%TD.AperFunction*%
%TA.AperFunction,Conductor*%
G36*
X80327559Y-90059486D02*
G01*
X80383492Y-90101358D01*
X80398786Y-90128216D01*
X80440602Y-90229172D01*
X80440609Y-90229185D01*
X80528210Y-90360288D01*
X80528213Y-90360292D01*
X80639707Y-90471786D01*
X80639711Y-90471789D01*
X80770814Y-90559390D01*
X80770827Y-90559397D01*
X80910250Y-90617147D01*
X80916503Y-90619737D01*
X81039974Y-90644297D01*
X81071153Y-90650499D01*
X81071156Y-90650500D01*
X81097810Y-90650500D01*
X81164849Y-90670185D01*
X81210604Y-90722989D01*
X81220548Y-90792147D01*
X81191523Y-90855703D01*
X81145262Y-90889061D01*
X81020827Y-90940602D01*
X81020814Y-90940609D01*
X80889711Y-91028210D01*
X80889707Y-91028213D01*
X80778213Y-91139707D01*
X80778210Y-91139711D01*
X80690609Y-91270814D01*
X80690602Y-91270827D01*
X80630264Y-91416498D01*
X80630261Y-91416510D01*
X80599500Y-91571153D01*
X80599500Y-91728846D01*
X80630261Y-91883489D01*
X80630264Y-91883501D01*
X80690061Y-92027864D01*
X80699500Y-92075316D01*
X80699500Y-96566175D01*
X80679815Y-96633214D01*
X80663181Y-96653856D01*
X78187239Y-99129798D01*
X78125916Y-99163283D01*
X78056224Y-99158299D01*
X78011877Y-99129798D01*
X77910292Y-99028213D01*
X77910288Y-99028210D01*
X77779185Y-98940609D01*
X77779172Y-98940602D01*
X77633501Y-98880264D01*
X77633489Y-98880261D01*
X77478845Y-98849500D01*
X77478842Y-98849500D01*
X77321158Y-98849500D01*
X77321155Y-98849500D01*
X77166510Y-98880261D01*
X77166498Y-98880264D01*
X77020827Y-98940602D01*
X77020814Y-98940609D01*
X76889711Y-99028210D01*
X76889707Y-99028213D01*
X76854742Y-99063180D01*
X76793420Y-99096666D01*
X76767060Y-99099500D01*
X71484395Y-99099500D01*
X71417356Y-99079815D01*
X71371601Y-99027011D01*
X71361657Y-98957853D01*
X71390682Y-98894297D01*
X71396714Y-98887819D01*
X73718358Y-96566175D01*
X76969813Y-93314720D01*
X77031134Y-93281237D01*
X77033301Y-93280786D01*
X77033990Y-93280649D01*
X77033991Y-93280649D01*
X77188646Y-93249886D01*
X77334328Y-93189543D01*
X77465438Y-93101938D01*
X77576938Y-92990438D01*
X77664543Y-92859328D01*
X77724886Y-92713646D01*
X77755649Y-92558991D01*
X77755787Y-92558299D01*
X77788172Y-92496388D01*
X77789668Y-92494864D01*
X80196546Y-90087985D01*
X80257867Y-90054502D01*
X80327559Y-90059486D01*
G37*
%TD.AperFunction*%
%TA.AperFunction,Conductor*%
G36*
X75230703Y-85722311D02*
G01*
X75252602Y-85747133D01*
X75328210Y-85860288D01*
X75328213Y-85860292D01*
X75439707Y-85971786D01*
X75439711Y-85971789D01*
X75570814Y-86059390D01*
X75570827Y-86059397D01*
X75658230Y-86095599D01*
X75716503Y-86119737D01*
X75783580Y-86133079D01*
X75845490Y-86165463D01*
X75847069Y-86167015D01*
X78720568Y-89040514D01*
X78754053Y-89101837D01*
X78754504Y-89104003D01*
X78780261Y-89233491D01*
X78780264Y-89233501D01*
X78840602Y-89379172D01*
X78840609Y-89379185D01*
X78930778Y-89514132D01*
X78951656Y-89580810D01*
X78933171Y-89648190D01*
X78915357Y-89670704D01*
X76940488Y-91645574D01*
X76879165Y-91679059D01*
X76876999Y-91679510D01*
X76721657Y-91710410D01*
X76721647Y-91710413D01*
X76575976Y-91770751D01*
X76575963Y-91770758D01*
X76444860Y-91858359D01*
X76444856Y-91858362D01*
X76333362Y-91969856D01*
X76333359Y-91969860D01*
X76245758Y-92100963D01*
X76245751Y-92100976D01*
X76185413Y-92246647D01*
X76185410Y-92246657D01*
X76154511Y-92401997D01*
X76122126Y-92463908D01*
X76120575Y-92465486D01*
X70222882Y-98363181D01*
X70161559Y-98396666D01*
X70135201Y-98399500D01*
X67315845Y-98399500D01*
X67248806Y-98379815D01*
X67203051Y-98327011D01*
X67193107Y-98257853D01*
X67201284Y-98228048D01*
X67219735Y-98183501D01*
X67219737Y-98183497D01*
X67250500Y-98028842D01*
X67250500Y-97871158D01*
X67250500Y-97871155D01*
X67250499Y-97871153D01*
X67230370Y-97769958D01*
X67219737Y-97716503D01*
X67219735Y-97716498D01*
X67159397Y-97570827D01*
X67159390Y-97570814D01*
X67071789Y-97439711D01*
X67071786Y-97439707D01*
X66960292Y-97328213D01*
X66960288Y-97328210D01*
X66829185Y-97240609D01*
X66829180Y-97240607D01*
X66829179Y-97240606D01*
X66805341Y-97230732D01*
X66776046Y-97218597D01*
X66721643Y-97174755D01*
X66699579Y-97108460D01*
X66699500Y-97104036D01*
X66699500Y-93418046D01*
X66719185Y-93351007D01*
X66771989Y-93305252D01*
X66799309Y-93296429D01*
X66828848Y-93290552D01*
X66933497Y-93269737D01*
X67079179Y-93209394D01*
X67173459Y-93146398D01*
X67240136Y-93125520D01*
X67242350Y-93125500D01*
X72265921Y-93125500D01*
X72326343Y-93113481D01*
X72386766Y-93101463D01*
X72440144Y-93079353D01*
X72445931Y-93076955D01*
X72445934Y-93076955D01*
X72456154Y-93072721D01*
X72500600Y-93054312D01*
X72566483Y-93010289D01*
X72603047Y-92985858D01*
X72690172Y-92898733D01*
X72690173Y-92898731D01*
X72697239Y-92891665D01*
X72697242Y-92891661D01*
X76285954Y-89302948D01*
X76347275Y-89269465D01*
X76349285Y-89269046D01*
X76460654Y-89246894D01*
X76606336Y-89186551D01*
X76737446Y-89098946D01*
X76848946Y-88987446D01*
X76936551Y-88856336D01*
X76996894Y-88710654D01*
X77027657Y-88555999D01*
X77027657Y-88398315D01*
X77027657Y-88398312D01*
X77027656Y-88398310D01*
X77016281Y-88341123D01*
X76996894Y-88243660D01*
X76976815Y-88195185D01*
X76936554Y-88097984D01*
X76936547Y-88097971D01*
X76848946Y-87966868D01*
X76848943Y-87966864D01*
X76737449Y-87855370D01*
X76737445Y-87855367D01*
X76606342Y-87767766D01*
X76606329Y-87767759D01*
X76460658Y-87707421D01*
X76460646Y-87707418D01*
X76306002Y-87676657D01*
X76305999Y-87676657D01*
X76148315Y-87676657D01*
X76148312Y-87676657D01*
X75993667Y-87707418D01*
X75993655Y-87707421D01*
X75847984Y-87767759D01*
X75847971Y-87767766D01*
X75716868Y-87855367D01*
X75716864Y-87855370D01*
X75605370Y-87966864D01*
X75605367Y-87966868D01*
X75517766Y-88097971D01*
X75517759Y-88097984D01*
X75457421Y-88243655D01*
X75457418Y-88243665D01*
X75435298Y-88354871D01*
X75402913Y-88416782D01*
X75401362Y-88418360D01*
X71981543Y-91838181D01*
X71920220Y-91871666D01*
X71893862Y-91874500D01*
X71309452Y-91874500D01*
X71242413Y-91854815D01*
X71196658Y-91802011D01*
X71186714Y-91732853D01*
X71215739Y-91669297D01*
X71221771Y-91662819D01*
X72107579Y-90777011D01*
X74798729Y-88085860D01*
X74798733Y-88085858D01*
X74885858Y-87998733D01*
X74954311Y-87896286D01*
X75001463Y-87782452D01*
X75025500Y-87661606D01*
X75025500Y-85816024D01*
X75045185Y-85748985D01*
X75097989Y-85703230D01*
X75167147Y-85693286D01*
X75230703Y-85722311D01*
G37*
%TD.AperFunction*%
%TA.AperFunction,Conductor*%
G36*
X64410776Y-86940973D02*
G01*
X64466709Y-86982845D01*
X64491126Y-87048309D01*
X64491442Y-87057155D01*
X64491442Y-97174592D01*
X64486113Y-97192739D01*
X64485775Y-97211650D01*
X64472277Y-97239857D01*
X64471757Y-97241631D01*
X64470541Y-97243487D01*
X64460373Y-97258703D01*
X64406759Y-97303506D01*
X64337433Y-97312210D01*
X64274407Y-97282053D01*
X64242713Y-97237260D01*
X64209397Y-97156827D01*
X64209390Y-97156814D01*
X64121789Y-97025711D01*
X64121786Y-97025707D01*
X64010292Y-96914213D01*
X64010288Y-96914210D01*
X63879185Y-96826609D01*
X63879172Y-96826602D01*
X63733501Y-96766264D01*
X63733491Y-96766261D01*
X63599308Y-96739570D01*
X63537397Y-96707185D01*
X63502823Y-96646469D01*
X63499500Y-96617953D01*
X63499500Y-87801097D01*
X63519185Y-87734058D01*
X63535819Y-87713416D01*
X64279761Y-86969474D01*
X64341084Y-86935989D01*
X64410776Y-86940973D01*
G37*
%TD.AperFunction*%
%TA.AperFunction,Conductor*%
G36*
X98283616Y-84859553D02*
G01*
X98339550Y-84901424D01*
X98363967Y-84966889D01*
X98349115Y-85035162D01*
X98340602Y-85048619D01*
X98314849Y-85084064D01*
X98210147Y-85289553D01*
X98138877Y-85508897D01*
X98102800Y-85736680D01*
X98102800Y-85967319D01*
X98138877Y-86195102D01*
X98210147Y-86414446D01*
X98314850Y-86619935D01*
X98370253Y-86696191D01*
X98370254Y-86696192D01*
X99078504Y-85987941D01*
X99094619Y-86048081D01*
X99161498Y-86163920D01*
X99256080Y-86258502D01*
X99371919Y-86325381D01*
X99432057Y-86341494D01*
X98723806Y-87049744D01*
X98800067Y-87105151D01*
X99005553Y-87209852D01*
X99224897Y-87281122D01*
X99452681Y-87317200D01*
X99683319Y-87317200D01*
X99911102Y-87281122D01*
X100130446Y-87209852D01*
X100335924Y-87105155D01*
X100335930Y-87105151D01*
X100412191Y-87049744D01*
X100412192Y-87049744D01*
X99703942Y-86341495D01*
X99764081Y-86325381D01*
X99879920Y-86258502D01*
X99974502Y-86163920D01*
X100041381Y-86048081D01*
X100057494Y-85987942D01*
X100788681Y-86719129D01*
X100822166Y-86780452D01*
X100825000Y-86806810D01*
X100825000Y-92009189D01*
X100805315Y-92076228D01*
X100788681Y-92096870D01*
X100057495Y-92828058D01*
X100041381Y-92767919D01*
X99974502Y-92652080D01*
X99879920Y-92557498D01*
X99764081Y-92490619D01*
X99703941Y-92474504D01*
X100412192Y-91766254D01*
X100412191Y-91766253D01*
X100335935Y-91710850D01*
X100130446Y-91606147D01*
X99911102Y-91534877D01*
X99683319Y-91498800D01*
X99452681Y-91498800D01*
X99224897Y-91534877D01*
X99005553Y-91606147D01*
X98800069Y-91710847D01*
X98723807Y-91766254D01*
X99432058Y-92474504D01*
X99371919Y-92490619D01*
X99256080Y-92557498D01*
X99161498Y-92652080D01*
X99094619Y-92767919D01*
X99078504Y-92828057D01*
X98370254Y-92119807D01*
X98314847Y-92196069D01*
X98210147Y-92401553D01*
X98138877Y-92620897D01*
X98102800Y-92848680D01*
X98102800Y-93079319D01*
X98138877Y-93307102D01*
X98210147Y-93526446D01*
X98314850Y-93731935D01*
X98370253Y-93808191D01*
X98370254Y-93808192D01*
X99078504Y-93099941D01*
X99094619Y-93160081D01*
X99161498Y-93275920D01*
X99256080Y-93370502D01*
X99371919Y-93437381D01*
X99432057Y-93453494D01*
X98723806Y-94161744D01*
X98800067Y-94217151D01*
X99005553Y-94321851D01*
X99143697Y-94366738D01*
X99201372Y-94406176D01*
X99228570Y-94470535D01*
X99216655Y-94539381D01*
X99193059Y-94572350D01*
X98202229Y-95563181D01*
X98140906Y-95596666D01*
X98114548Y-95599500D01*
X92550452Y-95599500D01*
X92483413Y-95579815D01*
X92462771Y-95563181D01*
X91983260Y-95083670D01*
X91949775Y-95022347D01*
X91954759Y-94952655D01*
X91960446Y-94939716D01*
X92058317Y-94747633D01*
X92129609Y-94528219D01*
X92165700Y-94300353D01*
X92165700Y-94069647D01*
X92129609Y-93841781D01*
X92058317Y-93622367D01*
X91953579Y-93416806D01*
X91817973Y-93230161D01*
X91756204Y-93168392D01*
X91722719Y-93107069D01*
X91727703Y-93037377D01*
X91756204Y-92993030D01*
X92555123Y-92194111D01*
X93371119Y-91378114D01*
X93432440Y-91344631D01*
X93502132Y-91349615D01*
X93537467Y-91369947D01*
X93539708Y-91371786D01*
X93539711Y-91371789D01*
X93539714Y-91371791D01*
X93670814Y-91459390D01*
X93670821Y-91459394D01*
X93721088Y-91480215D01*
X93775491Y-91524055D01*
X93797557Y-91590348D01*
X93780279Y-91658048D01*
X93729938Y-91705257D01*
X93719809Y-91710418D01*
X93609447Y-91790602D01*
X93533161Y-91846027D01*
X93533159Y-91846029D01*
X93533158Y-91846029D01*
X93370029Y-92009158D01*
X93370029Y-92009159D01*
X93370027Y-92009161D01*
X93321300Y-92076228D01*
X93234421Y-92195805D01*
X93129685Y-92401362D01*
X93129684Y-92401364D01*
X93129683Y-92401367D01*
X93113944Y-92449805D01*
X93058390Y-92620780D01*
X93022300Y-92848647D01*
X93022300Y-93079352D01*
X93058390Y-93307219D01*
X93093998Y-93416805D01*
X93129683Y-93526633D01*
X93234421Y-93732194D01*
X93370027Y-93918839D01*
X93533161Y-94081973D01*
X93719806Y-94217579D01*
X93925367Y-94322317D01*
X94102850Y-94379984D01*
X94144780Y-94393609D01*
X94258714Y-94411654D01*
X94372647Y-94429700D01*
X94372648Y-94429700D01*
X94603352Y-94429700D01*
X94603353Y-94429700D01*
X94831219Y-94393609D01*
X95050633Y-94322317D01*
X95256194Y-94217579D01*
X95442839Y-94081973D01*
X95605973Y-93918839D01*
X95741579Y-93732194D01*
X95846317Y-93526633D01*
X95917609Y-93307219D01*
X95953700Y-93079353D01*
X95953700Y-92848647D01*
X95922566Y-92652080D01*
X95917609Y-92620780D01*
X95897047Y-92557498D01*
X95846317Y-92401367D01*
X95741579Y-92195806D01*
X95605973Y-92009161D01*
X95442839Y-91846027D01*
X95256194Y-91710421D01*
X95050633Y-91605683D01*
X94900757Y-91556985D01*
X94831220Y-91534391D01*
X94697330Y-91513184D01*
X94634196Y-91483254D01*
X94597265Y-91423942D01*
X94598263Y-91354080D01*
X94629049Y-91303029D01*
X94671786Y-91260292D01*
X94671789Y-91260289D01*
X94759394Y-91129179D01*
X94819193Y-90984809D01*
X94846070Y-90944584D01*
X97644113Y-88146543D01*
X97653969Y-88131793D01*
X97658845Y-88124497D01*
X97720771Y-88031817D01*
X97720771Y-88031816D01*
X97720775Y-88031811D01*
X97761931Y-87932452D01*
X97773580Y-87904329D01*
X97779326Y-87875438D01*
X97785125Y-87846289D01*
X97785125Y-87846286D01*
X97800500Y-87768993D01*
X97800500Y-85291519D01*
X97820185Y-85224480D01*
X97836819Y-85203838D01*
X97992038Y-85048619D01*
X98152604Y-84888052D01*
X98213925Y-84854569D01*
X98283616Y-84859553D01*
G37*
%TD.AperFunction*%
%TA.AperFunction,Conductor*%
G36*
X72893834Y-74578567D02*
G01*
X72949767Y-74620439D01*
X72974184Y-74685903D01*
X72974500Y-74694749D01*
X72974500Y-81622278D01*
X72974500Y-81745492D01*
X72974500Y-81745494D01*
X72974499Y-81745494D01*
X72979952Y-81772906D01*
X72979956Y-81772923D01*
X72980661Y-81776465D01*
X72998537Y-81866337D01*
X73010688Y-81895671D01*
X73013967Y-81903589D01*
X73013970Y-81903598D01*
X73045686Y-81980168D01*
X73045690Y-81980176D01*
X73066693Y-82011607D01*
X73066694Y-82011608D01*
X73114141Y-82082617D01*
X73114144Y-82082621D01*
X73205586Y-82174063D01*
X73205608Y-82174083D01*
X74137042Y-83105517D01*
X74170527Y-83166840D01*
X74165543Y-83236532D01*
X74137042Y-83280879D01*
X74103213Y-83314707D01*
X74103210Y-83314711D01*
X74015609Y-83445814D01*
X74015602Y-83445827D01*
X73955264Y-83591498D01*
X73955261Y-83591508D01*
X73932254Y-83707169D01*
X73929067Y-83714863D01*
X73928976Y-83720015D01*
X73913748Y-83751855D01*
X73908527Y-83759670D01*
X73905539Y-83764143D01*
X73881914Y-83799500D01*
X73845688Y-83853714D01*
X73814776Y-83928343D01*
X73798537Y-83967548D01*
X73797154Y-83974500D01*
X73777463Y-84073500D01*
X73776722Y-84077220D01*
X73776719Y-84077235D01*
X73774500Y-84088392D01*
X73774500Y-87289548D01*
X73754815Y-87356587D01*
X73738181Y-87377229D01*
X70139889Y-90975520D01*
X70078566Y-91009005D01*
X70076400Y-91009456D01*
X69916508Y-91041261D01*
X69916498Y-91041264D01*
X69770827Y-91101602D01*
X69770814Y-91101609D01*
X69639711Y-91189210D01*
X69639707Y-91189213D01*
X69528213Y-91300707D01*
X69528210Y-91300711D01*
X69440609Y-91431814D01*
X69440602Y-91431827D01*
X69380264Y-91577498D01*
X69380261Y-91577510D01*
X69349500Y-91732153D01*
X69349500Y-91750500D01*
X69329815Y-91817539D01*
X69277011Y-91863294D01*
X69225500Y-91874500D01*
X68777464Y-91874500D01*
X68710425Y-91854815D01*
X68664670Y-91802011D01*
X68654726Y-91732853D01*
X68674362Y-91681609D01*
X68709390Y-91629185D01*
X68709390Y-91629184D01*
X68709394Y-91629179D01*
X68769737Y-91483497D01*
X68791858Y-91372282D01*
X68824240Y-91310375D01*
X68825734Y-91308854D01*
X71985857Y-88148734D01*
X71994012Y-88136529D01*
X72002053Y-88124497D01*
X72054304Y-88046297D01*
X72054306Y-88046293D01*
X72054311Y-88046286D01*
X72101463Y-87932452D01*
X72113942Y-87869716D01*
X72125500Y-87811607D01*
X72125500Y-87688394D01*
X72125500Y-86742350D01*
X72145185Y-86675311D01*
X72146398Y-86673459D01*
X72146809Y-86672843D01*
X72209394Y-86579179D01*
X72269737Y-86433497D01*
X72300500Y-86278842D01*
X72300500Y-86121158D01*
X72300500Y-86121155D01*
X72300499Y-86121153D01*
X72280734Y-86021789D01*
X72269737Y-85966503D01*
X72246452Y-85910288D01*
X72209397Y-85820827D01*
X72209390Y-85820814D01*
X72121789Y-85689711D01*
X72121786Y-85689707D01*
X72010292Y-85578213D01*
X72010288Y-85578210D01*
X71879177Y-85490604D01*
X71876737Y-85489300D01*
X71875697Y-85488279D01*
X71874114Y-85487221D01*
X71874314Y-85486920D01*
X71826891Y-85440340D01*
X71811428Y-85372202D01*
X71835257Y-85306522D01*
X71847506Y-85292258D01*
X71900629Y-85239135D01*
X71900632Y-85239132D01*
X71988237Y-85108022D01*
X71990333Y-85102963D01*
X72018416Y-85035162D01*
X72048580Y-84962340D01*
X72079343Y-84807685D01*
X72079343Y-84650001D01*
X72079343Y-84649998D01*
X72079342Y-84649996D01*
X72078961Y-84648081D01*
X72048580Y-84495346D01*
X72047685Y-84493186D01*
X71988240Y-84349670D01*
X71988233Y-84349657D01*
X71900632Y-84218554D01*
X71900629Y-84218550D01*
X71789135Y-84107056D01*
X71789131Y-84107053D01*
X71658028Y-84019452D01*
X71658015Y-84019445D01*
X71512344Y-83959107D01*
X71512332Y-83959104D01*
X71357688Y-83928343D01*
X71357685Y-83928343D01*
X71200001Y-83928343D01*
X71199998Y-83928343D01*
X71045353Y-83959104D01*
X71045341Y-83959107D01*
X70899670Y-84019445D01*
X70899657Y-84019452D01*
X70768554Y-84107053D01*
X70768550Y-84107056D01*
X70657056Y-84218550D01*
X70657053Y-84218554D01*
X70569452Y-84349657D01*
X70569445Y-84349670D01*
X70509107Y-84495341D01*
X70509104Y-84495351D01*
X70486984Y-84606556D01*
X70454599Y-84668467D01*
X70453048Y-84670045D01*
X65954123Y-89168971D01*
X65892800Y-89202456D01*
X65823108Y-89197472D01*
X65767175Y-89155600D01*
X65742758Y-89090136D01*
X65742442Y-89081290D01*
X65742442Y-87043509D01*
X65762127Y-86976470D01*
X65778756Y-86955833D01*
X67658797Y-85075791D01*
X67720118Y-85042308D01*
X67722128Y-85041889D01*
X67833497Y-85019737D01*
X67979179Y-84959394D01*
X68110289Y-84871789D01*
X68221789Y-84760289D01*
X68309394Y-84629179D01*
X68369737Y-84483497D01*
X68399516Y-84333790D01*
X68400500Y-84328843D01*
X68400500Y-84171155D01*
X68400499Y-84171153D01*
X68387749Y-84107054D01*
X68369737Y-84016503D01*
X68352339Y-83974500D01*
X68309397Y-83870827D01*
X68309390Y-83870814D01*
X68221789Y-83739711D01*
X68221786Y-83739707D01*
X68110292Y-83628213D01*
X68110288Y-83628210D01*
X67979185Y-83540609D01*
X67979173Y-83540602D01*
X67959323Y-83532381D01*
X67904919Y-83488541D01*
X67882854Y-83422247D01*
X67900133Y-83354547D01*
X67919090Y-83330143D01*
X70964662Y-80284572D01*
X71025983Y-80251089D01*
X71028150Y-80250638D01*
X71086085Y-80239113D01*
X71183497Y-80219737D01*
X71329179Y-80159394D01*
X71460289Y-80071789D01*
X71571789Y-79960289D01*
X71659394Y-79829179D01*
X71719737Y-79683497D01*
X71750500Y-79528842D01*
X71750500Y-79371158D01*
X71750500Y-79371155D01*
X71750499Y-79371153D01*
X71741597Y-79326399D01*
X71719737Y-79216503D01*
X71715069Y-79205233D01*
X71661238Y-79075272D01*
X71653769Y-79005803D01*
X71672694Y-78958933D01*
X71759394Y-78829179D01*
X71819737Y-78683497D01*
X71850500Y-78528842D01*
X71850500Y-78371158D01*
X71850500Y-78371155D01*
X71850499Y-78371153D01*
X71822474Y-78230263D01*
X71819737Y-78216503D01*
X71812949Y-78200116D01*
X71759397Y-78070827D01*
X71759390Y-78070814D01*
X71671789Y-77939711D01*
X71671786Y-77939707D01*
X71560292Y-77828213D01*
X71560288Y-77828210D01*
X71429185Y-77740609D01*
X71429172Y-77740602D01*
X71283501Y-77680264D01*
X71283489Y-77680261D01*
X71128845Y-77649500D01*
X71128842Y-77649500D01*
X70971158Y-77649500D01*
X70971155Y-77649500D01*
X70816510Y-77680261D01*
X70816498Y-77680264D01*
X70670827Y-77740602D01*
X70670814Y-77740609D01*
X70539711Y-77828210D01*
X70539707Y-77828213D01*
X70428213Y-77939707D01*
X70428210Y-77939711D01*
X70340609Y-78070814D01*
X70340602Y-78070827D01*
X70280264Y-78216498D01*
X70280261Y-78216508D01*
X70249362Y-78371848D01*
X70216977Y-78433759D01*
X70215426Y-78435337D01*
X68339672Y-80311091D01*
X68278349Y-80344576D01*
X68208657Y-80339592D01*
X68152724Y-80297720D01*
X68137430Y-80270862D01*
X68084397Y-80142828D01*
X68084396Y-80142827D01*
X68084394Y-80142821D01*
X68021397Y-80048539D01*
X68000520Y-79981863D01*
X68000500Y-79979650D01*
X68000500Y-79420749D01*
X68020185Y-79353710D01*
X68036814Y-79333073D01*
X72762819Y-74607067D01*
X72824142Y-74573583D01*
X72893834Y-74578567D01*
G37*
%TD.AperFunction*%
%TA.AperFunction,Conductor*%
G36*
X93630268Y-87054031D02*
G01*
X93641171Y-87054655D01*
X93672384Y-87071125D01*
X93719806Y-87105579D01*
X93925367Y-87210317D01*
X94102850Y-87267984D01*
X94144780Y-87281609D01*
X94241601Y-87296944D01*
X94372647Y-87317700D01*
X94372648Y-87317700D01*
X94603352Y-87317700D01*
X94603353Y-87317700D01*
X94831219Y-87281609D01*
X95050633Y-87210317D01*
X95052445Y-87209394D01*
X95119205Y-87175378D01*
X95187874Y-87162482D01*
X95252615Y-87188758D01*
X95292872Y-87245865D01*
X95299500Y-87285863D01*
X95299500Y-87699903D01*
X95279815Y-87766942D01*
X95263181Y-87787584D01*
X93670301Y-89380463D01*
X93608978Y-89413948D01*
X93539286Y-89408964D01*
X93483353Y-89367092D01*
X93458936Y-89301628D01*
X93473788Y-89233355D01*
X93479519Y-89223890D01*
X93481005Y-89221666D01*
X93509394Y-89179179D01*
X93569737Y-89033497D01*
X93600500Y-88878842D01*
X93600500Y-88721158D01*
X93600500Y-88721155D01*
X93600499Y-88721153D01*
X93598409Y-88710646D01*
X93569737Y-88566503D01*
X93551271Y-88521922D01*
X93509397Y-88420827D01*
X93509390Y-88420814D01*
X93496398Y-88401370D01*
X93475520Y-88334692D01*
X93475500Y-88332479D01*
X93475500Y-87171444D01*
X93479047Y-87159362D01*
X93477970Y-87146818D01*
X93488705Y-87126472D01*
X93495185Y-87104405D01*
X93504699Y-87096161D01*
X93510576Y-87085023D01*
X93530608Y-87073710D01*
X93547989Y-87058650D01*
X93560449Y-87056858D01*
X93571415Y-87050666D01*
X93594381Y-87051979D01*
X93617147Y-87048706D01*
X93630268Y-87054031D01*
G37*
%TD.AperFunction*%
%TA.AperFunction,Conductor*%
G36*
X100764273Y-82334806D02*
G01*
X100811884Y-82385943D01*
X100825000Y-82441448D01*
X100825000Y-84897189D01*
X100805315Y-84964228D01*
X100788681Y-84984870D01*
X100057494Y-85716057D01*
X100041381Y-85655919D01*
X99974502Y-85540080D01*
X99879920Y-85445498D01*
X99764081Y-85378619D01*
X99703941Y-85362504D01*
X100412192Y-84654254D01*
X100412191Y-84654253D01*
X100335935Y-84598850D01*
X100130446Y-84494147D01*
X99911102Y-84422877D01*
X99683319Y-84386800D01*
X99452681Y-84386800D01*
X99224897Y-84422877D01*
X99005553Y-84494147D01*
X98800064Y-84598850D01*
X98764621Y-84624601D01*
X98698815Y-84648081D01*
X98630761Y-84632255D01*
X98582066Y-84582150D01*
X98568191Y-84513672D01*
X98593540Y-84448563D01*
X98604055Y-84436602D01*
X100494112Y-82546545D01*
X100494114Y-82546543D01*
X100570775Y-82431811D01*
X100586439Y-82393995D01*
X100630280Y-82339592D01*
X100696574Y-82317527D01*
X100764273Y-82334806D01*
G37*
%TD.AperFunction*%
%TA.AperFunction,Conductor*%
G36*
X98652539Y-79222084D02*
G01*
X98698294Y-79274888D01*
X98709500Y-79326399D01*
X98709500Y-79898870D01*
X98689815Y-79965909D01*
X98637011Y-80011664D01*
X98567853Y-80021608D01*
X98546497Y-80016576D01*
X98452700Y-79985495D01*
X98452690Y-79985493D01*
X98349986Y-79975000D01*
X98300000Y-79975000D01*
X98300000Y-82424999D01*
X98334981Y-82424999D01*
X98402020Y-82444684D01*
X98447775Y-82497488D01*
X98457719Y-82566646D01*
X98428694Y-82630202D01*
X98422662Y-82636680D01*
X96712181Y-84347161D01*
X96650858Y-84380646D01*
X96581166Y-84375662D01*
X96525233Y-84333790D01*
X96500816Y-84268326D01*
X96500500Y-84259480D01*
X96500500Y-81724986D01*
X97050001Y-81724986D01*
X97060494Y-81827697D01*
X97115641Y-81994119D01*
X97115643Y-81994124D01*
X97207684Y-82143345D01*
X97331654Y-82267315D01*
X97480875Y-82359356D01*
X97480880Y-82359358D01*
X97647302Y-82414505D01*
X97647309Y-82414506D01*
X97750019Y-82424999D01*
X97799999Y-82424998D01*
X97800000Y-82424998D01*
X97800000Y-81450000D01*
X97050001Y-81450000D01*
X97050001Y-81724986D01*
X96500500Y-81724986D01*
X96500500Y-81110936D01*
X96520185Y-81043897D01*
X96536814Y-81023260D01*
X96838323Y-80721751D01*
X96899642Y-80688269D01*
X96969333Y-80693253D01*
X97025267Y-80735124D01*
X97049684Y-80800589D01*
X97050000Y-80809435D01*
X97050000Y-80950000D01*
X97800000Y-80950000D01*
X97800000Y-79974999D01*
X97780218Y-79955218D01*
X97746732Y-79893895D01*
X97751716Y-79824203D01*
X97780212Y-79779861D01*
X98321356Y-79238717D01*
X98348283Y-79224014D01*
X98374102Y-79207422D01*
X98380302Y-79206530D01*
X98382679Y-79205233D01*
X98409037Y-79202399D01*
X98585500Y-79202399D01*
X98652539Y-79222084D01*
G37*
%TD.AperFunction*%
%TA.AperFunction,Conductor*%
G36*
X75680703Y-77979738D02*
G01*
X75687181Y-77985770D01*
X75716386Y-78014975D01*
X75716390Y-78014978D01*
X75847493Y-78102579D01*
X75847506Y-78102586D01*
X75993177Y-78162924D01*
X75993182Y-78162926D01*
X76123691Y-78188886D01*
X76185602Y-78221270D01*
X76220176Y-78281986D01*
X76223500Y-78310503D01*
X76223500Y-80060611D01*
X76247535Y-80181444D01*
X76247540Y-80181461D01*
X76294685Y-80295280D01*
X76294687Y-80295283D01*
X76294688Y-80295286D01*
X76328915Y-80346509D01*
X76363142Y-80397733D01*
X76450267Y-80484858D01*
X76450270Y-80484860D01*
X76457554Y-80492144D01*
X77647326Y-81681916D01*
X77680811Y-81743239D01*
X77675827Y-81812931D01*
X77633955Y-81868864D01*
X77607098Y-81884158D01*
X77470823Y-81940604D01*
X77470815Y-81940609D01*
X77376541Y-82003602D01*
X77358494Y-82009252D01*
X77342585Y-82019477D01*
X77311625Y-82023928D01*
X77309864Y-82024480D01*
X77307650Y-82024500D01*
X77160452Y-82024500D01*
X77093413Y-82004815D01*
X77072771Y-81988181D01*
X76482921Y-81398331D01*
X76449436Y-81337008D01*
X76448986Y-81286454D01*
X76450500Y-81278844D01*
X76450500Y-81121155D01*
X76450499Y-81121153D01*
X76432823Y-81032289D01*
X76419737Y-80966503D01*
X76392144Y-80899886D01*
X76359397Y-80820827D01*
X76359390Y-80820814D01*
X76271789Y-80689711D01*
X76271786Y-80689707D01*
X76160292Y-80578213D01*
X76160288Y-80578210D01*
X76029185Y-80490609D01*
X76029172Y-80490602D01*
X75883501Y-80430264D01*
X75883489Y-80430261D01*
X75728845Y-80399500D01*
X75728842Y-80399500D01*
X75599500Y-80399500D01*
X75532461Y-80379815D01*
X75486706Y-80327011D01*
X75475500Y-80275500D01*
X75475500Y-78073451D01*
X75495185Y-78006412D01*
X75547989Y-77960657D01*
X75617147Y-77950713D01*
X75680703Y-77979738D01*
G37*
%TD.AperFunction*%
%TA.AperFunction,Conductor*%
G36*
X96260851Y-79176240D02*
G01*
X96261356Y-79176204D01*
X96261697Y-79176304D01*
X96261866Y-79176317D01*
X96270270Y-79178182D01*
X96318017Y-79195991D01*
X96377627Y-79202400D01*
X96379390Y-79202399D01*
X96387789Y-79204264D01*
X96412569Y-79217930D01*
X96438729Y-79228766D01*
X96442769Y-79234585D01*
X96448972Y-79238006D01*
X96462434Y-79262909D01*
X96478577Y-79286159D01*
X96478829Y-79293236D01*
X96482199Y-79299469D01*
X96480060Y-79327699D01*
X96481071Y-79355984D01*
X96477457Y-79362075D01*
X96476922Y-79369139D01*
X96448604Y-79412999D01*
X95531286Y-80330318D01*
X95419481Y-80442122D01*
X95419475Y-80442130D01*
X95372190Y-80524032D01*
X95372190Y-80524033D01*
X95340423Y-80579055D01*
X95299499Y-80731783D01*
X95299499Y-80731785D01*
X95299499Y-80899886D01*
X95299500Y-80899899D01*
X95299500Y-80994836D01*
X95279815Y-81061875D01*
X95227011Y-81107630D01*
X95157853Y-81117574D01*
X95094297Y-81088549D01*
X95087819Y-81082517D01*
X94680609Y-80675307D01*
X94680605Y-80675304D01*
X94569975Y-80601383D01*
X94569965Y-80601378D01*
X94447036Y-80550459D01*
X94447028Y-80550457D01*
X94316535Y-80524500D01*
X94316531Y-80524500D01*
X91309281Y-80524500D01*
X91303636Y-80522842D01*
X91297864Y-80523973D01*
X91270492Y-80513110D01*
X91242242Y-80504815D01*
X91238390Y-80500370D01*
X91232922Y-80498200D01*
X91215765Y-80474259D01*
X91196487Y-80452011D01*
X91195650Y-80446190D01*
X91192223Y-80441408D01*
X91190733Y-80411996D01*
X91186543Y-80382853D01*
X91188986Y-80377502D01*
X91188689Y-80371628D01*
X91203335Y-80346082D01*
X91215568Y-80319297D01*
X91221273Y-80314796D01*
X91223442Y-80311014D01*
X91238716Y-80301036D01*
X91252130Y-80290455D01*
X91256877Y-80287989D01*
X91257692Y-80287652D01*
X91338186Y-80254312D01*
X91389930Y-80219737D01*
X91440633Y-80185858D01*
X91527758Y-80098733D01*
X91527759Y-80098731D01*
X91534825Y-80091665D01*
X91534828Y-80091661D01*
X92188729Y-79437760D01*
X92188733Y-79437758D01*
X92275858Y-79350633D01*
X92344311Y-79248186D01*
X92344311Y-79248185D01*
X92347696Y-79243120D01*
X92348979Y-79243977D01*
X92392630Y-79199534D01*
X92460767Y-79184068D01*
X92496365Y-79191645D01*
X92508017Y-79195991D01*
X92567627Y-79202400D01*
X93552372Y-79202399D01*
X93611983Y-79195991D01*
X93651665Y-79181189D01*
X93721356Y-79176204D01*
X93738322Y-79181185D01*
X93778017Y-79195991D01*
X93837627Y-79202400D01*
X94822372Y-79202399D01*
X94881983Y-79195991D01*
X94921665Y-79181189D01*
X94991356Y-79176204D01*
X95008322Y-79181185D01*
X95048017Y-79195991D01*
X95107627Y-79202400D01*
X96092372Y-79202399D01*
X96151983Y-79195991D01*
X96191665Y-79181189D01*
X96209703Y-79179899D01*
X96226673Y-79173651D01*
X96260851Y-79176240D01*
G37*
%TD.AperFunction*%
%TA.AperFunction,Conductor*%
G36*
X95482587Y-53221185D02*
G01*
X95503229Y-53237819D01*
X100788681Y-58523271D01*
X100822166Y-58584594D01*
X100825000Y-58610952D01*
X100825000Y-80006547D01*
X100805315Y-80073586D01*
X100752511Y-80119341D01*
X100683353Y-80129285D01*
X100635904Y-80112086D01*
X100519340Y-80040189D01*
X100519335Y-80040187D01*
X100519334Y-80040186D01*
X100352797Y-79985001D01*
X100352795Y-79985000D01*
X100250016Y-79974500D01*
X100250009Y-79974500D01*
X100234500Y-79974500D01*
X100167461Y-79954815D01*
X100121706Y-79902011D01*
X100110500Y-79850500D01*
X100110500Y-79325900D01*
X100130185Y-79258861D01*
X100182989Y-79213106D01*
X100234500Y-79201900D01*
X100430000Y-79201900D01*
X100430000Y-76703300D01*
X100187655Y-76703300D01*
X100128125Y-76709701D01*
X100089045Y-76724277D01*
X100019353Y-76729260D01*
X100002382Y-76724276D01*
X99961985Y-76709209D01*
X99961983Y-76709208D01*
X99902383Y-76702801D01*
X99902381Y-76702800D01*
X99902373Y-76702800D01*
X99902364Y-76702800D01*
X98917629Y-76702800D01*
X98917623Y-76702801D01*
X98858017Y-76709208D01*
X98818331Y-76724010D01*
X98748639Y-76728993D01*
X98731669Y-76724010D01*
X98691981Y-76709208D01*
X98691983Y-76709208D01*
X98632383Y-76702801D01*
X98632381Y-76702800D01*
X98632373Y-76702800D01*
X98632364Y-76702800D01*
X97647629Y-76702800D01*
X97647623Y-76702801D01*
X97588017Y-76709208D01*
X97548331Y-76724010D01*
X97478639Y-76728993D01*
X97461669Y-76724010D01*
X97421981Y-76709208D01*
X97421983Y-76709208D01*
X97362383Y-76702801D01*
X97362381Y-76702800D01*
X97362373Y-76702800D01*
X97362364Y-76702800D01*
X96377629Y-76702800D01*
X96377623Y-76702801D01*
X96318017Y-76709208D01*
X96278331Y-76724010D01*
X96208639Y-76728993D01*
X96191669Y-76724010D01*
X96151981Y-76709208D01*
X96151983Y-76709208D01*
X96092383Y-76702801D01*
X96092381Y-76702800D01*
X96092373Y-76702800D01*
X96092364Y-76702800D01*
X95107629Y-76702800D01*
X95107623Y-76702801D01*
X95048017Y-76709208D01*
X95008331Y-76724010D01*
X94938639Y-76728993D01*
X94921669Y-76724010D01*
X94881981Y-76709208D01*
X94881983Y-76709208D01*
X94822383Y-76702801D01*
X94822381Y-76702800D01*
X94822373Y-76702800D01*
X94822365Y-76702800D01*
X94381151Y-76702800D01*
X94359905Y-76696561D01*
X94337818Y-76694982D01*
X94327034Y-76686909D01*
X94314112Y-76683115D01*
X94299613Y-76666383D01*
X94281884Y-76653111D01*
X94277176Y-76640488D01*
X94268357Y-76630311D01*
X94265205Y-76608395D01*
X94257467Y-76587647D01*
X94260330Y-76574485D01*
X94258413Y-76561153D01*
X94267612Y-76541008D01*
X94272319Y-76519374D01*
X94285588Y-76501646D01*
X94287438Y-76497597D01*
X94293455Y-76491133D01*
X94408798Y-76375790D01*
X94470117Y-76342308D01*
X94472126Y-76341889D01*
X94583497Y-76319737D01*
X94729179Y-76259394D01*
X94860289Y-76171789D01*
X94971789Y-76060289D01*
X95059394Y-75929179D01*
X95119737Y-75783497D01*
X95150500Y-75628842D01*
X95150500Y-75471158D01*
X95150500Y-75471155D01*
X95150499Y-75471153D01*
X95138270Y-75409676D01*
X95119737Y-75316503D01*
X95119735Y-75316498D01*
X95059397Y-75170827D01*
X95059390Y-75170814D01*
X94971789Y-75039711D01*
X94971786Y-75039707D01*
X94860292Y-74928213D01*
X94860288Y-74928210D01*
X94729185Y-74840609D01*
X94729172Y-74840602D01*
X94583501Y-74780264D01*
X94583489Y-74780261D01*
X94428845Y-74749500D01*
X94428842Y-74749500D01*
X94271158Y-74749500D01*
X94271155Y-74749500D01*
X94116510Y-74780261D01*
X94116498Y-74780264D01*
X93970827Y-74840602D01*
X93970814Y-74840609D01*
X93839711Y-74928210D01*
X93839707Y-74928213D01*
X93728213Y-75039707D01*
X93728210Y-75039711D01*
X93640609Y-75170814D01*
X93640602Y-75170827D01*
X93580264Y-75316498D01*
X93580261Y-75316508D01*
X93558141Y-75427714D01*
X93549376Y-75444469D01*
X93545357Y-75462948D01*
X93526611Y-75487989D01*
X93525756Y-75489625D01*
X93524206Y-75491203D01*
X93434241Y-75581167D01*
X93372920Y-75614652D01*
X93303228Y-75609668D01*
X93247294Y-75567797D01*
X93224944Y-75517678D01*
X93219738Y-75491508D01*
X93219737Y-75491507D01*
X93219737Y-75491503D01*
X93218959Y-75489625D01*
X93159397Y-75345828D01*
X93159396Y-75345827D01*
X93159394Y-75345821D01*
X93096397Y-75251539D01*
X93075520Y-75184863D01*
X93075500Y-75182650D01*
X93075500Y-74592350D01*
X93095185Y-74525311D01*
X93096398Y-74523459D01*
X93142318Y-74454735D01*
X93159394Y-74429179D01*
X93219737Y-74283497D01*
X93250500Y-74128842D01*
X93250500Y-73971158D01*
X93250500Y-73971155D01*
X93250499Y-73971153D01*
X93240553Y-73921153D01*
X93219737Y-73816503D01*
X93202482Y-73774845D01*
X93159397Y-73670827D01*
X93159390Y-73670814D01*
X93071789Y-73539711D01*
X93071786Y-73539707D01*
X92960292Y-73428213D01*
X92960288Y-73428210D01*
X92829185Y-73340609D01*
X92829172Y-73340602D01*
X92697447Y-73286041D01*
X92643043Y-73242201D01*
X92620978Y-73175906D01*
X92638257Y-73108207D01*
X92689394Y-73060596D01*
X92697106Y-73058773D01*
X92708400Y-73047480D01*
X93208400Y-73047480D01*
X93450728Y-73047480D01*
X93450744Y-73047479D01*
X93510272Y-73041078D01*
X93510283Y-73041075D01*
X93614836Y-73002079D01*
X93684527Y-72997094D01*
X93701504Y-73002079D01*
X93806056Y-73041075D01*
X93806067Y-73041078D01*
X93865595Y-73047479D01*
X93865612Y-73047480D01*
X94107940Y-73047480D01*
X94607940Y-73047480D01*
X94850268Y-73047480D01*
X94850284Y-73047479D01*
X94909812Y-73041078D01*
X94909819Y-73041076D01*
X95044526Y-72990834D01*
X95044533Y-72990830D01*
X95159627Y-72904670D01*
X95159630Y-72904667D01*
X95245790Y-72789573D01*
X95245794Y-72789566D01*
X95296036Y-72654859D01*
X95296038Y-72654852D01*
X95302439Y-72595324D01*
X95302440Y-72595307D01*
X95302440Y-72352980D01*
X94607940Y-72352980D01*
X94607940Y-73047480D01*
X94107940Y-73047480D01*
X94107940Y-72352980D01*
X93208400Y-72352980D01*
X93208400Y-73047480D01*
X92708400Y-73047480D01*
X92708400Y-72352980D01*
X91682860Y-72352980D01*
X91615821Y-72333295D01*
X91570066Y-72280491D01*
X91558860Y-72228980D01*
X91558860Y-72102980D01*
X91432860Y-72102980D01*
X91365821Y-72083295D01*
X91320066Y-72030491D01*
X91308860Y-71978980D01*
X91308860Y-71852980D01*
X91808860Y-71852980D01*
X92708400Y-71852980D01*
X93208400Y-71852980D01*
X94107940Y-71852980D01*
X94607940Y-71852980D01*
X95302440Y-71852980D01*
X95302440Y-71610652D01*
X95302439Y-71610635D01*
X95296038Y-71551107D01*
X95296035Y-71551096D01*
X95257039Y-71446544D01*
X95252054Y-71376853D01*
X95257039Y-71359876D01*
X95296035Y-71255323D01*
X95296038Y-71255312D01*
X95302439Y-71195784D01*
X95302440Y-71195767D01*
X95302440Y-70953440D01*
X94607940Y-70953440D01*
X94607940Y-71852980D01*
X94107940Y-71852980D01*
X94107940Y-70953440D01*
X93208400Y-70953440D01*
X93208400Y-71852980D01*
X92708400Y-71852980D01*
X92708400Y-70953440D01*
X91808860Y-70953440D01*
X91808860Y-71852980D01*
X91308860Y-71852980D01*
X91308860Y-71446143D01*
X91314188Y-71427997D01*
X91314526Y-71409088D01*
X91328025Y-71380873D01*
X91328545Y-71379104D01*
X91329759Y-71377250D01*
X91330025Y-71376853D01*
X91334106Y-71370745D01*
X91342672Y-71357926D01*
X91389823Y-71244091D01*
X91389920Y-71243606D01*
X91413860Y-71123246D01*
X91413860Y-70453440D01*
X91808860Y-70453440D01*
X92708400Y-70453440D01*
X93208400Y-70453440D01*
X94107940Y-70453440D01*
X94607940Y-70453440D01*
X95302440Y-70453440D01*
X95302440Y-70211112D01*
X95302439Y-70211095D01*
X95296038Y-70151567D01*
X95296035Y-70151556D01*
X95257039Y-70047004D01*
X95252054Y-69977313D01*
X95257039Y-69960336D01*
X95296035Y-69855783D01*
X95296038Y-69855772D01*
X95302439Y-69796244D01*
X95302440Y-69796227D01*
X95302440Y-69553900D01*
X94607940Y-69553900D01*
X94607940Y-70453440D01*
X94107940Y-70453440D01*
X94107940Y-69553900D01*
X93208400Y-69553900D01*
X93208400Y-70453440D01*
X92708400Y-70453440D01*
X92708400Y-69553900D01*
X91808860Y-69553900D01*
X91808860Y-70453440D01*
X91413860Y-70453440D01*
X91413860Y-69427900D01*
X91433545Y-69360861D01*
X91486349Y-69315106D01*
X91537860Y-69303900D01*
X91558860Y-69303900D01*
X91558860Y-69282900D01*
X91578545Y-69215861D01*
X91631349Y-69170106D01*
X91682860Y-69158900D01*
X93378207Y-69158900D01*
X93438629Y-69146881D01*
X93499052Y-69134863D01*
X93536665Y-69119283D01*
X93612886Y-69087712D01*
X93632211Y-69074798D01*
X93698888Y-69053920D01*
X93701103Y-69053900D01*
X95302440Y-69053900D01*
X95302440Y-68811572D01*
X95302439Y-68811555D01*
X95296038Y-68752027D01*
X95296036Y-68752020D01*
X95245794Y-68617313D01*
X95245790Y-68617306D01*
X95159630Y-68502212D01*
X95159627Y-68502209D01*
X95044533Y-68416049D01*
X95044526Y-68416045D01*
X94909819Y-68365803D01*
X94909812Y-68365801D01*
X94850284Y-68359400D01*
X94674551Y-68359400D01*
X94607512Y-68339715D01*
X94561757Y-68286911D01*
X94551813Y-68217753D01*
X94580838Y-68154197D01*
X94586870Y-68147719D01*
X97184090Y-65550499D01*
X99808729Y-62925860D01*
X99808733Y-62925858D01*
X99895858Y-62838733D01*
X99964311Y-62736286D01*
X99964312Y-62736285D01*
X100011463Y-62622451D01*
X100018238Y-62588393D01*
X100027406Y-62542300D01*
X100035500Y-62501607D01*
X100035500Y-62378393D01*
X100035500Y-61822986D01*
X100055185Y-61755947D01*
X100107989Y-61710192D01*
X100172757Y-61699697D01*
X100187658Y-61701299D01*
X100187672Y-61701300D01*
X100430000Y-61701300D01*
X100430000Y-59202700D01*
X100187655Y-59202700D01*
X100128125Y-59209101D01*
X100089045Y-59223677D01*
X100019353Y-59228660D01*
X100002382Y-59223676D01*
X99961985Y-59208609D01*
X99961983Y-59208608D01*
X99902383Y-59202201D01*
X99902381Y-59202200D01*
X99902373Y-59202200D01*
X99902364Y-59202200D01*
X98917629Y-59202200D01*
X98917623Y-59202201D01*
X98858017Y-59208608D01*
X98818331Y-59223410D01*
X98748639Y-59228393D01*
X98731669Y-59223410D01*
X98691981Y-59208608D01*
X98691983Y-59208608D01*
X98632383Y-59202201D01*
X98632381Y-59202200D01*
X98632373Y-59202200D01*
X98632364Y-59202200D01*
X97647629Y-59202200D01*
X97647623Y-59202201D01*
X97588017Y-59208608D01*
X97548331Y-59223410D01*
X97478639Y-59228393D01*
X97461669Y-59223410D01*
X97421981Y-59208608D01*
X97421983Y-59208608D01*
X97362383Y-59202201D01*
X97362381Y-59202200D01*
X97362373Y-59202200D01*
X97362365Y-59202200D01*
X97131952Y-59202200D01*
X97064913Y-59182515D01*
X97044271Y-59165881D01*
X95727619Y-57849229D01*
X95694134Y-57787906D01*
X95691300Y-57761548D01*
X95691300Y-56894425D01*
X95691301Y-56894404D01*
X95691301Y-56765075D01*
X95667264Y-56644238D01*
X95667263Y-56644237D01*
X95667263Y-56644233D01*
X95650666Y-56604165D01*
X95640557Y-56579759D01*
X95640557Y-56579758D01*
X95630334Y-56555078D01*
X95620112Y-56530399D01*
X95551658Y-56427951D01*
X95551655Y-56427947D01*
X94758821Y-55635114D01*
X94725336Y-55573791D01*
X94730320Y-55504100D01*
X94747230Y-55473131D01*
X94765796Y-55448331D01*
X94816091Y-55313483D01*
X94822500Y-55253873D01*
X94822499Y-53458128D01*
X94816091Y-53398517D01*
X94813364Y-53391205D01*
X94805020Y-53368832D01*
X94800036Y-53299141D01*
X94833522Y-53237818D01*
X94894845Y-53204334D01*
X94921202Y-53201500D01*
X95415548Y-53201500D01*
X95482587Y-53221185D01*
G37*
%TD.AperFunction*%
%TA.AperFunction,Conductor*%
G36*
X76319812Y-60729869D02*
G01*
X76391757Y-60753246D01*
X76601713Y-60786500D01*
X76601714Y-60786500D01*
X76814286Y-60786500D01*
X76814287Y-60786500D01*
X77024243Y-60753246D01*
X77096183Y-60729870D01*
X77166023Y-60727876D01*
X77225856Y-60763956D01*
X77256684Y-60826657D01*
X77258500Y-60847802D01*
X77258500Y-61445611D01*
X77282535Y-61566444D01*
X77282540Y-61566461D01*
X77329685Y-61680280D01*
X77329687Y-61680283D01*
X77329688Y-61680286D01*
X77363915Y-61731509D01*
X77398142Y-61782733D01*
X77485267Y-61869858D01*
X77485269Y-61869859D01*
X77495232Y-61879822D01*
X78588181Y-62972771D01*
X78621666Y-63034094D01*
X78624500Y-63060452D01*
X78624500Y-72811610D01*
X78648535Y-72932443D01*
X78648540Y-72932460D01*
X78695686Y-73046283D01*
X78695689Y-73046288D01*
X78707608Y-73064123D01*
X78707610Y-73064132D01*
X78707613Y-73064131D01*
X78764140Y-73148730D01*
X78764141Y-73148731D01*
X78764142Y-73148732D01*
X78851267Y-73235857D01*
X78851268Y-73235857D01*
X78858335Y-73242924D01*
X78858334Y-73242924D01*
X78858338Y-73242927D01*
X79922098Y-74306688D01*
X79931160Y-74323285D01*
X79944292Y-74336894D01*
X79954697Y-74366388D01*
X79955583Y-74368011D01*
X79956034Y-74370178D01*
X79963507Y-74407747D01*
X79957280Y-74477338D01*
X79914417Y-74532516D01*
X79848527Y-74555760D01*
X79780530Y-74539692D01*
X79754209Y-74519619D01*
X76193819Y-70959229D01*
X76160334Y-70897906D01*
X76157500Y-70871548D01*
X76157500Y-60847802D01*
X76177185Y-60780763D01*
X76229989Y-60735008D01*
X76299147Y-60725064D01*
X76319812Y-60729869D01*
G37*
%TD.AperFunction*%
%TA.AperFunction,Conductor*%
G36*
X80803703Y-56796739D02*
G01*
X80810173Y-56802764D01*
X80830823Y-56823413D01*
X81032515Y-57025105D01*
X81066000Y-57086428D01*
X81068834Y-57112786D01*
X81068834Y-73344454D01*
X81062898Y-73364667D01*
X81061771Y-73385707D01*
X81053251Y-73397521D01*
X81049149Y-73411493D01*
X81033228Y-73425288D01*
X81020904Y-73442379D01*
X81007350Y-73447711D01*
X80996345Y-73457248D01*
X80975490Y-73460246D01*
X80955886Y-73467960D01*
X80931089Y-73466630D01*
X80927187Y-73467192D01*
X80920643Y-73466071D01*
X80870179Y-73456033D01*
X80808268Y-73423648D01*
X80806689Y-73422097D01*
X79911819Y-72527227D01*
X79878334Y-72465904D01*
X79875500Y-72439546D01*
X79875500Y-62688393D01*
X79875499Y-62688389D01*
X79862990Y-62625500D01*
X79851463Y-62567548D01*
X79827746Y-62510289D01*
X79824149Y-62501605D01*
X79804315Y-62453721D01*
X79804308Y-62453708D01*
X79735858Y-62351267D01*
X79735855Y-62351263D01*
X78545819Y-61161227D01*
X78512334Y-61099904D01*
X78509500Y-61073546D01*
X78509500Y-60777205D01*
X78529185Y-60710166D01*
X78581989Y-60664411D01*
X78651147Y-60654467D01*
X78689796Y-60666721D01*
X78729780Y-60687094D01*
X78931870Y-60752757D01*
X79141754Y-60786000D01*
X79354246Y-60786000D01*
X79564127Y-60752757D01*
X79564130Y-60752757D01*
X79766217Y-60687095D01*
X79955554Y-60590622D01*
X80009716Y-60551270D01*
X80009717Y-60551270D01*
X79377409Y-59918962D01*
X79440993Y-59901925D01*
X79555007Y-59836099D01*
X79648099Y-59743007D01*
X79713925Y-59628993D01*
X79730962Y-59565408D01*
X80363270Y-60197717D01*
X80363270Y-60197716D01*
X80402622Y-60143554D01*
X80499095Y-59954217D01*
X80564757Y-59752130D01*
X80564757Y-59752127D01*
X80598000Y-59542246D01*
X80598000Y-59329753D01*
X80564757Y-59119872D01*
X80564757Y-59119869D01*
X80499095Y-58917782D01*
X80402624Y-58728449D01*
X80363270Y-58674282D01*
X80363269Y-58674282D01*
X79730962Y-59306590D01*
X79713925Y-59243007D01*
X79648099Y-59128993D01*
X79555007Y-59035901D01*
X79440993Y-58970075D01*
X79377407Y-58953036D01*
X80009716Y-58320728D01*
X79955547Y-58281373D01*
X79955547Y-58281372D01*
X79946500Y-58276763D01*
X79895706Y-58228788D01*
X79878912Y-58160966D01*
X79901451Y-58094832D01*
X79946508Y-58055793D01*
X79955816Y-58051051D01*
X80094215Y-57950499D01*
X80127786Y-57926109D01*
X80127788Y-57926106D01*
X80127792Y-57926104D01*
X80278104Y-57775792D01*
X80278106Y-57775788D01*
X80278109Y-57775786D01*
X80403048Y-57603820D01*
X80403047Y-57603820D01*
X80403051Y-57603816D01*
X80499557Y-57414412D01*
X80565246Y-57212243D01*
X80598500Y-57002287D01*
X80598500Y-56890452D01*
X80618185Y-56823413D01*
X80670989Y-56777658D01*
X80740147Y-56767714D01*
X80803703Y-56796739D01*
G37*
%TD.AperFunction*%
%TA.AperFunction,Conductor*%
G36*
X90538377Y-64155827D02*
G01*
X90557287Y-64156165D01*
X90585504Y-64169665D01*
X90587273Y-64170185D01*
X90589125Y-64171398D01*
X90720814Y-64259390D01*
X90720827Y-64259397D01*
X90866498Y-64319735D01*
X90866503Y-64319737D01*
X91021153Y-64350499D01*
X91021156Y-64350500D01*
X91021158Y-64350500D01*
X91040500Y-64350500D01*
X91049185Y-64353050D01*
X91058147Y-64351762D01*
X91082187Y-64362740D01*
X91107539Y-64370185D01*
X91113466Y-64377025D01*
X91121703Y-64380787D01*
X91135992Y-64403021D01*
X91153294Y-64422989D01*
X91155581Y-64433503D01*
X91159477Y-64439565D01*
X91164500Y-64474500D01*
X91164500Y-64564250D01*
X91144815Y-64631289D01*
X91128181Y-64651931D01*
X84833618Y-70946494D01*
X84503415Y-71276695D01*
X84503405Y-71276705D01*
X84501270Y-71278841D01*
X84501267Y-71278844D01*
X84414142Y-71365969D01*
X84390861Y-71400811D01*
X84384704Y-71407601D01*
X84362397Y-71421234D01*
X84342339Y-71437998D01*
X84333064Y-71439162D01*
X84325088Y-71444038D01*
X84298949Y-71443447D01*
X84273014Y-71446705D01*
X84264582Y-71442671D01*
X84255236Y-71442460D01*
X84233567Y-71427832D01*
X84209986Y-71416550D01*
X84205073Y-71408596D01*
X84197326Y-71403367D01*
X84187006Y-71379349D01*
X84173267Y-71357107D01*
X84171357Y-71342926D01*
X84169744Y-71339172D01*
X84170357Y-71335499D01*
X84168849Y-71324307D01*
X84168849Y-70614928D01*
X84162441Y-70555317D01*
X84147640Y-70515634D01*
X84142655Y-70445942D01*
X84147637Y-70428971D01*
X84162441Y-70389283D01*
X84168850Y-70329673D01*
X84168849Y-69344928D01*
X84162441Y-69285317D01*
X84161539Y-69282900D01*
X84147640Y-69245634D01*
X84142655Y-69175942D01*
X84147637Y-69158971D01*
X84162441Y-69119283D01*
X84168850Y-69059673D01*
X84168849Y-68074928D01*
X84162441Y-68015317D01*
X84147640Y-67975634D01*
X84142655Y-67905942D01*
X84147637Y-67888971D01*
X84162441Y-67849283D01*
X84168850Y-67789673D01*
X84168849Y-66804928D01*
X84162441Y-66745317D01*
X84147640Y-66705634D01*
X84142655Y-66635942D01*
X84147637Y-66618971D01*
X84162441Y-66579283D01*
X84168850Y-66519673D01*
X84168849Y-65534928D01*
X84167250Y-65520053D01*
X84179656Y-65451295D01*
X84227267Y-65400158D01*
X84290540Y-65382800D01*
X85281093Y-65382800D01*
X85318575Y-65382800D01*
X85385614Y-65402485D01*
X85387466Y-65403698D01*
X85470821Y-65459394D01*
X85470823Y-65459395D01*
X85470827Y-65459397D01*
X85616498Y-65519735D01*
X85616503Y-65519737D01*
X85771153Y-65550499D01*
X85771156Y-65550500D01*
X85771158Y-65550500D01*
X85928844Y-65550500D01*
X85928845Y-65550499D01*
X86083497Y-65519737D01*
X86229179Y-65459394D01*
X86360289Y-65371789D01*
X86471789Y-65260289D01*
X86559394Y-65129179D01*
X86619737Y-64983497D01*
X86639113Y-64886085D01*
X86650638Y-64828150D01*
X86683023Y-64766239D01*
X86684518Y-64764716D01*
X87262416Y-64186819D01*
X87323739Y-64153334D01*
X87350097Y-64150500D01*
X90520234Y-64150500D01*
X90538377Y-64155827D01*
G37*
%TD.AperFunction*%
%TA.AperFunction,Conductor*%
G36*
X98703834Y-61874570D02*
G01*
X98759767Y-61916442D01*
X98784184Y-61981906D01*
X98784500Y-61990752D01*
X98784500Y-62129548D01*
X98764815Y-62196587D01*
X98748181Y-62217229D01*
X93093829Y-67871581D01*
X93032506Y-67905066D01*
X93006148Y-67907900D01*
X92867352Y-67907900D01*
X92800313Y-67888215D01*
X92754558Y-67835411D01*
X92744614Y-67766253D01*
X92773639Y-67702697D01*
X92779671Y-67696219D01*
X95492401Y-64983489D01*
X98572821Y-61903069D01*
X98634142Y-61869586D01*
X98703834Y-61874570D01*
G37*
%TD.AperFunction*%
%TA.AperFunction,Conductor*%
G36*
X96278322Y-61680585D02*
G01*
X96318017Y-61695391D01*
X96377627Y-61701800D01*
X96705547Y-61701799D01*
X96772585Y-61721483D01*
X96818340Y-61774287D01*
X96828284Y-61843446D01*
X96799259Y-61907001D01*
X96793227Y-61913480D01*
X95167181Y-63539527D01*
X95105858Y-63573012D01*
X95036166Y-63568028D01*
X94980233Y-63526156D01*
X94955816Y-63460692D01*
X94955500Y-63451846D01*
X94955500Y-61823490D01*
X94975185Y-61756451D01*
X95027989Y-61710696D01*
X95092755Y-61700201D01*
X95107627Y-61701800D01*
X96092372Y-61701799D01*
X96151983Y-61695391D01*
X96191665Y-61680589D01*
X96261356Y-61675604D01*
X96278322Y-61680585D01*
G37*
%TD.AperFunction*%
%TA.AperFunction,Conductor*%
G36*
X87187478Y-53449625D02*
G01*
X87243411Y-53491497D01*
X87267828Y-53556961D01*
X87252976Y-53625234D01*
X87244466Y-53638688D01*
X87237377Y-53648445D01*
X87140904Y-53837782D01*
X87075242Y-54039869D01*
X87075242Y-54039872D01*
X87042000Y-54249753D01*
X87042000Y-54462246D01*
X87075242Y-54672127D01*
X87075242Y-54672130D01*
X87140904Y-54874217D01*
X87237375Y-55063550D01*
X87276728Y-55117716D01*
X87909037Y-54485408D01*
X87926075Y-54548993D01*
X87991901Y-54663007D01*
X88084993Y-54756099D01*
X88199007Y-54821925D01*
X88262590Y-54838962D01*
X87630282Y-55471269D01*
X87630282Y-55471270D01*
X87684452Y-55510626D01*
X87684451Y-55510626D01*
X87693495Y-55515234D01*
X87744292Y-55563208D01*
X87761087Y-55631029D01*
X87738550Y-55697164D01*
X87693499Y-55736202D01*
X87684182Y-55740949D01*
X87512213Y-55865890D01*
X87361890Y-56016213D01*
X87236951Y-56188179D01*
X87140444Y-56377585D01*
X87140443Y-56377587D01*
X87140443Y-56377588D01*
X87074754Y-56579757D01*
X87068399Y-56619882D01*
X87041500Y-56789713D01*
X87041500Y-57002286D01*
X87074753Y-57212239D01*
X87140444Y-57414414D01*
X87236951Y-57603820D01*
X87361890Y-57775786D01*
X87512213Y-57926109D01*
X87684179Y-58051048D01*
X87684181Y-58051049D01*
X87684184Y-58051051D01*
X87873588Y-58147557D01*
X88075757Y-58213246D01*
X88285713Y-58246500D01*
X88285714Y-58246500D01*
X88498286Y-58246500D01*
X88498287Y-58246500D01*
X88708243Y-58213246D01*
X88910412Y-58147557D01*
X89099816Y-58051051D01*
X89238214Y-57950500D01*
X89271786Y-57926109D01*
X89271788Y-57926106D01*
X89271792Y-57926104D01*
X89422104Y-57775792D01*
X89422106Y-57775788D01*
X89422109Y-57775786D01*
X89547048Y-57603820D01*
X89547047Y-57603820D01*
X89547051Y-57603816D01*
X89551514Y-57595054D01*
X89599488Y-57544259D01*
X89667308Y-57527463D01*
X89733444Y-57549999D01*
X89772486Y-57595056D01*
X89776951Y-57603820D01*
X89901890Y-57775786D01*
X90052213Y-57926109D01*
X90224179Y-58051048D01*
X90224181Y-58051049D01*
X90224184Y-58051051D01*
X90413588Y-58147557D01*
X90615757Y-58213246D01*
X90825713Y-58246500D01*
X90825714Y-58246500D01*
X91038286Y-58246500D01*
X91038287Y-58246500D01*
X91248243Y-58213246D01*
X91263840Y-58208177D01*
X91333679Y-58206183D01*
X91389838Y-58238428D01*
X92000139Y-58848729D01*
X92000142Y-58848733D01*
X92087267Y-58935858D01*
X92152361Y-58979352D01*
X92158158Y-58984360D01*
X92173107Y-59007541D01*
X92190798Y-59028710D01*
X92191775Y-59036490D01*
X92196024Y-59043079D01*
X92196067Y-59070665D01*
X92199505Y-59098035D01*
X92196121Y-59105106D01*
X92196134Y-59112949D01*
X92181253Y-59136182D01*
X92169350Y-59161063D01*
X92162679Y-59165183D01*
X92158451Y-59171786D01*
X92133376Y-59183284D01*
X92109907Y-59197782D01*
X92098375Y-59199334D01*
X92094941Y-59200910D01*
X92090922Y-59200338D01*
X92077102Y-59202200D01*
X91297629Y-59202200D01*
X91297623Y-59202201D01*
X91238017Y-59208608D01*
X91198331Y-59223410D01*
X91128639Y-59228393D01*
X91111669Y-59223410D01*
X91071981Y-59208608D01*
X91071983Y-59208608D01*
X91012383Y-59202201D01*
X91012381Y-59202200D01*
X91012373Y-59202200D01*
X91012365Y-59202200D01*
X90838152Y-59202200D01*
X90808711Y-59193555D01*
X90778725Y-59187032D01*
X90773709Y-59183277D01*
X90771113Y-59182515D01*
X90750471Y-59165881D01*
X90575793Y-58991203D01*
X90542308Y-58929880D01*
X90541887Y-58927864D01*
X90519737Y-58816503D01*
X90460828Y-58674282D01*
X90459397Y-58670827D01*
X90459390Y-58670814D01*
X90371789Y-58539711D01*
X90371786Y-58539707D01*
X90260292Y-58428213D01*
X90260288Y-58428210D01*
X90129185Y-58340609D01*
X90129172Y-58340602D01*
X89983501Y-58280264D01*
X89983489Y-58280261D01*
X89828845Y-58249500D01*
X89828842Y-58249500D01*
X89671158Y-58249500D01*
X89671155Y-58249500D01*
X89516510Y-58280261D01*
X89516498Y-58280264D01*
X89370827Y-58340602D01*
X89370814Y-58340609D01*
X89239711Y-58428210D01*
X89239707Y-58428213D01*
X89128213Y-58539707D01*
X89128210Y-58539711D01*
X89040609Y-58670814D01*
X89040602Y-58670827D01*
X88980264Y-58816498D01*
X88980261Y-58816510D01*
X88949500Y-58971153D01*
X88949500Y-59078200D01*
X88949395Y-59078556D01*
X88949498Y-59078915D01*
X88939548Y-59112092D01*
X88929815Y-59145239D01*
X88929534Y-59145482D01*
X88929427Y-59145840D01*
X88903057Y-59168424D01*
X88877011Y-59190994D01*
X88876548Y-59191128D01*
X88876360Y-59191290D01*
X88874953Y-59191591D01*
X88842439Y-59201038D01*
X88834007Y-59202200D01*
X88757628Y-59202201D01*
X88698017Y-59208609D01*
X88645505Y-59228194D01*
X88631939Y-59230065D01*
X88610382Y-59226838D01*
X88588639Y-59228393D01*
X88571669Y-59223410D01*
X88531981Y-59208608D01*
X88531983Y-59208608D01*
X88472383Y-59202201D01*
X88472381Y-59202200D01*
X88472373Y-59202200D01*
X88472364Y-59202200D01*
X87487629Y-59202200D01*
X87487623Y-59202201D01*
X87428017Y-59208608D01*
X87388331Y-59223410D01*
X87318639Y-59228393D01*
X87301669Y-59223410D01*
X87261981Y-59208608D01*
X87261983Y-59208608D01*
X87202383Y-59202201D01*
X87202381Y-59202200D01*
X87202373Y-59202200D01*
X87202364Y-59202200D01*
X86217629Y-59202200D01*
X86217623Y-59202201D01*
X86158017Y-59208608D01*
X86118331Y-59223410D01*
X86048639Y-59228393D01*
X86031669Y-59223410D01*
X85991981Y-59208608D01*
X85991983Y-59208608D01*
X85932383Y-59202201D01*
X85932381Y-59202200D01*
X85932373Y-59202200D01*
X85932364Y-59202200D01*
X84947629Y-59202200D01*
X84947608Y-59202202D01*
X84932747Y-59203799D01*
X84863989Y-59191390D01*
X84812854Y-59143776D01*
X84795500Y-59080509D01*
X84795500Y-55790452D01*
X84815185Y-55723413D01*
X84831819Y-55702771D01*
X85888450Y-54646140D01*
X87056465Y-53478124D01*
X87117786Y-53444641D01*
X87187478Y-53449625D01*
G37*
%TD.AperFunction*%
%TA.AperFunction,Conductor*%
G36*
X101792539Y-52670185D02*
G01*
X101838294Y-52722989D01*
X101849500Y-52774500D01*
X101849500Y-57515547D01*
X101829815Y-57582586D01*
X101777011Y-57628341D01*
X101707853Y-57638285D01*
X101644297Y-57609260D01*
X101637819Y-57603228D01*
X96896771Y-52862181D01*
X96863286Y-52800858D01*
X96868270Y-52731166D01*
X96910142Y-52675233D01*
X96975606Y-52650816D01*
X96984452Y-52650500D01*
X101725500Y-52650500D01*
X101792539Y-52670185D01*
G37*
%TD.AperFunction*%
%TA.AperFunction,Conductor*%
G36*
X89507270Y-55117717D02*
G01*
X89507270Y-55117716D01*
X89546622Y-55063555D01*
X89551232Y-55054507D01*
X89599205Y-55003709D01*
X89667025Y-54986912D01*
X89733161Y-55009447D01*
X89772204Y-55054504D01*
X89776949Y-55063817D01*
X89901890Y-55235786D01*
X90052213Y-55386109D01*
X90224182Y-55511050D01*
X90232946Y-55515516D01*
X90283742Y-55563491D01*
X90300536Y-55631312D01*
X90277998Y-55697447D01*
X90232946Y-55736484D01*
X90224182Y-55740949D01*
X90052213Y-55865890D01*
X89901890Y-56016213D01*
X89776949Y-56188182D01*
X89772484Y-56196946D01*
X89724509Y-56247742D01*
X89656688Y-56264536D01*
X89590553Y-56241998D01*
X89551516Y-56196946D01*
X89547050Y-56188182D01*
X89422109Y-56016213D01*
X89271786Y-55865890D01*
X89099817Y-55740949D01*
X89090504Y-55736204D01*
X89039707Y-55688230D01*
X89022912Y-55620409D01*
X89045449Y-55554274D01*
X89090507Y-55515232D01*
X89099555Y-55510622D01*
X89153716Y-55471270D01*
X89153717Y-55471270D01*
X88521408Y-54838962D01*
X88584993Y-54821925D01*
X88699007Y-54756099D01*
X88792099Y-54663007D01*
X88857925Y-54548993D01*
X88874962Y-54485408D01*
X89507270Y-55117717D01*
G37*
%TD.AperFunction*%
%TA.AperFunction,Conductor*%
G36*
X89944281Y-53221185D02*
G01*
X89990036Y-53273989D01*
X89999980Y-53343147D01*
X89970955Y-53406703D01*
X89964923Y-53413181D01*
X89901894Y-53476209D01*
X89901890Y-53476213D01*
X89776949Y-53648182D01*
X89772202Y-53657499D01*
X89724227Y-53708293D01*
X89656405Y-53725087D01*
X89590271Y-53702548D01*
X89551234Y-53657495D01*
X89546626Y-53648452D01*
X89507270Y-53594282D01*
X89507269Y-53594282D01*
X88874962Y-54226590D01*
X88857925Y-54163007D01*
X88792099Y-54048993D01*
X88699007Y-53955901D01*
X88584993Y-53890075D01*
X88521408Y-53873037D01*
X89156626Y-53237819D01*
X89217949Y-53204334D01*
X89244307Y-53201500D01*
X89877242Y-53201500D01*
X89944281Y-53221185D01*
G37*
%TD.AperFunction*%
%TD*%
M02*
