%TF.GenerationSoftware,KiCad,Pcbnew,9.0.2*%
%TF.CreationDate,2026-02-18T14:35:08-06:00*%
%TF.ProjectId,EE326 Webcam,45453332-3620-4576-9562-63616d2e6b69,rev?*%
%TF.SameCoordinates,Original*%
%TF.FileFunction,Soldermask,Top*%
%TF.FilePolarity,Negative*%
%FSLAX46Y46*%
G04 Gerber Fmt 4.6, Leading zero omitted, Abs format (unit mm)*
G04 Created by KiCad (PCBNEW 9.0.2) date 2026-02-18 14:35:08*
%MOMM*%
%LPD*%
G01*
G04 APERTURE LIST*
G04 Aperture macros list*
%AMRoundRect*
0 Rectangle with rounded corners*
0 $1 Rounding radius*
0 $2 $3 $4 $5 $6 $7 $8 $9 X,Y pos of 4 corners*
0 Add a 4 corners polygon primitive as box body*
4,1,4,$2,$3,$4,$5,$6,$7,$8,$9,$2,$3,0*
0 Add four circle primitives for the rounded corners*
1,1,$1+$1,$2,$3*
1,1,$1+$1,$4,$5*
1,1,$1+$1,$6,$7*
1,1,$1+$1,$8,$9*
0 Add four rect primitives between the rounded corners*
20,1,$1+$1,$2,$3,$4,$5,0*
20,1,$1+$1,$4,$5,$6,$7,0*
20,1,$1+$1,$6,$7,$8,$9,0*
20,1,$1+$1,$8,$9,$2,$3,0*%
G04 Aperture macros list end*
%ADD10C,0.000000*%
%ADD11C,1.600000*%
%ADD12C,1.800000*%
%ADD13RoundRect,0.101600X-1.000000X1.200000X-1.000000X-1.200000X1.000000X-1.200000X1.000000X1.200000X0*%
%ADD14C,1.930400*%
%ADD15RoundRect,0.250000X-0.350000X-0.450000X0.350000X-0.450000X0.350000X0.450000X-0.350000X0.450000X0*%
%ADD16RoundRect,0.250000X0.450000X-0.350000X0.450000X0.350000X-0.450000X0.350000X-0.450000X-0.350000X0*%
%ADD17RoundRect,0.250000X-0.250000X-0.475000X0.250000X-0.475000X0.250000X0.475000X-0.250000X0.475000X0*%
%ADD18RoundRect,0.250000X0.250000X0.475000X-0.250000X0.475000X-0.250000X-0.475000X0.250000X-0.475000X0*%
%ADD19RoundRect,0.250000X0.350000X0.450000X-0.350000X0.450000X-0.350000X-0.450000X0.350000X-0.450000X0*%
%ADD20RoundRect,0.101600X-1.150000X-1.550000X1.150000X-1.550000X1.150000X1.550000X-1.150000X1.550000X0*%
%ADD21RoundRect,0.101600X1.150000X1.550000X-1.150000X1.550000X-1.150000X-1.550000X1.150000X-1.550000X0*%
%ADD22RoundRect,0.250000X0.475000X-0.250000X0.475000X0.250000X-0.475000X0.250000X-0.475000X-0.250000X0*%
%ADD23RoundRect,0.250000X-0.475000X0.250000X-0.475000X-0.250000X0.475000X-0.250000X0.475000X0.250000X0*%
%ADD24RoundRect,0.237500X-0.237500X0.287500X-0.237500X-0.287500X0.237500X-0.287500X0.237500X0.287500X0*%
%ADD25RoundRect,0.141750X-0.425250X0.950250X-0.425250X-0.950250X0.425250X-0.950250X0.425250X0.950250X0*%
%ADD26RoundRect,0.273000X-1.444000X0.819000X-1.444000X-0.819000X1.444000X-0.819000X1.444000X0.819000X0*%
%ADD27RoundRect,0.102000X-0.950000X-1.300000X0.950000X-1.300000X0.950000X1.300000X-0.950000X1.300000X0*%
%ADD28RoundRect,0.250000X-0.450000X0.350000X-0.450000X-0.350000X0.450000X-0.350000X0.450000X0.350000X0*%
%ADD29R,1.700000X1.700000*%
%ADD30C,1.700000*%
%ADD31RoundRect,0.059250X-0.777750X-0.177750X0.777750X-0.177750X0.777750X0.177750X-0.777750X0.177750X0*%
%ADD32RoundRect,0.059250X-0.177750X-0.777750X0.177750X-0.777750X0.177750X0.777750X-0.177750X0.777750X0*%
%ADD33RoundRect,0.218750X0.218750X0.381250X-0.218750X0.381250X-0.218750X-0.381250X0.218750X-0.381250X0*%
G04 APERTURE END LIST*
D10*
%TO.C,J2*%
G36*
X58650000Y-100050000D02*
G01*
X58250000Y-100050000D01*
X58250000Y-98650000D01*
X58650000Y-98650000D01*
X58650000Y-100050000D01*
G37*
G36*
X59150000Y-100050000D02*
G01*
X58750000Y-100050000D01*
X58750000Y-98650000D01*
X59150000Y-98650000D01*
X59150000Y-100050000D01*
G37*
G36*
X59650000Y-100050000D02*
G01*
X59250000Y-100050000D01*
X59250000Y-98650000D01*
X59650000Y-98650000D01*
X59650000Y-100050000D01*
G37*
G36*
X60150000Y-100050000D02*
G01*
X59750000Y-100050000D01*
X59750000Y-98650000D01*
X60150000Y-98650000D01*
X60150000Y-100050000D01*
G37*
G36*
X60650000Y-100050000D02*
G01*
X60250000Y-100050000D01*
X60250000Y-98650000D01*
X60650000Y-98650000D01*
X60650000Y-100050000D01*
G37*
G36*
X61150000Y-100050000D02*
G01*
X60750000Y-100050000D01*
X60750000Y-98650000D01*
X61150000Y-98650000D01*
X61150000Y-100050000D01*
G37*
G36*
X61650000Y-100050000D02*
G01*
X61250000Y-100050000D01*
X61250000Y-98650000D01*
X61650000Y-98650000D01*
X61650000Y-100050000D01*
G37*
G36*
X62150000Y-100050000D02*
G01*
X61750000Y-100050000D01*
X61750000Y-98650000D01*
X62150000Y-98650000D01*
X62150000Y-100050000D01*
G37*
G36*
X62650000Y-100050000D02*
G01*
X62250000Y-100050000D01*
X62250000Y-98650000D01*
X62650000Y-98650000D01*
X62650000Y-100050000D01*
G37*
G36*
X63150000Y-100050000D02*
G01*
X62750000Y-100050000D01*
X62750000Y-98650000D01*
X63150000Y-98650000D01*
X63150000Y-100050000D01*
G37*
G36*
X63650000Y-100050000D02*
G01*
X63250000Y-100050000D01*
X63250000Y-98650000D01*
X63650000Y-98650000D01*
X63650000Y-100050000D01*
G37*
G36*
X64150000Y-100050000D02*
G01*
X63750000Y-100050000D01*
X63750000Y-98650000D01*
X64150000Y-98650000D01*
X64150000Y-100050000D01*
G37*
G36*
X64650000Y-100050000D02*
G01*
X64250000Y-100050000D01*
X64250000Y-98650000D01*
X64650000Y-98650000D01*
X64650000Y-100050000D01*
G37*
G36*
X65150000Y-100050000D02*
G01*
X64750000Y-100050000D01*
X64750000Y-98650000D01*
X65150000Y-98650000D01*
X65150000Y-100050000D01*
G37*
G36*
X65650000Y-100050000D02*
G01*
X65250000Y-100050000D01*
X65250000Y-98650000D01*
X65650000Y-98650000D01*
X65650000Y-100050000D01*
G37*
G36*
X66150000Y-100050000D02*
G01*
X65750000Y-100050000D01*
X65750000Y-98650000D01*
X66150000Y-98650000D01*
X66150000Y-100050000D01*
G37*
G36*
X66650000Y-100050000D02*
G01*
X66250000Y-100050000D01*
X66250000Y-98650000D01*
X66650000Y-98650000D01*
X66650000Y-100050000D01*
G37*
G36*
X67150000Y-100050000D02*
G01*
X66750000Y-100050000D01*
X66750000Y-98650000D01*
X67150000Y-98650000D01*
X67150000Y-100050000D01*
G37*
G36*
X67650000Y-100050000D02*
G01*
X67250000Y-100050000D01*
X67250000Y-98650000D01*
X67650000Y-98650000D01*
X67650000Y-100050000D01*
G37*
G36*
X68150000Y-100050000D02*
G01*
X67750000Y-100050000D01*
X67750000Y-98650000D01*
X68150000Y-98650000D01*
X68150000Y-100050000D01*
G37*
G36*
X68650000Y-100050000D02*
G01*
X68250000Y-100050000D01*
X68250000Y-98650000D01*
X68650000Y-98650000D01*
X68650000Y-100050000D01*
G37*
G36*
X69150000Y-100050000D02*
G01*
X68750000Y-100050000D01*
X68750000Y-98650000D01*
X69150000Y-98650000D01*
X69150000Y-100050000D01*
G37*
G36*
X69650000Y-100050000D02*
G01*
X69250000Y-100050000D01*
X69250000Y-98650000D01*
X69650000Y-98650000D01*
X69650000Y-100050000D01*
G37*
G36*
X70150000Y-100050000D02*
G01*
X69750000Y-100050000D01*
X69750000Y-98650000D01*
X70150000Y-98650000D01*
X70150000Y-100050000D01*
G37*
%TD*%
D11*
%TO.C,barreljack1*%
X64450000Y-54200000D03*
D12*
X64450000Y-58700000D03*
D13*
X58950000Y-54200000D03*
X58950000Y-60400000D03*
X69950000Y-54200000D03*
X69950000Y-60400000D03*
%TD*%
D14*
%TO.C,WIFI_PROV*%
X99568000Y-92964000D03*
X94488000Y-92964000D03*
%TD*%
D15*
%TO.C,R7*%
X60675000Y-89241428D03*
X62675000Y-89241428D03*
%TD*%
D16*
%TO.C,R5*%
X62800000Y-77295000D03*
X62800000Y-75295000D03*
%TD*%
D15*
%TO.C,R9*%
X89650000Y-91350000D03*
X91650000Y-91350000D03*
%TD*%
D17*
%TO.C,C2*%
X68250000Y-74168000D03*
X70150000Y-74168000D03*
%TD*%
D18*
%TO.C,C11*%
X70084000Y-82296000D03*
X68184000Y-82296000D03*
%TD*%
D19*
%TO.C,R8*%
X91600000Y-87150000D03*
X89600000Y-87150000D03*
%TD*%
D14*
%TO.C,IO0*%
X90700000Y-94185000D03*
X90700000Y-99265000D03*
%TD*%
D20*
%TO.C,J2*%
X71600000Y-97650000D03*
D21*
X56800000Y-97650000D03*
%TD*%
D22*
%TO.C,C10*%
X69200000Y-79756000D03*
X69200000Y-77856000D03*
%TD*%
D15*
%TO.C,R10*%
X95650000Y-97900000D03*
X97650000Y-97900000D03*
%TD*%
D23*
%TO.C,C6*%
X56400000Y-79822000D03*
X56400000Y-81722000D03*
%TD*%
D16*
%TO.C,R1*%
X98044000Y-73660000D03*
X98044000Y-71660000D03*
%TD*%
D14*
%TO.C,WIFI_RST  *%
X83825000Y-94410000D03*
X83825000Y-99490000D03*
%TD*%
D24*
%TO.C,WLAN*%
X89916000Y-67056000D03*
X89916000Y-68806000D03*
%TD*%
D23*
%TO.C,C5*%
X55372000Y-63632000D03*
X55372000Y-65532000D03*
%TD*%
%TO.C,C13*%
X79550000Y-90100000D03*
X79550000Y-92000000D03*
%TD*%
D18*
%TO.C,C12*%
X70150000Y-85852000D03*
X68250000Y-85852000D03*
%TD*%
D25*
%TO.C,U3*%
X58688000Y-68580000D03*
X56388000Y-68580000D03*
X54088000Y-68580000D03*
D26*
X56388000Y-74610000D03*
%TD*%
D16*
%TO.C,R2*%
X93980000Y-73660000D03*
X93980000Y-71660000D03*
%TD*%
D22*
%TO.C,C17*%
X83800000Y-72575000D03*
X83800000Y-70675000D03*
%TD*%
D27*
%TO.C,Y1*%
X73706000Y-70612000D03*
X78006000Y-70612000D03*
%TD*%
D22*
%TO.C,C3*%
X73706000Y-67056000D03*
X73706000Y-65156000D03*
%TD*%
D24*
%TO.C,D4*%
X62790000Y-71275000D03*
X62790000Y-73025000D03*
%TD*%
D23*
%TO.C,C7*%
X86400000Y-91350000D03*
X86400000Y-93250000D03*
%TD*%
D17*
%TO.C,C15*%
X87600000Y-78950000D03*
X89500000Y-78950000D03*
%TD*%
D28*
%TO.C,R4*%
X65700000Y-70550000D03*
X65700000Y-72550000D03*
%TD*%
D23*
%TO.C,C14*%
X75475000Y-91425000D03*
X75475000Y-93325000D03*
%TD*%
D22*
%TO.C,C16*%
X81392000Y-72578000D03*
X81392000Y-70678000D03*
%TD*%
D23*
%TO.C,C1*%
X65700000Y-75200000D03*
X65700000Y-77100000D03*
%TD*%
D29*
%TO.C,J3*%
X76708000Y-54356000D03*
D30*
X79248000Y-54356000D03*
X76708000Y-56896000D03*
X79248000Y-56896000D03*
X76708000Y-59436000D03*
X79248000Y-59436000D03*
%TD*%
D15*
%TO.C,R6*%
X56425000Y-89300000D03*
X58425000Y-89300000D03*
%TD*%
D29*
%TO.C,J4*%
X93472000Y-54356000D03*
D30*
X93472000Y-56896000D03*
X90932000Y-54356000D03*
X90932000Y-56896000D03*
X88392000Y-54356000D03*
X88392000Y-56896000D03*
%TD*%
D24*
%TO.C,WEB*%
X93980000Y-67056000D03*
X93980000Y-68806000D03*
%TD*%
D31*
%TO.C,U1*%
X72988000Y-77448000D03*
X72988000Y-77948000D03*
X72988000Y-78448000D03*
X72988000Y-78948000D03*
X72988000Y-79448000D03*
X72988000Y-79948000D03*
X72988000Y-80448000D03*
X72988000Y-80948000D03*
X72988000Y-81448000D03*
X72988000Y-81948000D03*
X72988000Y-82448000D03*
X72988000Y-82948000D03*
X72988000Y-83448000D03*
X72988000Y-83948000D03*
X72988000Y-84448000D03*
X72988000Y-84948000D03*
D32*
X74908000Y-86868000D03*
X75408000Y-86868000D03*
X75908000Y-86868000D03*
X76408000Y-86868000D03*
X76908000Y-86868000D03*
X77408000Y-86868000D03*
X77908000Y-86868000D03*
X78408000Y-86868000D03*
X78908000Y-86868000D03*
X79408000Y-86868000D03*
X79908000Y-86868000D03*
X80408000Y-86868000D03*
X80908000Y-86868000D03*
X81408000Y-86868000D03*
X81908000Y-86868000D03*
X82408000Y-86868000D03*
D31*
X84328000Y-84948000D03*
X84328000Y-84448000D03*
X84328000Y-83948000D03*
X84328000Y-83448000D03*
X84328000Y-82948000D03*
X84328000Y-82448000D03*
X84328000Y-81948000D03*
X84328000Y-81448000D03*
X84328000Y-80948000D03*
X84328000Y-80448000D03*
X84328000Y-79948000D03*
X84328000Y-79448000D03*
X84328000Y-78948000D03*
X84328000Y-78448000D03*
X84328000Y-77948000D03*
X84328000Y-77448000D03*
D32*
X82408000Y-75528000D03*
X81908000Y-75528000D03*
X81408000Y-75528000D03*
X80908000Y-75528000D03*
X80408000Y-75528000D03*
X79908000Y-75528000D03*
X79408000Y-75528000D03*
X78908000Y-75528000D03*
X78408000Y-75528000D03*
X77908000Y-75528000D03*
X77408000Y-75528000D03*
X76908000Y-75528000D03*
X76408000Y-75528000D03*
X75908000Y-75528000D03*
X75408000Y-75528000D03*
X74908000Y-75528000D03*
%TD*%
D24*
%TO.C,AP*%
X98044000Y-67056000D03*
X98044000Y-68806000D03*
%TD*%
D14*
%TO.C,MCU_RST*%
X94488000Y-85852000D03*
X99568000Y-85852000D03*
%TD*%
D16*
%TO.C,R3*%
X89916000Y-73660000D03*
X89916000Y-71660000D03*
%TD*%
D33*
%TO.C,L1*%
X70150000Y-70550000D03*
X68025000Y-70550000D03*
%TD*%
D22*
%TO.C,C4*%
X78000000Y-67056000D03*
X78000000Y-65156000D03*
%TD*%
M02*
